<svg width="261" height="972" viewBox="0 0 261 972" fill="none" xmlns="http://www.w3.org/2000/svg">
<rect x="0.335938" y="75.5088" width="174" height="237" transform="rotate(-25.7191 0.335938 75.5088)" fill="#1B1B1B"/>
<path d="M12.3359 100L0.335938 75.5L23.3359 64.5" stroke="white" stroke-width="0.5"/>
<path d="M248.336 189L260.336 213.5L237.336 224.5" stroke="white" stroke-width="0.5"/>
<g filter="url(#filter0_dd_287_3470)">
<path d="M69.9748 130.94H76.1548C77.4748 130.94 78.4882 131.18 79.1948 131.66C79.9148 132.14 80.2748 132.847 80.2748 133.78C80.2748 134.82 79.8748 135.693 79.0748 136.4C78.2748 137.093 77.2415 137.48 75.9748 137.56L75.9548 137.62C77.0215 137.673 77.8548 137.98 78.4548 138.54C79.0682 139.1 79.3748 139.827 79.3748 140.72C79.3748 142.04 78.8215 143.087 77.7148 143.86C76.6215 144.62 75.2082 145 73.4748 145H67.0548V144.96L68.8148 143.88C68.9882 143.773 69.1015 143.62 69.1548 143.42L71.4148 132.52C71.4682 132.32 71.4215 132.167 71.2748 132.06L69.9748 130.98V130.94ZM74.0348 137.88H72.8748L71.5748 144.14C71.5215 144.353 71.5282 144.487 71.5948 144.54C71.6615 144.593 71.8348 144.62 72.1148 144.62H72.6348C73.9015 144.62 74.8815 144.213 75.5748 143.4C76.2682 142.587 76.6148 141.56 76.6148 140.32C76.6148 138.693 75.7548 137.88 74.0348 137.88ZM74.1548 131.78L72.9548 137.52H74.0748C75.0615 137.52 75.8882 137.153 76.5548 136.42C77.2215 135.687 77.5548 134.713 77.5548 133.5C77.5548 132.793 77.3682 132.253 76.9948 131.88C76.6215 131.507 76.1015 131.32 75.4348 131.32H74.6348C74.4882 131.32 74.3815 131.353 74.3148 131.42C74.2482 131.473 74.1948 131.593 74.1548 131.78ZM89.5744 143C89.8677 142.507 90.1344 141.827 90.3744 140.96H90.4144C90.2277 142.16 89.8477 143.16 89.2744 143.96C88.701 144.76 88.021 145.16 87.2344 145.16C86.8077 145.16 86.4677 145.027 86.2144 144.76C85.961 144.493 85.8344 144.1 85.8344 143.58C85.8344 143.14 85.961 142.387 86.2144 141.32H86.1744C85.2944 143.88 84.181 145.16 82.8344 145.16C82.221 145.16 81.7077 144.9 81.2944 144.38C80.8944 143.847 80.6944 143.087 80.6944 142.1C80.6944 140.953 80.921 139.84 81.3744 138.76C81.841 137.667 82.4677 136.773 83.2544 136.08C84.0544 135.387 84.8877 135.04 85.7544 135.04C86.6344 135.04 87.241 135.38 87.5744 136.06L90.0744 135.04H90.1144C89.981 135.613 89.3544 137.987 88.2344 142.16C88.1277 142.627 88.0744 142.98 88.0744 143.22C88.0744 143.633 88.2277 143.84 88.5344 143.84C88.8944 143.84 89.241 143.56 89.5744 143ZM87.4744 136.2C87.3144 135.893 87.001 135.74 86.5344 135.74C85.8144 135.74 85.1477 136.213 84.5344 137.16C84.1344 137.813 83.801 138.613 83.5344 139.56C83.281 140.507 83.1544 141.4 83.1544 142.24C83.1544 143.293 83.4277 143.82 83.9744 143.82C84.521 143.82 85.061 143.273 85.5944 142.18C86.141 141.02 86.7677 139.027 87.4744 136.2ZM97.5436 142.02C97.5436 142.793 97.2036 143.513 96.5236 144.18C95.8569 144.833 94.9036 145.16 93.6636 145.16C92.5569 145.16 91.5436 144.92 90.6236 144.44L91.8236 141.12H91.8636L92.8436 144.54C92.8836 144.713 92.9903 144.813 93.1636 144.84C93.2836 144.867 93.4636 144.88 93.7036 144.88C94.3036 144.88 94.7636 144.713 95.0836 144.38C95.4036 144.047 95.5636 143.633 95.5636 143.14C95.5636 142.78 95.4369 142.46 95.1836 142.18C94.9436 141.887 94.4769 141.453 93.7836 140.88C93.1436 140.36 92.6703 139.887 92.3636 139.46C92.0703 139.02 91.9236 138.527 91.9236 137.98C91.9236 137.167 92.2503 136.473 92.9036 135.9C93.5569 135.327 94.4303 135.04 95.5236 135.04C96.4569 135.04 97.3836 135.207 98.3036 135.54L97.1836 138.78H97.1436L96.1236 135.58C96.0703 135.407 95.9636 135.32 95.8036 135.32H95.6036C95.0436 135.32 94.6036 135.467 94.2836 135.76C93.9769 136.053 93.8236 136.433 93.8236 136.9C93.8236 137.273 93.9703 137.647 94.2636 138.02C94.5703 138.38 95.0369 138.8 95.6636 139.28C96.3036 139.76 96.7769 140.207 97.0836 140.62C97.3903 141.02 97.5436 141.487 97.5436 142.02ZM103.618 135.04L101.818 141.8C101.618 142.573 101.518 143.06 101.518 143.26C101.518 143.62 101.664 143.8 101.958 143.8C102.278 143.8 102.578 143.607 102.858 143.22C103.244 142.687 103.544 141.933 103.758 140.96H103.798C103.678 142.04 103.311 143.013 102.698 143.88C102.098 144.733 101.391 145.16 100.578 145.16C100.138 145.16 99.7908 145.027 99.5375 144.76C99.2842 144.48 99.1575 144.107 99.1575 143.64C99.1575 143.24 99.2375 142.707 99.3975 142.04L100.878 136.46C100.944 136.22 100.878 136.067 100.678 136L99.1775 135.4V135.36L103.618 135.04ZM103.058 131.16C103.431 131.16 103.738 131.273 103.978 131.5C104.218 131.727 104.338 132.02 104.338 132.38C104.338 132.793 104.184 133.14 103.878 133.42C103.584 133.7 103.224 133.84 102.798 133.84C102.424 133.84 102.118 133.733 101.878 133.52C101.638 133.293 101.518 133 101.518 132.64C101.518 132.227 101.664 131.88 101.958 131.6C102.264 131.307 102.631 131.16 103.058 131.16ZM107.881 145.16C106.907 145.16 106.107 144.827 105.481 144.16C104.867 143.493 104.561 142.567 104.561 141.38C104.561 139.713 105.107 138.24 106.201 136.96C107.294 135.68 108.661 135.04 110.301 135.04C111.194 135.04 112.001 135.187 112.721 135.48L111.321 139.04H111.281L110.461 135.68C110.421 135.533 110.381 135.447 110.341 135.42C110.314 135.38 110.247 135.36 110.141 135.36C109.581 135.36 109.061 135.687 108.581 136.34C108.101 136.993 107.734 137.753 107.481 138.62C107.227 139.487 107.101 140.307 107.101 141.08C107.101 141.933 107.267 142.573 107.601 143C107.947 143.413 108.387 143.62 108.921 143.62C109.521 143.62 110.087 143.373 110.621 142.88C111.154 142.387 111.574 141.653 111.881 140.68H111.921C111.667 142.187 111.181 143.313 110.461 144.06C109.741 144.793 108.881 145.16 107.881 145.16ZM122.186 138.44H121.326L120.306 143.3C120.24 143.593 120.273 143.793 120.406 143.9L121.586 144.96V145H115.746V144.96L117.466 143.82C117.506 143.793 117.54 143.767 117.566 143.74C117.593 143.713 117.613 143.68 117.626 143.64C117.64 143.6 117.646 143.567 117.646 143.54C117.66 143.513 117.673 143.467 117.686 143.4C117.7 143.32 117.713 143.26 117.726 143.22L119.946 132.64C120.013 132.347 119.98 132.147 119.846 132.04L118.666 130.98V130.94H125.146C126.333 130.94 127.286 131.227 128.006 131.8C128.726 132.36 129.086 133.113 129.086 134.06C129.086 135.273 128.626 136.273 127.706 137.06C126.786 137.833 125.646 138.253 124.286 138.32L124.266 138.36L125.526 139.06L126.986 143.38C127.053 143.567 127.246 143.833 127.566 144.18L128.326 144.96V145H124.806L122.646 138.72C122.58 138.533 122.426 138.44 122.186 138.44ZM122.706 131.82L121.406 138.08H122.966C123.9 138.08 124.693 137.68 125.346 136.88C126 136.067 126.326 135.053 126.326 133.84C126.326 132.133 125.64 131.28 124.266 131.28H123.266C123.08 131.28 122.946 131.32 122.866 131.4C122.8 131.48 122.746 131.62 122.706 131.82ZM133.534 143.66C134.201 143.66 134.828 143.407 135.414 142.9C136.014 142.38 136.454 141.633 136.734 140.66H136.774C136.641 141.473 136.421 142.187 136.114 142.8C135.808 143.4 135.454 143.867 135.054 144.2C134.654 144.533 134.234 144.78 133.794 144.94C133.368 145.087 132.921 145.16 132.454 145.16C131.441 145.16 130.608 144.82 129.954 144.14C129.314 143.447 128.994 142.5 128.994 141.3C128.994 139.687 129.548 138.24 130.654 136.96C131.774 135.68 133.114 135.04 134.674 135.04C135.461 135.04 136.101 135.227 136.594 135.6C137.088 135.973 137.334 136.46 137.334 137.06C137.334 138.073 136.741 138.9 135.554 139.54C134.368 140.167 133.048 140.42 131.594 140.3C131.554 140.553 131.534 140.82 131.534 141.1C131.534 141.913 131.701 142.547 132.034 143C132.381 143.44 132.881 143.66 133.534 143.66ZM134.514 135.36C133.901 135.36 133.308 135.86 132.734 136.86C132.161 137.86 131.788 138.947 131.614 140.12C132.681 140.12 133.541 139.787 134.194 139.12C134.861 138.453 135.194 137.613 135.194 136.6C135.194 135.773 134.968 135.36 134.514 135.36ZM144.34 142.02C144.34 142.793 144 143.513 143.32 144.18C142.654 144.833 141.7 145.16 140.46 145.16C139.354 145.16 138.34 144.92 137.42 144.44L138.62 141.12H138.66L139.64 144.54C139.68 144.713 139.787 144.813 139.96 144.84C140.08 144.867 140.26 144.88 140.5 144.88C141.1 144.88 141.56 144.713 141.88 144.38C142.2 144.047 142.36 143.633 142.36 143.14C142.36 142.78 142.234 142.46 141.98 142.18C141.74 141.887 141.274 141.453 140.58 140.88C139.94 140.36 139.467 139.887 139.16 139.46C138.867 139.02 138.72 138.527 138.72 137.98C138.72 137.167 139.047 136.473 139.7 135.9C140.354 135.327 141.227 135.04 142.32 135.04C143.254 135.04 144.18 135.207 145.1 135.54L143.98 138.78H143.94L142.92 135.58C142.867 135.407 142.76 135.32 142.6 135.32H142.4C141.84 135.32 141.4 135.467 141.08 135.76C140.774 136.053 140.62 136.433 140.62 136.9C140.62 137.273 140.767 137.647 141.06 138.02C141.367 138.38 141.834 138.8 142.46 139.28C143.1 139.76 143.574 140.207 143.88 140.62C144.187 141.02 144.34 141.487 144.34 142.02ZM150.194 143.66C150.861 143.66 151.488 143.407 152.074 142.9C152.674 142.38 153.114 141.633 153.394 140.66H153.434C153.301 141.473 153.081 142.187 152.774 142.8C152.468 143.4 152.114 143.867 151.714 144.2C151.314 144.533 150.894 144.78 150.454 144.94C150.028 145.087 149.581 145.16 149.114 145.16C148.101 145.16 147.268 144.82 146.614 144.14C145.974 143.447 145.654 142.5 145.654 141.3C145.654 139.687 146.208 138.24 147.314 136.96C148.434 135.68 149.774 135.04 151.334 135.04C152.121 135.04 152.761 135.227 153.254 135.6C153.748 135.973 153.994 136.46 153.994 137.06C153.994 138.073 153.401 138.9 152.214 139.54C151.028 140.167 149.708 140.42 148.254 140.3C148.214 140.553 148.194 140.82 148.194 141.1C148.194 141.913 148.361 142.547 148.694 143C149.041 143.44 149.541 143.66 150.194 143.66ZM151.174 135.36C150.561 135.36 149.968 135.86 149.394 136.86C148.821 137.86 148.448 138.947 148.274 140.12C149.341 140.12 150.201 139.787 150.854 139.12C151.521 138.453 151.854 137.613 151.854 136.6C151.854 135.773 151.628 135.36 151.174 135.36ZM163.403 143C163.696 142.507 163.963 141.827 164.203 140.96H164.243C164.056 142.16 163.676 143.16 163.103 143.96C162.529 144.76 161.849 145.16 161.063 145.16C160.636 145.16 160.296 145.027 160.043 144.76C159.789 144.493 159.663 144.1 159.663 143.58C159.663 143.14 159.789 142.387 160.043 141.32H160.003C159.123 143.88 158.009 145.16 156.663 145.16C156.049 145.16 155.536 144.9 155.123 144.38C154.723 143.847 154.523 143.087 154.523 142.1C154.523 140.953 154.749 139.84 155.203 138.76C155.669 137.667 156.296 136.773 157.083 136.08C157.883 135.387 158.716 135.04 159.583 135.04C160.463 135.04 161.069 135.38 161.403 136.06L163.903 135.04H163.943C163.809 135.613 163.183 137.987 162.063 142.16C161.956 142.627 161.903 142.98 161.903 143.22C161.903 143.633 162.056 143.84 162.363 143.84C162.723 143.84 163.069 143.56 163.403 143ZM161.303 136.2C161.143 135.893 160.829 135.74 160.363 135.74C159.643 135.74 158.976 136.213 158.363 137.16C157.963 137.813 157.629 138.613 157.363 139.56C157.109 140.507 156.983 141.4 156.983 142.24C156.983 143.293 157.256 143.82 157.803 143.82C158.349 143.82 158.889 143.273 159.423 142.18C159.969 141.02 160.596 139.027 161.303 136.2ZM173.072 135.3L171.652 139.16H171.612L170.852 136.68C170.812 136.56 170.752 136.5 170.672 136.5C170.552 136.5 170.412 136.58 170.252 136.74C169.972 137.02 169.672 137.487 169.352 138.14C169.058 138.713 168.778 139.44 168.512 140.32C168.245 141.2 167.865 142.76 167.372 145H165.072L166.912 136.54C166.952 136.34 166.958 136.213 166.932 136.16C166.918 136.107 166.838 136.047 166.692 135.98L165.212 135.4V135.36L169.632 135.04L168.692 139.02H168.732C169.238 137.66 169.745 136.66 170.252 136.02C170.772 135.367 171.378 135.04 172.072 135.04C172.472 135.04 172.805 135.127 173.072 135.3ZM175.928 145.16C174.954 145.16 174.154 144.827 173.528 144.16C172.914 143.493 172.608 142.567 172.608 141.38C172.608 139.713 173.154 138.24 174.248 136.96C175.341 135.68 176.708 135.04 178.348 135.04C179.241 135.04 180.048 135.187 180.768 135.48L179.368 139.04H179.328L178.508 135.68C178.468 135.533 178.428 135.447 178.388 135.42C178.361 135.38 178.294 135.36 178.188 135.36C177.628 135.36 177.108 135.687 176.628 136.34C176.148 136.993 175.781 137.753 175.528 138.62C175.274 139.487 175.148 140.307 175.148 141.08C175.148 141.933 175.314 142.573 175.648 143C175.994 143.413 176.434 143.62 176.968 143.62C177.568 143.62 178.134 143.373 178.668 142.88C179.201 142.387 179.621 141.653 179.928 140.68H179.968C179.714 142.187 179.228 143.313 178.508 144.06C177.788 144.793 176.928 145.16 175.928 145.16ZM190.126 136.7C190.126 137.18 189.96 137.953 189.626 139.02L188.726 141.86C188.526 142.487 188.426 142.953 188.426 143.26C188.426 143.62 188.58 143.8 188.886 143.8C189.206 143.8 189.506 143.6 189.786 143.2C190.133 142.733 190.433 141.987 190.686 140.96H190.726C190.566 142.253 190.166 143.28 189.526 144.04C188.9 144.787 188.2 145.16 187.426 145.16C186.973 145.16 186.613 145.033 186.346 144.78C186.08 144.513 185.946 144.147 185.946 143.68C185.946 143.227 186.106 142.507 186.426 141.52L187.406 138.52C187.646 137.773 187.766 137.253 187.766 136.96C187.766 136.56 187.573 136.36 187.186 136.36C186.426 136.36 185.713 136.927 185.046 138.06C184.393 139.22 183.666 141.533 182.866 145H180.566L183.586 132.02C183.626 131.847 183.633 131.74 183.606 131.7C183.593 131.647 183.526 131.6 183.406 131.56L181.886 130.96V130.92L186.286 130.52L184.226 139.24H184.266C184.76 137.92 185.38 136.893 186.126 136.16C186.873 135.413 187.646 135.04 188.446 135.04C188.966 135.04 189.373 135.193 189.666 135.5C189.973 135.793 190.126 136.193 190.126 136.7Z" fill="white"/>
</g>
<path d="M129.982 331.383C130.178 331.579 130.494 331.579 130.689 331.383L133.871 328.201C134.067 328.006 134.067 327.69 133.871 327.494C133.676 327.299 133.36 327.299 133.164 327.494L130.336 330.323L127.508 327.494C127.312 327.299 126.996 327.299 126.8 327.494C126.605 327.69 126.605 328.006 126.8 328.201L129.982 331.383ZM130.336 299.03H129.836V331.03H130.336H130.836V299.03H130.336Z" fill="white"/>
<rect x="0.335938" y="416.539" width="174" height="237" transform="rotate(-25.7191 0.335938 416.539)" fill="#1B1B1B"/>
<path d="M12.3359 441.03L0.335938 416.53L23.3359 405.53" stroke="white" stroke-width="0.5"/>
<path d="M248.336 530.03L260.336 554.53L237.336 565.53" stroke="white" stroke-width="0.5"/>
<g filter="url(#filter1_dd_287_3470)">
<path d="M75.9534 471.97H86.1934L85.2534 476.53H85.2134L83.9534 472.71C83.9 472.55 83.84 472.45 83.7734 472.41C83.7067 472.37 83.5867 472.35 83.4134 472.35H80.6334C80.46 472.35 80.3467 472.376 80.2934 472.43C80.24 472.483 80.1934 472.603 80.1534 472.79L78.9134 478.73H80.8334C81.0467 478.716 81.2734 478.59 81.5134 478.35L83.3934 476.47H83.4334L82.4134 481.35H82.3734L81.2934 479.45C81.2 479.303 81.12 479.21 81.0534 479.17C80.9867 479.116 80.8867 479.09 80.7534 479.09H78.8334L77.7334 484.35C77.68 484.55 77.7334 484.696 77.8934 484.79L79.7934 485.99V486.03H73.0334V485.99L74.7934 484.91C74.9667 484.79 75.08 484.636 75.1334 484.45L77.3934 473.55C77.4334 473.363 77.3867 473.21 77.2534 473.09L75.9534 472.01V471.97ZM88.6438 485.17C88.0305 485.85 87.3905 486.19 86.7238 486.19C86.2705 486.19 85.9172 486.05 85.6638 485.77C85.4105 485.476 85.2838 485.103 85.2838 484.65C85.2838 484.276 85.3638 483.743 85.5238 483.05L87.8238 473.05C87.8638 472.89 87.8705 472.783 87.8438 472.73C87.8172 472.676 87.7505 472.63 87.6438 472.59L86.1438 471.99V471.95L90.5238 471.55L87.9038 482.87C87.7438 483.536 87.6638 483.996 87.6638 484.25C87.6638 484.636 87.8172 484.83 88.1238 484.83C88.4305 484.83 88.7238 484.636 89.0038 484.25C89.3905 483.73 89.6905 482.976 89.9038 481.99H89.9438C89.7972 483.31 89.3638 484.37 88.6438 485.17ZM94.0182 486.21C93.0315 486.21 92.2115 485.903 91.5582 485.29C90.9182 484.676 90.5982 483.73 90.5982 482.45C90.5982 480.756 91.1315 479.27 92.1982 477.99C93.2649 476.71 94.5515 476.07 96.0582 476.07C97.0449 476.07 97.8649 476.383 98.5182 477.01C99.1715 477.623 99.4982 478.563 99.4982 479.83C99.4982 481.536 98.9582 483.03 97.8782 484.31C96.8115 485.576 95.5249 486.21 94.0182 486.21ZM94.0782 485.91C94.5849 485.91 95.0715 485.496 95.5382 484.67C96.0049 483.83 96.3649 482.836 96.6182 481.69C96.8849 480.543 97.0182 479.456 97.0182 478.43C97.0182 477.056 96.6915 476.37 96.0382 476.37C95.5315 476.37 95.0449 476.79 94.5782 477.63C94.1115 478.456 93.7449 479.443 93.4782 480.59C93.2249 481.736 93.0982 482.823 93.0982 483.85C93.0982 485.223 93.4249 485.91 94.0782 485.91ZM112.123 479.91C112.123 478.936 111.923 478.136 111.523 477.51C111.497 477.456 111.43 477.356 111.323 477.21C111.23 477.05 111.177 476.963 111.163 476.95V476.91L113.763 476.07C113.737 477.456 113.463 478.923 112.943 480.47C112.423 482.016 111.69 483.356 110.743 484.49C109.81 485.623 108.83 486.19 107.803 486.19C107.31 486.19 106.903 486.036 106.583 485.73C106.263 485.41 106.103 484.923 106.103 484.27C106.103 483.843 106.183 483.336 106.343 482.75H106.303C105.57 485.043 104.443 486.19 102.923 486.19C102.257 486.19 101.757 485.996 101.423 485.61C101.103 485.21 100.943 484.71 100.943 484.11C100.943 483.59 101.09 482.823 101.383 481.81L102.043 479.49C102.243 478.81 102.343 478.316 102.343 478.01C102.343 477.636 102.197 477.45 101.903 477.45C101.357 477.45 100.743 478.21 100.063 479.73H100.023C100.783 477.29 101.883 476.07 103.323 476.07C104.297 476.07 104.783 476.603 104.783 477.67C104.783 478.176 104.603 479.003 104.243 480.15L103.563 482.33C103.363 482.983 103.263 483.51 103.263 483.91C103.263 484.256 103.337 484.53 103.483 484.73C103.643 484.916 103.85 485.01 104.103 485.01C104.89 485.01 105.577 484.17 106.163 482.49C106.723 480.903 107.143 478.876 107.423 476.41L109.783 476.07C109.703 476.67 109.603 477.303 109.483 477.97C109.363 478.636 109.257 479.156 109.163 479.53C109.083 479.903 108.95 480.456 108.763 481.19C108.59 481.91 108.483 482.35 108.443 482.51C108.31 483.123 108.243 483.543 108.243 483.77C108.243 484.596 108.563 485.01 109.203 485.01C109.883 485.01 110.537 484.47 111.163 483.39C111.803 482.296 112.123 481.136 112.123 479.91ZM123.482 486.23C121.816 486.23 120.522 485.723 119.602 484.71C118.696 483.683 118.242 482.356 118.242 480.73C118.242 479.13 118.569 477.65 119.222 476.29C119.876 474.93 120.809 473.836 122.022 473.01C123.236 472.183 124.596 471.77 126.102 471.77C127.569 471.77 128.889 471.923 130.062 472.23L129.082 476.81H129.042L127.462 472.53C127.409 472.37 127.349 472.27 127.282 472.23C127.229 472.19 127.136 472.156 127.002 472.13C126.816 472.103 126.616 472.09 126.402 472.09C125.362 472.09 124.422 472.59 123.582 473.59C122.742 474.59 122.109 475.816 121.682 477.27C121.269 478.723 121.062 480.21 121.062 481.73C121.062 482.956 121.276 483.963 121.702 484.75C122.142 485.523 122.809 485.91 123.702 485.91C123.942 485.91 124.129 485.903 124.262 485.89C124.529 485.863 124.729 485.756 124.862 485.57L128.162 481.19H128.202L127.282 485.79C125.989 486.083 124.722 486.23 123.482 486.23ZM133.077 485.17C132.464 485.85 131.824 486.19 131.157 486.19C130.704 486.19 130.351 486.05 130.097 485.77C129.844 485.476 129.717 485.103 129.717 484.65C129.717 484.276 129.797 483.743 129.957 483.05L132.257 473.05C132.297 472.89 132.304 472.783 132.277 472.73C132.251 472.676 132.184 472.63 132.077 472.59L130.577 471.99V471.95L134.957 471.55L132.337 482.87C132.177 483.536 132.097 483.996 132.097 484.25C132.097 484.636 132.251 484.83 132.557 484.83C132.864 484.83 133.157 484.636 133.437 484.25C133.824 483.73 134.124 482.976 134.337 481.99H134.377C134.231 483.31 133.797 484.37 133.077 485.17ZM139.552 484.69C140.218 484.69 140.845 484.436 141.432 483.93C142.032 483.41 142.472 482.663 142.752 481.69H142.792C142.658 482.503 142.438 483.216 142.132 483.83C141.825 484.43 141.472 484.896 141.072 485.23C140.672 485.563 140.252 485.81 139.812 485.97C139.385 486.116 138.938 486.19 138.472 486.19C137.458 486.19 136.625 485.85 135.972 485.17C135.332 484.476 135.012 483.53 135.012 482.33C135.012 480.716 135.565 479.27 136.672 477.99C137.792 476.71 139.132 476.07 140.692 476.07C141.478 476.07 142.118 476.256 142.612 476.63C143.105 477.003 143.352 477.49 143.352 478.09C143.352 479.103 142.758 479.93 141.572 480.57C140.385 481.196 139.065 481.45 137.612 481.33C137.572 481.583 137.552 481.85 137.552 482.13C137.552 482.943 137.718 483.576 138.052 484.03C138.398 484.47 138.898 484.69 139.552 484.69ZM140.532 476.39C139.918 476.39 139.325 476.89 138.752 477.89C138.178 478.89 137.805 479.976 137.632 481.15C138.698 481.15 139.558 480.816 140.212 480.15C140.878 479.483 141.212 478.643 141.212 477.63C141.212 476.803 140.985 476.39 140.532 476.39ZM152.76 484.03C153.053 483.536 153.32 482.856 153.56 481.99H153.6C153.413 483.19 153.033 484.19 152.46 484.99C151.887 485.79 151.207 486.19 150.42 486.19C149.993 486.19 149.653 486.056 149.4 485.79C149.147 485.523 149.02 485.13 149.02 484.61C149.02 484.17 149.147 483.416 149.4 482.35H149.36C148.48 484.91 147.367 486.19 146.02 486.19C145.407 486.19 144.893 485.93 144.48 485.41C144.08 484.876 143.88 484.116 143.88 483.13C143.88 481.983 144.107 480.87 144.56 479.79C145.027 478.696 145.653 477.803 146.44 477.11C147.24 476.416 148.073 476.07 148.94 476.07C149.82 476.07 150.427 476.41 150.76 477.09L153.26 476.07H153.3C153.167 476.643 152.54 479.016 151.42 483.19C151.313 483.656 151.26 484.01 151.26 484.25C151.26 484.663 151.413 484.87 151.72 484.87C152.08 484.87 152.427 484.59 152.76 484.03ZM150.66 477.23C150.5 476.923 150.187 476.77 149.72 476.77C149 476.77 148.333 477.243 147.72 478.19C147.32 478.843 146.987 479.643 146.72 480.59C146.467 481.536 146.34 482.43 146.34 483.27C146.34 484.323 146.613 484.85 147.16 484.85C147.707 484.85 148.247 484.303 148.78 483.21C149.327 482.05 149.953 480.056 150.66 477.23ZM161.249 486.19C160.796 486.19 160.436 486.063 160.169 485.81C159.902 485.543 159.769 485.176 159.769 484.71C159.769 484.256 159.929 483.536 160.249 482.55L161.209 479.55C161.449 478.803 161.569 478.276 161.569 477.97C161.569 477.583 161.369 477.39 160.969 477.39C160.276 477.39 159.609 477.896 158.969 478.91C158.236 480.056 157.462 482.43 156.649 486.03H154.329L156.309 477.55C156.336 477.416 156.349 477.323 156.349 477.27C156.349 477.203 156.336 477.156 156.309 477.13C156.282 477.09 156.222 477.05 156.129 477.01L154.629 476.43V476.39L159.049 476.07L158.029 480.23H158.069C158.549 478.95 159.162 477.936 159.909 477.19C160.669 476.443 161.456 476.07 162.269 476.07C162.789 476.07 163.196 476.223 163.489 476.53C163.796 476.823 163.949 477.223 163.949 477.73C163.949 478.17 163.776 478.943 163.429 480.05L162.549 482.89C162.349 483.516 162.249 483.983 162.249 484.29C162.249 484.65 162.396 484.83 162.689 484.83C163.009 484.83 163.309 484.63 163.589 484.23C163.989 483.656 164.289 482.91 164.489 481.99H164.529C164.369 483.27 163.976 484.29 163.349 485.05C162.722 485.81 162.022 486.19 161.249 486.19ZM174.167 485.41C173.647 485.93 173.074 486.19 172.447 486.19C171.994 486.19 171.64 486.056 171.387 485.79C171.134 485.523 171.007 485.136 171.007 484.63C171.007 483.91 171.16 483.036 171.467 482.01H171.427C170.947 483.29 170.334 484.31 169.587 485.07C168.854 485.816 168.107 486.19 167.347 486.19C166.84 486.19 166.434 486.036 166.127 485.73C165.82 485.423 165.667 485.023 165.667 484.53C165.667 484.05 165.84 483.276 166.187 482.21L167.067 479.37C167.267 478.743 167.367 478.276 167.367 477.97C167.367 477.596 167.22 477.41 166.927 477.41C166.62 477.41 166.314 477.61 166.007 478.01C165.647 478.516 165.354 479.25 165.127 480.21L165.087 480.19C165.274 478.923 165.674 477.923 166.287 477.19C166.914 476.443 167.607 476.07 168.367 476.07C168.82 476.07 169.18 476.203 169.447 476.47C169.714 476.723 169.847 477.076 169.847 477.53C169.847 477.983 169.687 478.703 169.367 479.69L168.407 482.71C168.167 483.456 168.047 483.983 168.047 484.29C168.047 484.69 168.26 484.89 168.687 484.89C169.234 484.89 169.847 484.37 170.527 483.33C170.874 482.783 171.214 482.01 171.547 481.01C171.894 480.01 172.327 478.443 172.847 476.31L175.187 476.17L173.427 483.31C173.334 483.67 173.287 484.003 173.287 484.31C173.287 484.67 173.44 484.85 173.747 484.85C174.094 484.85 174.407 484.636 174.687 484.21C175.034 483.73 175.327 482.99 175.567 481.99H175.607C175.394 483.523 174.914 484.663 174.167 485.41ZM180.363 486.19C179.603 486.19 179.043 485.99 178.683 485.59L177.823 489.21C177.783 489.356 177.769 489.45 177.783 489.49C177.809 489.543 177.883 489.596 178.003 489.65L180.163 490.55V490.59H174.063V490.55L175.103 489.83C175.303 489.683 175.429 489.496 175.483 489.27L178.243 477.53C178.283 477.343 178.289 477.23 178.263 477.19C178.249 477.136 178.183 477.083 178.063 477.03L176.563 476.43V476.39L180.983 476.07L179.963 480.17H180.003C180.976 477.436 182.129 476.07 183.463 476.07C184.076 476.07 184.583 476.316 184.983 476.81C185.383 477.303 185.583 478.01 185.583 478.93C185.583 480.97 185.043 482.69 183.963 484.09C182.896 485.49 181.696 486.19 180.363 486.19ZM178.743 485.33L178.723 485.43C178.963 485.563 179.229 485.63 179.523 485.63C180.389 485.63 181.163 485.05 181.843 483.89C182.669 482.463 183.096 480.763 183.123 478.79C183.123 477.856 182.869 477.39 182.363 477.39C181.843 477.39 181.276 477.99 180.663 479.19C180.129 480.203 179.489 482.25 178.743 485.33Z" fill="white"/>
</g>
<path d="M129.982 672.413C130.178 672.608 130.494 672.608 130.689 672.413L133.871 669.231C134.067 669.036 134.067 668.719 133.871 668.524C133.676 668.329 133.36 668.329 133.164 668.524L130.336 671.352L127.508 668.524C127.312 668.329 126.996 668.329 126.8 668.524C126.605 668.719 126.605 669.036 126.8 669.231L129.982 672.413ZM130.336 640.06H129.836V672.06H130.336H130.836V640.06H130.336Z" fill="white"/>
<rect x="0.335938" y="757.568" width="174" height="237" transform="rotate(-25.7191 0.335938 757.568)" fill="#1B1B1B"/>
<path d="M12.3359 782.06L0.335938 757.56L23.3359 746.56" stroke="white" stroke-width="0.5"/>
<path d="M248.336 871.06L260.336 895.56L237.336 906.56" stroke="white" stroke-width="0.5"/>
<g filter="url(#filter2_dd_287_3470)">
<path d="M100.46 815.72L94.4803 827.06H92.8403L91.3003 814.9C91.2603 814.606 91.1736 814.34 91.0403 814.1L90.4003 813.04V813H95.5403V813.04L94.0803 814.24C93.9203 814.36 93.8603 814.533 93.9003 814.76L95.1803 824.92L100.06 815.7C100.14 815.513 100.174 815.386 100.16 815.32C100.147 815.24 100.087 815.126 99.9803 814.98L98.6203 813.04V813H103.22V813.04L101.14 814.9C100.834 815.166 100.607 815.44 100.46 815.72ZM105.387 817.1L103.587 823.86C103.387 824.633 103.287 825.12 103.287 825.32C103.287 825.68 103.434 825.86 103.727 825.86C104.047 825.86 104.347 825.666 104.627 825.28C105.014 824.746 105.314 823.993 105.527 823.02H105.567C105.447 824.1 105.08 825.073 104.467 825.94C103.867 826.793 103.16 827.22 102.347 827.22C101.907 827.22 101.56 827.086 101.307 826.82C101.054 826.54 100.927 826.166 100.927 825.7C100.927 825.3 101.007 824.766 101.167 824.1L102.647 818.52C102.714 818.28 102.647 818.126 102.447 818.06L100.947 817.46V817.42L105.387 817.1ZM104.827 813.22C105.2 813.22 105.507 813.333 105.747 813.56C105.987 813.786 106.107 814.08 106.107 814.44C106.107 814.853 105.954 815.2 105.647 815.48C105.354 815.76 104.994 815.9 104.567 815.9C104.194 815.9 103.887 815.793 103.647 815.58C103.407 815.353 103.287 815.06 103.287 814.7C103.287 814.286 103.434 813.94 103.727 813.66C104.034 813.366 104.4 813.22 104.827 813.22ZM112.77 824.08C112.77 824.853 112.43 825.573 111.75 826.24C111.083 826.893 110.13 827.22 108.89 827.22C107.783 827.22 106.77 826.98 105.85 826.5L107.05 823.18H107.09L108.07 826.6C108.11 826.773 108.217 826.873 108.39 826.9C108.51 826.926 108.69 826.94 108.93 826.94C109.53 826.94 109.99 826.773 110.31 826.44C110.63 826.106 110.79 825.693 110.79 825.2C110.79 824.84 110.663 824.52 110.41 824.24C110.17 823.946 109.703 823.513 109.01 822.94C108.37 822.42 107.897 821.946 107.59 821.52C107.297 821.08 107.15 820.586 107.15 820.04C107.15 819.226 107.477 818.533 108.13 817.96C108.783 817.386 109.657 817.1 110.75 817.1C111.683 817.1 112.61 817.266 113.53 817.6L112.41 820.84H112.37L111.35 817.64C111.297 817.466 111.19 817.38 111.03 817.38H110.83C110.27 817.38 109.83 817.526 109.51 817.82C109.203 818.113 109.05 818.493 109.05 818.96C109.05 819.333 109.197 819.706 109.49 820.08C109.797 820.44 110.263 820.86 110.89 821.34C111.53 821.82 112.003 822.266 112.31 822.68C112.617 823.08 112.77 823.546 112.77 824.08ZM123.044 826.44C122.524 826.96 121.951 827.22 121.324 827.22C120.871 827.22 120.517 827.086 120.264 826.82C120.011 826.553 119.884 826.166 119.884 825.66C119.884 824.94 120.037 824.066 120.344 823.04H120.304C119.824 824.32 119.211 825.34 118.464 826.1C117.731 826.846 116.984 827.22 116.224 827.22C115.717 827.22 115.311 827.066 115.004 826.76C114.697 826.453 114.544 826.053 114.544 825.56C114.544 825.08 114.717 824.306 115.064 823.24L115.944 820.4C116.144 819.773 116.244 819.306 116.244 819C116.244 818.626 116.097 818.44 115.804 818.44C115.497 818.44 115.191 818.64 114.884 819.04C114.524 819.546 114.231 820.28 114.004 821.24L113.964 821.22C114.151 819.953 114.551 818.953 115.164 818.22C115.791 817.473 116.484 817.1 117.244 817.1C117.697 817.1 118.057 817.233 118.324 817.5C118.591 817.753 118.724 818.106 118.724 818.56C118.724 819.013 118.564 819.733 118.244 820.72L117.284 823.74C117.044 824.486 116.924 825.013 116.924 825.32C116.924 825.72 117.137 825.92 117.564 825.92C118.111 825.92 118.724 825.4 119.404 824.36C119.751 823.813 120.091 823.04 120.424 822.04C120.771 821.04 121.204 819.473 121.724 817.34L124.064 817.2L122.304 824.34C122.211 824.7 122.164 825.033 122.164 825.34C122.164 825.7 122.317 825.88 122.624 825.88C122.971 825.88 123.284 825.666 123.564 825.24C123.911 824.76 124.204 824.02 124.444 823.02H124.484C124.271 824.553 123.791 825.693 123.044 826.44ZM134.02 825.06C134.313 824.566 134.58 823.886 134.82 823.02H134.86C134.673 824.22 134.293 825.22 133.72 826.02C133.146 826.82 132.466 827.22 131.68 827.22C131.253 827.22 130.913 827.086 130.66 826.82C130.406 826.553 130.28 826.16 130.28 825.64C130.28 825.2 130.406 824.446 130.66 823.38H130.62C129.74 825.94 128.626 827.22 127.28 827.22C126.666 827.22 126.153 826.96 125.74 826.44C125.34 825.906 125.14 825.146 125.14 824.16C125.14 823.013 125.366 821.9 125.82 820.82C126.286 819.726 126.913 818.833 127.7 818.14C128.5 817.446 129.333 817.1 130.2 817.1C131.08 817.1 131.686 817.44 132.02 818.12L134.52 817.1H134.56C134.426 817.673 133.8 820.046 132.68 824.22C132.573 824.686 132.52 825.04 132.52 825.28C132.52 825.693 132.673 825.9 132.98 825.9C133.34 825.9 133.686 825.62 134.02 825.06ZM131.92 818.26C131.76 817.953 131.446 817.8 130.98 817.8C130.26 817.8 129.593 818.273 128.98 819.22C128.58 819.873 128.246 820.673 127.98 821.62C127.726 822.566 127.6 823.46 127.6 824.3C127.6 825.353 127.873 825.88 128.42 825.88C128.966 825.88 129.506 825.333 130.04 824.24C130.586 823.08 131.213 821.086 131.92 818.26ZM138.849 826.2C138.236 826.88 137.596 827.22 136.929 827.22C136.476 827.22 136.122 827.08 135.869 826.8C135.616 826.506 135.489 826.133 135.489 825.68C135.489 825.306 135.569 824.773 135.729 824.08L138.029 814.08C138.069 813.92 138.076 813.813 138.049 813.76C138.022 813.706 137.956 813.66 137.849 813.62L136.349 813.02V812.98L140.729 812.58L138.109 823.9C137.949 824.566 137.869 825.026 137.869 825.28C137.869 825.666 138.022 825.86 138.329 825.86C138.636 825.86 138.929 825.666 139.209 825.28C139.596 824.76 139.896 824.006 140.109 823.02H140.149C140.002 824.34 139.569 825.4 138.849 826.2ZM146.51 813H156.75L155.81 817.56H155.77L154.51 813.74C154.457 813.58 154.397 813.48 154.33 813.44C154.263 813.4 154.143 813.38 153.97 813.38H151.19C151.017 813.38 150.903 813.406 150.85 813.46C150.797 813.513 150.75 813.633 150.71 813.82L149.47 819.76H151.39C151.603 819.746 151.83 819.62 152.07 819.38L153.95 817.5H153.99L152.97 822.38H152.93L151.85 820.48C151.757 820.333 151.677 820.24 151.61 820.2C151.543 820.146 151.443 820.12 151.31 820.12H149.39L148.29 825.38C148.237 825.58 148.29 825.726 148.45 825.82L150.35 827.02V827.06H143.59V827.02L145.35 825.94C145.523 825.82 145.637 825.666 145.69 825.48L147.95 814.58C147.99 814.393 147.943 814.24 147.81 814.12L146.51 813.04V813ZM160.66 817.1L158.86 823.86C158.66 824.633 158.56 825.12 158.56 825.32C158.56 825.68 158.707 825.86 159 825.86C159.32 825.86 159.62 825.666 159.9 825.28C160.287 824.746 160.587 823.993 160.8 823.02H160.84C160.72 824.1 160.354 825.073 159.74 825.94C159.14 826.793 158.434 827.22 157.62 827.22C157.18 827.22 156.834 827.086 156.58 826.82C156.327 826.54 156.2 826.166 156.2 825.7C156.2 825.3 156.28 824.766 156.44 824.1L157.92 818.52C157.987 818.28 157.92 818.126 157.72 818.06L156.22 817.46V817.42L160.66 817.1ZM160.1 813.22C160.474 813.22 160.78 813.333 161.02 813.56C161.26 813.786 161.38 814.08 161.38 814.44C161.38 814.853 161.227 815.2 160.92 815.48C160.627 815.76 160.267 815.9 159.84 815.9C159.467 815.9 159.16 815.793 158.92 815.58C158.68 815.353 158.56 815.06 158.56 814.7C158.56 814.286 158.707 813.94 159 813.66C159.307 813.366 159.674 813.22 160.1 813.22ZM167.104 827.22C166.664 827.22 166.31 827.08 166.044 826.8C165.79 826.52 165.597 826.053 165.464 825.4L165.104 823.62C164.904 824.06 164.737 824.406 164.604 824.66C164.11 825.593 163.664 826.253 163.264 826.64C162.877 827.026 162.43 827.22 161.924 827.22C161.43 827.22 161.03 827.066 160.724 826.76L162.064 823.32H162.104L162.664 825.34C162.73 825.566 162.857 825.68 163.044 825.68C163.164 825.68 163.297 825.626 163.444 825.52C163.937 825.16 164.477 824.426 165.064 823.32L164.364 819.7C164.217 818.9 163.95 818.5 163.564 818.5C163.23 818.5 162.897 818.726 162.564 819.18C162.244 819.62 161.977 820.233 161.764 821.02H161.724C161.897 819.846 162.304 818.9 162.944 818.18C163.584 817.46 164.244 817.1 164.924 817.1C165.377 817.1 165.73 817.24 165.984 817.52C166.25 817.786 166.45 818.24 166.584 818.88L166.944 820.74C166.997 820.646 167.084 820.466 167.204 820.2C167.337 819.92 167.424 819.746 167.464 819.68C167.944 818.746 168.384 818.086 168.784 817.7C169.184 817.3 169.644 817.1 170.164 817.1C170.67 817.1 171.07 817.253 171.364 817.56L170.024 820.98H169.984L169.424 818.96C169.37 818.746 169.25 818.64 169.064 818.64C168.944 818.64 168.817 818.686 168.684 818.78C168.204 819.1 167.644 819.84 167.004 821L167.684 824.58C167.83 825.393 168.097 825.8 168.484 825.8C168.817 825.8 169.137 825.573 169.444 825.12C169.764 824.653 170.037 824.013 170.264 823.2H170.304C170.117 824.4 169.71 825.373 169.084 826.12C168.457 826.853 167.797 827.22 167.104 827.22Z" fill="white"/>
</g>
<defs>
<filter id="filter0_dd_287_3470" x="61.0547" y="124.52" width="135.672" height="26.6399" filterUnits="userSpaceOnUse" color-interpolation-filters="sRGB">
<feFlood flood-opacity="0" result="BackgroundImageFix"/>
<feColorMatrix in="SourceAlpha" type="matrix" values="0 0 0 0 0 0 0 0 0 0 0 0 0 0 0 0 0 0 127 0" result="hardAlpha"/>
<feOffset dx="2" dy="2"/>
<feGaussianBlur stdDeviation="2"/>
<feComposite in2="hardAlpha" operator="out"/>
<feColorMatrix type="matrix" values="0 0 0 0 1 0 0 0 0 1 0 0 0 0 1 0 0 0 0.35 0"/>
<feBlend mode="normal" in2="BackgroundImageFix" result="effect1_dropShadow_287_3470"/>
<feColorMatrix in="SourceAlpha" type="matrix" values="0 0 0 0 0 0 0 0 0 0 0 0 0 0 0 0 0 0 127 0" result="hardAlpha"/>
<feOffset dx="-2" dy="-2"/>
<feGaussianBlur stdDeviation="2"/>
<feComposite in2="hardAlpha" operator="out"/>
<feColorMatrix type="matrix" values="0 0 0 0 1 0 0 0 0 1 0 0 0 0 1 0 0 0 0.35 0"/>
<feBlend mode="normal" in2="effect1_dropShadow_287_3470" result="effect2_dropShadow_287_3470"/>
<feBlend mode="normal" in="SourceGraphic" in2="effect2_dropShadow_287_3470" result="shape"/>
</filter>
<filter id="filter1_dd_287_3470" x="67.0332" y="465.55" width="124.549" height="31.04" filterUnits="userSpaceOnUse" color-interpolation-filters="sRGB">
<feFlood flood-opacity="0" result="BackgroundImageFix"/>
<feColorMatrix in="SourceAlpha" type="matrix" values="0 0 0 0 0 0 0 0 0 0 0 0 0 0 0 0 0 0 127 0" result="hardAlpha"/>
<feOffset dx="2" dy="2"/>
<feGaussianBlur stdDeviation="2"/>
<feComposite in2="hardAlpha" operator="out"/>
<feColorMatrix type="matrix" values="0 0 0 0 1 0 0 0 0 1 0 0 0 0 1 0 0 0 0.35 0"/>
<feBlend mode="normal" in2="BackgroundImageFix" result="effect1_dropShadow_287_3470"/>
<feColorMatrix in="SourceAlpha" type="matrix" values="0 0 0 0 0 0 0 0 0 0 0 0 0 0 0 0 0 0 127 0" result="hardAlpha"/>
<feOffset dx="-2" dy="-2"/>
<feGaussianBlur stdDeviation="2"/>
<feComposite in2="hardAlpha" operator="out"/>
<feColorMatrix type="matrix" values="0 0 0 0 1 0 0 0 0 1 0 0 0 0 1 0 0 0 0.35 0"/>
<feBlend mode="normal" in2="effect1_dropShadow_287_3470" result="effect2_dropShadow_287_3470"/>
<feBlend mode="normal" in="SourceGraphic" in2="effect2_dropShadow_287_3470" result="shape"/>
</filter>
<filter id="filter2_dd_287_3470" x="84.4004" y="806.58" width="92.9629" height="26.6401" filterUnits="userSpaceOnUse" color-interpolation-filters="sRGB">
<feFlood flood-opacity="0" result="BackgroundImageFix"/>
<feColorMatrix in="SourceAlpha" type="matrix" values="0 0 0 0 0 0 0 0 0 0 0 0 0 0 0 0 0 0 127 0" result="hardAlpha"/>
<feOffset dx="2" dy="2"/>
<feGaussianBlur stdDeviation="2"/>
<feComposite in2="hardAlpha" operator="out"/>
<feColorMatrix type="matrix" values="0 0 0 0 1 0 0 0 0 1 0 0 0 0 1 0 0 0 0.35 0"/>
<feBlend mode="normal" in2="BackgroundImageFix" result="effect1_dropShadow_287_3470"/>
<feColorMatrix in="SourceAlpha" type="matrix" values="0 0 0 0 0 0 0 0 0 0 0 0 0 0 0 0 0 0 127 0" result="hardAlpha"/>
<feOffset dx="-2" dy="-2"/>
<feGaussianBlur stdDeviation="2"/>
<feComposite in2="hardAlpha" operator="out"/>
<feColorMatrix type="matrix" values="0 0 0 0 1 0 0 0 0 1 0 0 0 0 1 0 0 0 0.35 0"/>
<feBlend mode="normal" in2="effect1_dropShadow_287_3470" result="effect2_dropShadow_287_3470"/>
<feBlend mode="normal" in="SourceGraphic" in2="effect2_dropShadow_287_3470" result="shape"/>
</filter>
</defs>
</svg>
