<svg width="873" height="290" viewBox="0 0 873 290" fill="none" xmlns="http://www.w3.org/2000/svg">
<rect x="0.335938" y="75.5088" width="174" height="237" transform="rotate(-25.7191 0.335938 75.5088)" fill="#1B1B1B"/>
<path d="M12.3359 100L0.335938 75.5L23.3359 64.5" stroke="white" stroke-width="0.5"/>
<path d="M248.336 189L260.336 213.5L237.336 224.5" stroke="white" stroke-width="0.5"/>
<rect x="306.336" y="75.5088" width="174" height="237" transform="rotate(-25.7191 306.336 75.5088)" fill="#1B1B1B"/>
<path d="M318.336 100L306.336 75.5L329.336 64.5" stroke="white" stroke-width="0.5"/>
<path d="M554.336 189L566.336 213.5L543.336 224.5" stroke="white" stroke-width="0.5"/>
<rect x="612.336" y="75.5088" width="174" height="237" transform="rotate(-25.7191 612.336 75.5088)" fill="#1B1B1B"/>
<path d="M624.336 100L612.336 75.5L635.336 64.5" stroke="white" stroke-width="0.5"/>
<path d="M860.336 189L872.336 213.5L849.336 224.5" stroke="white" stroke-width="0.5"/>
<path d="M299.689 145.354C299.885 145.158 299.885 144.842 299.689 144.646L296.508 141.464C296.312 141.269 295.996 141.269 295.8 141.464C295.605 141.66 295.605 141.976 295.8 142.172L298.629 145L295.8 147.828C295.605 148.024 295.605 148.34 295.8 148.536C295.996 148.731 296.312 148.731 296.508 148.536L299.689 145.354ZM267.336 145V145.5H299.336V145V144.5H267.336V145Z" fill="white"/>
<path d="M605.689 145.354C605.885 145.158 605.885 144.842 605.689 144.646L602.508 141.464C602.312 141.269 601.996 141.269 601.8 141.464C601.605 141.66 601.605 141.976 601.8 142.172L604.629 145L601.8 147.828C601.605 148.024 601.605 148.34 601.8 148.536C601.996 148.731 602.312 148.731 602.508 148.536L605.689 145.354ZM573.336 145V145.5H605.336V145V144.5H573.336V145Z" fill="white"/>
<g filter="url(#filter0_dd_287_3470)">
<path d="M69.9748 130.94H76.1548C77.4748 130.94 78.4882 131.18 79.1948 131.66C79.9148 132.14 80.2748 132.847 80.2748 133.78C80.2748 134.82 79.8748 135.693 79.0748 136.4C78.2748 137.093 77.2415 137.48 75.9748 137.56L75.9548 137.62C77.0215 137.673 77.8548 137.98 78.4548 138.54C79.0682 139.1 79.3748 139.827 79.3748 140.72C79.3748 142.04 78.8215 143.087 77.7148 143.86C76.6215 144.62 75.2082 145 73.4748 145H67.0548V144.96L68.8148 143.88C68.9882 143.773 69.1015 143.62 69.1548 143.42L71.4148 132.52C71.4682 132.32 71.4215 132.167 71.2748 132.06L69.9748 130.98V130.94ZM74.0348 137.88H72.8748L71.5748 144.14C71.5215 144.353 71.5282 144.487 71.5948 144.54C71.6615 144.593 71.8348 144.62 72.1148 144.62H72.6348C73.9015 144.62 74.8815 144.213 75.5748 143.4C76.2682 142.587 76.6148 141.56 76.6148 140.32C76.6148 138.693 75.7548 137.88 74.0348 137.88ZM74.1548 131.78L72.9548 137.52H74.0748C75.0615 137.52 75.8882 137.153 76.5548 136.42C77.2215 135.687 77.5548 134.713 77.5548 133.5C77.5548 132.793 77.3682 132.253 76.9948 131.88C76.6215 131.507 76.1015 131.32 75.4348 131.32H74.6348C74.4882 131.32 74.3815 131.353 74.3148 131.42C74.2482 131.473 74.1948 131.593 74.1548 131.78ZM89.5744 143C89.8677 142.507 90.1344 141.827 90.3744 140.96H90.4144C90.2277 142.16 89.8477 143.16 89.2744 143.96C88.701 144.76 88.021 145.16 87.2344 145.16C86.8077 145.16 86.4677 145.027 86.2144 144.76C85.961 144.493 85.8344 144.1 85.8344 143.58C85.8344 143.14 85.961 142.387 86.2144 141.32H86.1744C85.2944 143.88 84.181 145.16 82.8344 145.16C82.221 145.16 81.7077 144.9 81.2944 144.38C80.8944 143.847 80.6944 143.087 80.6944 142.1C80.6944 140.953 80.921 139.84 81.3744 138.76C81.841 137.667 82.4677 136.773 83.2544 136.08C84.0544 135.387 84.8877 135.04 85.7544 135.04C86.6344 135.04 87.241 135.38 87.5744 136.06L90.0744 135.04H90.1144C89.981 135.613 89.3544 137.987 88.2344 142.16C88.1277 142.627 88.0744 142.98 88.0744 143.22C88.0744 143.633 88.2277 143.84 88.5344 143.84C88.8944 143.84 89.241 143.56 89.5744 143ZM87.4744 136.2C87.3144 135.893 87.001 135.74 86.5344 135.74C85.8144 135.74 85.1477 136.213 84.5344 137.16C84.1344 137.813 83.801 138.613 83.5344 139.56C83.281 140.507 83.1544 141.4 83.1544 142.24C83.1544 143.293 83.4277 143.82 83.9744 143.82C84.521 143.82 85.061 143.273 85.5944 142.18C86.141 141.02 86.7677 139.027 87.4744 136.2ZM97.5436 142.02C97.5436 142.793 97.2036 143.513 96.5236 144.18C95.8569 144.833 94.9036 145.16 93.6636 145.16C92.5569 145.16 91.5436 144.92 90.6236 144.44L91.8236 141.12H91.8636L92.8436 144.54C92.8836 144.713 92.9903 144.813 93.1636 144.84C93.2836 144.867 93.4636 144.88 93.7036 144.88C94.3036 144.88 94.7636 144.713 95.0836 144.38C95.4036 144.047 95.5636 143.633 95.5636 143.14C95.5636 142.78 95.4369 142.46 95.1836 142.18C94.9436 141.887 94.4769 141.453 93.7836 140.88C93.1436 140.36 92.6703 139.887 92.3636 139.46C92.0703 139.02 91.9236 138.527 91.9236 137.98C91.9236 137.167 92.2503 136.473 92.9036 135.9C93.5569 135.327 94.4303 135.04 95.5236 135.04C96.4569 135.04 97.3836 135.207 98.3036 135.54L97.1836 138.78H97.1436L96.1236 135.58C96.0703 135.407 95.9636 135.32 95.8036 135.32H95.6036C95.0436 135.32 94.6036 135.467 94.2836 135.76C93.9769 136.053 93.8236 136.433 93.8236 136.9C93.8236 137.273 93.9703 137.647 94.2636 138.02C94.5703 138.38 95.0369 138.8 95.6636 139.28C96.3036 139.76 96.7769 140.207 97.0836 140.62C97.3903 141.02 97.5436 141.487 97.5436 142.02ZM103.618 135.04L101.818 141.8C101.618 142.573 101.518 143.06 101.518 143.26C101.518 143.62 101.664 143.8 101.958 143.8C102.278 143.8 102.578 143.607 102.858 143.22C103.244 142.687 103.544 141.933 103.758 140.96H103.798C103.678 142.04 103.311 143.013 102.698 143.88C102.098 144.733 101.391 145.16 100.578 145.16C100.138 145.16 99.7908 145.027 99.5375 144.76C99.2842 144.48 99.1575 144.107 99.1575 143.64C99.1575 143.24 99.2375 142.707 99.3975 142.04L100.878 136.46C100.944 136.22 100.878 136.067 100.678 136L99.1775 135.4V135.36L103.618 135.04ZM103.058 131.16C103.431 131.16 103.738 131.273 103.978 131.5C104.218 131.727 104.338 132.02 104.338 132.38C104.338 132.793 104.184 133.14 103.878 133.42C103.584 133.7 103.224 133.84 102.798 133.84C102.424 133.84 102.118 133.733 101.878 133.52C101.638 133.293 101.518 133 101.518 132.64C101.518 132.227 101.664 131.88 101.958 131.6C102.264 131.307 102.631 131.16 103.058 131.16ZM107.881 145.16C106.907 145.16 106.107 144.827 105.481 144.16C104.867 143.493 104.561 142.567 104.561 141.38C104.561 139.713 105.107 138.24 106.201 136.96C107.294 135.68 108.661 135.04 110.301 135.04C111.194 135.04 112.001 135.187 112.721 135.48L111.321 139.04H111.281L110.461 135.68C110.421 135.533 110.381 135.447 110.341 135.42C110.314 135.38 110.247 135.36 110.141 135.36C109.581 135.36 109.061 135.687 108.581 136.34C108.101 136.993 107.734 137.753 107.481 138.62C107.227 139.487 107.101 140.307 107.101 141.08C107.101 141.933 107.267 142.573 107.601 143C107.947 143.413 108.387 143.62 108.921 143.62C109.521 143.62 110.087 143.373 110.621 142.88C111.154 142.387 111.574 141.653 111.881 140.68H111.921C111.667 142.187 111.181 143.313 110.461 144.06C109.741 144.793 108.881 145.16 107.881 145.16ZM122.186 138.44H121.326L120.306 143.3C120.24 143.593 120.273 143.793 120.406 143.9L121.586 144.96V145H115.746V144.96L117.466 143.82C117.506 143.793 117.54 143.767 117.566 143.74C117.593 143.713 117.613 143.68 117.626 143.64C117.64 143.6 117.646 143.567 117.646 143.54C117.66 143.513 117.673 143.467 117.686 143.4C117.7 143.32 117.713 143.26 117.726 143.22L119.946 132.64C120.013 132.347 119.98 132.147 119.846 132.04L118.666 130.98V130.94H125.146C126.333 130.94 127.286 131.227 128.006 131.8C128.726 132.36 129.086 133.113 129.086 134.06C129.086 135.273 128.626 136.273 127.706 137.06C126.786 137.833 125.646 138.253 124.286 138.32L124.266 138.36L125.526 139.06L126.986 143.38C127.053 143.567 127.246 143.833 127.566 144.18L128.326 144.96V145H124.806L122.646 138.72C122.58 138.533 122.426 138.44 122.186 138.44ZM122.706 131.82L121.406 138.08H122.966C123.9 138.08 124.693 137.68 125.346 136.88C126 136.067 126.326 135.053 126.326 133.84C126.326 132.133 125.64 131.28 124.266 131.28H123.266C123.08 131.28 122.946 131.32 122.866 131.4C122.8 131.48 122.746 131.62 122.706 131.82ZM133.534 143.66C134.201 143.66 134.828 143.407 135.414 142.9C136.014 142.38 136.454 141.633 136.734 140.66H136.774C136.641 141.473 136.421 142.187 136.114 142.8C135.808 143.4 135.454 143.867 135.054 144.2C134.654 144.533 134.234 144.78 133.794 144.94C133.368 145.087 132.921 145.16 132.454 145.16C131.441 145.16 130.608 144.82 129.954 144.14C129.314 143.447 128.994 142.5 128.994 141.3C128.994 139.687 129.548 138.24 130.654 136.96C131.774 135.68 133.114 135.04 134.674 135.04C135.461 135.04 136.101 135.227 136.594 135.6C137.088 135.973 137.334 136.46 137.334 137.06C137.334 138.073 136.741 138.9 135.554 139.54C134.368 140.167 133.048 140.42 131.594 140.3C131.554 140.553 131.534 140.82 131.534 141.1C131.534 141.913 131.701 142.547 132.034 143C132.381 143.44 132.881 143.66 133.534 143.66ZM134.514 135.36C133.901 135.36 133.308 135.86 132.734 136.86C132.161 137.86 131.788 138.947 131.614 140.12C132.681 140.12 133.541 139.787 134.194 139.12C134.861 138.453 135.194 137.613 135.194 136.6C135.194 135.773 134.968 135.36 134.514 135.36ZM144.34 142.02C144.34 142.793 144 143.513 143.32 144.18C142.654 144.833 141.7 145.16 140.46 145.16C139.354 145.16 138.34 144.92 137.42 144.44L138.62 141.12H138.66L139.64 144.54C139.68 144.713 139.787 144.813 139.96 144.84C140.08 144.867 140.26 144.88 140.5 144.88C141.1 144.88 141.56 144.713 141.88 144.38C142.2 144.047 142.36 143.633 142.36 143.14C142.36 142.78 142.234 142.46 141.98 142.18C141.74 141.887 141.274 141.453 140.58 140.88C139.94 140.36 139.467 139.887 139.16 139.46C138.867 139.02 138.72 138.527 138.72 137.98C138.72 137.167 139.047 136.473 139.7 135.9C140.354 135.327 141.227 135.04 142.32 135.04C143.254 135.04 144.18 135.207 145.1 135.54L143.98 138.78H143.94L142.92 135.58C142.867 135.407 142.76 135.32 142.6 135.32H142.4C141.84 135.32 141.4 135.467 141.08 135.76C140.774 136.053 140.62 136.433 140.62 136.9C140.62 137.273 140.767 137.647 141.06 138.02C141.367 138.38 141.834 138.8 142.46 139.28C143.1 139.76 143.574 140.207 143.88 140.62C144.187 141.02 144.34 141.487 144.34 142.02ZM150.194 143.66C150.861 143.66 151.488 143.407 152.074 142.9C152.674 142.38 153.114 141.633 153.394 140.66H153.434C153.301 141.473 153.081 142.187 152.774 142.8C152.468 143.4 152.114 143.867 151.714 144.2C151.314 144.533 150.894 144.78 150.454 144.94C150.028 145.087 149.581 145.16 149.114 145.16C148.101 145.16 147.268 144.82 146.614 144.14C145.974 143.447 145.654 142.5 145.654 141.3C145.654 139.687 146.208 138.24 147.314 136.96C148.434 135.68 149.774 135.04 151.334 135.04C152.121 135.04 152.761 135.227 153.254 135.6C153.748 135.973 153.994 136.46 153.994 137.06C153.994 138.073 153.401 138.9 152.214 139.54C151.028 140.167 149.708 140.42 148.254 140.3C148.214 140.553 148.194 140.82 148.194 141.1C148.194 141.913 148.361 142.547 148.694 143C149.041 143.44 149.541 143.66 150.194 143.66ZM151.174 135.36C150.561 135.36 149.968 135.86 149.394 136.86C148.821 137.86 148.448 138.947 148.274 140.12C149.341 140.12 150.201 139.787 150.854 139.12C151.521 138.453 151.854 137.613 151.854 136.6C151.854 135.773 151.628 135.36 151.174 135.36ZM163.403 143C163.696 142.507 163.963 141.827 164.203 140.96H164.243C164.056 142.16 163.676 143.16 163.103 143.96C162.529 144.76 161.849 145.16 161.063 145.16C160.636 145.16 160.296 145.027 160.043 144.76C159.789 144.493 159.663 144.1 159.663 143.58C159.663 143.14 159.789 142.387 160.043 141.32H160.003C159.123 143.88 158.009 145.16 156.663 145.16C156.049 145.16 155.536 144.9 155.123 144.38C154.723 143.847 154.523 143.087 154.523 142.1C154.523 140.953 154.749 139.84 155.203 138.76C155.669 137.667 156.296 136.773 157.083 136.08C157.883 135.387 158.716 135.04 159.583 135.04C160.463 135.04 161.069 135.38 161.403 136.06L163.903 135.04H163.943C163.809 135.613 163.183 137.987 162.063 142.16C161.956 142.627 161.903 142.98 161.903 143.22C161.903 143.633 162.056 143.84 162.363 143.84C162.723 143.84 163.069 143.56 163.403 143ZM161.303 136.2C161.143 135.893 160.829 135.74 160.363 135.74C159.643 135.74 158.976 136.213 158.363 137.16C157.963 137.813 157.629 138.613 157.363 139.56C157.109 140.507 156.983 141.4 156.983 142.24C156.983 143.293 157.256 143.82 157.803 143.82C158.349 143.82 158.889 143.273 159.423 142.18C159.969 141.02 160.596 139.027 161.303 136.2ZM173.072 135.3L171.652 139.16H171.612L170.852 136.68C170.812 136.56 170.752 136.5 170.672 136.5C170.552 136.5 170.412 136.58 170.252 136.74C169.972 137.02 169.672 137.487 169.352 138.14C169.058 138.713 168.778 139.44 168.512 140.32C168.245 141.2 167.865 142.76 167.372 145H165.072L166.912 136.54C166.952 136.34 166.958 136.213 166.932 136.16C166.918 136.107 166.838 136.047 166.692 135.98L165.212 135.4V135.36L169.632 135.04L168.692 139.02H168.732C169.238 137.66 169.745 136.66 170.252 136.02C170.772 135.367 171.378 135.04 172.072 135.04C172.472 135.04 172.805 135.127 173.072 135.3ZM175.928 145.16C174.954 145.16 174.154 144.827 173.528 144.16C172.914 143.493 172.608 142.567 172.608 141.38C172.608 139.713 173.154 138.24 174.248 136.96C175.341 135.68 176.708 135.04 178.348 135.04C179.241 135.04 180.048 135.187 180.768 135.48L179.368 139.04H179.328L178.508 135.68C178.468 135.533 178.428 135.447 178.388 135.42C178.361 135.38 178.294 135.36 178.188 135.36C177.628 135.36 177.108 135.687 176.628 136.34C176.148 136.993 175.781 137.753 175.528 138.62C175.274 139.487 175.148 140.307 175.148 141.08C175.148 141.933 175.314 142.573 175.648 143C175.994 143.413 176.434 143.62 176.968 143.62C177.568 143.62 178.134 143.373 178.668 142.88C179.201 142.387 179.621 141.653 179.928 140.68H179.968C179.714 142.187 179.228 143.313 178.508 144.06C177.788 144.793 176.928 145.16 175.928 145.16ZM190.126 136.7C190.126 137.18 189.96 137.953 189.626 139.02L188.726 141.86C188.526 142.487 188.426 142.953 188.426 143.26C188.426 143.62 188.58 143.8 188.886 143.8C189.206 143.8 189.506 143.6 189.786 143.2C190.133 142.733 190.433 141.987 190.686 140.96H190.726C190.566 142.253 190.166 143.28 189.526 144.04C188.9 144.787 188.2 145.16 187.426 145.16C186.973 145.16 186.613 145.033 186.346 144.78C186.08 144.513 185.946 144.147 185.946 143.68C185.946 143.227 186.106 142.507 186.426 141.52L187.406 138.52C187.646 137.773 187.766 137.253 187.766 136.96C187.766 136.56 187.573 136.36 187.186 136.36C186.426 136.36 185.713 136.927 185.046 138.06C184.393 139.22 183.666 141.533 182.866 145H180.566L183.586 132.02C183.626 131.847 183.633 131.74 183.606 131.7C183.593 131.647 183.526 131.6 183.406 131.56L181.886 130.96V130.92L186.286 130.52L184.226 139.24H184.266C184.76 137.92 185.38 136.893 186.126 136.16C186.873 135.413 187.646 135.04 188.446 135.04C188.966 135.04 189.373 135.193 189.666 135.5C189.973 135.793 190.126 136.193 190.126 136.7Z" fill="white"/>
</g>
<g filter="url(#filter1_dd_287_3470)">
<path d="M381.953 130.94H392.193L391.253 135.5H391.213L389.953 131.68C389.9 131.52 389.84 131.42 389.773 131.38C389.707 131.34 389.587 131.32 389.413 131.32H386.633C386.46 131.32 386.347 131.347 386.293 131.4C386.24 131.453 386.193 131.573 386.153 131.76L384.913 137.7H386.833C387.047 137.687 387.273 137.56 387.513 137.32L389.393 135.44H389.433L388.413 140.32H388.373L387.293 138.42C387.2 138.273 387.12 138.18 387.053 138.14C386.987 138.087 386.887 138.06 386.753 138.06H384.833L383.733 143.32C383.68 143.52 383.733 143.667 383.893 143.76L385.793 144.96V145H379.033V144.96L380.793 143.88C380.967 143.76 381.08 143.607 381.133 143.42L383.393 132.52C383.433 132.333 383.387 132.18 383.253 132.06L381.953 130.98V130.94ZM394.644 144.14C394.03 144.82 393.39 145.16 392.724 145.16C392.27 145.16 391.917 145.02 391.664 144.74C391.41 144.447 391.284 144.073 391.284 143.62C391.284 143.247 391.364 142.713 391.524 142.02L393.824 132.02C393.864 131.86 393.87 131.753 393.844 131.7C393.817 131.647 393.75 131.6 393.644 131.56L392.144 130.96V130.92L396.524 130.52L393.904 141.84C393.744 142.507 393.664 142.967 393.664 143.22C393.664 143.607 393.817 143.8 394.124 143.8C394.43 143.8 394.724 143.607 395.004 143.22C395.39 142.7 395.69 141.947 395.904 140.96H395.944C395.797 142.28 395.364 143.34 394.644 144.14ZM400.018 145.18C399.032 145.18 398.212 144.873 397.558 144.26C396.918 143.647 396.598 142.7 396.598 141.42C396.598 139.727 397.132 138.24 398.198 136.96C399.265 135.68 400.552 135.04 402.058 135.04C403.045 135.04 403.865 135.353 404.518 135.98C405.172 136.593 405.498 137.533 405.498 138.8C405.498 140.507 404.958 142 403.878 143.28C402.812 144.547 401.525 145.18 400.018 145.18ZM400.078 144.88C400.585 144.88 401.072 144.467 401.538 143.64C402.005 142.8 402.365 141.807 402.618 140.66C402.885 139.513 403.018 138.427 403.018 137.4C403.018 136.027 402.692 135.34 402.038 135.34C401.532 135.34 401.045 135.76 400.578 136.6C400.112 137.427 399.745 138.413 399.478 139.56C399.225 140.707 399.098 141.793 399.098 142.82C399.098 144.193 399.425 144.88 400.078 144.88ZM418.123 138.88C418.123 137.907 417.923 137.107 417.523 136.48C417.497 136.427 417.43 136.327 417.323 136.18C417.23 136.02 417.177 135.933 417.163 135.92V135.88L419.763 135.04C419.737 136.427 419.463 137.893 418.943 139.44C418.423 140.987 417.69 142.327 416.743 143.46C415.81 144.593 414.83 145.16 413.803 145.16C413.31 145.16 412.903 145.007 412.583 144.7C412.263 144.38 412.103 143.893 412.103 143.24C412.103 142.813 412.183 142.307 412.343 141.72H412.303C411.57 144.013 410.443 145.16 408.923 145.16C408.257 145.16 407.757 144.967 407.423 144.58C407.103 144.18 406.943 143.68 406.943 143.08C406.943 142.56 407.09 141.793 407.383 140.78L408.043 138.46C408.243 137.78 408.343 137.287 408.343 136.98C408.343 136.607 408.197 136.42 407.903 136.42C407.357 136.42 406.743 137.18 406.063 138.7H406.023C406.783 136.26 407.883 135.04 409.323 135.04C410.297 135.04 410.783 135.573 410.783 136.64C410.783 137.147 410.603 137.973 410.243 139.12L409.563 141.3C409.363 141.953 409.263 142.48 409.263 142.88C409.263 143.227 409.337 143.5 409.483 143.7C409.643 143.887 409.85 143.98 410.103 143.98C410.89 143.98 411.577 143.14 412.163 141.46C412.723 139.873 413.143 137.847 413.423 135.38L415.783 135.04C415.703 135.64 415.603 136.273 415.483 136.94C415.363 137.607 415.257 138.127 415.163 138.5C415.083 138.873 414.95 139.427 414.763 140.16C414.59 140.88 414.483 141.32 414.443 141.48C414.31 142.093 414.243 142.513 414.243 142.74C414.243 143.567 414.563 143.98 415.203 143.98C415.883 143.98 416.537 143.44 417.163 142.36C417.803 141.267 418.123 140.107 418.123 138.88ZM429.482 145.2C427.816 145.2 426.522 144.693 425.602 143.68C424.696 142.653 424.242 141.327 424.242 139.7C424.242 138.1 424.569 136.62 425.222 135.26C425.876 133.9 426.809 132.807 428.022 131.98C429.236 131.153 430.596 130.74 432.102 130.74C433.569 130.74 434.889 130.893 436.062 131.2L435.082 135.78H435.042L433.462 131.5C433.409 131.34 433.349 131.24 433.282 131.2C433.229 131.16 433.136 131.127 433.002 131.1C432.816 131.073 432.616 131.06 432.402 131.06C431.362 131.06 430.422 131.56 429.582 132.56C428.742 133.56 428.109 134.787 427.682 136.24C427.269 137.693 427.062 139.18 427.062 140.7C427.062 141.927 427.276 142.933 427.702 143.72C428.142 144.493 428.809 144.88 429.702 144.88C429.942 144.88 430.129 144.873 430.262 144.86C430.529 144.833 430.729 144.727 430.862 144.54L434.162 140.16H434.202L433.282 144.76C431.989 145.053 430.722 145.2 429.482 145.2ZM439.077 144.14C438.464 144.82 437.824 145.16 437.157 145.16C436.704 145.16 436.351 145.02 436.097 144.74C435.844 144.447 435.717 144.073 435.717 143.62C435.717 143.247 435.797 142.713 435.957 142.02L438.257 132.02C438.297 131.86 438.304 131.753 438.277 131.7C438.251 131.647 438.184 131.6 438.077 131.56L436.577 130.96V130.92L440.957 130.52L438.337 141.84C438.177 142.507 438.097 142.967 438.097 143.22C438.097 143.607 438.251 143.8 438.557 143.8C438.864 143.8 439.157 143.607 439.437 143.22C439.824 142.7 440.124 141.947 440.337 140.96H440.377C440.231 142.28 439.797 143.34 439.077 144.14ZM445.552 143.66C446.218 143.66 446.845 143.407 447.432 142.9C448.032 142.38 448.472 141.633 448.752 140.66H448.792C448.658 141.473 448.438 142.187 448.132 142.8C447.825 143.4 447.472 143.867 447.072 144.2C446.672 144.533 446.252 144.78 445.812 144.94C445.385 145.087 444.938 145.16 444.472 145.16C443.458 145.16 442.625 144.82 441.972 144.14C441.332 143.447 441.012 142.5 441.012 141.3C441.012 139.687 441.565 138.24 442.672 136.96C443.792 135.68 445.132 135.04 446.692 135.04C447.478 135.04 448.118 135.227 448.612 135.6C449.105 135.973 449.352 136.46 449.352 137.06C449.352 138.073 448.758 138.9 447.572 139.54C446.385 140.167 445.065 140.42 443.612 140.3C443.572 140.553 443.552 140.82 443.552 141.1C443.552 141.913 443.718 142.547 444.052 143C444.398 143.44 444.898 143.66 445.552 143.66ZM446.532 135.36C445.918 135.36 445.325 135.86 444.752 136.86C444.178 137.86 443.805 138.947 443.632 140.12C444.698 140.12 445.558 139.787 446.212 139.12C446.878 138.453 447.212 137.613 447.212 136.6C447.212 135.773 446.985 135.36 446.532 135.36ZM458.76 143C459.053 142.507 459.32 141.827 459.56 140.96H459.6C459.413 142.16 459.033 143.16 458.46 143.96C457.887 144.76 457.207 145.16 456.42 145.16C455.993 145.16 455.653 145.027 455.4 144.76C455.147 144.493 455.02 144.1 455.02 143.58C455.02 143.14 455.147 142.387 455.4 141.32H455.36C454.48 143.88 453.367 145.16 452.02 145.16C451.407 145.16 450.893 144.9 450.48 144.38C450.08 143.847 449.88 143.087 449.88 142.1C449.88 140.953 450.107 139.84 450.56 138.76C451.027 137.667 451.653 136.773 452.44 136.08C453.24 135.387 454.073 135.04 454.94 135.04C455.82 135.04 456.427 135.38 456.76 136.06L459.26 135.04H459.3C459.167 135.613 458.54 137.987 457.42 142.16C457.313 142.627 457.26 142.98 457.26 143.22C457.26 143.633 457.413 143.84 457.72 143.84C458.08 143.84 458.427 143.56 458.76 143ZM456.66 136.2C456.5 135.893 456.187 135.74 455.72 135.74C455 135.74 454.333 136.213 453.72 137.16C453.32 137.813 452.987 138.613 452.72 139.56C452.467 140.507 452.34 141.4 452.34 142.24C452.34 143.293 452.613 143.82 453.16 143.82C453.707 143.82 454.247 143.273 454.78 142.18C455.327 141.02 455.953 139.027 456.66 136.2ZM467.249 145.16C466.796 145.16 466.436 145.033 466.169 144.78C465.902 144.513 465.769 144.147 465.769 143.68C465.769 143.227 465.929 142.507 466.249 141.52L467.209 138.52C467.449 137.773 467.569 137.247 467.569 136.94C467.569 136.553 467.369 136.36 466.969 136.36C466.276 136.36 465.609 136.867 464.969 137.88C464.236 139.027 463.462 141.4 462.649 145H460.329L462.309 136.52C462.336 136.387 462.349 136.293 462.349 136.24C462.349 136.173 462.336 136.127 462.309 136.1C462.282 136.06 462.222 136.02 462.129 135.98L460.629 135.4V135.36L465.049 135.04L464.029 139.2H464.069C464.549 137.92 465.162 136.907 465.909 136.16C466.669 135.413 467.456 135.04 468.269 135.04C468.789 135.04 469.196 135.193 469.489 135.5C469.796 135.793 469.949 136.193 469.949 136.7C469.949 137.14 469.776 137.913 469.429 139.02L468.549 141.86C468.349 142.487 468.249 142.953 468.249 143.26C468.249 143.62 468.396 143.8 468.689 143.8C469.009 143.8 469.309 143.6 469.589 143.2C469.989 142.627 470.289 141.88 470.489 140.96H470.529C470.369 142.24 469.976 143.26 469.349 144.02C468.722 144.78 468.022 145.16 467.249 145.16ZM480.167 144.38C479.647 144.9 479.074 145.16 478.447 145.16C477.994 145.16 477.64 145.027 477.387 144.76C477.134 144.493 477.007 144.107 477.007 143.6C477.007 142.88 477.16 142.007 477.467 140.98H477.427C476.947 142.26 476.334 143.28 475.587 144.04C474.854 144.787 474.107 145.16 473.347 145.16C472.84 145.16 472.434 145.007 472.127 144.7C471.82 144.393 471.667 143.993 471.667 143.5C471.667 143.02 471.84 142.247 472.187 141.18L473.067 138.34C473.267 137.713 473.367 137.247 473.367 136.94C473.367 136.567 473.22 136.38 472.927 136.38C472.62 136.38 472.314 136.58 472.007 136.98C471.647 137.487 471.354 138.22 471.127 139.18L471.087 139.16C471.274 137.893 471.674 136.893 472.287 136.16C472.914 135.413 473.607 135.04 474.367 135.04C474.82 135.04 475.18 135.173 475.447 135.44C475.714 135.693 475.847 136.047 475.847 136.5C475.847 136.953 475.687 137.673 475.367 138.66L474.407 141.68C474.167 142.427 474.047 142.953 474.047 143.26C474.047 143.66 474.26 143.86 474.687 143.86C475.234 143.86 475.847 143.34 476.527 142.3C476.874 141.753 477.214 140.98 477.547 139.98C477.894 138.98 478.327 137.413 478.847 135.28L481.187 135.14L479.427 142.28C479.334 142.64 479.287 142.973 479.287 143.28C479.287 143.64 479.44 143.82 479.747 143.82C480.094 143.82 480.407 143.607 480.687 143.18C481.034 142.7 481.327 141.96 481.567 140.96H481.607C481.394 142.493 480.914 143.633 480.167 144.38ZM486.363 145.16C485.603 145.16 485.043 144.96 484.683 144.56L483.823 148.18C483.783 148.327 483.769 148.42 483.783 148.46C483.809 148.513 483.883 148.567 484.003 148.62L486.163 149.52V149.56H480.063V149.52L481.103 148.8C481.303 148.653 481.429 148.467 481.483 148.24L484.243 136.5C484.283 136.313 484.289 136.2 484.263 136.16C484.249 136.107 484.183 136.053 484.063 136L482.563 135.4V135.36L486.983 135.04L485.963 139.14H486.003C486.976 136.407 488.129 135.04 489.463 135.04C490.076 135.04 490.583 135.287 490.983 135.78C491.383 136.273 491.583 136.98 491.583 137.9C491.583 139.94 491.043 141.66 489.963 143.06C488.896 144.46 487.696 145.16 486.363 145.16ZM484.743 144.3L484.723 144.4C484.963 144.533 485.229 144.6 485.523 144.6C486.389 144.6 487.163 144.02 487.843 142.86C488.669 141.433 489.096 139.733 489.123 137.76C489.123 136.827 488.869 136.36 488.363 136.36C487.843 136.36 487.276 136.96 486.663 138.16C486.129 139.173 485.489 141.22 484.743 144.3Z" fill="white"/>
</g>
<g filter="url(#filter2_dd_287_3470)">
<path d="M712.46 133.66L706.48 145H704.84L703.3 132.84C703.26 132.547 703.174 132.28 703.04 132.04L702.4 130.98V130.94H707.54V130.98L706.08 132.18C705.92 132.3 705.86 132.473 705.9 132.7L707.18 142.86L712.06 133.64C712.14 133.453 712.174 133.327 712.16 133.26C712.147 133.18 712.087 133.067 711.98 132.92L710.62 130.98V130.94H715.22V130.98L713.14 132.84C712.834 133.107 712.607 133.38 712.46 133.66ZM717.387 135.04L715.587 141.8C715.387 142.573 715.287 143.06 715.287 143.26C715.287 143.62 715.434 143.8 715.727 143.8C716.047 143.8 716.347 143.607 716.627 143.22C717.014 142.687 717.314 141.933 717.527 140.96H717.567C717.447 142.04 717.08 143.013 716.467 143.88C715.867 144.733 715.16 145.16 714.347 145.16C713.907 145.16 713.56 145.027 713.307 144.76C713.054 144.48 712.927 144.107 712.927 143.64C712.927 143.24 713.007 142.707 713.167 142.04L714.647 136.46C714.714 136.22 714.647 136.067 714.447 136L712.947 135.4V135.36L717.387 135.04ZM716.827 131.16C717.2 131.16 717.507 131.273 717.747 131.5C717.987 131.727 718.107 132.02 718.107 132.38C718.107 132.793 717.954 133.14 717.647 133.42C717.354 133.7 716.994 133.84 716.567 133.84C716.194 133.84 715.887 133.733 715.647 133.52C715.407 133.293 715.287 133 715.287 132.64C715.287 132.227 715.434 131.88 715.727 131.6C716.034 131.307 716.4 131.16 716.827 131.16ZM724.77 142.02C724.77 142.793 724.43 143.513 723.75 144.18C723.083 144.833 722.13 145.16 720.89 145.16C719.783 145.16 718.77 144.92 717.85 144.44L719.05 141.12H719.09L720.07 144.54C720.11 144.713 720.217 144.813 720.39 144.84C720.51 144.867 720.69 144.88 720.93 144.88C721.53 144.88 721.99 144.713 722.31 144.38C722.63 144.047 722.79 143.633 722.79 143.14C722.79 142.78 722.663 142.46 722.41 142.18C722.17 141.887 721.703 141.453 721.01 140.88C720.37 140.36 719.897 139.887 719.59 139.46C719.297 139.02 719.15 138.527 719.15 137.98C719.15 137.167 719.477 136.473 720.13 135.9C720.783 135.327 721.657 135.04 722.75 135.04C723.683 135.04 724.61 135.207 725.53 135.54L724.41 138.78H724.37L723.35 135.58C723.297 135.407 723.19 135.32 723.03 135.32H722.83C722.27 135.32 721.83 135.467 721.51 135.76C721.203 136.053 721.05 136.433 721.05 136.9C721.05 137.273 721.197 137.647 721.49 138.02C721.797 138.38 722.263 138.8 722.89 139.28C723.53 139.76 724.003 140.207 724.31 140.62C724.617 141.02 724.77 141.487 724.77 142.02ZM735.044 144.38C734.524 144.9 733.951 145.16 733.324 145.16C732.871 145.16 732.517 145.027 732.264 144.76C732.011 144.493 731.884 144.107 731.884 143.6C731.884 142.88 732.037 142.007 732.344 140.98H732.304C731.824 142.26 731.211 143.28 730.464 144.04C729.731 144.787 728.984 145.16 728.224 145.16C727.717 145.16 727.311 145.007 727.004 144.7C726.697 144.393 726.544 143.993 726.544 143.5C726.544 143.02 726.717 142.247 727.064 141.18L727.944 138.34C728.144 137.713 728.244 137.247 728.244 136.94C728.244 136.567 728.097 136.38 727.804 136.38C727.497 136.38 727.191 136.58 726.884 136.98C726.524 137.487 726.231 138.22 726.004 139.18L725.964 139.16C726.151 137.893 726.551 136.893 727.164 136.16C727.791 135.413 728.484 135.04 729.244 135.04C729.697 135.04 730.057 135.173 730.324 135.44C730.591 135.693 730.724 136.047 730.724 136.5C730.724 136.953 730.564 137.673 730.244 138.66L729.284 141.68C729.044 142.427 728.924 142.953 728.924 143.26C728.924 143.66 729.137 143.86 729.564 143.86C730.111 143.86 730.724 143.34 731.404 142.3C731.751 141.753 732.091 140.98 732.424 139.98C732.771 138.98 733.204 137.413 733.724 135.28L736.064 135.14L734.304 142.28C734.211 142.64 734.164 142.973 734.164 143.28C734.164 143.64 734.317 143.82 734.624 143.82C734.971 143.82 735.284 143.607 735.564 143.18C735.911 142.7 736.204 141.96 736.444 140.96H736.484C736.271 142.493 735.791 143.633 735.044 144.38ZM746.02 143C746.313 142.507 746.58 141.827 746.82 140.96H746.86C746.673 142.16 746.293 143.16 745.72 143.96C745.146 144.76 744.466 145.16 743.68 145.16C743.253 145.16 742.913 145.027 742.66 144.76C742.406 144.493 742.28 144.1 742.28 143.58C742.28 143.14 742.406 142.387 742.66 141.32H742.62C741.74 143.88 740.626 145.16 739.28 145.16C738.666 145.16 738.153 144.9 737.74 144.38C737.34 143.847 737.14 143.087 737.14 142.1C737.14 140.953 737.366 139.84 737.82 138.76C738.286 137.667 738.913 136.773 739.7 136.08C740.5 135.387 741.333 135.04 742.2 135.04C743.08 135.04 743.686 135.38 744.02 136.06L746.52 135.04H746.56C746.426 135.613 745.8 137.987 744.68 142.16C744.573 142.627 744.52 142.98 744.52 143.22C744.52 143.633 744.673 143.84 744.98 143.84C745.34 143.84 745.686 143.56 746.02 143ZM743.92 136.2C743.76 135.893 743.446 135.74 742.98 135.74C742.26 135.74 741.593 136.213 740.98 137.16C740.58 137.813 740.246 138.613 739.98 139.56C739.726 140.507 739.6 141.4 739.6 142.24C739.6 143.293 739.873 143.82 740.42 143.82C740.966 143.82 741.506 143.273 742.04 142.18C742.586 141.02 743.213 139.027 743.92 136.2ZM750.849 144.14C750.236 144.82 749.596 145.16 748.929 145.16C748.476 145.16 748.122 145.02 747.869 144.74C747.616 144.447 747.489 144.073 747.489 143.62C747.489 143.247 747.569 142.713 747.729 142.02L750.029 132.02C750.069 131.86 750.076 131.753 750.049 131.7C750.022 131.647 749.956 131.6 749.849 131.56L748.349 130.96V130.92L752.729 130.52L750.109 141.84C749.949 142.507 749.869 142.967 749.869 143.22C749.869 143.607 750.022 143.8 750.329 143.8C750.636 143.8 750.929 143.607 751.209 143.22C751.596 142.7 751.896 141.947 752.109 140.96H752.149C752.002 142.28 751.569 143.34 750.849 144.14ZM758.51 130.94H768.75L767.81 135.5H767.77L766.51 131.68C766.457 131.52 766.397 131.42 766.33 131.38C766.263 131.34 766.143 131.32 765.97 131.32H763.19C763.017 131.32 762.903 131.347 762.85 131.4C762.797 131.453 762.75 131.573 762.71 131.76L761.47 137.7H763.39C763.603 137.687 763.83 137.56 764.07 137.32L765.95 135.44H765.99L764.97 140.32H764.93L763.85 138.42C763.757 138.273 763.677 138.18 763.61 138.14C763.543 138.087 763.443 138.06 763.31 138.06H761.39L760.29 143.32C760.237 143.52 760.29 143.667 760.45 143.76L762.35 144.96V145H755.59V144.96L757.35 143.88C757.523 143.76 757.637 143.607 757.69 143.42L759.95 132.52C759.99 132.333 759.943 132.18 759.81 132.06L758.51 130.98V130.94ZM772.66 135.04L770.86 141.8C770.66 142.573 770.56 143.06 770.56 143.26C770.56 143.62 770.707 143.8 771 143.8C771.32 143.8 771.62 143.607 771.9 143.22C772.287 142.687 772.587 141.933 772.8 140.96H772.84C772.72 142.04 772.354 143.013 771.74 143.88C771.14 144.733 770.434 145.16 769.62 145.16C769.18 145.16 768.834 145.027 768.58 144.76C768.327 144.48 768.2 144.107 768.2 143.64C768.2 143.24 768.28 142.707 768.44 142.04L769.92 136.46C769.987 136.22 769.92 136.067 769.72 136L768.22 135.4V135.36L772.66 135.04ZM772.1 131.16C772.474 131.16 772.78 131.273 773.02 131.5C773.26 131.727 773.38 132.02 773.38 132.38C773.38 132.793 773.227 133.14 772.92 133.42C772.627 133.7 772.267 133.84 771.84 133.84C771.467 133.84 771.16 133.733 770.92 133.52C770.68 133.293 770.56 133 770.56 132.64C770.56 132.227 770.707 131.88 771 131.6C771.307 131.307 771.674 131.16 772.1 131.16ZM779.104 145.16C778.664 145.16 778.31 145.02 778.044 144.74C777.79 144.46 777.597 143.993 777.464 143.34L777.104 141.56C776.904 142 776.737 142.347 776.604 142.6C776.11 143.533 775.664 144.193 775.264 144.58C774.877 144.967 774.43 145.16 773.924 145.16C773.43 145.16 773.03 145.007 772.724 144.7L774.064 141.26H774.104L774.664 143.28C774.73 143.507 774.857 143.62 775.044 143.62C775.164 143.62 775.297 143.567 775.444 143.46C775.937 143.1 776.477 142.367 777.064 141.26L776.364 137.64C776.217 136.84 775.95 136.44 775.564 136.44C775.23 136.44 774.897 136.667 774.564 137.12C774.244 137.56 773.977 138.173 773.764 138.96H773.724C773.897 137.787 774.304 136.84 774.944 136.12C775.584 135.4 776.244 135.04 776.924 135.04C777.377 135.04 777.73 135.18 777.984 135.46C778.25 135.727 778.45 136.18 778.584 136.82L778.944 138.68C778.997 138.587 779.084 138.407 779.204 138.14C779.337 137.86 779.424 137.687 779.464 137.62C779.944 136.687 780.384 136.027 780.784 135.64C781.184 135.24 781.644 135.04 782.164 135.04C782.67 135.04 783.07 135.193 783.364 135.5L782.024 138.92H781.984L781.424 136.9C781.37 136.687 781.25 136.58 781.064 136.58C780.944 136.58 780.817 136.627 780.684 136.72C780.204 137.04 779.644 137.78 779.004 138.94L779.684 142.52C779.83 143.333 780.097 143.74 780.484 143.74C780.817 143.74 781.137 143.513 781.444 143.06C781.764 142.593 782.037 141.953 782.264 141.14H782.304C782.117 142.34 781.71 143.313 781.084 144.06C780.457 144.793 779.797 145.16 779.104 145.16Z" fill="white"/>
</g>
<defs>
<filter id="filter0_dd_287_3470" x="61.0547" y="124.52" width="135.672" height="26.6399" filterUnits="userSpaceOnUse" color-interpolation-filters="sRGB">
<feFlood flood-opacity="0" result="BackgroundImageFix"/>
<feColorMatrix in="SourceAlpha" type="matrix" values="0 0 0 0 0 0 0 0 0 0 0 0 0 0 0 0 0 0 127 0" result="hardAlpha"/>
<feOffset dx="2" dy="2"/>
<feGaussianBlur stdDeviation="2"/>
<feComposite in2="hardAlpha" operator="out"/>
<feColorMatrix type="matrix" values="0 0 0 0 1 0 0 0 0 1 0 0 0 0 1 0 0 0 0.35 0"/>
<feBlend mode="normal" in2="BackgroundImageFix" result="effect1_dropShadow_287_3470"/>
<feColorMatrix in="SourceAlpha" type="matrix" values="0 0 0 0 0 0 0 0 0 0 0 0 0 0 0 0 0 0 127 0" result="hardAlpha"/>
<feOffset dx="-2" dy="-2"/>
<feGaussianBlur stdDeviation="2"/>
<feComposite in2="hardAlpha" operator="out"/>
<feColorMatrix type="matrix" values="0 0 0 0 1 0 0 0 0 1 0 0 0 0 1 0 0 0 0.35 0"/>
<feBlend mode="normal" in2="effect1_dropShadow_287_3470" result="effect2_dropShadow_287_3470"/>
<feBlend mode="normal" in="SourceGraphic" in2="effect2_dropShadow_287_3470" result="shape"/>
</filter>
<filter id="filter1_dd_287_3470" x="373.033" y="124.52" width="124.549" height="31.04" filterUnits="userSpaceOnUse" color-interpolation-filters="sRGB">
<feFlood flood-opacity="0" result="BackgroundImageFix"/>
<feColorMatrix in="SourceAlpha" type="matrix" values="0 0 0 0 0 0 0 0 0 0 0 0 0 0 0 0 0 0 127 0" result="hardAlpha"/>
<feOffset dx="2" dy="2"/>
<feGaussianBlur stdDeviation="2"/>
<feComposite in2="hardAlpha" operator="out"/>
<feColorMatrix type="matrix" values="0 0 0 0 1 0 0 0 0 1 0 0 0 0 1 0 0 0 0.35 0"/>
<feBlend mode="normal" in2="BackgroundImageFix" result="effect1_dropShadow_287_3470"/>
<feColorMatrix in="SourceAlpha" type="matrix" values="0 0 0 0 0 0 0 0 0 0 0 0 0 0 0 0 0 0 127 0" result="hardAlpha"/>
<feOffset dx="-2" dy="-2"/>
<feGaussianBlur stdDeviation="2"/>
<feComposite in2="hardAlpha" operator="out"/>
<feColorMatrix type="matrix" values="0 0 0 0 1 0 0 0 0 1 0 0 0 0 1 0 0 0 0.35 0"/>
<feBlend mode="normal" in2="effect1_dropShadow_287_3470" result="effect2_dropShadow_287_3470"/>
<feBlend mode="normal" in="SourceGraphic" in2="effect2_dropShadow_287_3470" result="shape"/>
</filter>
<filter id="filter2_dd_287_3470" x="696.4" y="124.52" width="92.9629" height="26.6399" filterUnits="userSpaceOnUse" color-interpolation-filters="sRGB">
<feFlood flood-opacity="0" result="BackgroundImageFix"/>
<feColorMatrix in="SourceAlpha" type="matrix" values="0 0 0 0 0 0 0 0 0 0 0 0 0 0 0 0 0 0 127 0" result="hardAlpha"/>
<feOffset dx="2" dy="2"/>
<feGaussianBlur stdDeviation="2"/>
<feComposite in2="hardAlpha" operator="out"/>
<feColorMatrix type="matrix" values="0 0 0 0 1 0 0 0 0 1 0 0 0 0 1 0 0 0 0.35 0"/>
<feBlend mode="normal" in2="BackgroundImageFix" result="effect1_dropShadow_287_3470"/>
<feColorMatrix in="SourceAlpha" type="matrix" values="0 0 0 0 0 0 0 0 0 0 0 0 0 0 0 0 0 0 127 0" result="hardAlpha"/>
<feOffset dx="-2" dy="-2"/>
<feGaussianBlur stdDeviation="2"/>
<feComposite in2="hardAlpha" operator="out"/>
<feColorMatrix type="matrix" values="0 0 0 0 1 0 0 0 0 1 0 0 0 0 1 0 0 0 0.35 0"/>
<feBlend mode="normal" in2="effect1_dropShadow_287_3470" result="effect2_dropShadow_287_3470"/>
<feBlend mode="normal" in="SourceGraphic" in2="effect2_dropShadow_287_3470" result="shape"/>
</filter>
</defs>
</svg>
