<svg width="206" height="134" viewBox="0 0 206 134" fill="none" xmlns="http://www.w3.org/2000/svg">
<path d="M100.878 132.782C100.725 132.513 100.648 130.786 100.725 128.943C100.802 125.642 100.802 125.565 99.8804 125.22C98.8824 124.836 98.1531 124.03 98.8056 124.03C98.9976 124.03 99.3047 124.222 99.4198 124.414C99.7269 124.913 100.763 124.913 100.763 124.414C100.763 124.222 100.188 123.799 99.535 123.531C97.8844 122.84 97.0783 121.918 97.7308 121.496C97.9995 121.343 98.3066 121.419 98.3834 121.65C98.5369 122.149 99.6117 122.302 99.6117 121.803C99.6117 121.65 99.4198 121.304 99.1511 121.036C98.9208 120.805 98.844 120.46 98.9976 120.306C99.343 119.922 100.034 120.959 99.9188 121.726C99.8421 122.034 99.9956 122.379 100.188 122.494C100.418 122.609 100.61 120.306 100.687 116.276C100.802 110.249 100.763 109.788 100.034 109.021C99.4198 108.368 99.1511 108.291 98.7289 108.598C97.9228 109.289 97.654 108.675 98.345 107.677C98.8056 106.948 98.844 106.641 98.4602 106.18C97.9611 105.566 98.1915 105.412 99.8037 105.144C100.533 105.028 100.571 104.683 100.687 100.384C100.802 95.048 100.955 95.24 96.8479 95.24C90.3607 95.24 77.6548 91.7468 70.6301 88.0233C55.7362 80.1158 44.6042 67.2947 39.5372 52.1322C38.0402 47.6794 36.6583 41.2689 36.6583 38.8505C36.6583 38.0444 36.5431 36.8544 36.4279 36.2019L36.1976 35.0503L27.1385 35.2038C22.1483 35.2806 17.7722 35.4341 17.4267 35.5493C17.0813 35.6645 16.5822 35.5109 16.3135 35.1654C16.0448 34.8584 15.661 34.5896 15.4307 34.5896C15.2387 34.5896 15.3539 34.9351 15.7377 35.3574C16.2752 35.9716 16.3519 36.2403 16.0065 36.5857C15.7377 36.8544 15.5458 37.5454 15.5458 38.1212C15.5458 39.196 15.0468 39.5415 14.5862 38.8121C14.4326 38.5818 14.5478 38.1212 14.8549 37.7757C15.2771 37.2383 15.2387 37.1615 14.5478 37.3535C13.3962 37.6606 12.5133 37.0464 13.5881 36.7009C14.6245 36.3938 14.6245 35.7412 13.6265 35.7412C13.2043 35.7412 12.8588 35.5877 12.8588 35.3958C12.8588 35.2038 12.3981 34.9351 11.8223 34.8584C11.1314 34.7432 11.3617 34.6664 12.4749 34.628C14.0488 34.5896 14.2791 34.4745 14.6629 33.4381C14.97 32.6319 14.97 32.2865 14.6245 32.1329C14.3558 32.0178 14.3942 31.8258 14.7781 31.5571C15.5842 31.0197 15.9297 31.4036 15.9297 32.8239C15.9297 33.8219 16.1216 34.1674 16.8126 34.3593C17.2732 34.4745 21.8412 34.5896 26.9465 34.5896H36.236L36.3896 33.5532L36.5431 32.4784L36.6199 33.5532C36.6583 34.5513 36.7734 34.628 38.1169 34.5129L39.5372 34.3977L39.8059 30.943C40.1514 26.6437 41.2262 20.7706 41.6869 20.7706C42.0323 20.7706 41.8788 21.999 41.3798 23.4576C40.9959 24.6476 40.2282 32.6319 40.3817 33.5916L40.5737 34.5896H45.2568C51.6289 34.5896 51.4754 34.6664 52.0128 31.5955C53.3179 24.0334 59.3829 17.8149 67.6744 15.5884C78.9983 12.5175 90.3223 17.6613 97.8076 29.2923C98.9976 31.0965 100.149 32.7087 100.341 32.8623C100.648 33.0158 100.763 31.7107 100.763 28.8317C100.763 26.1447 100.917 24.6476 101.147 24.8012C101.378 24.9547 101.454 26.6821 101.339 29.2156C101.186 32.4784 101.262 33.4764 101.685 33.8987C102.107 34.3593 104.602 34.4361 116.079 34.3977C123.718 34.3977 129.937 34.5129 129.937 34.6664C129.937 34.9351 107.519 35.2038 103.796 35.0119C102.107 34.8967 101.186 35.7412 101.109 37.3918C101.07 38.4283 101.032 38.4667 100.878 37.6606C100.802 37.1231 100.648 36.317 100.571 35.8564L100.379 34.9735H76.3497H52.3582L52.0128 35.8564L51.6673 36.7009L51.3986 35.8564C51.1683 35.0119 51.0147 34.9735 47.0609 35.1271L42.992 35.2806L42.7617 36.7393L42.5697 38.2363L42.3778 36.7009C42.2627 35.4725 42.0707 35.1654 41.4565 35.1654C40.8424 35.1654 40.6504 35.4725 40.5737 36.509C40.2666 39.5415 42.5314 50.0593 44.4891 54.8576C49.3641 66.9493 60.3042 78.6571 72.2423 84.6453C80.5722 88.7911 90.4374 91.4013 97.9995 91.4013C100.61 91.4013 100.763 91.3629 100.763 90.5184C100.763 89.6739 100.495 89.5204 98.4602 89.3669C98.1147 89.3285 97.846 89.0214 97.846 88.6375C97.846 87.793 98.3834 87.7162 98.6905 88.5224C99.036 89.4052 100.763 89.2517 100.763 88.3304C100.763 87.8698 100.495 87.5627 100.111 87.5243C99.535 87.5243 99.535 87.4475 100.188 87.2172C101.186 86.795 101.646 87.1021 101.416 87.9466C101.301 88.4072 101.493 88.7527 102.068 88.9062C102.875 89.1749 102.875 89.1749 102.107 89.4052C101.608 89.5972 101.339 90.0194 101.339 90.6336V91.5933L105.485 91.3246C118.69 90.4033 132.048 84.6453 142.412 75.3943C149.399 69.1373 155.656 59.963 158.803 51.3261C160.147 47.6794 161.682 40.6547 161.874 37.4686C161.989 35.2038 161.989 35.1654 160.915 35.0503C159.955 34.9351 159.84 35.0119 160.07 35.7029C160.224 36.1635 160.147 36.509 159.917 36.509C159.686 36.509 159.494 36.2019 159.494 35.818C159.494 35.2038 159.034 35.1271 155.31 35.0887C151.356 35.0503 151.088 35.0887 150.857 35.8564L150.55 36.7009L150.397 35.8564C150.243 35.0119 150.09 34.9735 145.407 34.9735C142.72 34.9735 140.647 34.8967 140.762 34.7816C140.839 34.6664 145.253 34.5896 150.512 34.5513C155.771 34.5513 160.569 34.4361 161.183 34.3209L162.258 34.0906L162.028 30.0217C161.913 27.7953 161.721 25.6073 161.644 25.185C161.107 22.8051 161.068 20.8474 161.606 20.617C161.951 20.5019 162.066 20.617 161.951 20.9625C161.836 21.2696 161.913 23.0354 162.181 24.8779C162.412 26.7205 162.642 29.2923 162.719 30.5591C162.796 31.8258 162.872 33.1694 162.911 33.5532C162.949 34.0522 163.295 34.2058 164.293 34.2058C165.79 34.2058 165.751 34.3209 165.636 29.9065C165.598 28.5246 165.751 27.6801 165.982 27.6801C166.25 27.6801 166.404 28.8701 166.404 30.9046V34.0906L168.17 34.3209C169.129 34.3977 173.505 34.4745 177.958 34.4361C182.373 34.4361 185.981 34.5129 185.981 34.7048C185.981 34.8584 181.566 34.9735 176.192 34.9735H166.442L166.25 36.2403C166.174 36.8928 165.866 38.9273 165.636 40.7315C164.753 47.2955 161.913 55.7405 158.919 60.7691C158.189 62.0358 157.575 63.1106 157.575 63.2258C157.575 63.4945 154.12 68.408 152.623 70.2889C146.597 77.8126 138.343 84.2999 128.977 88.9062C121.645 92.4761 113.354 94.7025 105.562 95.2016L101.723 95.4319L101.531 96.9673C101.416 97.8118 101.378 99.9999 101.454 101.842C101.569 104.414 101.761 105.22 102.222 105.412C102.529 105.527 102.951 105.412 103.105 105.144C103.527 104.453 104.41 105.336 104.103 106.18C103.911 106.602 103.566 106.717 102.875 106.526C102.145 106.334 101.915 106.449 101.915 106.948C101.915 107.332 102.107 107.524 102.414 107.408C102.644 107.332 103.182 107.639 103.527 108.099C104.141 108.905 104.141 109.021 103.566 109.52C102.99 109.942 102.951 109.942 103.182 109.366C103.489 108.483 102.567 108.445 101.877 109.289C101.416 109.865 101.262 113.282 101.454 119.577C101.531 121.842 101.608 122.149 102.184 121.957C102.529 121.803 102.951 121.918 103.143 122.187C103.374 122.571 103.527 122.571 103.834 122.11C104.103 121.688 104.295 121.65 104.64 121.995C105.255 122.609 104.717 123.339 103.719 123.224C102.184 123.108 101.531 123.262 101.531 123.684C101.531 123.914 101.838 123.991 102.26 123.838C102.759 123.684 103.028 123.838 103.143 124.337C103.297 124.913 103.182 125.028 102.452 124.874C101.608 124.721 101.531 124.836 101.454 126.371C101.416 127.292 101.416 129.212 101.454 130.67C101.531 133.281 101.454 133.626 100.878 132.782ZM100.379 107.332C100.111 107.025 99.7653 106.756 99.5734 106.756C99.3814 106.756 99.2279 107.025 99.2279 107.332C99.2279 107.677 99.5734 107.907 100.034 107.907C100.725 107.907 100.763 107.831 100.379 107.332ZM100.763 93.5126C100.763 92.7065 100.571 92.169 100.303 92.1307C100.034 92.0923 98.6137 92.0155 97.1166 91.9387C88.5949 91.5165 79.3822 88.9062 71.2059 84.607C61.2639 79.4248 51.7441 69.9434 46.2932 59.8094C42.6849 53.1302 40.2282 44.0327 39.7676 35.4725C39.7292 35.1654 39.1918 34.9735 38.3856 34.9735C37.0805 34.9735 37.0421 35.0119 37.0421 36.4322C37.0421 40.3092 38.5008 47.8713 40.305 53.1686C40.6504 54.1666 41.7636 56.7769 42.8001 58.9649C50.0167 74.1275 63.8741 86.1424 80.4186 91.5165C86.2917 93.4358 93.278 94.7409 98.1915 94.8177L100.763 94.8561V93.5126ZM112.241 93.858C118.575 92.7448 122.72 91.4013 128.977 88.3304C149.859 78.1197 163.563 58.9649 165.483 37.3918C165.751 34.3593 165.598 34.1674 163.602 34.9351C162.757 35.2422 162.642 35.5877 162.412 38.1212C161.452 48.0248 157.345 58.1204 150.665 67.026C146.251 72.8608 138.766 79.8471 134.543 81.9967C133.814 82.3806 133.123 82.8028 133.008 82.918C132.509 83.5321 126.367 86.5647 122.644 88.0617C117.922 89.9426 110.13 91.5549 104.295 91.9003C101.685 92.0539 101.646 92.0923 101.531 92.9368C101.224 94.9329 101.262 94.9713 105.216 94.7025C107.251 94.549 110.437 94.1651 112.241 93.858ZM97.8076 34.2442C98.8056 34.2058 99.6117 34.0522 99.6117 33.8219C99.6117 32.939 95.466 26.6053 93.5083 24.5324C87.8272 18.3906 81.4934 15.3197 74.4687 15.2814C70.0159 15.243 67.0986 15.9723 62.2235 18.3139C57.3868 20.617 53.0876 26.874 52.2815 32.7471C52.0895 33.9755 52.1663 34.1674 52.8957 34.2826C53.625 34.3977 92.28 34.3593 97.8076 34.2442Z" stroke="white" stroke-width="0.383863"/>
<path d="M93.2776 32.594C92.6635 32.3636 91.8957 32.0949 91.5887 32.0182C91.1664 31.903 91.1664 31.7495 91.4735 31.4424C91.7806 31.1353 92.0493 31.1353 92.4715 31.5191C92.9706 31.903 93.1241 31.8646 93.316 31.3656C93.6231 30.5211 94.3525 30.5979 95.2353 31.5575C95.8495 32.2101 95.8495 32.402 95.3889 32.6707C94.7363 33.093 94.8131 33.093 93.2776 32.594Z" stroke="white" stroke-width="0.383863"/>
<path d="M102.299 120.998C102.299 120.806 102.568 120.576 102.875 120.422C103.22 120.307 103.45 120.422 103.45 120.768C103.45 121.075 103.182 121.343 102.875 121.343C102.568 121.343 102.299 121.19 102.299 120.998Z" stroke="white" stroke-width="0.383863"/>
<path d="M106.137 105.605C106.137 105.413 106.405 105.221 106.713 105.221C107.02 105.221 107.288 105.413 107.288 105.605C107.288 105.835 107.02 105.988 106.713 105.988C106.405 105.988 106.137 105.835 106.137 105.605Z" stroke="white" stroke-width="0.383863"/>
<path d="M126.482 101.459C126.482 101.267 126.751 100.96 127.097 100.845C127.48 100.692 127.634 100.807 127.557 101.075C127.365 101.651 126.482 101.958 126.482 101.459Z" stroke="white" stroke-width="0.383863"/>
<path d="M145.369 91.3251C145.561 90.7493 146.444 90.4422 146.444 90.9412C146.444 91.1331 146.175 91.4402 145.829 91.5554C145.446 91.7089 145.292 91.5938 145.369 91.3251Z" stroke="white" stroke-width="0.383863"/>
<path d="M54.892 90.2116C54.5082 89.6359 55.0072 89.252 55.5062 89.751C55.7749 90.0197 55.7749 90.25 55.5446 90.4036C55.3143 90.5187 55.0072 90.442 54.892 90.2116Z" stroke="white" stroke-width="0.383863"/>
<path d="M147.594 89.5589C147.594 89.367 147.862 89.0599 148.208 88.9447C148.592 88.7912 148.745 88.9064 148.669 89.1751C148.477 89.7509 147.594 90.058 147.594 89.5589Z" stroke="white" stroke-width="0.383863"/>
<path d="M104.717 88.5222C104.985 87.9847 105.292 87.5625 105.408 87.5625C105.791 87.5625 105.599 88.8676 105.177 89.1747C104.448 89.7121 104.294 89.4818 104.717 88.5222Z" stroke="white" stroke-width="0.383863"/>
<path d="M102.299 88.254C102.299 88.1389 102.913 87.4095 103.642 86.6418C104.986 85.1831 105.523 85.1831 104.295 86.6034C103.566 87.4863 102.299 88.5228 102.299 88.254Z" stroke="white" stroke-width="0.383863"/>
<path d="M92.2027 84.1081C90.3601 82.2272 88.9782 80.6533 89.1702 80.6533C89.3621 80.6533 90.8208 81.9968 92.3946 83.6474C93.9684 85.2597 95.6191 86.7951 96.0029 87.0638C96.5787 87.4093 96.5787 87.5245 96.1565 87.5245C95.8494 87.5628 94.0452 86.0274 92.2027 84.1081Z" stroke="white" stroke-width="0.383863"/>
<path d="M107.71 87.1019C107.787 87.0251 108.401 86.5644 109.016 86.027L110.167 85.0674L109.246 86.1422C108.708 86.718 108.133 87.1786 107.941 87.1786C107.71 87.1786 107.634 87.1402 107.71 87.1019Z" stroke="white" stroke-width="0.383863"/>
<path d="M106.942 86.1428C107.633 85.2215 108.516 84.4922 108.939 84.4922C109.131 84.4922 108.747 85.0296 108.056 85.6438C106.674 86.9105 106.175 87.1408 106.942 86.1428Z" stroke="white" stroke-width="0.383863"/>
<path d="M100.993 85.836C100.917 85.5673 100.341 85.2602 99.7267 85.145C98.767 84.9915 98.8054 84.9915 99.9954 84.9531C101.684 84.8763 102.414 85.2602 101.723 85.9127C101.339 86.2966 101.185 86.2582 100.993 85.836Z" stroke="white" stroke-width="0.383863"/>
<path d="M95.9641 85.2599C95.5803 84.8377 95.4267 84.4922 95.657 84.4922C95.849 84.4922 96.348 84.8377 96.7319 85.2599C97.1157 85.6822 97.2693 86.0276 97.0389 86.0276C96.847 86.0276 96.348 85.6822 95.9641 85.2599Z" stroke="white" stroke-width="0.383863"/>
<path d="M48.3647 84.4538C47.9808 83.878 48.4798 83.4942 48.9789 83.9932C49.2476 84.2619 49.2476 84.4922 49.0172 84.6458C48.7869 84.7609 48.4798 84.6842 48.3647 84.4538Z" stroke="white" stroke-width="0.383863"/>
<path d="M77.8459 84.6074C78.1914 84.5306 78.8056 84.5306 79.1894 84.6074C79.5349 84.7225 79.2278 84.7993 78.4985 84.7993C77.7691 84.7993 77.4621 84.7225 77.8459 84.6074Z" stroke="white" stroke-width="0.383863"/>
<path d="M105.753 84.6453C105.753 84.4533 106.751 83.3401 107.941 82.1118C109.131 80.8834 110.013 79.8086 109.937 79.6934C109.63 79.4247 107.173 80.3076 106.827 80.8067C106.597 81.1137 106.444 81.1137 106.252 80.8067C106.06 80.5763 105.445 80.4612 104.793 80.4996C104.179 80.5379 103.181 80.6147 102.605 80.6147C101.645 80.6531 101.53 80.8067 101.53 81.9966C101.53 82.726 101.722 83.3401 101.914 83.3401C102.144 83.3401 102.106 83.5705 101.837 83.8776C101.185 84.6069 100.148 83.8776 100.762 83.1482C100.993 82.8795 101.069 82.1886 100.916 81.6128C100.686 80.6147 100.57 80.5763 98.7663 80.7299C97.7299 80.845 96.8086 80.7683 96.6934 80.5763C96.5783 80.3844 96.1944 80.3076 95.8873 80.4228C95.5802 80.5763 94.6206 80.4612 93.7761 80.2309C92.9316 80.0389 92.1255 79.9238 92.0103 80.0773C91.8951 80.1925 92.4709 80.9602 93.277 81.8047C94.1215 82.6492 94.659 83.3401 94.5438 83.3401C94.3903 83.3401 93.4306 82.4573 92.3558 81.3824C91.2426 80.2309 90.2445 79.5399 90.0142 79.6934C89.7455 79.847 89.1697 79.8086 88.7475 79.5783C88.0565 79.2712 86.4827 78.7722 85.4079 78.5802C85.2927 78.5419 85.0624 78.4267 84.8321 78.3115C84.6401 78.158 83.834 77.9277 83.1047 77.7741C82.3753 77.6206 81.6844 77.3903 81.5692 77.2367C81.4541 77.1216 79.9954 76.3155 78.3064 75.5093C75.389 74.0891 71.704 71.8627 70.4372 70.8262C66.5602 67.5634 61.8003 62.8803 61.1094 61.6519C59.3436 58.5426 58.8446 57.9668 58.2304 58.4658C57.7314 58.8881 57.693 58.8497 57.9233 58.1588C58.2304 57.1223 56.8101 54.5121 56.0808 54.7808C55.7353 54.8959 55.6585 54.6272 55.7737 53.7827C55.8504 53.1685 55.7737 52.6311 55.5433 52.6311C55.3514 52.6311 54.9676 51.825 54.6989 50.827C54.4301 49.7905 54.0847 48.8309 53.9695 48.6006C53.4321 47.6793 52.7795 45.4529 52.7795 44.4932C52.7795 43.9174 52.5876 43.3417 52.3957 43.2265C52.1654 43.0729 52.0886 42.8426 52.2037 42.6507C52.3189 42.4972 52.2421 41.2304 52.0502 39.8869C51.8583 38.4666 51.8583 37.315 52.0502 37.1231C52.2421 36.8928 52.3957 37.4302 52.3957 38.4666C52.3957 42.2285 55.0059 50.7118 57.3859 54.8191C61.6852 62.0742 67.9037 68.6766 74.0839 72.6304C76.1184 73.9355 81.1854 76.3155 84.8705 77.6974C87.7494 78.7722 96.9237 80.1541 99.9179 79.9622L100.762 79.8854V72.0162C100.762 67.6785 100.916 64.147 101.069 64.147C101.223 64.147 101.377 67.6018 101.415 71.8627C101.453 76.0851 101.568 79.6551 101.684 79.7702C101.914 80.0389 105.369 79.9622 107.019 79.6934C107.595 79.5783 109.131 79.348 110.474 79.1177C119.802 77.5438 131.088 71.3252 137.728 64.1086C141.452 60.0781 145.406 54.0514 146.711 50.5199C146.979 49.9057 147.517 48.4086 147.939 47.2571C148.4 46.1055 148.937 44.1094 149.129 42.8426C149.782 39.004 149.897 38.6585 150.319 39.0808C150.588 39.3495 150.626 39.7333 150.357 40.194C149.782 41.384 149.475 43.4184 149.935 43.4184C150.165 43.4184 150.089 43.8407 149.782 44.4932C149.475 45.069 148.745 46.758 148.169 48.2167C147.555 49.7138 146.826 51.4795 146.519 52.2089C146.058 53.2069 146.02 53.5908 146.365 53.7059C147.133 53.9363 146.864 54.5121 146.097 54.2817C145.598 54.1666 145.29 54.3585 145.099 54.9343C144.791 55.9323 142.757 59.0033 141.759 60.0013C141.375 60.3852 141.068 60.8842 141.068 61.1145C141.068 61.3448 140.415 62.1125 139.648 62.8803C138.842 63.6096 138.189 64.5309 138.189 64.8764C138.151 65.2218 137.959 65.4521 137.767 65.4138C137.536 65.3754 136.769 65.9512 136.078 66.6421C135.348 67.3715 134.926 67.9856 135.08 67.9856C135.272 67.9856 135.233 68.216 135.041 68.4847C134.849 68.715 134.35 69.9817 134.005 71.2485C133.045 74.5497 132.93 74.78 132.738 74.2426C132.661 73.9739 132.738 73.4365 132.968 73.0142C133.199 72.592 133.391 71.9778 133.391 71.6323C133.391 71.2869 133.736 70.3272 134.12 69.5211C134.542 68.6766 134.773 67.9856 134.696 67.9856C134.158 67.9856 131.51 70.4424 131.817 70.6343C132.009 70.7878 131.932 71.2101 131.587 71.6323C131.011 72.4001 131.011 72.4001 131.203 71.5556C131.433 70.5191 131.011 70.4424 130.089 71.3252C129.744 71.7091 129.091 72.1697 128.631 72.4384C128.17 72.6688 127.134 73.2446 126.289 73.7436C123.18 75.5093 119.648 77.1983 119.073 77.1983C118.727 77.1983 118.343 77.3903 118.228 77.5822C118.113 77.8125 117.614 77.9661 117.153 77.9661C116.693 77.9661 115.963 78.2348 115.579 78.5419C115.157 78.849 114.389 79.1177 113.89 79.1177C112.317 79.1177 110.359 80.3076 108.017 82.6876C106.751 83.9543 105.753 84.8372 105.753 84.6453Z" stroke="white" stroke-width="0.383863"/>
<path d="M122.835 84.1085C122.95 83.9165 123.334 83.7246 123.641 83.7246C123.948 83.7246 124.102 83.9165 123.987 84.1085C123.872 84.3388 123.488 84.4923 123.181 84.4923C122.873 84.4923 122.72 84.3388 122.835 84.1085Z" stroke="white" stroke-width="0.383863"/>
<path d="M73.7009 82.7643C72.8564 82.2653 72.3957 81.8047 72.6645 81.8047C72.9332 81.8047 73.4322 82.0734 73.7393 82.3805C74.0847 82.6876 74.9676 82.9563 75.7354 82.9563C76.8102 82.9563 77.0021 83.0714 76.5799 83.3401C75.7354 83.8775 75.3899 83.8008 73.7009 82.7643Z" stroke="white" stroke-width="0.383863"/>
<path d="M111.165 82.1893C112.893 80.6539 113.43 80.3852 113.43 81.0378C113.43 81.2681 113.2 81.4216 112.931 81.4216C112.663 81.4216 112.01 81.959 111.434 82.5732C110.897 83.2258 110.206 83.7248 109.976 83.7248C109.707 83.7248 110.244 83.0338 111.165 82.1893Z" stroke="white" stroke-width="0.383863"/>
<path d="M125.33 83.226C126.021 82.6118 130.282 80.8844 130.512 81.1147C130.627 81.2299 129.783 81.6905 128.669 82.1512C127.595 82.6502 126.366 83.1876 126.021 83.3795C125.023 83.8786 124.716 83.8018 125.33 83.226Z" stroke="white" stroke-width="0.383863"/>
<path d="M70.2464 80.8075C69.6322 80.27 69.3635 79.9246 69.6706 80.0397C69.9777 80.1549 70.5534 80.3852 70.9373 80.5004C71.2828 80.6539 71.5899 80.9994 71.5899 81.2681C71.5899 81.959 71.6283 81.959 70.2464 80.8075Z" stroke="white" stroke-width="0.383863"/>
<path d="M120.763 81.3834C120.264 81.1914 119.919 80.9227 120.034 80.846C120.264 80.6156 122.26 81.3066 122.26 81.6137C122.26 81.8824 121.838 81.8056 120.763 81.3834Z" stroke="white" stroke-width="0.383863"/>
<path d="M156.885 80.9605C156.961 80.7302 157.268 80.4231 157.499 80.3463C157.768 80.2696 157.883 80.4231 157.729 80.807C157.46 81.4979 156.654 81.6515 156.885 80.9605Z" stroke="white" stroke-width="0.383863"/>
<path d="M86.3693 80.7687C85.7551 80.6535 85.0641 80.4232 84.8338 80.1929C84.3348 79.6555 87.2906 80.0777 87.8663 80.6535C88.0583 80.8454 88.0967 80.999 87.9047 80.999C87.6744 80.9606 87.0218 80.8454 86.3693 80.7687Z" stroke="white" stroke-width="0.383863"/>
<path d="M81.2241 80.4999C81.3009 80.4231 82.0302 80.2696 82.8363 80.1161C83.8727 79.9241 84.2566 79.9625 84.0647 80.2312C83.9495 80.4615 83.2202 80.6535 82.4525 80.6535C81.6847 80.6535 81.1473 80.5767 81.2241 80.4999Z" stroke="white" stroke-width="0.383863"/>
<path d="M117.001 80.385C116.31 80.3082 115.734 80.0779 115.734 79.9243C115.734 79.5021 118.191 79.7324 119.074 80.2314C119.727 80.6153 119.727 80.6153 118.997 80.5769C118.575 80.5385 117.654 80.4617 117.001 80.385Z" stroke="white" stroke-width="0.383863"/>
<path d="M126.098 80.4998C126.098 80.1543 127.633 80.0008 127.863 80.3079C127.979 80.4998 127.633 80.6534 127.096 80.6534C126.558 80.6534 126.098 80.5766 126.098 80.4998Z" stroke="white" stroke-width="0.383863"/>
<path d="M129.592 79.3869C130.13 78.9262 131.089 77.7363 131.665 76.7382C132.893 74.5118 133.162 74.3967 132.394 76.3544C131.742 77.8514 129.669 80.2698 129.016 80.2698C128.786 80.2314 129.055 79.8475 129.592 79.3869Z" stroke="white" stroke-width="0.383863"/>
<path d="M76.3882 78.7724C75.8508 78.5421 76.2346 78.3885 77.8468 78.3117C80.1884 78.1582 80.8026 78.5037 78.8449 78.8875C77.4246 79.1562 77.3862 79.1562 76.3882 78.7724Z" stroke="white" stroke-width="0.383863"/>
<path d="M123.027 78.7732C123.027 78.5813 123.795 78.4277 124.755 78.4277C125.676 78.4661 126.367 78.6197 126.252 78.8116C125.983 79.2338 123.027 79.1955 123.027 78.7732Z" stroke="white" stroke-width="0.383863"/>
<path d="M158.804 78.6957C158.881 78.427 159.188 78.1199 159.456 78.0431C159.764 77.928 159.917 78.0815 159.802 78.3886C159.725 78.6573 159.418 78.9644 159.149 79.0412C158.842 79.1563 158.689 79.0028 158.804 78.6957Z" stroke="white" stroke-width="0.383863"/>
<path d="M74.2769 78.1578C73.893 77.6972 73.893 77.582 74.392 77.582C75.1214 77.582 75.582 78.1962 75.083 78.5033C74.891 78.6185 74.5456 78.4649 74.2769 78.1578Z" stroke="white" stroke-width="0.383863"/>
<path d="M119.073 78.2352C119.572 78.0049 120.301 78.0049 120.992 78.2352C121.952 78.5807 121.875 78.6191 120.148 78.6191C118.651 78.6191 118.42 78.5423 119.073 78.2352Z" stroke="white" stroke-width="0.383863"/>
<path d="M128.017 77.7741C128.516 77.2367 128.976 76.8145 129.053 76.8145C129.399 76.8145 129.092 77.5822 128.554 78.1196C127.556 79.1176 127.057 78.8105 128.017 77.7741Z" stroke="white" stroke-width="0.383863"/>
<path d="M71.9728 76.7384C71.5506 76.2778 71.2051 75.6252 71.2051 75.3182C71.2435 74.8575 71.3202 74.8959 71.6657 75.4717C71.896 75.8939 72.4334 76.5465 72.8941 76.892C73.3163 77.2759 73.5083 77.5829 73.2396 77.5829C72.9708 77.5829 72.4334 77.1991 71.9728 76.7384Z" stroke="white" stroke-width="0.383863"/>
<path d="M135.311 76.5849C135.311 75.9324 135.963 75.203 136.232 75.5869C136.347 75.7788 136.193 76.1627 135.886 76.4314C135.579 76.7001 135.311 76.7769 135.311 76.5849Z" stroke="white" stroke-width="0.383863"/>
<path d="M69.2855 74.8956C69.0168 74.2431 68.9017 73.6289 68.9784 73.5137C69.0936 73.3986 69.4007 73.8592 69.631 74.5502C70.1684 76.1624 69.8997 76.4311 69.2855 74.8956Z" stroke="white" stroke-width="0.383863"/>
<path d="M65.2557 75.1261C65.1406 74.7806 64.987 74.2432 64.8719 73.9361C64.7951 73.6291 64.7951 73.3604 64.9103 73.3604C65.179 73.3604 65.8699 75.3564 65.678 75.5868C65.5628 75.7019 65.3709 75.4716 65.2557 75.1261Z" stroke="white" stroke-width="0.383863"/>
<path d="M71.0516 73.5134C70.6677 72.0931 70.9748 72.0164 71.4738 73.3599C71.7041 74.0125 71.7809 74.5115 71.589 74.5115C71.4354 74.5115 71.1667 74.0508 71.0516 73.5134Z" stroke="white" stroke-width="0.383863"/>
<path d="M130.358 73.5905C130.627 73.0147 130.934 72.7076 131.011 72.9763C131.126 73.245 130.896 73.7056 130.512 74.0511C129.936 74.6653 129.898 74.6269 130.358 73.5905Z" stroke="white" stroke-width="0.383863"/>
<path d="M66.445 70.2511C66.0611 69.1763 65.8692 68.1782 65.9844 68.0631C66.0995 67.9863 66.2915 68.1015 66.3682 68.4085C67.1743 70.942 67.4047 71.9017 67.2511 72.0552C67.1743 72.1704 66.7905 71.3643 66.445 70.2511Z" stroke="white" stroke-width="0.383863"/>
<path d="M64.4875 70.6735C64.3339 70.2128 64.2955 69.7522 64.4107 69.637C64.5259 69.5603 64.7178 69.829 64.8713 70.2896C65.0249 70.7502 65.0633 71.2109 64.9481 71.326C64.833 71.4028 64.641 71.1341 64.4875 70.6735Z" stroke="white" stroke-width="0.383863"/>
<path d="M37.2344 70.7113C37.0041 70.2891 37.5799 69.8284 37.9637 70.1739C38.3092 70.5194 38.2324 71.0568 37.8486 71.0568C37.6182 71.0568 37.3879 70.9033 37.2344 70.7113Z" stroke="white" stroke-width="0.383863"/>
<path d="M136.655 69.9054C136.77 69.7134 137.269 69.3296 137.73 69.0993C138.574 68.6386 138.574 68.6386 137.845 69.4831C137.116 70.2892 136.194 70.6347 136.655 69.9054Z" stroke="white" stroke-width="0.383863"/>
<path d="M140.11 68.4467C140.34 68.2547 141.185 67.986 142.029 67.8325C142.989 67.7173 143.296 67.7173 142.797 67.9476C141.415 68.5234 139.687 68.8305 140.11 68.4467Z" stroke="white" stroke-width="0.383863"/>
<path d="M63.5665 67.6788C63.2978 67.1798 63.1442 66.6808 63.2594 66.604C63.5665 66.2969 64.3726 67.5637 64.219 68.0627C64.1039 68.3698 63.8736 68.2163 63.5665 67.6788Z" stroke="white" stroke-width="0.383863"/>
<path d="M137.767 67.026C138.189 66.7189 138.727 66.4502 138.918 66.4502C139.149 66.4502 138.995 66.7189 138.611 67.026C138.189 67.3331 137.652 67.6018 137.46 67.6018C137.229 67.6018 137.383 67.3331 137.767 67.026Z" stroke="white" stroke-width="0.383863"/>
<path d="M147.172 65.9131C147.709 65.3757 148.285 64.915 148.477 64.915C148.976 64.915 148.016 66.0282 147.057 66.5273C146.327 66.9111 146.366 66.8344 147.172 65.9131Z" stroke="white" stroke-width="0.383863"/>
<path d="M140.493 66.1053C141.798 65.5295 143.986 65.1841 143.564 65.6063C143.372 65.7982 142.412 66.1053 141.452 66.2205C140.339 66.374 139.994 66.3357 140.493 66.1053Z" stroke="white" stroke-width="0.383863"/>
<path d="M149.284 63.9556C149.399 63.6485 149.322 63.3798 149.092 63.3798C148.861 63.3798 149.207 62.9575 149.783 62.4585C150.358 61.9595 150.896 61.5756 150.973 61.6524C151.126 61.8059 149.476 64.5314 149.245 64.5314C149.13 64.5314 149.13 64.2627 149.284 63.9556Z" stroke="white" stroke-width="0.383863"/>
<path d="M52.319 63.4953C51.7432 63.1498 51.2058 62.5356 51.0906 62.1134C50.9371 61.4992 51.0523 61.5376 51.7816 62.3053C52.2422 62.8043 52.9716 63.3801 53.3938 63.6488C53.7777 63.8791 53.9696 64.1094 53.7393 64.1094C53.5474 64.1094 52.8948 63.8407 52.319 63.4953Z" stroke="white" stroke-width="0.383863"/>
<path d="M56.6188 63.3027C54.6611 62.4965 53.1641 61.652 53.1641 61.4217C53.1641 61.3066 54.2005 61.6904 55.4672 62.3046C56.734 62.8804 57.7704 63.4562 57.7704 63.5714C57.7704 63.8017 57.8088 63.8017 56.6188 63.3027Z" stroke="white" stroke-width="0.383863"/>
<path d="M142.413 63.3797C143.488 62.919 143.833 62.919 143.564 63.3797C143.449 63.61 142.95 63.7635 142.49 63.7251C141.683 63.7251 141.683 63.6867 142.413 63.3797Z" stroke="white" stroke-width="0.383863"/>
<path d="M100.764 61.2302C100.764 60.0786 100.917 59.1957 101.109 59.3109C101.301 59.4261 101.455 60.3857 101.455 61.4605C101.455 62.497 101.301 63.3798 101.109 63.3798C100.917 63.3798 100.764 62.4202 100.764 61.2302Z" stroke="white" stroke-width="0.383863"/>
<path d="M33.089 62.3815C32.9355 62.2279 32.8203 61.8441 32.8203 61.4986C32.8203 61.0763 32.9355 61.0379 33.2426 61.345C33.4729 61.5753 33.6264 61.9592 33.5113 62.2279C33.4345 62.4582 33.2426 62.535 33.089 62.3815Z" stroke="white" stroke-width="0.383863"/>
<path d="M146.519 62.1511C146.634 61.8823 147.018 61.5753 147.402 61.4985C148.054 61.3833 148.054 61.4217 147.517 61.9975C146.749 62.7268 146.327 62.8036 146.519 62.1511Z" stroke="white" stroke-width="0.383863"/>
<path d="M50.0938 60.5008C49.8251 60.1554 49.6716 59.8099 49.7867 59.7331C49.9019 59.618 50.209 59.7715 50.4777 60.117C50.7464 60.4625 50.8999 60.8079 50.7848 60.8847C50.6696 60.9999 50.3625 60.8463 50.0938 60.5008Z" stroke="white" stroke-width="0.383863"/>
<path d="M55.8523 60.5006C55.5452 60.1551 55.5452 59.9248 55.7755 59.9248C56.4665 59.9248 57.3877 60.3854 57.3877 60.7309C57.3877 61.2683 56.3897 61.1148 55.8523 60.5006Z" stroke="white" stroke-width="0.383863"/>
<path d="M152.123 59.4645C152.507 58.6584 152.814 58.3513 152.891 58.6968C152.968 59.0039 152.699 59.6181 152.238 60.0403L151.471 60.8464L152.123 59.4645Z" stroke="white" stroke-width="0.383863"/>
<path d="M48.558 58.0051C48.3277 57.5829 48.2125 57.0071 48.2893 56.7384C48.4045 56.4697 48.6732 56.7768 48.9035 57.391C49.4409 58.7345 49.1722 59.1951 48.558 58.0051Z" stroke="white" stroke-width="0.383863"/>
<path d="M150.742 57.6215C150.742 56.8922 150.819 56.5851 150.934 56.969C151.011 57.3144 151.011 57.9286 150.934 58.3125C150.819 58.658 150.742 58.3509 150.742 57.6215Z" stroke="white" stroke-width="0.383863"/>
<path d="M100.764 57.5836C100.764 57.1613 100.956 56.931 101.148 57.0461C101.378 57.1613 101.531 57.5452 101.531 57.8523C101.531 58.1593 101.378 58.3897 101.148 58.3897C100.956 58.3897 100.764 58.0442 100.764 57.5836Z" stroke="white" stroke-width="0.383863"/>
<path d="M152.584 56.6621C152.584 55.856 152.661 55.7408 153.121 56.1631C153.39 56.4318 153.544 56.8924 153.467 57.1227C153.121 57.9672 152.584 57.6601 152.584 56.6621Z" stroke="white" stroke-width="0.383863"/>
<path d="M50.3613 56.5852C50.2845 56.3933 50.3229 55.8559 50.5148 55.3185C50.7835 54.4356 50.7835 54.4356 50.8219 55.6256C50.8603 56.8156 50.7068 57.161 50.3613 56.5852Z" stroke="white" stroke-width="0.383863"/>
<path d="M100.764 55.6646C100.764 55.2424 100.956 55.012 101.148 55.1272C101.378 55.2424 101.531 55.6262 101.531 55.9333C101.531 56.2404 101.378 56.4707 101.148 56.4707C100.956 56.4707 100.764 56.1252 100.764 55.6646Z" stroke="white" stroke-width="0.383863"/>
<path d="M47.6741 55.1647C47.4821 54.5889 47.4438 53.9747 47.5589 53.8596C47.866 53.5525 48.2499 54.8192 48.0963 55.587C47.9812 56.086 47.866 55.9708 47.6741 55.1647Z" stroke="white" stroke-width="0.383863"/>
<path d="M150.089 55.5874C149.936 55.2035 149.897 54.7813 150.051 54.6661C150.435 54.2823 150.742 54.8197 150.55 55.5874C150.396 56.24 150.396 56.24 150.089 55.5874Z" stroke="white" stroke-width="0.383863"/>
<path d="M100.764 53.5914C100.764 53.2843 100.956 53.0156 101.148 53.0156C101.378 53.0156 101.531 53.2843 101.531 53.5914C101.531 53.8985 101.378 54.1672 101.148 54.1672C100.956 54.1672 100.764 53.8985 100.764 53.5914Z" stroke="white" stroke-width="0.383863"/>
<path d="M149.206 51.3262C148.975 49.9443 148.899 48.4472 149.014 47.9482C149.283 46.835 150.664 44.8389 150.972 45.1076C151.087 45.2228 150.856 45.6834 150.434 46.144C149.897 46.7198 149.705 47.6027 149.628 49.4069C149.59 50.7504 149.705 51.9404 149.897 52.0555C150.357 52.3626 150.396 53.7829 149.935 53.7829C149.782 53.7829 149.436 52.6697 149.206 51.3262Z" stroke="white" stroke-width="0.383863"/>
<path d="M48.866 52.0563C48.7508 51.5189 48.8276 50.9815 48.9812 50.8664C49.1731 50.7512 49.3266 51.2118 49.3266 51.826C49.3266 53.2847 49.0963 53.3615 48.866 52.0563Z" stroke="white" stroke-width="0.383863"/>
<path d="M100.764 50.9045C100.764 50.06 100.917 49.5993 101.148 49.7529C101.378 49.868 101.531 50.4055 101.531 50.9045C101.531 51.4035 101.378 51.9409 101.148 52.0561C100.917 52.2096 100.764 51.749 100.764 50.9045Z" stroke="white" stroke-width="0.383863"/>
<path d="M28.5977 49.7531C28.5977 49.4076 28.7896 49.1773 29.0199 49.2541C29.2502 49.3308 29.4422 49.5611 29.4422 49.7531C29.4422 49.945 29.2502 50.1753 29.0199 50.2521C28.7896 50.3289 28.5977 50.0985 28.5977 49.7531Z" stroke="white" stroke-width="0.383863"/>
<path d="M100.764 47.4113C100.764 46.4516 100.917 45.7607 101.109 45.8758C101.263 45.991 101.416 46.7971 101.416 47.6416C101.416 48.4861 101.263 49.177 101.109 49.177C100.917 49.177 100.764 48.3709 100.764 47.4113Z" stroke="white" stroke-width="0.383863"/>
<path d="M152.47 46.9116C152.585 46.4509 152.815 46.1055 153.007 46.1055C153.545 46.1055 153.429 46.7196 152.815 47.2187C152.355 47.6025 152.316 47.5258 152.47 46.9116Z" stroke="white" stroke-width="0.383863"/>
<path d="M27.8301 46.4893C27.8301 46.2974 28.0988 46.1055 28.4059 46.1055C28.713 46.1055 28.9817 46.2974 28.9817 46.4893C28.9817 46.7196 28.713 46.8732 28.4059 46.8732C28.0988 46.8732 27.8301 46.7196 27.8301 46.4893Z" stroke="white" stroke-width="0.383863"/>
<path d="M50.2461 44.3787C49.44 43.6493 48.9409 43.0735 49.1329 43.0352C49.5167 43.0352 52.0118 45.2232 52.0118 45.5686C52.0118 45.8757 51.7431 45.7222 50.2461 44.3787Z" stroke="white" stroke-width="0.383863"/>
<path d="M46.4077 44.4174C46.0238 44.1103 45.7935 43.7648 45.9087 43.6497C46.0238 43.5345 46.4461 43.7648 46.8299 44.1871C47.636 45.07 47.4825 45.1851 46.4077 44.4174Z" stroke="white" stroke-width="0.383863"/>
<path d="M100.764 41.6535C100.764 40.0797 100.917 38.8513 101.071 38.9665C101.531 39.2352 101.57 44.5709 101.109 44.5709C100.917 44.5709 100.764 43.2657 100.764 41.6535Z" stroke="white" stroke-width="0.383863"/>
<path d="M152.085 43.8024C152.316 42.958 152.891 42.4589 153.199 42.766C153.467 43.0347 152.623 44.5702 152.239 44.5702C152.047 44.5702 151.97 44.2247 152.085 43.8024Z" stroke="white" stroke-width="0.383863"/>
<path d="M44.2968 42.766C43.4523 41.6912 42.7613 40.3477 43.0684 40.3477C43.2604 40.3477 43.7594 41.0386 44.22 41.8831C45.1029 43.5337 45.1413 43.8024 44.2968 42.766Z" stroke="white" stroke-width="0.383863"/>
<path d="M47.4832 42.7658C47.2145 42.6891 46.8307 42.2284 46.6003 41.8062C46.2549 41.1536 46.2933 41.1152 46.9458 41.4607C48.4429 42.2668 48.9035 43.3416 47.4832 42.7658Z" stroke="white" stroke-width="0.383863"/>
<path d="M157.191 42.2677C157.191 42.0374 157.383 41.9606 157.614 42.1141C157.844 42.2293 158.228 42.1141 158.42 41.8454C158.727 41.3848 158.765 41.4232 158.612 41.8838C158.458 42.5748 157.191 42.9203 157.191 42.2677Z" stroke="white" stroke-width="0.383863"/>
<path d="M154.119 42.1136C154.119 41.9985 154.695 41.5379 155.386 41.0772L156.614 40.1943L155.693 41.2308C154.848 42.152 154.119 42.5743 154.119 42.1136Z" stroke="white" stroke-width="0.383863"/>
<path d="M27.0605 40.5402C27.0605 40.1947 27.2525 39.9644 27.4828 40.0412C27.7131 40.1179 27.905 40.3483 27.905 40.5402C27.905 40.7321 27.7131 40.9624 27.4828 41.0392C27.2525 41.116 27.0605 40.8857 27.0605 40.5402Z" stroke="white" stroke-width="0.383863"/>
<path d="M44.7189 39.9641C44.2583 39.3499 43.9896 38.8125 44.1047 38.8125C44.1815 38.8125 44.6421 39.3499 45.1028 39.9641C45.5634 40.6167 45.8321 41.1157 45.7169 41.1157C45.6402 41.1157 45.1795 40.6167 44.7189 39.9641Z" stroke="white" stroke-width="0.383863"/>
<path d="M26.7934 37.8534C26.6782 37.5079 26.6782 37.1625 26.7934 37.0473C27.1389 36.7018 27.8298 37.2776 27.8298 37.8918C27.8298 38.6211 27.1005 38.5828 26.7934 37.8534Z" stroke="white" stroke-width="0.383863"/>
<path d="M175.848 37.8531C175.733 37.5077 175.848 37.2773 176.193 37.2773C176.5 37.2773 176.769 37.546 176.769 37.8531C176.769 38.1602 176.616 38.4289 176.424 38.4289C176.232 38.4289 176.001 38.1602 175.848 37.8531Z" stroke="white" stroke-width="0.383863"/>
<path d="M187.208 37.5453C186.325 36.624 186.018 34.0905 186.748 33.6299C186.978 33.5147 187.132 33.5915 187.132 33.7834C187.132 34.0137 187.362 34.2057 187.669 34.2057C188.091 34.2057 188.206 33.8218 188.091 32.6702C187.976 31.5186 188.091 31.1348 188.513 31.1348C188.859 31.1348 189.051 31.4419 189.012 31.8257C188.974 32.1712 189.128 32.9773 189.358 33.5531C189.703 34.3976 190.01 34.5895 190.586 34.3976C191.009 34.2441 191.354 34.3208 191.354 34.5511C191.354 34.7815 191.047 34.9734 190.625 34.9734C190.01 34.9734 189.972 35.1653 190.164 36.2401C190.394 37.2766 190.279 37.5453 189.511 37.9675C188.283 38.5817 188.168 38.5817 187.208 37.5453ZM188.974 37.4301C189.435 37.2766 189.819 37.0079 189.819 36.8159C189.819 36.624 189.511 36.5472 189.166 36.6624C188.782 36.7775 188.245 36.7008 187.938 36.5472C187.477 36.2401 187.477 36.0866 187.861 35.5876C188.321 35.0502 188.245 34.9734 187.554 34.9734C186.671 34.9734 186.517 35.7411 187.132 36.9311C187.592 37.7372 187.669 37.7756 188.974 37.4301Z" stroke="white" stroke-width="0.383863"/>
<path d="M201.528 36.4711C201.758 35.5883 201.643 35.3963 200.683 35.166C199.877 34.9357 199.8 34.8205 200.299 34.7054C200.645 34.5902 200.952 34.3599 200.952 34.1296C200.952 33.8993 200.645 33.477 200.299 33.2083C199.877 32.9012 199.8 32.7093 200.069 32.6709C200.338 32.6709 200.875 33.0548 201.297 33.477C201.873 34.0912 202.526 34.2831 203.984 34.2831C205.059 34.2831 205.827 34.4367 205.712 34.6286C205.596 34.8205 204.829 34.9741 203.984 34.9741C203.063 34.9741 202.526 35.1276 202.679 35.3579C202.794 35.5499 202.526 36.1257 202.103 36.5863L201.297 37.4692L201.528 36.4711Z" stroke="white" stroke-width="0.383863"/>
<path d="M2.30265 36.1632C2.49458 35.4722 2.37942 35.3571 1.38138 35.3571C0.728814 35.3571 0.191406 35.2035 0.191406 34.9732C0.191406 34.7813 0.652041 34.5893 1.26622 34.5893C1.95717 34.5893 2.41781 34.3206 2.68651 33.7448C2.91683 33.2842 3.33908 32.8236 3.64617 32.7468C4.14519 32.5549 4.14519 32.6316 3.72294 33.169C3.10876 33.8984 3.49263 34.7429 4.26035 34.4358C5.41194 33.9751 5.02808 34.858 3.5694 35.8945C2.14911 36.9309 2.03395 36.9309 2.30265 36.1632Z" stroke="white" stroke-width="0.383863"/>
<path d="M6.14175 34.9737C6.25691 34.7818 6.64077 34.5898 6.94786 34.5898C7.25495 34.5898 7.4085 34.7818 7.29334 34.9737C7.17818 35.204 6.79432 35.3576 6.48723 35.3576C6.18014 35.3576 6.02659 35.204 6.14175 34.9737Z" stroke="white" stroke-width="0.383863"/>
<path d="M8.3674 34.705C8.71287 34.6283 9.32705 34.6283 9.71092 34.705C10.0564 34.8202 9.7493 34.897 9.01996 34.897C8.29063 34.897 7.98354 34.8202 8.3674 34.705Z" stroke="white" stroke-width="0.383863"/>
<path d="M132.393 34.6283C132.584 34.3212 139.149 34.4364 139.494 34.7819C139.571 34.897 137.997 34.9738 135.924 34.9738C133.89 34.9738 132.277 34.8202 132.393 34.6283Z" stroke="white" stroke-width="0.383863"/>
<path d="M194.426 34.7049C194.426 34.5129 195.539 34.3978 196.883 34.3594C198.264 34.3594 199.301 34.4745 199.186 34.6665C198.955 35.0503 194.426 35.0887 194.426 34.7049Z" stroke="white" stroke-width="0.383863"/>
<path d="M12.9348 33.362C13.1651 32.671 14.0096 32.5559 14.0096 33.2084C14.0096 33.5539 13.7409 33.8226 13.3954 33.8226C13.0499 33.8226 12.858 33.6307 12.9348 33.362Z" stroke="white" stroke-width="0.383863"/>
<path d="M16.966 33.5924C16.8124 33.4389 16.6973 33.055 16.6973 32.7095C16.6973 32.2873 16.8124 32.2489 17.1195 32.556C17.3498 32.7863 17.5034 33.1701 17.3882 33.4389C17.3114 33.6692 17.1195 33.7459 16.966 33.5924Z" stroke="white" stroke-width="0.383863"/>
<path d="M202.179 33.4772C202.256 33.2085 202.448 33.0166 202.602 33.0166C203.062 33.055 202.947 33.5924 202.486 33.7843C202.218 33.8611 202.064 33.7076 202.179 33.4772Z" stroke="white" stroke-width="0.383863"/>
<path d="M189.705 33.2084C189.397 32.9013 189.743 32.2871 190.204 32.2871C190.357 32.2871 190.587 32.5558 190.741 32.8629C190.933 33.4387 190.204 33.669 189.705 33.2084Z" stroke="white" stroke-width="0.383863"/>
<path d="M186.748 32.4788C186.748 31.8646 187.362 31.7111 187.669 32.2485C187.784 32.4404 187.631 32.6707 187.324 32.8243C186.978 32.9394 186.748 32.8243 186.748 32.4788Z" stroke="white" stroke-width="0.383863"/>
<path d="M36.4279 29.4076C36.5047 27.7186 36.6198 26.26 36.6582 26.1448C36.6966 26.0296 36.735 25.8377 36.6966 25.6842C36.6966 25.5306 36.9653 24.0719 37.3108 22.4981C37.6947 20.6172 38.1169 19.6191 38.4624 19.6191C38.8846 19.6191 38.8846 19.8111 38.5775 20.3869C37.9634 21.5001 37.1956 26.1064 37.0805 29.1005C37.0421 30.5208 36.8118 31.8644 36.6198 32.0947C36.3895 32.325 36.3127 31.3653 36.4279 29.4076Z" stroke="white" stroke-width="0.383863"/>
<path d="M165.597 27.0278C165.252 22.3063 164.791 20.6557 163.716 20.3486C162.834 20.1183 162.872 20.0799 164.024 20.0415C164.676 20.0031 165.252 20.1183 165.29 20.3102C165.29 20.4638 165.367 20.9244 165.444 21.3467C165.521 21.7689 165.713 22.8821 165.828 23.8418C165.981 24.8014 166.173 25.953 166.288 26.452C166.403 26.9511 166.327 27.2965 166.058 27.2965C165.828 27.2965 165.636 27.1814 165.597 27.0278Z" stroke="white" stroke-width="0.383863"/>
<path d="M27.0605 24.4176C27.0605 24.1105 27.2525 23.8418 27.4444 23.8418C27.6747 23.8418 27.8283 24.1105 27.8283 24.4176C27.8283 24.7247 27.6747 24.9934 27.4444 24.9934C27.2525 24.9934 27.0605 24.7247 27.0605 24.4176Z" stroke="white" stroke-width="0.383863"/>
<path d="M100.764 23.4582C100.764 23.0359 100.956 22.6904 101.148 22.6904C101.378 22.6904 101.531 23.0359 101.531 23.4582C101.531 23.8804 101.378 24.2259 101.148 24.2259C100.956 24.2259 100.764 23.8804 100.764 23.4582Z" stroke="white" stroke-width="0.383863"/>
<path d="M100.764 10.9057C100.764 4.87907 100.879 0.0423951 101.071 0.19594C101.455 0.579803 101.455 21.9226 101.071 21.9226C100.917 21.9226 100.764 16.9707 100.764 10.9057Z" stroke="white" stroke-width="0.383863"/>
<path d="M174.579 20.3872C173.927 19.3892 174.541 17.7002 175.577 17.7002C176.652 17.7002 177.266 18.6599 176.959 20.0034C176.652 21.3853 175.309 21.6156 174.579 20.3872Z" stroke="white" stroke-width="0.383863"/>
</svg>
