<svg width="206" height="134" viewBox="0 0 206 134" fill="none" xmlns="http://www.w3.org/2000/svg">
<path d="M100.878 132.782C100.725 132.513 100.648 130.786 100.725 128.943C100.802 125.642 100.802 125.565 99.8804 125.22C98.8824 124.836 98.1531 124.03 98.8056 124.03C98.9976 124.03 99.3047 124.222 99.4198 124.414C99.7269 124.913 100.763 124.913 100.763 124.414C100.763 124.222 100.188 123.799 99.535 123.531C97.8844 122.84 97.0783 121.918 97.7308 121.496C97.9995 121.343 98.3066 121.419 98.3834 121.65C98.5369 122.149 99.6117 122.302 99.6117 121.803C99.6117 121.65 99.4198 121.304 99.1511 121.036C98.9208 120.805 98.844 120.46 98.9976 120.306C99.343 119.922 100.034 120.959 99.9188 121.726C99.8421 122.034 99.9956 122.379 100.188 122.494C100.418 122.609 100.61 120.306 100.687 116.276C100.802 110.249 100.763 109.788 100.034 109.021C99.4198 108.368 99.1511 108.291 98.7289 108.598C97.9228 109.289 97.654 108.675 98.345 107.677C98.8056 106.948 98.844 106.641 98.4602 106.18C97.9611 105.566 98.1915 105.412 99.8037 105.144C100.533 105.028 100.571 104.683 100.687 100.384C100.802 95.048 100.955 95.24 96.8479 95.24C90.3607 95.24 77.6548 91.7468 70.6301 88.0233C55.7362 80.1158 44.6042 67.2947 39.5372 52.1322C38.0402 47.6794 36.6583 41.2689 36.6583 38.8505C36.6583 38.0444 36.5431 36.8544 36.4279 36.2019L36.1976 35.0503L27.1385 35.2038C22.1483 35.2806 17.7722 35.4341 17.4267 35.5493C17.0813 35.6645 16.5822 35.5109 16.3135 35.1654C16.0448 34.8584 15.661 34.5896 15.4307 34.5896C15.2387 34.5896 15.3539 34.9351 15.7377 35.3574C16.2752 35.9716 16.3519 36.2403 16.0065 36.5857C15.7377 36.8544 15.5458 37.5454 15.5458 38.1212C15.5458 39.196 15.0468 39.5415 14.5862 38.8121C14.4326 38.5818 14.5478 38.1212 14.8549 37.7757C15.2771 37.2383 15.2387 37.1615 14.5478 37.3535C13.3962 37.6606 12.5133 37.0464 13.5881 36.7009C14.6245 36.3938 14.6245 35.7412 13.6265 35.7412C13.2043 35.7412 12.8588 35.5877 12.8588 35.3958C12.8588 35.2038 12.3981 34.9351 11.8223 34.8584C11.1314 34.7432 11.3617 34.6664 12.4749 34.628C14.0488 34.5896 14.2791 34.4745 14.6629 33.4381C14.97 32.6319 14.97 32.2865 14.6245 32.1329C14.3558 32.0178 14.3942 31.8258 14.7781 31.5571C15.5842 31.0197 15.9297 31.4036 15.9297 32.8239C15.9297 33.8219 16.1216 34.1674 16.8126 34.3593C17.2732 34.4745 21.8412 34.5896 26.9465 34.5896H36.236L36.3896 33.5532L36.5431 32.4784L36.6199 33.5532C36.6583 34.5513 36.7734 34.628 38.1169 34.5129L39.5372 34.3977L39.8059 30.943C40.1514 26.6437 41.2262 20.7706 41.6869 20.7706C42.0323 20.7706 41.8788 21.999 41.3798 23.4576C40.9959 24.6476 40.2282 32.6319 40.3817 33.5916L40.5737 34.5896H45.2568C51.6289 34.5896 51.4754 34.6664 52.0128 31.5955C53.3179 24.0334 59.3829 17.8149 67.6744 15.5884C78.9983 12.5175 90.3223 17.6613 97.8076 29.2923C98.9976 31.0965 100.149 32.7087 100.341 32.8623C100.648 33.0158 100.763 31.7107 100.763 28.8317C100.763 26.1447 100.917 24.6476 101.147 24.8012C101.378 24.9547 101.454 26.6821 101.339 29.2156C101.186 32.4784 101.262 33.4764 101.685 33.8987C102.107 34.3593 104.602 34.4361 116.079 34.3977C123.718 34.3977 129.937 34.5129 129.937 34.6664C129.937 34.9351 107.519 35.2038 103.796 35.0119C102.107 34.8967 101.186 35.7412 101.109 37.3918C101.07 38.4283 101.032 38.4667 100.878 37.6606C100.802 37.1231 100.648 36.317 100.571 35.8564L100.379 34.9735H76.3497H52.3582L52.0128 35.8564L51.6673 36.7009L51.3986 35.8564C51.1683 35.0119 51.0147 34.9735 47.0609 35.1271L42.992 35.2806L42.7617 36.7393L42.5697 38.2363L42.3778 36.7009C42.2627 35.4725 42.0707 35.1654 41.4565 35.1654C40.8424 35.1654 40.6504 35.4725 40.5737 36.509C40.2666 39.5415 42.5314 50.0593 44.4891 54.8576C49.3641 66.9493 60.3042 78.6571 72.2423 84.6453C80.5722 88.7911 90.4374 91.4013 97.9995 91.4013C100.61 91.4013 100.763 91.3629 100.763 90.5184C100.763 89.6739 100.495 89.5204 98.4602 89.3669C98.1147 89.3285 97.846 89.0214 97.846 88.6375C97.846 87.793 98.3834 87.7162 98.6905 88.5224C99.036 89.4052 100.763 89.2517 100.763 88.3304C100.763 87.8698 100.495 87.5627 100.111 87.5243C99.535 87.5243 99.535 87.4475 100.188 87.2172C101.186 86.795 101.646 87.1021 101.416 87.9466C101.301 88.4072 101.493 88.7527 102.068 88.9062C102.875 89.1749 102.875 89.1749 102.107 89.4052C101.608 89.5972 101.339 90.0194 101.339 90.6336V91.5933L105.485 91.3246C118.69 90.4033 132.048 84.6453 142.412 75.3943C149.399 69.1373 155.656 59.963 158.803 51.3261C160.147 47.6794 161.682 40.6547 161.874 37.4686C161.989 35.2038 161.989 35.1654 160.915 35.0503C159.955 34.9351 159.84 35.0119 160.07 35.7029C160.224 36.1635 160.147 36.509 159.917 36.509C159.686 36.509 159.494 36.2019 159.494 35.818C159.494 35.2038 159.034 35.1271 155.31 35.0887C151.356 35.0503 151.088 35.0887 150.857 35.8564L150.55 36.7009L150.397 35.8564C150.243 35.0119 150.09 34.9735 145.407 34.9735C142.72 34.9735 140.647 34.8967 140.762 34.7816C140.839 34.6664 145.253 34.5896 150.512 34.5513C155.771 34.5513 160.569 34.4361 161.183 34.3209L162.258 34.0906L162.028 30.0217C161.913 27.7953 161.721 25.6073 161.644 25.185C161.107 22.8051 161.068 20.8474 161.606 20.617C161.951 20.5019 162.066 20.617 161.951 20.9625C161.836 21.2696 161.913 23.0354 162.181 24.8779C162.412 26.7205 162.642 29.2923 162.719 30.5591C162.796 31.8258 162.872 33.1694 162.911 33.5532C162.949 34.0522 163.295 34.2058 164.293 34.2058C165.79 34.2058 165.751 34.3209 165.636 29.9065C165.598 28.5246 165.751 27.6801 165.982 27.6801C166.25 27.6801 166.404 28.8701 166.404 30.9046V34.0906L168.17 34.3209C169.129 34.3977 173.505 34.4745 177.958 34.4361C182.373 34.4361 185.981 34.5129 185.981 34.7048C185.981 34.8584 181.566 34.9735 176.192 34.9735H166.442L166.25 36.2403C166.174 36.8928 165.866 38.9273 165.636 40.7315C164.753 47.2955 161.913 55.7405 158.919 60.7691C158.189 62.0358 157.575 63.1106 157.575 63.2258C157.575 63.4945 154.12 68.408 152.623 70.2889C146.597 77.8126 138.343 84.2999 128.977 88.9062C121.645 92.4761 113.354 94.7025 105.562 95.2016L101.723 95.4319L101.531 96.9673C101.416 97.8118 101.378 99.9999 101.454 101.842C101.569 104.414 101.761 105.22 102.222 105.412C102.529 105.527 102.951 105.412 103.105 105.144C103.527 104.453 104.41 105.336 104.103 106.18C103.911 106.602 103.566 106.717 102.875 106.526C102.145 106.334 101.915 106.449 101.915 106.948C101.915 107.332 102.107 107.524 102.414 107.408C102.644 107.332 103.182 107.639 103.527 108.099C104.141 108.905 104.141 109.021 103.566 109.52C102.99 109.942 102.951 109.942 103.182 109.366C103.489 108.483 102.567 108.445 101.877 109.289C101.416 109.865 101.262 113.282 101.454 119.577C101.531 121.842 101.608 122.149 102.184 121.957C102.529 121.803 102.951 121.918 103.143 122.187C103.374 122.571 103.527 122.571 103.834 122.11C104.103 121.688 104.295 121.65 104.64 121.995C105.255 122.609 104.717 123.339 103.719 123.224C102.184 123.108 101.531 123.262 101.531 123.684C101.531 123.914 101.838 123.991 102.26 123.838C102.759 123.684 103.028 123.838 103.143 124.337C103.297 124.913 103.182 125.028 102.452 124.874C101.608 124.721 101.531 124.836 101.454 126.371C101.416 127.292 101.416 129.212 101.454 130.67C101.531 133.281 101.454 133.626 100.878 132.782ZM100.379 107.332C100.111 107.025 99.7653 106.756 99.5734 106.756C99.3814 106.756 99.2279 107.025 99.2279 107.332C99.2279 107.677 99.5734 107.907 100.034 107.907C100.725 107.907 100.763 107.831 100.379 107.332ZM100.763 93.5126C100.763 92.7065 100.571 92.169 100.303 92.1307C100.034 92.0923 98.6137 92.0155 97.1166 91.9387C88.5949 91.5165 79.3822 88.9062 71.2059 84.607C61.2639 79.4248 51.7441 69.9434 46.2932 59.8094C42.6849 53.1302 40.2282 44.0327 39.7676 35.4725C39.7292 35.1654 39.1918 34.9735 38.3856 34.9735C37.0805 34.9735 37.0421 35.0119 37.0421 36.4322C37.0421 40.3092 38.5008 47.8713 40.305 53.1686C40.6504 54.1666 41.7636 56.7769 42.8001 58.9649C50.0167 74.1275 63.8741 86.1424 80.4186 91.5165C86.2917 93.4358 93.278 94.7409 98.1915 94.8177L100.763 94.8561V93.5126ZM112.241 93.858C118.575 92.7448 122.72 91.4013 128.977 88.3304C149.859 78.1197 163.563 58.9649 165.483 37.3918C165.751 34.3593 165.598 34.1674 163.602 34.9351C162.757 35.2422 162.642 35.5877 162.412 38.1212C161.452 48.0248 157.345 58.1204 150.665 67.026C146.251 72.8608 138.766 79.8471 134.543 81.9967C133.814 82.3806 133.123 82.8028 133.008 82.918C132.509 83.5321 126.367 86.5647 122.644 88.0617C117.922 89.9426 110.13 91.5549 104.295 91.9003C101.685 92.0539 101.646 92.0923 101.531 92.9368C101.224 94.9329 101.262 94.9713 105.216 94.7025C107.251 94.549 110.437 94.1651 112.241 93.858ZM97.8076 34.2442C98.8056 34.2058 99.6117 34.0522 99.6117 33.8219C99.6117 32.939 95.466 26.6053 93.5083 24.5324C87.8272 18.3906 81.4934 15.3197 74.4687 15.2814C70.0159 15.243 67.0986 15.9723 62.2235 18.3139C57.3868 20.617 53.0876 26.874 52.2815 32.7471C52.0895 33.9755 52.1663 34.1674 52.8957 34.2826C53.625 34.3977 92.28 34.3593 97.8076 34.2442Z" stroke="white" stroke-width="0.383863"/>
<path d="M93.2776 32.594C92.6635 32.3636 91.8957 32.0949 91.5887 32.0182C91.1664 31.903 91.1664 31.7495 91.4735 31.4424C91.7806 31.1353 92.0493 31.1353 92.4715 31.5191C92.9706 31.903 93.1241 31.8646 93.316 31.3656C93.6231 30.5211 94.3525 30.5979 95.2353 31.5575C95.8495 32.2101 95.8495 32.402 95.3889 32.6707C94.7363 33.093 94.8131 33.093 93.2776 32.594Z" stroke="white" stroke-width="0.383863"/>
<path d="M102.299 120.998C102.299 120.806 102.568 120.576 102.875 120.422C103.22 120.307 103.45 120.422 103.45 120.768C103.45 121.075 103.182 121.343 102.875 121.343C102.568 121.343 102.299 121.19 102.299 120.998Z" stroke="white" stroke-width="0.383863"/>
<path d="M106.137 105.605C106.137 105.413 106.405 105.221 106.713 105.221C107.02 105.221 107.288 105.413 107.288 105.605C107.288 105.835 107.02 105.988 106.713 105.988C106.405 105.988 106.137 105.835 106.137 105.605Z" stroke="white" stroke-width="0.383863"/>
<path d="M126.482 101.459C126.482 101.267 126.751 100.96 127.097 100.845C127.48 100.692 127.634 100.807 127.557 101.075C127.365 101.651 126.482 101.958 126.482 101.459Z" stroke="white" stroke-width="0.383863"/>
<path d="M54.892 90.2116C54.5082 89.6359 55.0072 89.252 55.5062 89.751C55.7749 90.0197 55.7749 90.25 55.5446 90.4036C55.3143 90.5187 55.0072 90.442 54.892 90.2116Z" stroke="white" stroke-width="0.383863"/>
<path d="M48.3647 84.4538C47.9808 83.878 48.4798 83.4942 48.9789 83.9932C49.2476 84.2619 49.2476 84.4922 49.0172 84.6458C48.7869 84.7609 48.4798 84.6842 48.3647 84.4538Z" stroke="white" stroke-width="0.383863"/>
<path d="M37.2344 70.7113C37.0041 70.2891 37.5799 69.8284 37.9637 70.1739C38.3092 70.5194 38.2324 71.0568 37.8486 71.0568C37.6182 71.0568 37.3879 70.9033 37.2344 70.7113Z" stroke="white" stroke-width="0.383863"/>
<path d="M33.089 62.3815C32.9355 62.2279 32.8203 61.8441 32.8203 61.4986C32.8203 61.0763 32.9355 61.0379 33.2426 61.345C33.4729 61.5753 33.6264 61.9592 33.5113 62.2279C33.4345 62.4582 33.2426 62.535 33.089 62.3815Z" stroke="white" stroke-width="0.383863"/>
<path d="M100.764 57.5836C100.764 57.1613 100.956 56.931 101.148 57.0461C101.378 57.1613 101.531 57.5452 101.531 57.8523C101.531 58.1593 101.378 58.3897 101.148 58.3897C100.956 58.3897 100.764 58.0442 100.764 57.5836Z" stroke="white" stroke-width="0.383863"/>
<path d="M100.764 55.6646C100.764 55.2424 100.956 55.012 101.148 55.1272C101.378 55.2424 101.531 55.6262 101.531 55.9333C101.531 56.2404 101.378 56.4707 101.148 56.4707C100.956 56.4707 100.764 56.1252 100.764 55.6646Z" stroke="white" stroke-width="0.383863"/>
<path d="M100.764 53.5914C100.764 53.2843 100.956 53.0156 101.148 53.0156C101.378 53.0156 101.531 53.2843 101.531 53.5914C101.531 53.8985 101.378 54.1672 101.148 54.1672C100.956 54.1672 100.764 53.8985 100.764 53.5914Z" stroke="white" stroke-width="0.383863"/>
<path d="M100.764 50.9045C100.764 50.06 100.917 49.5993 101.148 49.7529C101.378 49.868 101.531 50.4055 101.531 50.9045C101.531 51.4035 101.378 51.9409 101.148 52.0561C100.917 52.2096 100.764 51.749 100.764 50.9045Z" stroke="white" stroke-width="0.383863"/>
<path d="M28.5977 49.7531C28.5977 49.4076 28.7896 49.1773 29.0199 49.2541C29.2502 49.3308 29.4422 49.5611 29.4422 49.7531C29.4422 49.945 29.2502 50.1753 29.0199 50.2521C28.7896 50.3289 28.5977 50.0985 28.5977 49.7531Z" stroke="white" stroke-width="0.383863"/>
<path d="M100.764 47.4113C100.764 46.4516 100.917 45.7607 101.109 45.8758C101.263 45.991 101.416 46.7971 101.416 47.6416C101.416 48.4861 101.263 49.177 101.109 49.177C100.917 49.177 100.764 48.3709 100.764 47.4113Z" stroke="white" stroke-width="0.383863"/>
<path d="M27.8301 46.4893C27.8301 46.2974 28.0988 46.1055 28.4059 46.1055C28.713 46.1055 28.9817 46.2974 28.9817 46.4893C28.9817 46.7196 28.713 46.8732 28.4059 46.8732C28.0988 46.8732 27.8301 46.7196 27.8301 46.4893Z" stroke="white" stroke-width="0.383863"/>
<path d="M100.764 41.6535C100.764 40.0797 100.917 38.8513 101.071 38.9665C101.531 39.2352 101.57 44.5709 101.109 44.5709C100.917 44.5709 100.764 43.2657 100.764 41.6535Z" stroke="white" stroke-width="0.383863"/>
<path d="M27.0605 40.5402C27.0605 40.1947 27.2525 39.9644 27.4828 40.0412C27.7131 40.1179 27.905 40.3483 27.905 40.5402C27.905 40.7321 27.7131 40.9624 27.4828 41.0392C27.2525 41.116 27.0605 40.8857 27.0605 40.5402Z" stroke="white" stroke-width="0.383863"/>
<path d="M26.7934 37.8534C26.6782 37.5079 26.6782 37.1625 26.7934 37.0473C27.1389 36.7018 27.8298 37.2776 27.8298 37.8918C27.8298 38.6211 27.1005 38.5828 26.7934 37.8534Z" stroke="white" stroke-width="0.383863"/>
<path d="M175.848 37.8531C175.733 37.5077 175.848 37.2773 176.193 37.2773C176.5 37.2773 176.769 37.546 176.769 37.8531C176.769 38.1602 176.616 38.4289 176.424 38.4289C176.232 38.4289 176.001 38.1602 175.848 37.8531Z" stroke="white" stroke-width="0.383863"/>
<path d="M187.208 37.5453C186.325 36.624 186.018 34.0905 186.748 33.6299C186.978 33.5147 187.132 33.5915 187.132 33.7834C187.132 34.0137 187.362 34.2057 187.669 34.2057C188.091 34.2057 188.206 33.8218 188.091 32.6702C187.976 31.5186 188.091 31.1348 188.513 31.1348C188.859 31.1348 189.051 31.4419 189.012 31.8257C188.974 32.1712 189.128 32.9773 189.358 33.5531C189.703 34.3976 190.01 34.5895 190.586 34.3976C191.009 34.2441 191.354 34.3208 191.354 34.5511C191.354 34.7815 191.047 34.9734 190.625 34.9734C190.01 34.9734 189.972 35.1653 190.164 36.2401C190.394 37.2766 190.279 37.5453 189.511 37.9675C188.283 38.5817 188.168 38.5817 187.208 37.5453ZM188.974 37.4301C189.435 37.2766 189.819 37.0079 189.819 36.8159C189.819 36.624 189.511 36.5472 189.166 36.6624C188.782 36.7775 188.245 36.7008 187.938 36.5472C187.477 36.2401 187.477 36.0866 187.861 35.5876C188.321 35.0502 188.245 34.9734 187.554 34.9734C186.671 34.9734 186.517 35.7411 187.132 36.9311C187.592 37.7372 187.669 37.7756 188.974 37.4301Z" stroke="white" stroke-width="0.383863"/>
<path d="M201.528 36.4711C201.758 35.5883 201.643 35.3963 200.683 35.166C199.877 34.9357 199.8 34.8205 200.299 34.7054C200.645 34.5902 200.952 34.3599 200.952 34.1296C200.952 33.8993 200.645 33.477 200.299 33.2083C199.877 32.9012 199.8 32.7093 200.069 32.6709C200.338 32.6709 200.875 33.0548 201.297 33.477C201.873 34.0912 202.526 34.2831 203.984 34.2831C205.059 34.2831 205.827 34.4367 205.712 34.6286C205.596 34.8205 204.829 34.9741 203.984 34.9741C203.063 34.9741 202.526 35.1276 202.679 35.3579C202.794 35.5499 202.526 36.1257 202.103 36.5863L201.297 37.4692L201.528 36.4711Z" stroke="white" stroke-width="0.383863"/>
<path d="M2.30265 36.1632C2.49458 35.4722 2.37942 35.3571 1.38138 35.3571C0.728814 35.3571 0.191406 35.2035 0.191406 34.9732C0.191406 34.7813 0.652041 34.5893 1.26622 34.5893C1.95717 34.5893 2.41781 34.3206 2.68651 33.7448C2.91683 33.2842 3.33908 32.8236 3.64617 32.7468C4.14519 32.5549 4.14519 32.6316 3.72294 33.169C3.10876 33.8984 3.49263 34.7429 4.26035 34.4358C5.41194 33.9751 5.02808 34.858 3.5694 35.8945C2.14911 36.9309 2.03395 36.9309 2.30265 36.1632Z" stroke="white" stroke-width="0.383863"/>
<path d="M6.14175 34.9737C6.25691 34.7818 6.64077 34.5898 6.94786 34.5898C7.25495 34.5898 7.4085 34.7818 7.29334 34.9737C7.17818 35.204 6.79432 35.3576 6.48723 35.3576C6.18014 35.3576 6.02659 35.204 6.14175 34.9737Z" stroke="white" stroke-width="0.383863"/>
<path d="M8.3674 34.705C8.71287 34.6283 9.32705 34.6283 9.71092 34.705C10.0564 34.8202 9.7493 34.897 9.01996 34.897C8.29063 34.897 7.98354 34.8202 8.3674 34.705Z" stroke="white" stroke-width="0.383863"/>
<path d="M132.393 34.6283C132.584 34.3212 139.149 34.4364 139.494 34.7819C139.571 34.897 137.997 34.9738 135.924 34.9738C133.89 34.9738 132.277 34.8202 132.393 34.6283Z" stroke="white" stroke-width="0.383863"/>
<path d="M194.426 34.7049C194.426 34.5129 195.539 34.3978 196.883 34.3594C198.264 34.3594 199.301 34.4745 199.186 34.6665C198.955 35.0503 194.426 35.0887 194.426 34.7049Z" stroke="white" stroke-width="0.383863"/>
<path d="M12.9348 33.362C13.1651 32.671 14.0096 32.5559 14.0096 33.2084C14.0096 33.5539 13.7409 33.8226 13.3954 33.8226C13.0499 33.8226 12.858 33.6307 12.9348 33.362Z" stroke="white" stroke-width="0.383863"/>
<path d="M16.966 33.5924C16.8124 33.4389 16.6973 33.055 16.6973 32.7095C16.6973 32.2873 16.8124 32.2489 17.1195 32.556C17.3498 32.7863 17.5034 33.1701 17.3882 33.4389C17.3114 33.6692 17.1195 33.7459 16.966 33.5924Z" stroke="white" stroke-width="0.383863"/>
<path d="M202.179 33.4772C202.256 33.2085 202.448 33.0166 202.602 33.0166C203.062 33.055 202.947 33.5924 202.486 33.7843C202.218 33.8611 202.064 33.7076 202.179 33.4772Z" stroke="white" stroke-width="0.383863"/>
<path d="M189.705 33.2084C189.397 32.9013 189.743 32.2871 190.204 32.2871C190.357 32.2871 190.587 32.5558 190.741 32.8629C190.933 33.4387 190.204 33.669 189.705 33.2084Z" stroke="white" stroke-width="0.383863"/>
<path d="M186.748 32.4788C186.748 31.8646 187.362 31.7111 187.669 32.2485C187.784 32.4404 187.631 32.6707 187.324 32.8243C186.978 32.9394 186.748 32.8243 186.748 32.4788Z" stroke="white" stroke-width="0.383863"/>
<path d="M36.4279 29.4076C36.5047 27.7186 36.6198 26.26 36.6582 26.1448C36.6966 26.0296 36.735 25.8377 36.6966 25.6842C36.6966 25.5306 36.9653 24.0719 37.3108 22.4981C37.6947 20.6172 38.1169 19.6191 38.4624 19.6191C38.8846 19.6191 38.8846 19.8111 38.5775 20.3869C37.9634 21.5001 37.1956 26.1064 37.0805 29.1005C37.0421 30.5208 36.8118 31.8644 36.6198 32.0947C36.3895 32.325 36.3127 31.3653 36.4279 29.4076Z" stroke="white" stroke-width="0.383863"/>
<path d="M165.597 27.0278C165.252 22.3063 164.791 20.6557 163.716 20.3486C162.834 20.1183 162.872 20.0799 164.024 20.0415C164.676 20.0031 165.252 20.1183 165.29 20.3102C165.29 20.4638 165.367 20.9244 165.444 21.3467C165.521 21.7689 165.713 22.8821 165.828 23.8418C165.981 24.8014 166.173 25.953 166.288 26.452C166.403 26.9511 166.327 27.2965 166.058 27.2965C165.828 27.2965 165.636 27.1814 165.597 27.0278Z" stroke="white" stroke-width="0.383863"/>
<path d="M27.0605 24.4176C27.0605 24.1105 27.2525 23.8418 27.4444 23.8418C27.6747 23.8418 27.8283 24.1105 27.8283 24.4176C27.8283 24.7247 27.6747 24.9934 27.4444 24.9934C27.2525 24.9934 27.0605 24.7247 27.0605 24.4176Z" stroke="white" stroke-width="0.383863"/>
<path d="M100.764 23.4582C100.764 23.0359 100.956 22.6904 101.148 22.6904C101.378 22.6904 101.531 23.0359 101.531 23.4582C101.531 23.8804 101.378 24.2259 101.148 24.2259C100.956 24.2259 100.764 23.8804 100.764 23.4582Z" stroke="white" stroke-width="0.383863"/>
<path d="M100.764 10.9057C100.764 4.87907 100.879 0.0423951 101.071 0.19594C101.455 0.579803 101.455 21.9226 101.071 21.9226C100.917 21.9226 100.764 16.9707 100.764 10.9057Z" stroke="white" stroke-width="0.383863"/>
<path d="M174.579 20.3872C173.927 19.3892 174.541 17.7002 175.577 17.7002C176.652 17.7002 177.266 18.6599 176.959 20.0034C176.652 21.3853 175.309 21.6156 174.579 20.3872Z" stroke="white" stroke-width="0.383863"/>
</svg>
