<svg width="161" height="133" viewBox="0 0 161 133" fill="none" xmlns="http://www.w3.org/2000/svg">
<g clip-path="url(#clip0_307_3992)">
<path d="M82.1365 132.196C82.1043 131.746 82.1043 130.073 82.1365 128.465L82.2008 125.538L80.6891 125.313C79.8528 125.216 78.7914 125.12 78.3733 125.12H77.5692L78.2446 126.181C79.1452 127.532 80.5926 130.266 80.3996 130.266C80.3031 130.266 79.8207 129.494 79.2739 128.593C77.4083 125.409 77.0224 125.088 74.0632 124.476C63.9315 122.354 57.4021 119.041 50.3903 112.479C42.9925 105.532 37.0421 93.0841 36.3023 82.9201L36.0772 80.0897H33.0537C31.349 80.0897 30.0303 80.2183 30.0303 80.4113C30.0303 80.5722 30.3198 80.9581 30.6414 81.2798C31.2525 81.8587 31.2525 81.8587 30.4806 81.8587C29.8695 81.8587 29.7086 81.6979 29.7086 81.0225C29.7086 79.9289 29.4192 79.8324 26.5887 79.9932C25.2378 80.0575 24.2085 79.961 24.0799 79.768C23.8226 79.3821 24.0155 79.3499 27.2963 79.3177C29.7086 79.2856 29.8695 79.2534 29.9659 78.578C30.0303 78.1598 30.2233 77.8382 30.4162 77.8382C30.6092 77.8382 30.6736 78.1598 30.5449 78.6423L30.3519 79.4464H33.2145H36.1093L36.2702 77.7739C36.3666 76.8411 36.5275 75.072 36.624 73.882L36.8169 71.6948L36.0772 72.0808C35.659 72.2738 35.0801 72.7562 34.7906 73.1422C34.5011 73.496 34.1473 73.7211 34.0508 73.5925C33.7935 73.3352 35.3696 71.8556 36.1737 71.5661C36.4953 71.4696 36.8491 70.6977 37.0743 69.5398C38.5538 62.7209 43.0568 53.8758 47.592 48.9546C56.405 39.4018 67.3409 34.2877 80.3675 33.6766L81.9757 33.6122L82.0078 31.2964C82.0078 30.0098 82.1365 28.8519 82.233 28.7232C82.3616 28.6268 82.4581 29.6238 82.4581 30.9748C82.4581 32.3257 82.619 33.5157 82.7798 33.6122C82.9728 33.7409 84.5166 33.9017 86.2214 33.966C94.9379 34.3842 105.391 38.6942 112.21 44.7089C119.737 51.3348 124.819 59.8262 127.36 69.8936C127.778 71.6948 128.228 74.4609 128.292 76.037C128.389 77.613 128.485 78.9639 128.55 79.0283C128.614 79.0926 129.868 79.1891 131.316 79.2212C133.374 79.3177 134.018 79.2212 134.211 78.8674C134.436 78.4493 134.597 78.4815 135.24 79.0604C136.108 79.8967 136.205 79.8645 131.798 79.768L128.55 79.7037L128.357 82.5985C128.228 84.1746 128.067 85.7184 127.938 86.0079C127.553 87.005 128.71 86.5226 130.608 84.9143C131.637 84.0459 132.699 83.3061 132.956 83.3383C133.342 83.3383 133.31 83.4348 132.86 83.7243C132.538 83.9494 131.67 84.657 130.93 85.3325C130.19 86.0079 129.193 86.6512 128.743 86.7477C127.842 86.9085 127.585 87.4875 126.813 91.1864C126.33 93.5344 124.4 98.359 122.889 101.093C117.71 110.26 108.736 118.204 99.3122 121.871C97.4467 122.579 91.7858 124.155 90.3384 124.38C89.8238 124.444 88.9553 124.669 88.4085 124.895C87.3471 125.281 87.2828 125.313 84.6453 125.377L82.7798 125.441V128.175C82.7798 130.459 82.8763 130.909 83.2944 130.909C83.5839 130.909 83.8734 130.62 83.9699 130.234C84.0985 129.719 84.2272 129.687 84.4202 130.009C84.9348 130.813 84.7096 131.231 83.809 131.231C83.1336 131.231 82.8119 131.456 82.5546 132.132L82.2008 133L82.1365 132.196ZM82.1365 124.541C82.1365 123.833 80.9142 122.45 80.5283 122.707C80.3675 122.804 80.1423 122.707 80.0458 122.547C79.885 122.289 80.1745 122.257 80.9786 122.386C81.9113 122.579 82.1365 122.514 82.1365 122.096C82.1365 121.807 81.8792 121.582 81.5897 121.55C76.5077 121.389 73.5486 120.81 67.8234 118.944C58.5922 115.889 48.8464 107.236 44.3434 98.1017C41.8346 93.0841 40.1942 86.9085 39.8726 81.3763C39.8082 80.2827 39.7761 80.2505 38.393 80.2505H36.9456L36.9778 82.502C37.0421 87.391 37.9749 91.1864 40.7732 97.7479C43.3463 103.763 47.978 109.97 52.9956 114.152C56.1799 116.789 57.1448 117.432 60.6507 119.298C61.7443 119.877 62.8379 120.488 62.9987 120.617C63.449 120.971 70.6217 123.319 72.7123 123.801C73.6451 124.026 74.5457 124.123 74.7387 123.994C74.8995 123.898 75.2533 123.898 75.4785 124.058C75.8644 124.316 79.6598 124.991 81.2681 125.088C81.9113 125.12 82.1365 124.959 82.1365 124.541ZM86.4143 124.637C87.1541 124.509 87.9904 124.348 88.2477 124.316C88.505 124.251 89.6629 124.026 90.8209 123.833C91.9788 123.608 93.201 123.319 93.5548 123.19C93.9086 123.029 95.2917 122.611 96.6104 122.225C98.8941 121.582 104.073 119.202 106.581 117.658C109.54 115.824 114.172 111.804 117.549 108.073C120.251 105.114 123.886 98.6163 125.269 94.3706C125.655 93.1484 126.105 91.8618 126.234 91.508C126.748 90.1571 127.553 85.2681 127.713 82.5342C127.874 80.1862 127.81 79.7037 127.456 79.8324C127.199 79.9289 127.006 80.4757 126.974 81.1833C126.941 82.8558 126.523 83.0488 126.523 81.4084C126.523 80.1218 126.491 80.0575 125.655 80.154C124.786 80.2505 124.754 80.3148 124.561 82.6628C123.757 92.4086 119.286 101.833 111.985 109.102C105.423 115.663 94.3589 120.681 84.7418 121.421C82.8119 121.55 82.5225 121.71 83.0371 122.321C83.5517 122.9 85.2243 122.965 85.8032 122.386C86.1249 122.032 86.35 122 86.5108 122.257C86.6395 122.482 87.2185 122.547 88.0547 122.418C88.9232 122.289 89.2126 122.321 88.891 122.514C88.6015 122.675 87.1541 122.933 85.6746 123.093C83.0371 123.351 82.9406 123.383 82.8441 124.187C82.7476 124.991 82.8119 125.023 83.9055 124.927C84.5488 124.895 85.6746 124.734 86.4143 124.637ZM80.2066 120.938C80.2066 120.778 80.6248 120.713 81.1394 120.81C81.9757 121.003 82.04 120.906 82.233 119.813C82.5225 117.979 82.2973 117.722 80.2388 117.722C79.2417 117.722 78.2124 117.561 77.9551 117.368C77.6013 117.111 78.1159 117.079 79.8207 117.239L82.1365 117.432V116.628C82.1365 116.114 82.3295 115.792 82.619 115.792C83.0049 115.792 83.0693 116.21 82.9084 118.365L82.7154 120.938H83.7447C86.4465 120.938 92.9115 119.587 96.1923 118.333C107.578 113.959 115.587 106.657 120.476 96.3005C121.988 93.0519 123.146 88.7419 123.757 84.1102C124.24 80.3148 124.111 79.768 122.824 79.768C122.406 79.768 121.988 79.961 121.924 80.1862C121.795 80.4757 121.699 80.4757 121.473 80.1862C121.28 79.8967 120.895 79.8645 120.09 80.0897C119.479 80.2505 118.675 80.347 118.354 80.3148C117.935 80.2827 117.646 80.5078 117.485 81.0546L117.26 81.8587L117.228 80.9903C117.196 80.154 116.552 79.6394 116.552 80.4435C116.552 80.7008 116.391 80.6686 116.038 80.3792C115.684 80.0897 114.494 79.961 112.435 79.9289C110.731 79.9289 109.315 79.768 109.251 79.6072C109.187 79.4142 110.409 79.2856 112.371 79.3177C114.14 79.3499 115.684 79.2534 115.748 79.0926C115.845 78.9639 116.391 78.8996 116.97 78.9639C117.517 79.0283 118.772 79.1569 119.737 79.2534L121.441 79.4142L121.28 78.5458C121.12 77.7417 121.152 77.7417 121.57 78.3206C121.827 78.6423 122.02 79.0604 122.02 79.2212C122.02 79.3499 122.406 79.4464 122.921 79.3821L123.789 79.2856L123.725 76.1335C123.628 69.8293 121.152 62.8174 116.777 56.2881C114.655 53.136 108.994 47.4751 105.938 45.4487C99.8912 41.4282 95.2595 39.6913 87.2185 38.4369C82.9406 37.7936 82.7798 37.7936 82.7798 38.7264C82.7798 39.1767 82.619 39.627 82.426 39.7556C82.2008 39.8843 82.1365 39.7556 82.2651 39.3696C82.6511 38.0831 82.0722 37.8579 78.8879 38.0831C71.9726 38.5655 64.1566 41.203 58.8174 44.8054C54.1857 47.9897 50.2616 51.8172 47.6242 55.8056C43.3785 62.2385 40.7732 69.6684 40.4194 76.2943L40.2264 79.4464L42.2849 79.3821C43.4106 79.3499 44.4721 79.1891 44.6007 78.9961C44.7937 78.7388 44.9224 78.7709 45.051 79.0604C45.3083 79.7037 46.4341 79.5429 46.4341 78.8353C46.4341 78.4815 46.5949 78.0955 46.7557 77.999C46.9487 77.8703 47.0774 78.1598 47.0774 78.6101C47.0774 79.5751 47.5277 79.7037 48.0423 78.8996C48.3961 78.3528 48.3961 78.3528 48.2353 78.8674C48.1388 79.1891 48.2031 79.5107 48.3639 79.6072C48.9429 79.961 48.6856 80.4113 47.8815 80.4113H47.1095L48.1066 81.9552C48.6534 82.7915 49.4254 83.8207 49.7792 84.271C50.3903 84.9465 50.326 84.9465 49.3289 84.1424C48.7177 83.6278 48.0745 82.9201 47.8815 82.5663C47.7207 82.2125 47.3668 81.8587 47.1739 81.7622C46.5627 81.5692 46.6592 82.9523 47.2382 83.2096C47.5277 83.3061 48.0423 83.9494 48.3639 84.6249C48.7177 85.3003 49.2967 86.0401 49.6827 86.2974C50.0365 86.5869 50.5833 87.1337 50.8728 87.5518C51.2587 88.1629 51.1622 88.1308 50.2616 87.3267C49.6827 86.812 49.0394 86.1687 48.9107 85.9436C48.7499 85.6863 48.2031 85.1395 47.6885 84.6892C47.1739 84.2067 46.7557 83.6921 46.7557 83.5313C46.7557 83.3383 46.5306 82.9523 46.2411 82.6307C45.8551 82.2125 45.823 81.9231 46.0803 81.4728C46.4984 80.6686 46.0159 79.9289 45.3083 80.2183C44.7615 80.4113 44.7615 80.4757 45.3083 81.0546C45.8551 81.6657 45.8551 81.6979 45.2118 81.6979C44.7615 81.6979 44.5042 81.4728 44.4399 80.9903C44.3434 80.3792 44.1183 80.2827 42.317 80.1862L40.2907 80.0575L40.4837 82.2447C41.5129 93.47 46.1124 102.862 54.1535 110.099C58.2384 113.766 64.2531 117.529 67.2444 118.237C67.7269 118.365 68.3058 118.558 68.4666 118.687C68.9169 119.041 75.2212 120.585 77.5048 120.906C80.1745 121.292 80.2066 121.292 80.2066 120.938ZM39.7439 78.0955C39.7761 77.3236 39.8404 76.1978 39.8404 75.5867C39.8726 74.9756 40.162 73.3673 40.4515 72.0486C40.7732 70.7299 41.1591 69.0573 41.2878 68.3497C41.8024 65.9374 43.7966 61.3057 45.8873 57.7355C49.8757 50.9166 55.8261 45.4487 62.9665 41.975C68.4023 39.3375 72.0691 38.3082 78.5984 37.6328C80.4639 37.4076 82.04 37.2146 82.1043 37.1503C82.1687 37.086 82.1365 36.7643 82.0078 36.4749C81.8792 36.121 81.5897 36.0246 81.0429 36.1532C80.5926 36.2497 80.1745 36.2175 80.0458 36.0246C79.9493 35.8316 79.5633 35.8316 79.0809 36.0246C78.5984 36.2175 78.2124 36.2175 78.1159 36.0246C77.9873 35.8316 78.2446 35.7029 78.6627 35.7029C79.0809 35.7029 79.6277 35.5742 79.885 35.3813C80.1745 35.2204 80.4318 35.2204 80.5604 35.4134C80.6569 35.6064 81.0751 35.4456 81.5254 35.0596L82.2973 34.3842L78.4376 34.545C68.6596 34.9953 60.5221 38.2439 52.5775 44.9019C49.9722 47.0891 44.8259 52.5892 44.8259 53.1681C44.8259 53.2646 44.4077 54.0044 43.8931 54.7764C43.3463 55.5483 42.2527 57.5425 41.4486 59.215C40.6445 60.8876 39.8726 62.4636 39.7439 62.7209C39.5831 62.9783 39.2293 64.0718 38.9076 65.1333C38.586 66.1947 38.2 67.3204 38.0392 67.6421C37.6532 68.3497 37.2029 71.9521 36.9456 76.1656L36.7205 79.4464H38.2H39.6796L39.7439 78.0955ZM126.202 77.7739C126.202 76.23 126.652 76.3586 126.652 77.9347C126.684 78.6423 126.845 78.9961 127.263 79.0604C127.81 79.1569 127.842 78.9639 127.649 76.1978C127.52 74.5574 127.295 72.5311 127.134 71.727C126.974 70.9229 126.748 69.7649 126.652 69.1538C126.523 68.5427 126.33 67.8994 126.202 67.7064C126.073 67.5456 125.848 66.9023 125.719 66.3234C125.59 65.7444 125.301 64.876 125.044 64.3935C124.786 63.911 124.593 63.3321 124.593 63.1069C124.593 62.6888 121.248 56.1594 120.155 54.3582C119.318 53.0073 115.234 48.1827 113.69 46.6709C110.827 43.937 107.997 41.8785 104.362 39.9164C102.336 38.855 100.567 37.9544 100.406 37.9544C100.277 37.9544 99.859 37.8258 99.5052 37.6328C99.1514 37.4719 98.5725 37.1825 98.2187 36.9895C97.8648 36.8287 97.3502 36.6678 97.0929 36.6678C96.8356 36.6678 96.3531 36.5392 96.0315 36.3784C94.7127 35.6707 89.5664 34.6415 86.4465 34.4485C84.581 34.352 83.0049 34.2877 82.9406 34.352C82.8763 34.4163 82.9084 34.6736 83.0049 34.931C83.1336 35.2526 83.7769 35.3813 85.3529 35.3813C87.4114 35.3813 87.5401 35.4134 87.3793 36.0567C87.2185 36.6357 87.1541 36.6678 86.8968 36.2175C86.5108 35.5099 83.9699 35.5099 83.2944 36.2175C82.7476 36.7322 82.619 37.3111 83.0371 37.3111C83.1657 37.3111 85.3851 37.6649 87.9904 38.1152C92.8472 38.9193 96.2245 39.7234 96.7713 40.2381C96.9321 40.3989 97.3181 40.5276 97.6397 40.5276C98.2508 40.5276 103.654 43.2937 105.423 44.5159C112.982 49.6622 119.029 57.2852 122.052 65.3906C123.082 68.1567 124.24 73.3995 124.465 76.3908C124.69 78.8996 124.754 79.1248 125.558 79.1248C126.105 79.1248 126.202 78.9318 126.202 77.7739Z" stroke="white" stroke-width="0.321643"/>
<path d="M79.1783 120.391C78.8888 120.326 78.1812 119.555 77.6666 118.718C76.959 117.657 76.2835 117.014 75.3829 116.628C74.6753 116.338 73.4852 115.856 72.7454 115.566C71.1372 114.891 68.9179 113.475 68.2746 112.671C67.953 112.285 68.1138 112.318 68.8536 112.832C69.4004 113.218 69.9793 113.54 70.1401 113.54C70.2688 113.54 70.9764 113.99 71.6519 114.505C72.3595 115.052 73.0349 115.47 73.1636 115.47C73.3244 115.47 74.225 115.759 75.2221 116.145C76.573 116.66 77.1198 117.046 77.5058 117.818C77.7952 118.397 78.4707 119.233 79.0175 119.715C79.5964 120.198 79.9824 120.584 79.8859 120.584C79.7894 120.552 79.4678 120.487 79.1783 120.391Z" stroke="white" stroke-width="0.321643"/>
<path d="M89.986 115.921C91.6585 115.052 94.7141 113.926 97.3838 113.155C99.8604 112.447 102.53 111.514 103.238 111.096C105.618 109.745 108.255 106.625 110.217 102.926C111.214 101.029 111.986 100.031 111.6 101.157C110.475 104.406 106.004 110.099 103.624 111.321C101.951 112.19 97.3838 113.766 95.8077 114.055C95.1001 114.152 93.0094 114.988 91.1761 115.824C86.9625 117.786 86.1584 117.851 89.986 115.921Z" stroke="white" stroke-width="0.321643"/>
<path d="M82.2651 115.278C82.04 115.181 81.9435 114.827 82.04 114.506C82.1686 114.055 81.9756 113.83 81.3645 113.669C80.4318 113.444 80.2066 112.801 81.1072 112.962C81.461 113.026 81.7183 112.994 81.7183 112.897C81.7183 112.801 81.847 112.447 82.04 112.093C82.2651 111.675 82.2973 110.935 82.1365 110.099C82.0078 109.327 82.0078 108.652 82.1043 108.523C82.4581 108.169 82.3938 102.894 82.0078 102.766C81.8148 102.734 80.5604 102.508 79.2095 102.315C75.8323 101.801 73.0018 100.739 70.0427 98.906C64.028 95.1427 60.5542 89.7713 59.7823 82.9525C59.3963 79.5752 59.5249 79.736 57.5308 79.9612C56.3407 80.122 55.7617 80.0577 55.7617 79.8325C55.7617 79.6395 56.5658 79.4466 57.6272 79.3822L59.4606 79.2857L59.6536 77.1951C59.9109 74.6541 61.1975 70.7622 62.5484 68.3499C65.7648 62.6568 72.8731 57.9286 79.0809 57.3818C82.0078 57.0923 82.4903 56.8672 82.2651 55.6771C82.1365 55.1625 82.233 54.6479 82.4259 54.5514C82.6511 54.3905 82.7798 54.7444 82.7798 55.6128C82.7798 57.0923 82.8119 57.0923 86.0605 57.3818C88.0225 57.5426 89.7594 57.9929 91.239 58.7327C91.7536 58.99 92.3004 59.183 92.4612 59.183C92.622 59.183 93.587 59.7298 94.5841 60.3731C96.8999 61.8527 100.727 65.6159 101.853 67.5779C103.301 70.0224 104.555 74.0429 105.134 78.0635L105.359 79.4144L106.935 79.2214C107.997 79.0927 108.511 79.1571 108.511 79.4144C108.511 79.8004 108.254 79.8647 106.549 79.7682C105.295 79.736 104.973 80.1863 104.973 82.1162C104.973 83.7887 103.654 88.2274 102.464 90.7041C100.406 94.9176 95.742 99.1311 91.1425 100.932C88.6337 101.929 85.771 102.605 84.1628 102.605H82.7798L82.8119 107.462C82.8441 111.289 82.9406 112.351 83.2944 112.479C83.5517 112.576 85.0956 111.836 86.736 110.871C88.3763 109.874 90.6922 108.813 91.9466 108.459C94.4232 107.751 97.8327 107.397 98.09 107.815C98.1865 107.944 97.318 108.073 96.1923 108.073C93.4583 108.073 89.6629 109.327 86.9611 111.096C85.8032 111.868 84.581 112.64 84.2271 112.833C83.6482 113.155 83.6804 113.187 84.6131 113.219C85.1921 113.219 86.1248 113.026 86.7038 112.769C87.5722 112.383 91.6249 110.839 92.9115 110.356C93.0723 110.324 92.9437 110.453 92.5899 110.71C91.046 111.804 85.0956 113.734 82.9084 113.862C82.8762 113.862 82.9406 114.216 83.0371 114.666C83.1657 115.438 83.0049 115.567 82.2651 115.278ZM82.3295 99.4849C82.233 98.1019 82.1686 96.6866 82.1365 96.3007C82.1365 95.7217 81.8148 95.5609 79.8206 95.2392C73.7094 94.1457 68.7239 89.2245 67.6304 83.1455C67.4374 82.084 67.2122 80.8939 67.1479 80.4758C67.0192 79.929 66.7941 79.736 66.2795 79.7682C65.025 79.8969 64.8964 79.7039 66.0543 79.4787C67.1801 79.2857 67.1801 79.2536 67.373 77.3237C67.952 71.3733 73.5164 65.6802 79.885 64.5866L82.1365 64.2007L82.1686 63.0427C82.2008 62.4316 82.1686 61.531 82.1365 61.0486C82.1043 60.5339 82.233 60.148 82.4259 60.148C82.6511 60.148 82.7798 60.9521 82.7798 62.2386C82.7798 64.2972 82.7798 64.3293 83.6804 64.3293C85.3529 64.3293 88.3442 65.2942 90.3062 66.4843C94.4876 69.0253 97.0607 73.0137 97.7362 77.9348L97.9292 79.4466L100.985 79.4144C102.657 79.3822 104.105 79.4466 104.233 79.5752C104.33 79.6717 102.979 79.7682 101.178 79.7682C98.283 79.7682 97.897 79.8325 97.8648 80.3472C97.704 82.8881 97.0929 85.2683 96.128 87.1982C95.4847 88.4847 93.2653 91.2187 92.1396 92.1515C90.0489 93.8562 85.9319 95.5287 83.8412 95.5287H82.7476L82.8119 98.7452L82.8441 101.962H84.7739C87.0254 101.962 90.7243 100.804 93.5548 99.2276C97.5432 97.0083 101.113 92.8912 102.915 88.4526C103.333 87.3911 103.912 85.0431 104.201 83.2419C104.812 79.4787 104.555 76.198 103.333 72.3704C101.371 66.1305 95.9993 60.5983 90.1775 58.8935C89.3734 58.6684 88.312 58.3146 87.7652 58.0894C87.2184 57.8965 84.8704 57.7678 82.2973 57.7678C78.3089 57.8 77.537 57.8965 75.4785 58.6362C68.4023 61.1772 63.2882 66.1949 61.2297 72.6599C60.4899 75.04 59.8466 78.7068 60.1039 79.1571C60.2326 79.3179 61.2297 79.4466 62.3876 79.4466C63.8671 79.4466 64.4139 79.543 64.2531 79.8004C64.1244 80.0255 63.449 80.0898 62.3876 79.9612C59.9431 79.7039 59.7823 79.8969 60.2004 82.7273C60.9723 87.9058 62.7735 91.7012 65.99 95.0463C69.8497 98.9703 76.0896 101.897 80.7856 101.929L82.4903 101.962L82.3295 99.4849ZM82.1686 94.017C82.2008 93.5024 82.1686 92.055 82.1365 90.8006C82.1043 89.2888 82.2008 88.4526 82.4259 88.4526C82.6511 88.4526 82.7798 89.5783 82.7798 91.7012V94.9498L84.6453 94.8211C88.698 94.5316 93.6513 91.0257 95.549 87.1017C96.5461 85.0431 97.2537 82.4378 97.2537 80.7331C97.2537 79.9612 97.0929 79.7682 96.5461 79.736C95.8385 79.6717 95.8385 79.6717 96.5783 79.543C97.2859 79.4144 97.318 79.2857 97.1572 77.5489C96.9964 75.5225 95.6455 72.3061 94.0694 70.1832C92.3004 67.7709 87.8617 65.3586 84.3236 64.8439C82.9084 64.6188 82.7798 64.6831 82.7798 65.2621C82.7798 65.6159 82.6511 66.0019 82.4581 66.0984C82.2651 66.1949 82.1365 65.9697 82.1365 65.5194C82.1365 64.7796 82.1043 64.7475 80.1744 65.0369C75.1246 65.7124 70.0748 69.8937 68.4988 74.6862C67.373 78.1278 67.4695 79.4144 68.8848 79.4787L69.7532 79.543L68.9491 79.6717C67.6625 79.8969 67.566 80.1863 67.952 82.663C68.9491 89.0959 74.8995 94.6924 80.9464 94.8533C82.04 94.8854 82.1365 94.8211 82.1686 94.017Z" stroke="white" stroke-width="0.321643"/>
<path d="M66.6009 112.737C66.1184 112.126 65.443 111.611 65.1535 111.579C64.8318 111.579 64.7675 111.483 64.9927 111.386C65.5073 111.193 67.212 112.383 67.6623 113.252C68.2091 114.249 67.5658 113.959 66.6009 112.737Z" stroke="white" stroke-width="0.321643"/>
<path d="M62.3559 110.967C60.8442 110.613 57.3061 108.394 55.923 106.946C55.1189 106.11 52.5458 102.765 51.7417 101.478C51.227 100.642 51.227 100.578 51.7095 100.964C51.999 101.221 52.4814 101.832 52.7387 102.347C52.9961 102.829 54.0575 104.244 55.1189 105.467C57.1774 107.847 59.6862 109.584 62.4524 110.484C64.736 111.224 64.6717 111.578 62.3559 110.967Z" stroke="white" stroke-width="0.321643"/>
<path d="M113.012 100.9C113.012 100.417 113.944 99.0663 113.977 99.5488C113.977 99.7418 113.88 100.192 113.784 100.61C113.559 101.382 113.012 101.607 113.012 100.9Z" stroke="white" stroke-width="0.321643"/>
<path d="M50.2936 98.8736C50.0041 98.0695 49.1357 95.818 48.3637 93.7594C48.2029 93.4056 47.9456 92.6337 47.7204 92.0869C47.4953 91.5079 46.9807 90.6717 46.5304 90.1892C45.5654 89.1599 44.0859 86.8441 44.2789 86.6511C44.3432 86.5868 44.8578 87.1979 45.4046 88.0342C45.9836 88.9026 46.8842 90.1892 47.3988 90.8968C47.9134 91.6366 48.621 93.084 48.9749 94.1133C49.2965 95.1747 49.8755 96.7829 50.2614 97.7478C50.6152 98.7128 50.8726 99.5812 50.7761 99.6455C50.7117 99.742 50.4866 99.3882 50.2936 98.8736Z" stroke="white" stroke-width="0.321643"/>
<path d="M115.715 95.0452C116.326 93.7264 117.291 92.1825 117.838 91.6036C118.706 90.703 118.803 90.6708 118.449 91.3463C118.224 91.7644 117.838 92.3434 117.613 92.6007C116.808 93.4048 116.294 94.3697 116.101 95.592C115.972 96.2996 115.618 96.9429 115.265 97.1358C114.718 97.4253 114.782 97.1358 115.715 95.0452Z" stroke="white" stroke-width="0.321643"/>
<path d="M119.125 89.7706C119.511 89.0308 120.09 88.6127 120.09 89.063C120.09 89.3846 119.222 90.3817 118.932 90.3817C118.836 90.3817 118.932 90.0923 119.125 89.7706Z" stroke="white" stroke-width="0.321643"/>
<path d="M118.48 88.7413C118.48 88.6448 118.77 88.0015 119.124 87.2939C119.703 86.1682 119.735 86.136 119.574 87.0044C119.413 87.8086 118.48 89.2881 118.48 88.7413Z" stroke="white" stroke-width="0.321643"/>
<path d="M120.768 86.2001C120.8 85.9427 120.929 85.3638 121.057 84.9135L121.315 84.1094L121.347 84.9135C121.347 85.3638 121.218 85.9427 121.057 86.2001C120.768 86.6182 120.736 86.6182 120.768 86.2001Z" stroke="white" stroke-width="0.321643"/>
<path d="M42.8 82.2448C42.4462 81.3121 42.5105 80.8618 42.9286 81.2799C43.1216 81.4729 43.2181 81.891 43.1538 82.2127C43.0573 82.7916 43.0251 82.7916 42.8 82.2448Z" stroke="white" stroke-width="0.321643"/>
<path d="M121.892 76.0049C121.087 75.1686 120.251 73.9785 120.058 73.3674C119.865 72.7241 119.511 71.9843 119.318 71.727C118.772 71.0516 117.196 67.8673 117.196 67.4813C117.196 67.3205 116.842 66.4199 116.424 65.5193C115.973 64.5865 115.33 63.0748 114.976 62.1742C113.497 58.411 111.953 55.8057 109.991 53.8758C108.929 52.7822 107.643 51.6886 107.16 51.4313C106.678 51.174 104.844 50.1447 103.075 49.1155C99.3765 46.9926 93.008 44.0657 91.9787 44.0657C91.6249 44.0657 91.0138 43.8405 90.6922 43.5832C90.3383 43.3259 89.8237 43.1008 89.5664 43.1008C88.8266 43.1008 86.2213 40.6884 86.3821 40.1738C86.4786 39.9165 86.8003 40.1738 87.2506 40.8171C87.926 41.782 90.0489 42.9721 92.1074 43.5832C93.394 43.9692 98.9905 46.3494 99.3122 46.671C99.6982 47.0248 100.695 47.057 100.888 46.7353C100.953 46.5745 100.985 46.6388 100.92 46.864C100.824 47.2178 101.757 48.247 102.175 48.247C102.303 48.247 103.815 49.0833 105.52 50.1126C110.216 52.8787 111.663 54.3904 114.076 59.1829C115.201 61.4023 116.424 64.2327 116.842 65.455C117.839 68.4462 120.798 74.1072 122.406 76.0049C124.014 77.9347 123.757 77.9347 121.892 76.0049Z" stroke="white" stroke-width="0.321643"/>
<path d="M42.8945 76.1011C42.8945 75.4257 43.8273 73.1742 44.0203 73.3672C44.1489 73.528 43.2805 76.2619 43.0232 76.5193C42.9589 76.5836 42.8945 76.4228 42.8945 76.1011Z" stroke="white" stroke-width="0.321643"/>
<path d="M44.5039 71.4691C44.5039 71.244 44.922 70.5042 45.4367 69.8609C45.9835 69.2176 46.6268 68.0275 46.9162 67.2234C47.2057 66.4193 47.7203 64.9398 48.1063 63.9427C48.4601 62.9134 48.8139 62.0771 48.9104 62.0771C49.2964 62.0771 47.9133 66.1942 46.5624 68.9925C45.9513 70.2469 44.5039 72.0159 44.5039 71.4691Z" stroke="white" stroke-width="0.321643"/>
<path d="M49.3595 60.8876C50.0028 59.2151 51.6753 56.4489 53.1227 54.7442C54.3128 53.2968 57.8831 50.4985 58.4942 50.4985C58.5907 50.4985 59.234 50.1447 59.9416 49.6944C60.7457 49.1798 61.2282 48.633 61.2282 48.2149C61.2282 47.7003 61.2925 47.6359 61.7106 47.9897C62.0966 48.3435 62.0001 48.5365 61.1317 49.2763C60.5527 49.7588 60.0059 50.1769 59.8772 50.1769C59.5878 50.1769 57.6901 51.3992 55.7602 52.8144C53.3479 54.5834 52.0613 56.256 50.2279 59.9227C49.263 61.8526 48.7806 62.3672 49.3595 60.8876Z" stroke="white" stroke-width="0.321643"/>
<path d="M63.9006 47.1205C64.383 46.6702 64.9941 46.3164 65.2515 46.3164C65.4766 46.3164 66.5702 45.8018 67.6638 45.1907C68.7574 44.5796 69.9153 44.0649 70.2369 44.0649C71.2019 44.0649 73.3247 42.7784 73.8715 41.8456C74.1288 41.3953 74.9008 40.4947 75.5762 39.8836L76.7663 38.7578L75.9943 39.8836C74.7078 41.7813 72.3276 43.9684 71.2984 44.1936C70.7837 44.3222 69.3363 44.9012 68.1141 45.5123C66.8918 46.1234 65.7661 46.6381 65.5731 46.6381C65.4123 46.6381 64.8977 46.9276 64.4474 47.2814C63.2894 48.182 62.8391 48.0533 63.9006 47.1205Z" stroke="white" stroke-width="0.321643"/>
<path d="M81.9438 27.8868C81.6543 27.1148 82.1368 26.4716 82.5227 27.1792C82.7479 27.533 82.7157 27.8546 82.4906 28.0798C82.2654 28.3049 82.1046 28.2728 81.9438 27.8868Z" stroke="white" stroke-width="0.321643"/>
<path d="M79.0154 27.7586C76.989 27.5656 77.3429 27.1474 79.4014 27.2761C80.3663 27.3404 81.1061 27.5334 80.9774 27.6942C80.8809 27.8551 80.7201 27.9516 80.5915 27.9194C80.4628 27.8872 79.7552 27.8229 79.0154 27.7586Z" stroke="white" stroke-width="0.321643"/>
<path d="M84.0664 27.501C84.0664 27.2437 84.2272 27.0186 84.388 27.0186C84.581 27.0186 84.7097 27.2437 84.7097 27.501C84.7097 27.7583 84.581 27.9835 84.388 27.9835C84.2272 27.9835 84.0664 27.7583 84.0664 27.501Z" stroke="white" stroke-width="0.321643"/>
<path d="M85.9961 27.501C85.9961 27.2437 86.2856 27.0186 86.6394 27.0186C87.4113 27.0186 87.5078 27.501 86.768 27.7905C86.0604 28.08 85.9961 28.0478 85.9961 27.501Z" stroke="white" stroke-width="0.321643"/>
<path d="M81.9102 24.124C81.9102 22.8696 82.0388 22.2907 82.2318 22.4836C82.6821 22.9339 82.7143 25.3784 82.2961 25.7322C82.0066 25.9574 81.9102 25.5393 81.9102 24.124Z" stroke="white" stroke-width="0.321643"/>
<path d="M84.9011 23.3204C84.3865 22.9344 84.3543 22.8379 84.7724 22.8379C85.0298 22.8379 85.4479 23.063 85.673 23.3204C86.1877 23.9315 85.7052 23.9315 84.9011 23.3204Z" stroke="white" stroke-width="0.321643"/>
<path d="M79.2422 23.1595C79.2422 22.9987 79.4673 22.8379 79.7247 22.8379C79.982 22.8379 80.2071 22.9987 80.2071 23.1595C80.2071 23.3525 79.982 23.4812 79.7247 23.4812C79.4673 23.4812 79.2422 23.3525 79.2422 23.1595Z" stroke="white" stroke-width="0.321643"/>
<path d="M80.0441 21.2289C79.9476 21.068 80.1406 20.9072 80.5266 20.9072C80.9126 20.9072 81.1055 21.068 81.0091 21.2289C80.9126 21.4219 80.6874 21.5505 80.5266 21.5505C80.3658 21.5505 80.1406 21.4219 80.0441 21.2289Z" stroke="white" stroke-width="0.321643"/>
<path d="M82.0388 21.3576C81.7172 21.0038 81.7493 19.9424 82.1032 19.9424C82.5856 19.9424 82.7143 20.3605 82.4891 21.0038C82.3605 21.3254 82.1675 21.4863 82.0388 21.3576Z" stroke="white" stroke-width="0.321643"/>
<path d="M83.907 21.1972C83.5211 20.5861 84.0678 20.4574 84.6146 21.0042C85.1293 21.5189 85.1293 21.551 84.6468 21.551C84.3573 21.551 84.0035 21.3902 83.907 21.1972Z" stroke="white" stroke-width="0.321643"/>
<path d="M81.8796 19.234C81.6544 19.0088 81.6223 18.6872 81.8152 18.3334C82.0726 17.8509 81.9439 17.7223 81.172 17.5614C80.6252 17.4649 80.207 17.2398 80.207 17.079C80.207 16.886 80.4322 16.8217 80.6895 16.9181C81.2685 17.1433 82.2012 16.4678 81.9439 16.0497C81.8474 15.8889 81.4936 15.9211 81.1398 16.114C80.7538 16.307 80.4 16.3714 80.2714 16.2749C79.9819 15.9854 80.786 15.2778 81.4293 15.2778C81.8152 15.2778 82.0404 14.924 82.1691 14.152C82.3942 12.9941 82.5229 13.0906 82.5872 14.4737C82.6194 14.924 82.8123 15.3099 83.1018 15.3099C83.3591 15.3421 83.7773 15.3743 84.0024 15.4064C84.1954 15.4064 84.3884 15.6959 84.3884 15.9854C84.3884 16.4035 84.2919 16.4357 84.0024 16.1462C83.4556 15.5994 82.7802 15.6637 82.7802 16.2427C82.7802 16.5 83.0697 16.7252 83.4235 16.7252C84.2919 16.7252 84.2597 17.6901 83.3913 17.9152C83.0375 18.0117 82.8123 18.269 82.9088 18.5264C83.134 19.1375 82.3299 19.6843 81.8796 19.234Z" stroke="white" stroke-width="0.321643"/>
<path d="M82.0737 10.454C82.0415 9.29605 82.0737 8.36328 82.2345 8.36328C82.3632 8.36328 82.4597 9.29605 82.4597 10.454C82.4597 11.6119 82.3954 12.5446 82.331 12.5446C82.2667 12.5446 82.138 11.6119 82.0737 10.454Z" stroke="white" stroke-width="0.321643"/>
<path d="M82.1034 7.55862C82.0712 7.36563 82.1034 6.91533 82.1355 6.52936C82.1677 5.98256 82.0069 5.78958 81.5244 5.78958C81.0741 5.78958 80.849 5.98256 80.849 6.43287C80.849 6.78667 80.7203 7.07615 80.5916 7.07615C80.4308 7.07615 80.3343 6.75451 80.3343 6.36854C80.3665 5.78958 80.2057 5.66092 79.6267 5.72525C79.1442 5.75741 78.9191 5.66092 78.9834 5.40361C79.0799 5.17846 79.7232 4.95331 80.463 4.88898C81.4601 4.82465 81.846 4.63166 82.0069 4.11703C82.1355 3.73106 82.039 3.34509 81.7817 3.1521C81.4279 2.92695 81.4279 2.7983 81.7496 2.66964C81.9747 2.60531 82.1355 1.96202 82.1355 1.25441C82.1355 0.578958 82.2963 0 82.4572 0C82.7788 0 82.9396 1.8012 82.811 3.57024C82.7466 4.34218 82.8753 4.43868 84.2584 4.69599C85.0946 4.85681 85.8344 5.17846 85.9309 5.43577C86.0596 5.78958 85.8666 5.85391 85.0625 5.69309C84.1297 5.5001 84.0654 5.53226 84.2584 6.27204C84.387 6.75451 84.3227 7.07615 84.0976 7.07615C83.9046 7.07615 83.7437 6.78667 83.7437 6.4007C83.7437 5.56443 82.9718 5.75741 82.8431 6.62585C82.7145 7.33347 82.1677 8.00892 82.1034 7.55862Z" stroke="white" stroke-width="0.321643"/>
</g>
<defs>
<clipPath id="clip0_307_3992">
<rect width="160.46" height="133" fill="white"/>
</clipPath>
</defs>
</svg>
