<svg width="161" height="133" viewBox="0 0 161 133" fill="none" xmlns="http://www.w3.org/2000/svg">
<path d="M80.5034 96.7639C80.2783 96.6675 80.1818 96.3136 80.2783 95.992C80.4069 95.5417 80.2139 95.3165 79.6028 95.1557C78.67 94.9306 78.4449 94.2873 79.3455 94.4481C79.6993 94.5124 79.9566 94.4803 79.9566 94.3838C79.9566 94.2873 80.0853 93.9335 80.2783 93.5797C80.5034 93.1615 80.5356 92.4218 80.3747 91.5855C80.2461 90.8135 80.2461 90.1381 80.3426 90.0094C80.6964 89.6556 80.6321 84.3807 80.2461 84.252C80.0531 84.2199 78.7987 83.9947 77.4478 83.8017C74.0705 83.2871 71.2401 82.2257 68.281 80.3923C62.2662 76.6291 58.7925 71.2576 58.0205 64.4388C57.6346 61.0615 57.7632 61.2224 55.769 61.4475C54.579 61.6083 54 61.544 54 61.3189C54 61.1259 54.8041 60.9329 55.8655 60.8686L57.6989 60.7721L57.8919 58.6814C58.1492 56.1404 59.4358 52.2485 60.7867 49.8362C64.0031 44.1431 71.1114 39.4149 77.3191 38.8682C80.2461 38.5787 80.7286 38.3535 80.5034 37.1634C80.3747 36.6488 80.4712 36.1342 80.6642 36.0377C80.8894 35.8769 81.018 36.2307 81.018 37.0991C81.018 38.5787 81.0502 38.5787 84.2988 38.8682C86.2608 39.029 87.9977 39.4793 89.4773 40.2191C89.9919 40.4764 90.5387 40.6694 90.6995 40.6694C90.8603 40.6694 91.8252 41.2161 92.8223 41.8594C95.1382 43.339 98.9657 47.1022 100.091 49.0642C101.539 51.5087 102.793 55.5293 103.372 59.5498L103.597 60.9007L105.173 60.7077C106.235 60.5791 106.749 60.6434 106.749 60.9007C106.749 61.2867 106.492 61.351 104.787 61.2545C103.533 61.2224 103.211 61.6727 103.211 63.6025C103.211 65.2751 101.893 69.7137 100.703 72.1904C98.6441 76.4039 93.9803 80.6175 89.3808 82.4187C86.8719 83.4157 84.0093 84.0912 82.4011 84.0912H81.018L81.0502 88.948C81.0824 92.7756 81.1789 93.837 81.5327 93.9656C81.79 94.0621 83.3339 93.3224 84.9742 92.3574C86.6146 91.3603 88.9305 90.2989 90.1849 89.9451C92.6615 89.2375 96.0709 88.8837 96.3283 89.3018C96.4247 89.4305 95.5563 89.5591 94.4306 89.5591C91.6966 89.5591 87.9012 90.8135 85.1994 92.5826C84.0415 93.3545 82.8192 94.1265 82.4654 94.3195C81.8865 94.6411 81.9186 94.6733 82.8514 94.7054C83.4304 94.7054 84.3631 94.5124 84.9421 94.2551C85.8105 93.8692 89.8632 92.3253 91.1498 91.8428C91.3106 91.8106 91.182 91.9393 90.8282 92.1966C89.2843 93.2902 83.3339 95.2201 81.1467 95.3487C81.1145 95.3487 81.1789 95.7025 81.2753 96.1528C81.404 96.9248 81.2432 97.0534 80.5034 96.7639ZM80.5677 80.9713C80.4712 79.5882 80.4069 78.173 80.3747 77.787C80.3747 77.208 80.0531 77.0472 78.0589 76.7256C71.9477 75.632 66.9622 70.7108 65.8686 64.6318C65.6757 63.5704 65.4505 62.3803 65.3862 61.9621C65.2575 61.4153 65.0324 61.2224 64.5177 61.2545C63.2633 61.3832 63.1347 61.1902 64.2926 60.965C65.4183 60.7721 65.4183 60.7399 65.6113 58.81C66.1903 52.8596 71.7547 47.1665 78.1232 46.073L80.3747 45.687L80.4069 44.5291C80.4391 43.918 80.4069 43.0174 80.3747 42.5349C80.3426 42.0203 80.4712 41.6343 80.6642 41.6343C80.8894 41.6343 81.018 42.4384 81.018 43.725C81.018 45.7835 81.018 45.8156 81.9186 45.8156C83.5912 45.8156 86.5825 46.7806 88.5445 47.9707C92.7259 50.5116 95.299 54.5 95.9744 59.4212L96.1674 60.9329L99.223 60.9007C100.896 60.8686 102.343 60.9329 102.472 61.0615C102.568 61.158 101.217 61.2545 99.416 61.2545C96.5212 61.2545 96.1353 61.3189 96.1031 61.8335C95.9423 64.3745 95.3312 66.7546 94.3662 68.6845C93.7229 69.9711 91.5036 72.705 90.3779 73.6378C88.2872 75.3425 84.1701 77.015 82.0795 77.015H80.9859L81.0502 80.2315L81.0824 83.4479H83.0122C85.2637 83.4479 88.9626 82.29 91.7931 80.7139C95.7815 78.4946 99.3517 74.3776 101.153 69.9389C101.571 68.8775 102.15 66.5295 102.439 64.7283C103.051 60.965 102.793 57.6843 101.571 53.8567C99.609 47.6169 94.2376 42.0846 88.4158 40.3799C87.6117 40.1547 86.5503 39.8009 86.0035 39.5758C85.4567 39.3828 83.1087 39.2541 80.5356 39.2541C76.5472 39.2863 75.7752 39.3828 73.7167 40.1226C66.6406 42.6635 61.5265 47.6812 59.4679 54.1462C58.7282 56.5264 58.0849 60.1931 58.3422 60.6434C58.4708 60.8042 59.4679 60.9329 60.6259 60.9329C62.1054 60.9329 62.6522 61.0294 62.4914 61.2867C62.3627 61.5118 61.6873 61.5762 60.6259 61.4475C58.1814 61.1902 58.0205 61.3832 58.4387 64.2136C59.2106 69.3921 61.0118 73.1875 64.2283 76.5326C68.088 80.4566 74.3279 83.3836 79.0238 83.4157L80.7286 83.4479L80.5677 80.9713ZM80.4069 75.5033C80.4391 74.9887 80.4069 73.5413 80.3747 72.2869C80.3426 70.7752 80.4391 69.9389 80.6642 69.9389C80.8894 69.9389 81.018 71.0646 81.018 73.1875V76.4361L82.8836 76.3074C86.9363 76.018 91.8896 72.512 93.7873 68.588C94.7844 66.5295 95.492 63.9242 95.492 62.2195C95.492 61.4475 95.3312 61.2545 94.7844 61.2224C94.0768 61.158 94.0768 61.158 94.8165 61.0294C95.5241 60.9007 95.5563 60.7721 95.3955 59.0352C95.2347 57.0088 93.8838 53.7924 92.3077 51.6696C90.5387 49.2572 86.1 46.8449 82.5619 46.3303C81.1467 46.1051 81.018 46.1695 81.018 46.7484C81.018 47.1022 80.8894 47.4882 80.6964 47.5847C80.5034 47.6812 80.3747 47.456 80.3747 47.0057C80.3747 46.2659 80.3426 46.2338 78.4127 46.5233C73.3629 47.1987 68.3131 51.3801 66.7371 56.1726C65.6113 59.6141 65.7078 60.9007 67.123 60.965L67.9915 61.0294L67.1874 61.158C65.9008 61.3832 65.8043 61.6727 66.1903 64.1493C67.1874 70.5822 73.1378 76.1788 79.1847 76.3396C80.2783 76.3718 80.3747 76.3074 80.4069 75.5033Z" stroke="white" stroke-width="0.321643"/>
</svg>
