<svg width="206" height="133" viewBox="0 0 206 133" fill="none" xmlns="http://www.w3.org/2000/svg">
<path d="M56.5811 21.9767C56.0437 25.0476 56.1973 24.9709 49.8251 24.9709H45.142L44.9501 23.9728C44.7965 23.0132 45.5643 15.0288 45.9481 13.8388C46.4472 12.3802 46.6007 11.1518 46.2552 11.1518C45.7946 11.1518 44.7198 17.0249 44.3743 21.3242L44.1056 24.7789L42.6853 24.8941C41.3418 25.0092 41.2266 24.9325 41.1882 23.9344L41.1115 22.8596L40.9579 23.9344L40.8044 24.9709H31.5149C26.4095 24.9709 21.8416 24.8557 21.3809 24.7405C20.69 24.5486 20.498 24.2031 20.498 23.2051C20.498 21.7848 20.1526 21.4009 19.3465 21.9383C18.9626 22.2071 18.9242 22.399 19.1929 22.5141C19.5384 22.6677 19.5384 23.0132 19.2313 23.8193C18.8474 24.8557 18.6171 24.9709 17.0433 25.0092C15.9301 25.0476 15.6998 25.1244 16.3907 25.2396C16.9665 25.3163 17.4271 25.585 17.4271 25.777C17.4271 25.9689 17.7726 26.1225 18.1949 26.1225C19.1929 26.1225 19.1929 26.775 18.1565 27.0821C17.0817 27.4276 17.9645 28.0418 19.1161 27.7347C19.8071 27.5427 19.8455 27.6195 19.4232 28.1569C19.1161 28.5024 19.001 28.963 19.1545 29.1934C19.6152 29.9227 20.1142 29.5772 20.1142 28.5024C20.1142 27.9266 20.3061 27.2357 20.5748 26.9669C20.9203 26.6215 20.8435 26.3528 20.3061 25.7386C19.9222 25.3163 19.8071 24.9709 19.999 24.9709C20.2293 24.9709 20.6132 25.2396 20.8819 25.5467C21.1506 25.8921 21.6496 26.0457 21.9951 25.9305C22.3406 25.8154 26.7166 25.6618 31.7068 25.585L40.766 25.4315L40.9963 26.5831C41.1115 27.2357 41.2266 28.4256 41.2266 29.2317C41.2266 31.6501 42.6085 38.0606 44.1056 42.5134C49.1726 57.676 60.3046 70.497 75.1985 78.4045C82.2232 82.128 94.929 85.6212 101.416 85.6212C105.524 85.6212 105.37 85.4292 105.255 90.7649C105.14 95.0642 105.101 95.4097 104.372 95.5248C102.76 95.7935 102.529 95.9471 103.029 96.5612C103.412 97.0219 103.374 97.329 102.913 98.0583C102.222 99.0564 102.491 99.6705 103.297 98.9796C103.719 98.6725 103.988 98.7493 104.602 99.4018C105.332 100.17 105.37 100.63 105.255 106.657C105.178 110.687 104.986 112.991 104.756 112.875C104.564 112.76 104.41 112.415 104.487 112.108C104.602 111.34 103.911 110.304 103.566 110.687C103.412 110.841 103.489 111.186 103.719 111.417C103.988 111.685 104.18 112.031 104.18 112.184C104.18 112.683 103.105 112.53 102.952 112.031C102.875 111.801 102.568 111.724 102.299 111.877C101.647 112.3 102.453 113.221 104.103 113.912C104.756 114.181 105.332 114.603 105.332 114.795C105.332 115.294 104.295 115.294 103.988 114.795C103.873 114.603 103.566 114.411 103.374 114.411C102.721 114.411 103.451 115.217 104.449 115.601C105.37 115.946 105.37 116.023 105.293 119.324C105.217 121.167 105.293 122.894 105.447 123.163C106.023 124.007 106.099 123.662 106.023 121.052C105.984 119.593 105.984 117.674 106.023 116.752C106.099 115.217 106.176 115.102 107.021 115.255C107.75 115.409 107.865 115.294 107.712 114.718C107.596 114.219 107.328 114.065 106.829 114.219C106.407 114.372 106.099 114.296 106.099 114.065C106.099 113.643 106.752 113.49 108.287 113.605C109.285 113.72 109.823 112.991 109.209 112.376C108.863 112.031 108.671 112.069 108.403 112.492C108.096 112.952 107.942 112.952 107.712 112.568C107.52 112.3 107.097 112.184 106.752 112.338C106.176 112.53 106.099 112.223 106.023 109.958C105.831 103.663 105.984 100.246 106.445 99.6705C107.136 98.826 108.057 98.8644 107.75 99.7473C107.52 100.323 107.558 100.323 108.134 99.9009C108.71 99.4018 108.71 99.2867 108.096 98.4806C107.75 98.0199 107.213 97.7128 106.982 97.7896C106.675 97.9048 106.483 97.7128 106.483 97.329C106.483 96.83 106.714 96.7148 107.443 96.9067C108.134 97.0987 108.479 96.9835 108.671 96.5612C108.978 95.7168 108.096 94.8339 107.673 95.5248C107.52 95.7935 107.097 95.9087 106.79 95.7935C106.33 95.6016 106.138 94.7955 106.023 92.2236C105.946 90.3811 105.984 88.193 106.099 87.3485L106.291 85.8131L110.13 85.5828C117.922 85.0838 126.214 82.8574 133.546 79.2874C142.912 74.6811 151.165 68.1938 157.192 60.6701C158.689 58.7892 162.143 53.8757 162.143 53.607C162.143 53.4919 162.758 52.417 163.487 51.1503C166.481 46.1217 169.322 37.6767 170.204 31.1127C170.435 29.3085 170.742 27.274 170.819 26.6215L171.011 25.3547H180.761C186.135 25.3547 190.549 25.2396 190.549 25.086C190.549 24.8941 186.941 24.8173 182.526 24.8173C178.074 24.8557 173.698 24.7789 172.738 24.7022L170.972 24.4718V21.2858C170.972 19.2513 170.819 18.0613 170.55 18.0613C170.32 18.0613 170.166 18.9058 170.204 20.2877C170.32 24.7022 170.358 24.587 168.861 24.587C167.863 24.587 167.517 24.4335 167.479 23.9344C167.441 23.5506 167.364 22.2071 167.287 20.9403C167.21 19.6736 166.98 17.1017 166.75 15.2591C166.481 13.4166 166.404 11.6508 166.519 11.3437C166.635 10.9983 166.519 10.8831 166.174 10.9983C165.637 11.2286 165.675 13.1863 166.212 15.5662C166.289 15.9885 166.481 18.1765 166.596 20.4029L166.826 24.4718L165.752 24.7022M56.9266 25.3547L56.5811 26.2376L56.2357 27.0821L55.9669 26.2376C55.7366 25.3931 55.5831 25.3547 51.6293 25.5083L47.5604 25.6618L47.33 27.1205L47.1381 28.6176L46.9462 27.0821C46.831 25.8537 46.6391 25.5467 46.0249 25.5467C45.4107 25.5467 45.2188 25.8537 45.142 26.8902C44.8349 29.9227 47.0997 40.4405 49.0574 45.2388C53.9325 57.3305 64.8726 69.0383 76.8107 75.0266C85.1405 79.1723 95.0058 81.7825 102.568 81.7825C105.178 81.7825 105.332 81.7441 105.332 80.8997C105.332 80.0552 105.063 79.9016 103.029 79.7481C102.683 79.7097 102.414 79.4026 102.414 79.0187C102.414 78.1742 102.952 78.0975 103.259 78.9036C103.604 79.7864 105.332 79.6329 105.332 78.7116C105.332 78.251 105.063 77.9439 104.679 77.9055C104.103 77.9055 104.103 77.8288 104.756 77.5984C105.754 77.1762 106.215 77.4833 105.984 78.3278C105.869 78.7884 106.061 79.1339 106.637 79.2874C107.443 79.5561 107.443 79.5561 106.675 79.7864C106.176 79.9784 105.907 80.4006 105.907 81.0148V81.9745L110.053 81.7058C123.258 80.7845 136.616 75.0265 146.981 65.7755C153.967 59.5185 160.224 50.3442 163.372 41.7073C164.715 38.0606 166.251 31.0359 166.443 27.8498C166.558 25.585 166.558 25.5467 165.483 25.4315C164.523 25.3163 164.408 25.3931 164.638 26.0841C164.792 26.5447 164.715 26.8902 164.485 26.8902C164.255 26.8902 164.063 26.5831 164.063 26.1992C164.063 25.585 163.602 25.5083 159.879 25.4699M56.8498 23.1283C56.6579 24.3567 56.7347 24.5486 57.464 24.6638M104.948 97.7128C104.679 97.4057 104.334 97.137 104.142 97.137C103.95 97.137 103.796 97.4057 103.796 97.7128C103.796 98.0583 104.142 98.2886 104.602 98.2886C105.293 98.2886 105.332 98.2119 104.948 97.7128ZM105.332 83.8938C105.332 83.0877 105.14 82.5503 104.871 82.5119C104.602 82.4735 103.182 82.3967 101.685 82.3199C93.1632 81.8977 83.9505 79.2874 75.7743 74.9882C65.8322 69.806 56.3124 60.3246 50.8616 50.1906C47.2533 43.5114 44.7965 34.4139 44.3359 25.8537C44.2975 25.5467 43.7601 25.3547 42.954 25.3547C41.6489 25.3547 41.6105 25.3931 41.6105 26.8134C41.6105 30.6904 43.0692 38.2525 44.8733 43.5498C45.2188 44.5479 46.332 47.1581 47.3684 49.3461C54.585 64.5087 68.4425 76.5236 84.987 81.8977C90.8601 83.817 97.8464 85.1221 102.76 85.1989L105.332 85.2373V83.8938ZM116.809 84.2393C123.143 83.1261 127.289 81.7825 133.546 78.7116C154.428 68.5009 168.132 49.3461 170.051 27.7731C170.32 24.7405 170.166 24.5486 168.17 25.3163C167.326 25.6234 167.21 25.9689 166.98 28.5024C166.02 38.4061 161.913 48.5016 155.234 57.4073C150.819 63.242 143.334 70.2283 139.112 72.3779C138.382 72.7618 137.691 73.184 137.576 73.2992C137.077 73.9133 130.935 76.9459 127.212 78.4429C122.49 80.3239 114.698 81.9361 108.863 82.2816C106.253 82.4351 106.215 82.4735 106.099 83.318C105.792 85.3141 105.831 85.3525 109.785 85.0838C111.819 84.9302 115.005 84.5463 116.809 84.2393Z" stroke="white" stroke-width="0.383863"/>
<path d="M106.867 111.379C106.867 111.187 107.136 110.956 107.443 110.803C107.788 110.688 108.019 110.803 108.019 111.148C108.019 111.456 107.75 111.724 107.443 111.724C107.136 111.724 106.867 111.571 106.867 111.379Z" stroke="white" stroke-width="0.383863"/>
<path d="M105.562 76.2168C105.485 75.9481 104.909 75.641 104.295 75.5259C103.335 75.3723 103.374 75.3723 104.564 75.3339C106.253 75.2572 106.982 75.641 106.291 76.2936C105.907 76.6774 105.754 76.6391 105.562 76.2168Z" stroke="white" stroke-width="0.383863"/>
<path d="M17.5051 23.7428C17.7354 23.0519 18.5799 22.9367 18.5799 23.5893C18.5799 23.9348 18.3112 24.2035 17.9657 24.2035C17.6202 24.2035 17.4283 24.0115 17.5051 23.7428Z" stroke="white" stroke-width="0.383863"/>
<path d="M21.5343 23.9733C21.3808 23.8197 21.2656 23.4358 21.2656 23.0904C21.2656 22.6681 21.3808 22.6297 21.6879 22.9368C21.9182 23.1671 22.0717 23.551 21.9566 23.8197C21.8798 24.05 21.6879 24.1268 21.5343 23.9733Z" stroke="white" stroke-width="0.383863"/>
<path d="M40.9982 19.7885C41.075 18.0995 41.1902 16.6408 41.2285 16.5257C41.2669 16.4105 41.3053 16.2186 41.2669 16.065C41.2669 15.9115 41.5356 14.4528 41.8811 12.879C42.265 10.998 42.6872 10 43.0327 10C43.4549 10 43.4549 10.1919 43.1479 10.7677C42.5337 11.8809 41.7659 16.4873 41.6508 19.4814C41.6124 20.9017 41.3821 22.2452 41.1902 22.4755C40.9598 22.7059 40.8831 21.7462 40.9982 19.7885Z" stroke="white" stroke-width="0.383863"/>
<path d="M170.168 17.4087C169.822 12.6872 169.362 11.0366 168.287 10.7295C167.404 10.4992 167.442 10.4608 168.594 10.4224C169.246 10.384 169.822 10.4992 169.861 10.6911C169.861 10.8446 169.937 11.3053 170.014 11.7275C170.091 12.1498 170.283 13.263 170.398 14.2226C170.552 15.1823 170.743 16.3339 170.859 16.8329C170.974 17.3319 170.897 17.6774 170.628 17.6774C170.398 17.6774 170.206 17.5622 170.168 17.4087Z" stroke="white" stroke-width="0.383863"/>
</svg>
