<svg width="161" height="134" viewBox="0 0 161 134" fill="none" xmlns="http://www.w3.org/2000/svg">
<path d="M79.2459 132.357C79.2137 131.907 79.2137 130.234 79.2459 128.626L79.3102 125.699L77.7985 125.474C76.9622 125.377 75.9008 125.281 75.4826 125.281H74.6785L75.354 126.342C76.2546 127.693 77.702 130.427 77.509 130.427C77.4125 130.427 76.93 129.655 76.3832 128.755C74.5177 125.57 74.1317 125.249 71.1726 124.638C61.0409 122.515 54.5115 119.202 47.4997 112.64C40.1019 105.693 34.1515 93.2452 33.4117 83.0813L33.1865 80.2508H30.1631C28.4584 80.2508 27.1397 80.3795 27.1397 80.5725C27.1397 80.7333 27.4291 81.1193 27.7508 81.4409C28.3619 82.0199 28.3619 82.0199 27.59 82.0199C26.9788 82.0199 26.818 81.859 26.818 81.1836C26.818 80.09 26.5285 79.9935 23.6981 80.1543C22.3472 80.2187 21.3179 80.1222 21.1893 79.9292C20.9319 79.5432 21.1249 79.511 24.4057 79.4789C26.818 79.4467 26.9788 79.4145 27.0753 78.7391C27.1397 78.321 27.3326 77.9993 27.5256 77.9993C27.7186 77.9993 27.7829 78.321 27.6543 78.8034L27.4613 79.6075H30.3239H33.2187L33.3795 77.935C33.476 77.0022 33.6368 75.2332 33.7333 74.0431L33.9263 71.8559L33.1865 72.2419C32.7684 72.4349 32.1895 72.9174 31.9 73.3033C31.6105 73.6571 31.2567 73.8823 31.1602 73.7536C30.9029 73.4963 32.4789 72.0167 33.283 71.7273C33.6047 71.6308 33.9585 70.8588 34.1836 69.7009C35.6632 62.8821 40.1662 54.0369 44.7014 49.1157C53.5144 39.5629 64.4503 34.4488 77.4768 33.8377L79.085 33.7734L79.1172 31.4575C79.1172 30.171 79.2459 29.013 79.3424 28.8844C79.471 28.7879 79.5675 29.785 79.5675 31.1359C79.5675 32.4868 79.7283 33.6769 79.8892 33.7734C80.0821 33.902 81.626 34.0628 83.3307 34.1272C92.0473 34.5453 102.501 38.8553 109.32 44.8701C116.846 51.4959 121.928 59.9873 124.469 70.0547C124.887 71.8559 125.337 74.6221 125.402 76.1981C125.498 77.7742 125.595 79.1251 125.659 79.1894C125.723 79.2537 126.978 79.3502 128.425 79.3824C130.484 79.4789 131.127 79.3824 131.32 79.0286C131.545 78.6104 131.706 78.6426 132.349 79.2216C133.218 80.0578 133.314 80.0257 128.908 79.9292L125.659 79.8648L125.466 82.7596C125.337 84.3357 125.177 85.8796 125.048 86.1691C124.662 87.1661 125.82 86.6837 127.718 85.0755C128.747 84.207 129.808 83.4673 130.066 83.4994C130.451 83.4994 130.419 83.5959 129.969 83.8854C129.647 84.1105 128.779 84.8182 128.039 85.4936C127.299 86.1691 126.302 86.8123 125.852 86.9088C124.951 87.0697 124.694 87.6486 123.922 91.3475C123.44 93.6955 121.51 98.5202 119.998 101.254C114.82 110.421 105.846 118.366 96.4216 122.032C94.5561 122.74 88.8952 124.316 87.4478 124.541C86.9331 124.605 86.0647 124.831 85.5179 125.056C84.4565 125.442 84.3922 125.474 81.7547 125.538L79.8892 125.603V128.336C79.8892 130.62 79.9856 131.07 80.4038 131.07C80.6933 131.07 80.9827 130.781 81.0792 130.395C81.2079 129.88 81.3365 129.848 81.5295 130.17C82.0442 130.974 81.819 131.392 80.9184 131.392C80.243 131.392 79.9213 131.617 79.664 132.293L79.3102 133.161L79.2459 132.357ZM79.2459 124.702C79.2459 123.994 78.0236 122.611 77.6376 122.869C77.4768 122.965 77.2517 122.869 77.1552 122.708C76.9944 122.45 77.2838 122.418 78.0879 122.547C79.0207 122.74 79.2459 122.676 79.2459 122.257C79.2459 121.968 78.9885 121.743 78.6991 121.711C73.6171 121.55 70.658 120.971 64.9327 119.105C55.7016 116.05 45.9558 107.398 41.4528 98.2628C38.944 93.2452 37.3036 87.0697 36.9819 81.5374C36.9176 80.4438 36.8854 80.4116 35.5024 80.4116H34.055L34.0871 82.6631C34.1515 87.5521 35.0842 91.3475 37.8825 97.909C40.4557 103.924 45.0873 110.131 50.105 114.313C53.2892 116.95 54.2542 117.594 57.7601 119.459C58.8537 120.038 59.9473 120.649 60.1081 120.778C60.5584 121.132 67.731 123.48 69.8217 123.962C70.7545 124.187 71.6551 124.284 71.8481 124.155C72.0089 124.059 72.3627 124.059 72.5878 124.219C72.9738 124.477 76.7692 125.152 78.3774 125.249C79.0207 125.281 79.2459 125.12 79.2459 124.702ZM83.5237 124.798C84.2635 124.67 85.0998 124.509 85.3571 124.477C85.6144 124.412 86.7723 124.187 87.9302 123.994C89.0881 123.769 90.3104 123.48 90.6642 123.351C91.018 123.19 92.4011 122.772 93.7198 122.386C96.0035 121.743 101.182 119.363 103.691 117.819C106.65 115.985 111.282 111.965 114.659 108.234C117.361 105.275 120.995 98.7775 122.378 94.5318C122.764 93.3095 123.214 92.023 123.343 91.6692C123.858 90.3183 124.662 85.4293 124.823 82.6953C124.984 80.3473 124.919 79.8648 124.565 79.9935C124.308 80.09 124.115 80.6368 124.083 81.3444C124.051 83.017 123.633 83.2099 123.633 81.5696C123.633 80.283 123.6 80.2187 122.764 80.3151C121.896 80.4116 121.864 80.476 121.671 82.824C120.867 92.5698 116.396 101.994 109.094 109.263C102.533 115.825 91.4683 120.842 81.8512 121.582C79.9213 121.711 79.6318 121.871 80.1465 122.483C80.6611 123.062 82.3336 123.126 82.9126 122.547C83.2342 122.193 83.4594 122.161 83.6202 122.418C83.7489 122.643 84.3278 122.708 85.1641 122.579C86.0325 122.45 86.322 122.483 86.0004 122.676C85.7109 122.836 84.2635 123.094 82.7839 123.255C80.1465 123.512 80.05 123.544 79.9535 124.348C79.857 125.152 79.9213 125.184 81.0149 125.088C81.6582 125.056 82.7839 124.895 83.5237 124.798ZM77.316 121.1C77.316 120.939 77.7341 120.874 78.2488 120.971C79.085 121.164 79.1494 121.067 79.3424 119.974C79.6318 118.14 79.4067 117.883 77.3482 117.883C76.3511 117.883 75.3218 117.722 75.0645 117.529C74.7107 117.272 75.2253 117.24 76.93 117.401L79.2459 117.594V116.789C79.2459 116.275 79.4388 115.953 79.7283 115.953C80.1143 115.953 80.1786 116.371 80.0178 118.526L79.8248 121.1H80.8541C83.5559 121.1 90.0209 119.749 93.3017 118.494C104.688 114.12 112.697 106.819 117.586 96.4616C119.097 93.213 120.255 88.903 120.867 84.2714C121.349 80.476 121.22 79.9292 119.934 79.9292C119.516 79.9292 119.097 80.1222 119.033 80.3473C118.904 80.6368 118.808 80.6368 118.583 80.3473C118.39 80.0578 118.004 80.0257 117.2 80.2508C116.589 80.4116 115.785 80.5081 115.463 80.476C115.045 80.4438 114.755 80.669 114.594 81.2157L114.369 82.0199L114.337 81.1514C114.305 80.3151 113.662 79.8005 113.662 80.6046C113.662 80.8619 113.501 80.8298 113.147 80.5403C112.793 80.2508 111.603 80.1222 109.545 80.09C107.84 80.09 106.425 79.9292 106.36 79.7684C106.296 79.5754 107.518 79.4467 109.48 79.4789C111.249 79.511 112.793 79.4145 112.858 79.2537C112.954 79.1251 113.501 79.0607 114.08 79.1251C114.627 79.1894 115.881 79.3181 116.846 79.4145L118.551 79.5754L118.39 78.7069C118.229 77.9028 118.261 77.9028 118.679 78.4818C118.937 78.8034 119.13 79.2216 119.13 79.3824C119.13 79.511 119.516 79.6075 120.03 79.5432L120.899 79.4467L120.834 76.2946C120.738 69.9904 118.261 62.9786 113.887 56.4492C111.764 53.2971 106.103 47.6362 103.047 45.6098C97.0006 41.5893 92.3689 39.8524 84.3278 38.598C80.05 37.9547 79.8892 37.9547 79.8892 38.8875C79.8892 39.3378 79.7283 39.7881 79.5353 39.9167C79.3102 40.0454 79.2459 39.9167 79.3745 39.5308C79.7605 38.2442 79.1815 38.0191 75.9973 38.2442C69.0819 38.7267 61.266 41.3641 55.9267 44.9665C51.2951 48.1508 47.371 51.9784 44.7335 55.9667C40.4878 62.3996 37.8825 69.8296 37.5287 76.4554L37.3357 79.6075L39.3943 79.5432C40.52 79.511 41.5814 79.3502 41.7101 79.1572C41.9031 78.8999 42.0317 78.9321 42.1604 79.2216C42.4177 79.8648 43.5435 79.704 43.5435 78.9964C43.5435 78.6426 43.7043 78.2566 43.8651 78.1601C44.0581 78.0315 44.1867 78.321 44.1867 78.7713C44.1867 79.7362 44.637 79.8648 45.1517 79.0607C45.5055 78.5139 45.5055 78.5139 45.3447 79.0286C45.2482 79.3502 45.3125 79.6719 45.4733 79.7684C46.0523 80.1222 45.795 80.5725 44.9909 80.5725H44.2189L45.216 82.1163C45.7628 82.9526 46.5347 83.9819 46.8885 84.4322C47.4997 85.1076 47.4353 85.1076 46.4382 84.3035C45.8271 83.7889 45.1838 83.0813 44.9909 82.7275C44.83 82.3737 44.4762 82.0199 44.2832 81.9234C43.6721 81.7304 43.7686 83.1134 44.3476 83.3708C44.637 83.4673 45.1517 84.1105 45.4733 84.786C45.8271 85.4614 46.4061 86.2012 46.7921 86.4585C47.1459 86.748 47.6927 87.2948 47.9821 87.7129C48.3681 88.3241 48.2716 88.2919 47.371 87.4878C46.7921 86.9732 46.1488 86.3299 46.0201 86.1047C45.8593 85.8474 45.3125 85.3006 44.7979 84.8503C44.2832 84.3679 43.8651 83.8532 43.8651 83.6924C43.8651 83.4994 43.64 83.1134 43.3505 82.7918C42.9645 82.3737 42.9323 82.0842 43.1897 81.6339C43.6078 80.8298 43.1253 80.09 42.4177 80.3795C41.8709 80.5725 41.8709 80.6368 42.4177 81.2157C42.9645 81.8269 42.9645 81.859 42.3212 81.859C41.8709 81.859 41.6136 81.6339 41.5493 81.1514C41.4528 80.5403 41.2276 80.4438 39.4264 80.3473L37.4001 80.2187L37.5931 82.4058C38.6223 93.6312 43.2218 103.023 51.2629 110.26C55.3478 113.927 61.3625 117.69 64.3538 118.398C64.8362 118.526 65.4152 118.719 65.576 118.848C66.0263 119.202 72.3305 120.746 74.6142 121.067C77.2838 121.453 77.316 121.453 77.316 121.1ZM36.8533 78.2566C36.8854 77.4847 36.9498 76.3589 36.9498 75.7478C36.9819 75.1367 37.2714 73.5285 37.5609 72.2097C37.8825 70.891 38.2685 69.2185 38.3972 68.5108C38.9118 66.0985 40.906 61.4668 42.9967 57.8966C46.985 51.0778 52.9354 45.6098 60.0759 42.1361C65.5117 39.4986 69.1784 38.4694 75.7078 37.7939C77.5733 37.5688 79.1494 37.3758 79.2137 37.3114C79.278 37.2471 79.2459 36.9255 79.1172 36.636C78.9885 36.2822 78.6991 36.1857 78.1523 36.3143C77.702 36.4108 77.2838 36.3787 77.1552 36.1857C77.0587 35.9927 76.6727 35.9927 76.1903 36.1857C75.7078 36.3787 75.3218 36.3787 75.2253 36.1857C75.0967 35.9927 75.354 35.864 75.7721 35.864C76.1903 35.864 76.737 35.7354 76.9944 35.5424C77.2838 35.3816 77.5412 35.3816 77.6698 35.5746C77.7663 35.7675 78.1844 35.6067 78.6347 35.2208L79.4067 34.5453L75.547 34.7061C65.769 35.1564 57.6314 38.405 49.6868 45.063C47.0815 47.2502 41.9352 52.7503 41.9352 53.3293C41.9352 53.4258 41.5171 54.1655 41.0025 54.9375C40.4557 55.7094 39.3621 57.7036 38.558 59.3762C37.7539 61.0487 36.9819 62.6248 36.8533 62.8821C36.6925 63.1394 36.3386 64.233 36.017 65.2944C35.6954 66.3558 35.3094 67.4816 35.1486 67.8032C34.7626 68.5108 34.3123 72.1132 34.055 76.3268L33.8298 79.6075H35.3094H36.7889L36.8533 78.2566ZM123.311 77.935C123.311 76.3911 123.761 76.5198 123.761 78.0958C123.793 78.8034 123.954 79.1572 124.372 79.2216C124.919 79.3181 124.951 79.1251 124.758 76.3589C124.63 74.7186 124.405 72.6922 124.244 71.8881C124.083 71.084 123.858 69.9261 123.761 69.3149C123.633 68.7038 123.44 68.0605 123.311 67.8676C123.182 67.7067 122.957 67.0634 122.829 66.4845C122.7 65.9055 122.41 65.0371 122.153 64.5546C121.896 64.0722 121.703 63.4932 121.703 63.2681C121.703 62.8499 118.358 56.3206 117.264 54.5194C116.428 53.1685 112.343 48.3438 110.799 46.8321C107.936 44.0981 105.106 42.0396 101.471 40.0776C99.4451 39.0161 97.676 38.1155 97.5152 38.1155C97.3865 38.1155 96.9684 37.9869 96.6146 37.7939C96.2608 37.6331 95.6818 37.3436 95.328 37.1506C94.9742 36.9898 94.4596 36.829 94.2023 36.829C93.945 36.829 93.4625 36.7003 93.1409 36.5395C91.8221 35.8319 86.6758 34.8026 83.5559 34.6096C81.6904 34.5131 80.1143 34.4488 80.05 34.5131C79.9856 34.5775 80.0178 34.8348 80.1143 35.0921C80.243 35.4137 80.8862 35.5424 82.4623 35.5424C84.5208 35.5424 84.6495 35.5746 84.4886 36.2178C84.3278 36.7968 84.2635 36.829 84.0062 36.3787C83.6202 35.6711 81.0792 35.6711 80.4038 36.3787C79.857 36.8933 79.7283 37.4723 80.1465 37.4723C80.2751 37.4723 82.4945 37.8261 85.0998 38.2764C89.9566 39.0805 93.3338 39.8846 93.8806 40.3992C94.0415 40.56 94.4274 40.6887 94.7491 40.6887C95.3602 40.6887 100.764 43.4548 102.533 44.6771C110.091 49.8234 116.138 57.4463 119.162 65.5517C120.191 68.3179 121.349 73.5606 121.574 76.5519C121.799 79.0607 121.864 79.2859 122.668 79.2859C123.214 79.2859 123.311 79.0929 123.311 77.935Z" stroke="white" stroke-width="0.321643"/>
<path d="M76.0314 123.673C75.2594 123.415 75.2916 123.415 76.2887 123.383C76.8355 123.351 77.3179 123.512 77.3179 123.673C77.3179 124.026 77.1571 124.026 76.0314 123.673Z" stroke="white" stroke-width="0.321643"/>
<path d="M70.723 123.32C70.0153 123.159 69.2112 122.934 68.9539 122.805C68.6966 122.708 68.2141 122.644 67.9247 122.676C67.603 122.708 67.3457 122.58 67.3457 122.355C67.3457 122.129 67.6352 122.065 68.0855 122.162C68.4715 122.29 69.5972 122.515 70.5621 122.741C71.5271 122.934 72.4598 123.255 72.6528 123.384C73.0066 123.738 72.4598 123.705 70.723 123.32Z" stroke="white" stroke-width="0.321643"/>
<path d="M66.2208 122.064C66.0922 121.871 65.7384 121.807 65.3846 121.903C64.9664 122.064 64.7734 121.968 64.7734 121.582C64.7734 121.196 64.9664 121.099 65.5132 121.26C66.3817 121.549 66.8963 121.968 66.639 122.225C66.5425 122.354 66.3495 122.257 66.2208 122.064Z" stroke="white" stroke-width="0.321643"/>
<path d="M61.2995 120.134C61.0744 119.781 60.9779 119.491 61.0744 119.491C61.1709 119.491 61.5247 119.781 61.8785 120.134C62.2644 120.52 62.3609 120.778 62.1036 120.778C61.8785 120.778 61.5247 120.488 61.2995 120.134Z" stroke="white" stroke-width="0.321643"/>
<path d="M59.3047 118.977C59.3047 118.527 59.4012 118.495 59.8836 118.88C60.1731 119.106 60.4948 119.363 60.5591 119.395C60.6234 119.459 60.3983 119.492 60.0123 119.492C59.562 119.492 59.3047 119.299 59.3047 118.977Z" stroke="white" stroke-width="0.321643"/>
<path d="M56.861 117.529C56.2499 116.822 56.2499 116.822 56.9575 117.207C57.7294 117.593 58.2119 118.205 57.7616 118.205C57.6008 118.205 57.2148 117.883 56.861 117.529Z" stroke="white" stroke-width="0.321643"/>
<path d="M55.0588 116.403C54.5442 116.146 54.1582 115.856 54.1582 115.792C54.1582 115.438 54.7693 115.664 55.4769 116.275C56.4097 117.014 56.2489 117.079 55.0588 116.403Z" stroke="white" stroke-width="0.321643"/>
<path d="M53.033 114.956C52.9043 114.763 52.6148 114.699 52.3575 114.795C52.0359 114.924 51.9072 114.795 51.9716 114.441C52.0359 114.055 51.7142 113.766 50.9423 113.476C50.0739 113.187 49.9774 113.09 50.5563 113.09C50.9423 113.058 51.8107 113.541 52.4862 114.184C53.1295 114.795 53.5798 115.31 53.4511 115.31C53.3225 115.31 53.1295 115.149 53.033 114.956Z" stroke="white" stroke-width="0.321643"/>
<path d="M49.0775 111.547C48.3056 110.775 48.3056 110.743 49.0132 111.29C50.3641 112.351 50.4284 112.416 50.2032 112.416C50.0746 112.416 49.5921 112.03 49.0775 111.547Z" stroke="white" stroke-width="0.321643"/>
<path d="M46.1168 108.652C45.377 107.784 44.6372 106.819 44.4442 106.465C44.1226 105.79 44.7659 106.433 46.6957 108.845C48.1431 110.647 47.7571 110.518 46.1168 108.652Z" stroke="white" stroke-width="0.321643"/>
<path d="M42.7395 104.76C42.8039 104.695 42.643 104.148 42.3857 103.602L41.8711 102.604L42.7074 103.569C43.6723 104.695 43.7045 104.92 43.0612 104.92C42.8039 104.92 42.643 104.856 42.7395 104.76Z" stroke="white" stroke-width="0.321643"/>
<path d="M39.2334 98.7131C38.9439 98.4557 38.7188 97.9733 38.7188 97.6838C38.7188 97.2013 38.7831 97.2013 39.0404 97.6195C40.1018 99.1634 40.1661 99.678 39.2334 98.7131Z" stroke="white" stroke-width="0.321643"/>
<path d="M37.6585 95.1106C37.176 94.1135 36.79 92.9878 36.8222 92.6339C36.8222 92.1836 36.8865 92.1193 37.0152 92.4731C37.1117 92.7304 37.562 93.7275 37.9801 94.6603C38.4304 95.5931 38.7199 96.4615 38.6556 96.6545C38.5912 96.8153 38.1731 96.1077 37.6585 95.1106Z" stroke="white" stroke-width="0.321643"/>
<path d="M36.4032 91.637C36.2424 91.5084 36.1459 90.9616 36.178 90.4148C36.178 89.4499 36.178 89.4499 36.4997 90.1896C36.8535 91.0581 36.757 92.023 36.4032 91.637Z" stroke="white" stroke-width="0.321643"/>
<path d="M35.8887 87.649C35.8887 87.0378 35.953 86.7805 36.0495 87.1022C36.1138 87.3917 36.1138 87.9063 36.0495 88.2279C35.953 88.5174 35.8887 88.2601 35.8887 87.649Z" stroke="white" stroke-width="0.321643"/>
<path d="M35.502 84.3035C35.502 83.5959 35.5984 83.4351 35.8558 83.6924C36.1131 83.9497 36.1131 84.207 35.8558 84.6573C35.5663 85.172 35.5341 85.1076 35.502 84.3035Z" stroke="white" stroke-width="0.321643"/>
<path d="M90.9859 121.518C91.3397 121.421 91.8222 121.196 92.0473 121.003C92.5298 120.617 92.9158 120.907 92.5941 121.389C92.4976 121.582 91.9187 121.711 91.3719 121.711C90.6964 121.679 90.5678 121.614 90.9859 121.518Z" stroke="white" stroke-width="0.321643"/>
<path d="M95.4257 119.941C95.9404 119.684 96.5837 119.523 96.8731 119.587C97.2591 119.684 97.2269 119.748 96.7123 119.78C96.3263 119.78 95.9082 119.973 95.8117 120.134C95.7152 120.327 95.3614 120.456 95.0719 120.456C94.7181 120.424 94.8146 120.263 95.4257 119.941Z" stroke="white" stroke-width="0.321643"/>
<path d="M102.211 116.628C102.34 116.435 102.919 116.049 103.465 115.76C104.044 115.47 104.881 114.859 105.363 114.409C105.846 113.959 106.328 113.669 106.425 113.766C106.521 113.83 106.264 114.216 105.846 114.57C104.913 115.406 101.922 117.111 102.211 116.628Z" stroke="white" stroke-width="0.321643"/>
<path d="M108.323 112.158C108.838 111.611 109.352 111.193 109.417 111.289C109.578 111.418 109.031 111.997 108.034 112.737C107.68 112.994 107.808 112.737 108.323 112.158Z" stroke="white" stroke-width="0.321643"/>
<path d="M110.768 110.228C110.768 110.067 110.993 109.745 111.25 109.52C111.507 109.295 111.733 109.263 111.733 109.456C111.733 109.617 111.507 109.938 111.25 110.163C110.993 110.389 110.768 110.421 110.768 110.228Z" stroke="white" stroke-width="0.321643"/>
<path d="M112.697 108.363C112.697 107.912 113.373 107.012 113.823 106.819C114.177 106.69 114.112 106.915 113.598 107.591C112.89 108.556 112.697 108.716 112.697 108.363Z" stroke="white" stroke-width="0.321643"/>
<path d="M116.559 103.024C116.559 102.734 116.784 102.316 117.105 102.091C117.588 101.673 117.588 101.705 117.202 102.445C116.655 103.538 116.559 103.603 116.559 103.024Z" stroke="white" stroke-width="0.321643"/>
<path d="M118.036 100.289C118.326 99.0667 118.486 98.9381 118.486 99.9673C118.486 100.418 118.326 100.9 118.165 100.997C117.94 101.125 117.908 100.9 118.036 100.289Z" stroke="white" stroke-width="0.321643"/>
<path d="M119.451 96.8471C119.451 96.5898 119.612 96.2682 119.773 96.1717C119.966 96.0752 120.094 96.2038 120.094 96.4612C120.094 96.7185 119.966 97.0401 119.773 97.1366C119.612 97.2331 119.451 97.1045 119.451 96.8471Z" stroke="white" stroke-width="0.321643"/>
<path d="M120.738 94.2103C120.738 93.76 120.835 93.76 121.221 94.0817C121.478 94.3068 121.703 94.532 121.703 94.5963C121.703 94.6606 121.478 94.7249 121.221 94.7249C120.963 94.7249 120.738 94.4998 120.738 94.2103Z" stroke="white" stroke-width="0.321643"/>
<path d="M121.381 91.99C121.381 91.8935 121.67 91.1859 122.056 90.3818C122.41 89.6098 122.635 88.8379 122.539 88.6449C122.41 88.4841 122.474 88.2589 122.667 88.1303C122.828 88.0338 122.989 87.3905 122.989 86.7472C123.021 86.1039 123.214 85.139 123.439 84.5922C123.858 83.6594 123.89 83.6594 123.825 84.4314C123.793 84.8817 123.665 85.3963 123.568 85.5571C123.472 85.7501 123.279 86.8437 123.15 88.0338C123.053 89.2239 122.796 90.2853 122.635 90.3818C122.474 90.5104 122.346 90.8321 122.346 91.1859C122.346 91.5075 122.121 91.8292 121.863 91.9578C121.606 92.0543 121.381 92.0543 121.381 91.99Z" stroke="white" stroke-width="0.321643"/>
<path d="M76.2877 120.553C75.9982 120.489 75.2906 119.717 74.776 118.88C74.0683 117.819 73.3929 117.176 72.4923 116.79C71.7847 116.5 70.5946 116.018 69.8548 115.728C68.2466 115.053 66.0273 113.638 65.384 112.833C65.0623 112.447 65.2232 112.48 65.9629 112.994C66.5097 113.38 67.0887 113.702 67.2495 113.702C67.3782 113.702 68.0858 114.152 68.7612 114.667C69.4688 115.214 70.1443 115.632 70.273 115.632C70.4338 115.632 71.3344 115.921 72.3315 116.307C73.6824 116.822 74.2292 117.208 74.6151 117.98C74.9046 118.559 75.5801 119.395 76.1269 119.877C76.7058 120.36 77.0918 120.746 76.9953 120.746C76.8988 120.714 76.5772 120.649 76.2877 120.553Z" stroke="white" stroke-width="0.321643"/>
<path d="M80.695 117.561C80.7915 117.4 81.2097 117.239 81.5956 117.239C82.1746 117.239 82.2067 117.304 81.8208 117.561C81.1775 117.979 80.4377 117.979 80.695 117.561Z" stroke="white" stroke-width="0.321643"/>
<path d="M87.0953 116.082C88.7679 115.213 91.8235 114.088 94.4931 113.316C96.9698 112.608 99.6394 111.675 100.347 111.257C102.727 109.906 105.365 106.786 107.327 103.087C108.324 101.19 109.096 100.193 108.71 101.318C107.584 104.567 103.113 110.26 100.733 111.482C99.0605 112.351 94.4931 113.927 92.9171 114.216C92.2095 114.313 90.1188 115.149 88.2854 115.985C84.0719 117.947 83.2678 118.012 87.0953 116.082Z" stroke="white" stroke-width="0.321643"/>
<path d="M75.225 116.468C73.8741 116.211 73.4559 116.018 73.8741 115.857C74.2279 115.728 74.6139 115.728 74.8068 115.825C74.9998 115.953 75.6753 116.05 76.3186 116.082C76.9619 116.114 77.5086 116.243 77.573 116.436C77.7338 116.886 77.4122 116.886 75.225 116.468Z" stroke="white" stroke-width="0.321643"/>
<path d="M82.7852 116.275C82.7852 116.082 83.3319 115.953 83.9752 115.953C85.3583 115.953 85.2296 116.243 83.7823 116.436C83.2355 116.5 82.7852 116.436 82.7852 116.275Z" stroke="white" stroke-width="0.321643"/>
<path d="M80.8555 115.792C80.8555 115.535 81.0163 115.31 81.1771 115.31C81.3701 115.31 81.4988 115.535 81.4988 115.792C81.4988 116.049 81.3701 116.275 81.1771 116.275C81.0163 116.275 80.8555 116.049 80.8555 115.792Z" stroke="white" stroke-width="0.321643"/>
<path d="M79.3745 115.439C79.1493 115.342 79.0529 114.988 79.1493 114.667C79.278 114.217 79.085 113.991 78.4739 113.831C77.5411 113.605 77.316 112.962 78.2166 113.123C78.5704 113.187 78.8277 113.155 78.8277 113.059C78.8277 112.962 78.9564 112.608 79.1493 112.254C79.3745 111.836 79.4067 111.097 79.2458 110.26C79.1172 109.488 79.1172 108.813 79.2137 108.684C79.5675 108.33 79.5032 103.055 79.1172 102.927C78.9242 102.895 77.6698 102.67 76.3189 102.477C72.9416 101.962 70.1112 100.9 67.1521 99.0671C61.1373 95.3039 57.6636 89.9324 56.8916 83.1136C56.5057 79.7363 56.6343 79.8972 54.6401 80.1223C53.4501 80.2831 52.8711 80.2188 52.8711 79.9937C52.8711 79.8007 53.6752 79.6077 54.7366 79.5434L56.57 79.4469L56.763 77.3562C57.0203 74.8152 58.3069 70.9233 59.6578 68.511C62.8742 62.8179 69.9825 58.0898 76.1902 57.543C79.1172 57.2535 79.5997 57.0283 79.3745 55.8382C79.2458 55.3236 79.3423 54.809 79.5353 54.7125C79.7605 54.5517 79.8891 54.9055 79.8891 55.7739C79.8891 57.2535 79.9213 57.2535 83.1699 57.543C85.1319 57.7038 86.8688 58.1541 88.3483 58.8939C88.863 59.1512 89.4098 59.3442 89.5706 59.3442C89.7314 59.3442 90.6963 59.891 91.6934 60.5342C94.0093 62.0138 97.8368 65.777 98.9626 67.7391C100.41 70.1835 101.664 74.2041 102.243 78.2246L102.468 79.5755L104.045 79.3825C105.106 79.2539 105.621 79.3182 105.621 79.5755C105.621 79.9615 105.363 80.0258 103.659 79.9293C102.404 79.8972 102.083 80.3475 102.083 82.2773C102.083 83.9499 100.764 88.3885 99.5737 90.8652C97.5152 95.0787 92.8514 99.2923 88.2519 101.093C85.743 102.091 82.8804 102.766 81.2722 102.766H79.8891L79.9213 107.623C79.9535 111.45 80.05 112.512 80.4038 112.64C80.6611 112.737 82.205 111.997 83.8453 111.032C85.4857 110.035 87.8016 108.974 89.056 108.62C91.5326 107.912 94.942 107.558 95.1993 107.977C95.2958 108.105 94.4274 108.234 93.3017 108.234C90.5677 108.234 86.7723 109.488 84.0705 111.257C82.9126 112.029 81.6903 112.801 81.3365 112.994C80.7576 113.316 80.7897 113.348 81.7225 113.38C82.3015 113.38 83.2342 113.187 83.8132 112.93C84.6816 112.544 88.7343 111 90.0209 110.518C90.1817 110.485 90.0531 110.614 89.6992 110.871C88.1554 111.965 82.205 113.895 80.0178 114.024C79.9856 114.024 80.05 114.377 80.1464 114.828C80.2751 115.6 80.1143 115.728 79.3745 115.439ZM79.4388 99.6461C79.3423 98.263 79.278 96.8478 79.2458 96.4618C79.2458 95.8828 78.9242 95.722 76.93 95.4004C70.8188 94.3068 65.8333 89.3856 64.7397 83.3066C64.5467 82.2452 64.3216 81.0551 64.2573 80.6369C64.1286 80.0902 63.9035 79.8972 63.3888 79.9293C62.1344 80.058 62.0058 79.865 63.1637 79.6399C64.2894 79.4469 64.2894 79.4147 64.4824 77.4848C65.0614 71.5344 70.6258 65.8414 76.9943 64.7478L79.2458 64.3618L79.278 63.2039C79.3102 62.5928 79.278 61.6922 79.2458 61.2097C79.2137 60.6951 79.3423 60.3091 79.5353 60.3091C79.7605 60.3091 79.8891 61.1132 79.8891 62.3998C79.8891 64.4583 79.8891 64.4905 80.7897 64.4905C82.4623 64.4905 85.4536 65.4554 87.4156 66.6455C91.5969 69.1864 94.1701 73.1748 94.8455 78.096L95.0385 79.6077L98.0941 79.5755C99.7667 79.5434 101.214 79.6077 101.343 79.7363C101.439 79.8328 100.088 79.9293 98.2871 79.9293C95.3923 79.9293 95.0064 79.9937 94.9742 80.5083C94.8134 83.0493 94.2023 85.4294 93.2373 87.3593C92.594 88.6459 90.3747 91.3798 89.2489 92.3126C87.1583 94.0173 83.0412 95.6899 80.9506 95.6899H79.857L79.9213 98.9063L79.9535 102.123H81.8833C84.1348 102.123 87.8337 100.965 90.6642 99.3887C94.6526 97.1694 98.2228 93.0524 100.024 88.6137C100.442 87.5523 101.021 85.2043 101.311 83.4031C101.922 79.6399 101.664 76.3591 100.442 72.5315C98.4801 66.2917 93.1087 60.7594 87.2869 59.0547C86.4828 58.8295 85.4214 58.4757 84.8746 58.2506C84.3278 58.0576 81.9798 57.9289 79.4067 57.9289C75.4183 57.9611 74.6463 58.0576 72.5878 58.7974C65.5117 61.3383 60.3975 66.356 58.339 72.821C57.5992 75.2012 56.956 78.8679 57.2133 79.3182C57.3419 79.479 58.339 79.6077 59.4969 79.6077C60.9765 79.6077 61.5233 79.7042 61.3625 79.9615C61.2338 80.1866 60.5584 80.251 59.4969 80.1223C57.0525 79.865 56.8916 80.058 57.3098 82.8884C58.0817 88.0669 59.8829 91.8623 63.0993 95.2074C66.9591 99.1314 73.1989 102.058 77.8949 102.091L79.5997 102.123L79.4388 99.6461ZM79.278 94.1781C79.3102 93.6635 79.278 92.2161 79.2458 90.9617C79.2137 89.45 79.3102 88.6137 79.5353 88.6137C79.7605 88.6137 79.8891 89.7395 79.8891 91.8623V95.1109L81.7547 94.9822C85.8074 94.6928 90.7607 91.1868 92.6584 87.2628C93.6555 85.2043 94.3631 82.599 94.3631 80.8943C94.3631 80.1223 94.2023 79.9293 93.6555 79.8972C92.9478 79.8328 92.9478 79.8328 93.6876 79.7042C94.3952 79.5755 94.4274 79.4469 94.2666 77.71C94.1058 75.6836 92.7549 72.4672 91.1788 70.3444C89.4098 67.932 84.9711 65.5197 81.433 65.0051C80.0178 64.7799 79.8891 64.8443 79.8891 65.4232C79.8891 65.777 79.7605 66.163 79.5675 66.2595C79.3745 66.356 79.2458 66.1308 79.2458 65.6805C79.2458 64.9408 79.2137 64.9086 77.2838 65.1981C72.234 65.8735 67.1842 70.0549 65.6082 74.8474C64.4824 78.2889 64.5789 79.5755 65.9941 79.6399L66.8626 79.7042L66.0585 79.8328C64.7719 80.058 64.6754 80.3475 65.0614 82.8241C66.0585 89.257 72.0089 94.8536 78.0558 95.0144C79.1493 95.0466 79.2458 94.9822 79.278 94.1781Z" stroke="white" stroke-width="0.321643"/>
<path d="M79.2789 84.1103C79.2789 82.1804 79.1824 80.4114 79.0859 80.2506C78.9572 80.0254 77.349 79.9289 74.8723 79.9611C72.653 79.9611 70.7553 79.8968 70.6588 79.8003C70.4337 79.5751 70.4658 79.5751 75.5478 79.5108C78.9572 79.4465 79.0859 79.4143 79.1824 78.7067C79.311 77.8704 79.89 78.0634 79.89 78.9962C79.89 79.5429 80.1473 79.6073 82.6883 79.6073C84.2 79.6073 85.3901 79.7038 85.2614 79.8003C85.1649 79.9289 83.9748 79.9932 82.6561 79.9932C81.3052 79.9611 80.1473 80.0897 80.0186 80.2827C79.9221 80.4757 79.8256 82.2126 79.8578 84.1424C79.8578 86.1366 79.7292 87.6484 79.5683 87.6484C79.3753 87.6484 79.2789 86.1366 79.2789 84.1103Z" stroke="white" stroke-width="0.321643"/>
<path d="M87.0637 79.7035C87.707 79.6392 88.8006 79.6392 89.476 79.7035C90.1193 79.7678 89.5725 79.8322 88.2538 79.8322C86.935 79.8322 86.3883 79.7678 87.0637 79.7035Z" stroke="white" stroke-width="0.321643"/>
<path d="M79.248 75.2657C79.248 75.0084 79.4089 74.7832 79.5697 74.7832C79.7627 74.7832 79.8913 75.0084 79.8913 75.2657C79.8913 75.523 79.7627 75.7481 79.5697 75.7481C79.4089 75.7481 79.248 75.523 79.248 75.2657Z" stroke="white" stroke-width="0.321643"/>
<path d="M79.248 73.8503C79.248 73.4643 79.4089 73.1748 79.5697 73.1748C79.7627 73.1748 79.8913 73.3678 79.8913 73.6251C79.8913 73.8824 79.7627 74.2041 79.5697 74.3006C79.4089 74.397 79.248 74.2041 79.248 73.8503Z" stroke="white" stroke-width="0.321643"/>
<path d="M79.248 69.2835C79.248 67.8683 79.3767 66.7747 79.5054 66.8712C79.9235 67.1285 79.9557 71.8888 79.5697 71.8888C79.3767 71.8888 79.248 70.7952 79.248 69.2835Z" stroke="white" stroke-width="0.321643"/>
<path d="M75.709 114.827C75.709 114.57 75.8698 114.345 76.0306 114.345C76.2236 114.345 76.3523 114.57 76.3523 114.827C76.3523 115.085 76.2236 115.31 76.0306 115.31C75.8698 115.31 75.709 115.085 75.709 114.827Z" stroke="white" stroke-width="0.321643"/>
<path d="M70.0147 114.345C69.5966 114.023 69.2749 113.605 69.2749 113.412C69.2749 113.219 68.889 112.865 68.4065 112.608C67.8919 112.319 66.9913 111.675 66.3801 111.128C65.3509 110.196 65.3187 110.164 66.2193 110.71C68.4387 112.029 69.5966 112.93 69.5966 113.283C69.5966 113.476 69.9182 113.895 70.3042 114.152C70.6902 114.441 70.9475 114.731 70.851 114.795C70.7866 114.86 70.4007 114.667 70.0147 114.345Z" stroke="white" stroke-width="0.321643"/>
<path d="M71.5596 113.638C71.3987 113.187 70.9484 112.705 70.5946 112.576C70.2087 112.48 69.5332 112.062 69.0186 111.643C68.5361 111.257 67.2817 110.389 66.2203 109.746C65.1589 109.102 64.4191 108.556 64.5477 108.556C64.9337 108.556 66.8314 109.649 68.4718 110.839C69.3724 111.483 70.5303 112.158 71.1093 112.383C72.235 112.834 72.5888 113.38 72.1707 114.056C71.9455 114.377 71.8169 114.281 71.5596 113.638Z" stroke="white" stroke-width="0.321643"/>
<path d="M84.5856 114.12C84.3282 113.83 90.8254 111.064 93.0769 110.453C94.2349 110.163 98.1267 110.035 97.8694 110.324C97.7729 110.389 96.6793 110.549 95.4571 110.614C93.3986 110.742 91.4044 111.321 88.6704 112.576C88.1236 112.833 87.5447 113.058 87.3839 113.058C87.2552 113.058 86.5797 113.348 85.9365 113.669C85.3253 114.023 84.682 114.216 84.5856 114.12Z" stroke="white" stroke-width="0.321643"/>
<path d="M63.7103 112.898C63.2278 112.287 62.5523 111.772 62.2629 111.74C61.9412 111.74 61.8769 111.644 62.102 111.547C62.6167 111.354 64.3214 112.544 64.7717 113.413C65.3185 114.41 64.6752 114.12 63.7103 112.898Z" stroke="white" stroke-width="0.321643"/>
<path d="M86.9669 113.702C88.0605 113.348 88.8967 113.348 88.0926 113.702C87.7388 113.863 87.1599 113.959 86.806 113.959C86.2914 113.959 86.3236 113.895 86.9669 113.702Z" stroke="white" stroke-width="0.321643"/>
<path d="M75.5793 113.476C74.6787 113.251 71.3658 111.225 70.8511 110.614C70.5938 110.292 69.3073 109.359 67.9885 108.459C66.6698 107.59 65.93 106.979 66.3803 107.108C67.1844 107.365 71.6231 110.485 71.9769 111.096C72.2664 111.547 75.6436 113.058 76.3834 113.058C76.7372 113.058 76.9945 113.219 76.9945 113.38C76.9945 113.702 76.6086 113.734 75.5793 113.476Z" stroke="white" stroke-width="0.321643"/>
<path d="M75.8692 110.936L74.9043 110.1L75.9657 110.807C76.5125 111.193 76.995 111.547 76.995 111.643C76.995 111.869 76.8663 111.804 75.8692 110.936Z" stroke="white" stroke-width="0.321643"/>
<path d="M59.4653 111.128C57.9535 110.774 54.4155 108.555 53.0324 107.107C52.2283 106.271 49.6551 102.926 48.851 101.639C48.3364 100.803 48.3364 100.739 48.8189 101.125C49.1083 101.382 49.5908 101.993 49.8481 102.508C50.1054 102.99 51.1669 104.406 52.2283 105.628C54.2868 108.008 56.7956 109.745 59.5617 110.645C61.8454 111.385 61.7811 111.739 59.4653 111.128Z" stroke="white" stroke-width="0.321643"/>
<path d="M97.0988 111.128C97.6455 111 98.3532 110.871 98.707 110.871C99.2216 110.871 99.1894 110.935 98.5461 111.128C98.0958 111.257 97.3882 111.386 96.9379 111.386C96.2303 111.386 96.2303 111.354 97.0988 111.128Z" stroke="white" stroke-width="0.321643"/>
<path d="M63.9683 109.938C63.4537 109.841 62.8747 109.648 62.6817 109.455C62.2636 109.037 64.4508 109.455 64.9332 109.874C65.094 110.034 65.1584 110.131 65.094 110.131C64.9976 110.099 64.5151 110.002 63.9683 109.938Z" stroke="white" stroke-width="0.321643"/>
<path d="M92.9166 109.52C93.8172 109.166 94.75 108.877 95.0073 108.909C95.6827 108.941 93.785 109.713 92.4341 109.97C91.5014 110.131 91.5657 110.067 92.9166 109.52Z" stroke="white" stroke-width="0.321643"/>
<path d="M60.6239 108.845C60.2058 108.684 59.9163 108.459 60.0128 108.394C60.2701 108.137 62.1999 108.62 62.1999 108.909C62.1999 109.263 61.621 109.231 60.6239 108.845Z" stroke="white" stroke-width="0.321643"/>
<path d="M72.9746 108.555C72.6529 108.202 72.5564 107.912 72.7494 107.912C72.9424 107.912 73.264 108.202 73.457 108.555C73.65 108.909 73.7465 109.199 73.6822 109.199C73.6178 109.199 73.2962 108.909 72.9746 108.555Z" stroke="white" stroke-width="0.321643"/>
<path d="M95.9723 108.877C96.2296 108.716 96.8086 108.556 97.2267 108.556C98.256 108.556 97.9987 108.749 96.6156 109.006C95.8115 109.135 95.6185 109.102 95.9723 108.877Z" stroke="white" stroke-width="0.321643"/>
<path d="M99.0281 108.716C99.5749 108.459 100.282 108.266 100.636 108.266C101.054 108.266 100.894 108.426 100.154 108.716C98.6743 109.295 97.7737 109.263 99.0281 108.716Z" stroke="white" stroke-width="0.321643"/>
<path d="M102.888 107.88C103.596 107.108 104.432 106.111 104.754 105.66C105.622 104.438 105.011 105.628 103.95 107.172C103.435 107.944 102.695 108.716 102.309 108.909C101.827 109.166 102.02 108.844 102.888 107.88Z" stroke="white" stroke-width="0.321643"/>
<path d="M56.4109 108.395C55.8962 107.784 56.4109 107.784 57.2471 108.395C57.7618 108.781 57.7618 108.845 57.3436 108.877C57.0541 108.877 56.636 108.652 56.4109 108.395Z" stroke="white" stroke-width="0.321643"/>
<path d="M61.557 107.751C58.2763 106.786 57.6973 106.593 57.5365 106.303C57.247 105.853 58.0511 105.95 58.9839 106.464C59.4342 106.722 60.0775 106.947 60.4313 106.947C61.0746 106.979 63.905 108.169 63.3261 108.201C63.1653 108.201 62.3611 108.008 61.557 107.751Z" stroke="white" stroke-width="0.321643"/>
<path d="M97.0327 107.462C97.9012 107.236 98.7374 106.883 98.9626 106.658C99.1556 106.465 99.5415 106.304 99.7988 106.304C100.185 106.304 100.185 106.4 99.8953 106.69C99.4129 107.172 97.0649 107.912 96.1321 107.88C95.7783 107.88 96.1964 107.687 97.0327 107.462Z" stroke="white" stroke-width="0.321643"/>
<path d="M54.4803 107.109C53.9656 106.498 54.4481 106.498 55.2522 107.109C55.7668 107.495 55.799 107.591 55.3809 107.591C55.1235 107.591 54.7054 107.366 54.4803 107.109Z" stroke="white" stroke-width="0.321643"/>
<path d="M57.1492 107.365C56.4094 107.076 56.6989 106.722 57.5352 106.883C57.9855 106.947 58.3393 107.14 58.3393 107.301C58.3393 107.623 57.7925 107.655 57.1492 107.365Z" stroke="white" stroke-width="0.321643"/>
<path d="M100.796 107.141C101.6 106.658 102.244 106.755 101.922 107.301C101.793 107.462 101.343 107.591 100.861 107.591L99.9922 107.559L100.796 107.141Z" stroke="white" stroke-width="0.321643"/>
<path d="M64.1299 106.432C63.0685 106.014 63.0685 105.982 63.9691 106.175C64.5159 106.272 65.0627 106.497 65.2557 106.658C65.6095 107.011 65.513 107.011 64.1299 106.432Z" stroke="white" stroke-width="0.321643"/>
<path d="M100.475 106.497C100.475 106.433 100.989 105.757 101.6 105.018C102.211 104.278 102.726 103.538 102.726 103.377C102.726 103.055 105.91 98.3273 106.296 98.07C106.65 97.8449 105.364 100.161 104.688 100.933C104.399 101.286 103.82 102.155 103.369 102.895C101.729 105.629 101.279 106.304 100.893 106.465C100.668 106.529 100.475 106.561 100.475 106.497Z" stroke="white" stroke-width="0.321643"/>
<path d="M54.6413 105.982C54.5448 105.789 54.8021 105.66 55.2524 105.66C55.7027 105.66 56.153 105.821 56.2495 105.982C56.346 106.175 56.0887 106.303 55.6384 106.303C55.1881 106.303 54.7378 106.175 54.6413 105.982Z" stroke="white" stroke-width="0.321643"/>
<path d="M52.1953 104.632C51.2304 103.346 51.1982 103.314 52.0345 104.053C52.8708 104.825 53.707 105.983 53.3854 105.983C53.3211 105.983 52.7743 105.372 52.1953 104.632Z" stroke="white" stroke-width="0.321643"/>
<path d="M59.6255 105.628C57.4062 105.21 55.4442 103.795 54.5757 102.058C53.7716 100.45 53.1927 98.0375 53.8038 98.9059C53.9968 99.1633 54.1576 99.6779 54.1898 100.032C54.1898 100.386 54.6079 101.318 55.0582 102.09C56.0875 103.731 58.5319 105.274 60.2688 105.339C60.8799 105.371 61.684 105.5 62.0379 105.66C62.6168 105.918 62.6168 105.95 61.877 105.918C61.4267 105.918 60.4296 105.789 59.6255 105.628Z" stroke="white" stroke-width="0.321643"/>
<path d="M72.8138 104.374C72.0419 103.763 72.0419 103.763 72.7495 103.956C73.1355 104.052 73.5536 104.277 73.6501 104.438C74.0039 105.017 73.6179 104.985 72.8138 104.374Z" stroke="white" stroke-width="0.321643"/>
<path d="M103.499 104.309C103.788 103.891 104.142 103.28 104.335 102.926C104.818 101.865 105.943 100.321 105.943 100.707C105.943 100.9 105.686 101.415 105.332 101.833C105.011 102.251 104.56 103.152 104.367 103.827C104.142 104.502 103.756 105.017 103.467 105.017C103.016 105.017 103.016 104.921 103.499 104.309Z" stroke="white" stroke-width="0.321643"/>
<path d="M52.2927 103.666C51.8424 103.216 51.7781 102.315 52.1962 102.573C52.4214 102.734 52.936 104.052 52.743 104.052C52.7108 104.052 52.5179 103.891 52.2927 103.666Z" stroke="white" stroke-width="0.321643"/>
<path d="M106.168 102.766C106.361 101.544 106.489 101.286 106.779 101.544C106.875 101.64 106.714 102.219 106.457 102.798L105.975 103.892L106.168 102.766Z" stroke="white" stroke-width="0.321643"/>
<path d="M89.4102 102.316C90.0857 101.833 90.3751 101.865 90.0213 102.412C89.9248 102.605 89.571 102.766 89.2816 102.766C88.8634 102.766 88.8634 102.702 89.4102 102.316Z" stroke="white" stroke-width="0.321643"/>
<path d="M51.521 101.608C51.3923 101.479 51.3601 101.029 51.4566 100.611C51.5853 100.161 51.3601 99.0348 50.942 97.909C50.5239 96.8476 50.2987 95.9149 50.3952 95.8184C50.749 95.4646 51.9391 99.3886 51.8426 100.611C51.7783 101.286 51.6496 101.769 51.521 101.608Z" stroke="white" stroke-width="0.321643"/>
<path d="M102.084 101.157C102.084 100.9 102.245 100.45 102.406 100.193C102.695 99.7744 102.727 99.7744 102.727 100.193C102.727 100.45 102.566 100.9 102.406 101.157C102.116 101.576 102.084 101.576 102.084 101.157Z" stroke="white" stroke-width="0.321643"/>
<path d="M110.123 101.061C110.123 100.578 111.056 99.2275 111.088 99.7099C111.088 99.9029 110.991 100.353 110.895 100.771C110.67 101.543 110.123 101.768 110.123 101.061Z" stroke="white" stroke-width="0.321643"/>
<path d="M50.1691 99.8706C49.8796 99.163 49.6545 98.3589 49.6545 98.1016C49.6545 97.8443 49.3007 96.5256 48.8504 95.1747C48.4001 93.7916 48.1106 92.6337 48.1749 92.5693C48.3358 92.4085 49.2685 95.1103 49.944 97.78C50.2656 99.0344 50.6516 100.289 50.7802 100.61C50.9089 100.9 50.9411 101.157 50.8446 101.157C50.7481 101.157 50.4586 100.578 50.1691 99.8706Z" stroke="white" stroke-width="0.321643"/>
<path d="M48.4004 98.7135C48.0466 97.5234 47.7893 96.462 47.8536 96.3977C47.918 96.3333 48.3039 97.2661 48.6899 98.424C49.0759 99.5819 49.3332 100.643 49.2367 100.74C49.1402 100.804 48.7542 99.9036 48.4004 98.7135Z" stroke="white" stroke-width="0.321643"/>
<path d="M47.4049 99.0347C47.1154 98.2306 46.247 95.9791 45.4751 93.9206C45.3142 93.5668 45.0569 92.7948 44.8318 92.248C44.6066 91.6691 44.092 90.8328 43.6417 90.3503C42.6768 89.3211 41.1972 87.0052 41.3902 86.8123C41.4545 86.7479 41.9692 87.3591 42.5159 88.1953C43.0949 89.0638 43.9955 90.3503 44.5101 91.058C45.0248 91.7977 45.7324 93.2451 46.0862 94.2744C46.4078 95.3358 46.9868 96.944 47.3728 97.909C47.7266 98.8739 47.9839 99.7423 47.8874 99.8067C47.8231 99.9031 47.5979 99.5493 47.4049 99.0347Z" stroke="white" stroke-width="0.321643"/>
<path d="M107.423 98.521C107.777 97.2665 108.838 96.3981 108.838 97.2987C108.838 97.4917 108.613 97.6203 108.356 97.6203C108.066 97.6203 107.873 97.9098 107.873 98.4245C107.873 98.8748 107.713 99.2286 107.52 99.2286C107.327 99.2286 107.262 98.9391 107.423 98.521Z" stroke="white" stroke-width="0.321643"/>
<path d="M104.207 97.0082C104.947 95.5608 105.944 94.3386 105.944 94.8532C105.944 95.1105 103.66 98.5843 103.467 98.5843C103.403 98.5843 103.724 97.8767 104.207 97.0082Z" stroke="white" stroke-width="0.321643"/>
<path d="M106.876 97.04C107.037 96.7184 107.455 96.2359 107.777 95.9786C108.163 95.657 108.131 95.8178 107.584 96.5897C106.812 97.7155 106.362 97.9728 106.876 97.04Z" stroke="white" stroke-width="0.321643"/>
<path d="M112.826 95.2073C113.437 93.8885 114.402 92.3447 114.949 91.7657C115.818 90.8651 115.914 90.8329 115.56 91.5084C115.335 91.9265 114.949 92.5055 114.724 92.7628C113.92 93.5669 113.405 94.5318 113.212 95.7541C113.084 96.4617 112.73 97.105 112.376 97.298C111.829 97.5874 111.893 97.298 112.826 95.2073Z" stroke="white" stroke-width="0.321643"/>
<path d="M101.119 96.8471C101.119 96.5898 101.28 96.2682 101.441 96.1717C101.634 96.0752 101.762 96.2038 101.762 96.4612C101.762 96.7185 101.634 97.0401 101.441 97.1366C101.28 97.2331 101.119 97.1045 101.119 96.8471Z" stroke="white" stroke-width="0.321643"/>
<path d="M52.6783 95.8827C52.5818 95.2072 52.5497 94.6283 52.6462 94.5318C52.7426 94.4031 52.9356 94.8534 53.0643 95.4967C53.1608 96.1722 53.1929 96.7511 53.0965 96.8476C53 96.9763 52.807 96.526 52.6783 95.8827Z" stroke="white" stroke-width="0.321643"/>
<path d="M108.933 95.9153C108.998 95.6901 109.351 95.4971 109.737 95.4328C110.091 95.3685 110.509 95.079 110.606 94.7252C110.702 94.4035 111.153 94.0819 111.571 93.9854C112.6 93.7924 112.6 94.0176 111.571 94.4035C111.12 94.5644 110.767 94.886 110.767 95.1433C110.767 95.3685 110.316 95.7223 109.769 95.9153C109.03 96.2047 108.837 96.2047 108.933 95.9153Z" stroke="white" stroke-width="0.321643"/>
<path d="M46.9207 94.242C46.2774 92.6659 46.5026 92.4086 47.2424 93.9203C47.5319 94.5636 47.6927 95.1747 47.5962 95.2712C47.5319 95.3677 47.2102 94.8852 46.9207 94.242Z" stroke="white" stroke-width="0.321643"/>
<path d="M106.619 93.6634C106.844 93.1809 107.134 92.7949 107.295 92.7949C107.745 92.7949 107.584 93.3096 106.877 93.9528C106.201 94.564 106.201 94.564 106.619 93.6634Z" stroke="white" stroke-width="0.321643"/>
<path d="M48.8836 92.4091L48.3047 91.3477L48.9801 92.1518C49.5591 92.8594 49.8164 93.4383 49.5591 93.4383C49.5269 93.4383 49.2053 92.9559 48.8836 92.4091Z" stroke="white" stroke-width="0.321643"/>
<path d="M110.123 92.8266C110.123 92.4085 111.056 91.7009 111.313 91.926C111.538 92.1833 110.831 93.1161 110.413 93.1161C110.252 93.1161 110.123 92.9874 110.123 92.8266Z" stroke="white" stroke-width="0.321643"/>
<path d="M51.2959 92.2156C50.7491 91.2185 50.8778 90.9291 51.4568 91.7653C51.7462 92.1835 51.9071 92.6016 51.8106 92.6981C51.7141 92.7624 51.4889 92.5694 51.2959 92.2156Z" stroke="white" stroke-width="0.321643"/>
<path d="M112.343 92.0552C112.601 91.7657 112.794 91.2511 112.826 90.9295C112.89 90.0932 113.951 88.292 114.37 88.292C114.563 88.292 114.498 88.5493 114.209 88.871C113.919 89.1926 113.565 89.9002 113.469 90.4792C113.372 91.026 112.954 91.7336 112.601 92.0552C111.957 92.602 111.925 92.602 112.343 92.0552Z" stroke="white" stroke-width="0.321643"/>
<path d="M46.4703 91.251C46.2773 90.865 46.1165 90.3182 46.1487 89.9966C46.1487 89.6428 46.3416 89.8036 46.6311 90.5112C47.1457 91.7013 47.0171 92.2802 46.4703 91.251Z" stroke="white" stroke-width="0.321643"/>
<path d="M49.687 89.8683C49.4619 89.4824 49.3654 89.1286 49.4297 89.0321C49.5262 88.9356 49.7835 89.1929 49.9765 89.5789C50.459 90.4795 50.2338 90.7046 49.687 89.8683Z" stroke="white" stroke-width="0.321643"/>
<path d="M109.772 89.9971C110.158 89.2251 110.769 88.7427 110.769 89.193C110.769 89.3538 110.447 89.7398 110.094 90.0936C109.386 90.7047 109.386 90.7047 109.772 89.9971Z" stroke="white" stroke-width="0.321643"/>
<path d="M116.237 89.9327C116.623 89.1929 117.202 88.7748 117.202 89.2251C117.202 89.5468 116.333 90.5438 116.044 90.5438C115.947 90.5438 116.044 90.2544 116.237 89.9327Z" stroke="white" stroke-width="0.321643"/>
<path d="M46.857 89.3215C46.4388 88.8712 46.1172 88.2923 46.1172 88.0671C46.1172 87.8098 46.471 88.035 46.9535 88.5818C47.9506 89.7718 47.8541 90.4473 46.857 89.3215Z" stroke="white" stroke-width="0.321643"/>
<path d="M108.195 88.8383C108.195 88.774 108.646 88.4201 109.16 88.0342C109.707 87.616 110.125 87.4552 110.125 87.616C110.125 87.809 109.707 88.1628 109.16 88.4523C108.646 88.7418 108.195 88.9026 108.195 88.8383Z" stroke="white" stroke-width="0.321643"/>
<path d="M115.592 88.9034C115.592 88.8069 115.881 88.1636 116.235 87.456C116.814 86.3303 116.846 86.2981 116.685 87.1666C116.525 87.9707 115.592 89.4502 115.592 88.9034Z" stroke="white" stroke-width="0.321643"/>
<path d="M112.731 87.8733C112.956 87.3909 113.245 87.0049 113.406 87.0049C113.856 87.0049 113.695 87.5195 112.988 88.1628C112.312 88.7739 112.312 88.7739 112.731 87.8733Z" stroke="white" stroke-width="0.321643"/>
<path d="M110.767 86.3619C111.121 85.7186 111.732 85.4613 111.732 85.9759C111.732 86.3297 111.024 87.0052 110.703 87.0052C110.542 87.0052 110.574 86.7157 110.767 86.3619Z" stroke="white" stroke-width="0.321643"/>
<path d="M115.272 85.9437C115.401 85.3004 115.787 84.3354 116.108 83.853C116.462 83.3705 116.88 82.5664 117.105 82.0196L117.459 81.0547L117.491 82.1161C117.523 82.6629 117.427 83.1454 117.298 83.1454C117.009 83.1454 116.237 84.6893 116.237 85.2039C116.237 85.3969 115.947 85.9115 115.594 86.3618L114.982 87.1659L115.272 85.9437Z" stroke="white" stroke-width="0.321643"/>
<path d="M117.877 86.3622C117.909 86.1049 118.038 85.5259 118.167 85.0756L118.424 84.2715L118.456 85.0756C118.456 85.5259 118.328 86.1049 118.167 86.3622C117.877 86.7803 117.845 86.7803 117.877 86.3622Z" stroke="white" stroke-width="0.321643"/>
<path d="M43.7701 85.8478C43.6414 85.7191 43.5449 85.3975 43.5449 85.108C43.5449 84.7542 43.6414 84.7221 43.8987 84.9794C44.0917 85.1724 44.2204 85.494 44.1239 85.7191C44.0596 85.9121 43.8987 85.9765 43.7701 85.8478Z" stroke="white" stroke-width="0.321643"/>
<path d="M108.838 85.2364C108.838 84.9791 109.063 84.7539 109.353 84.7539C109.803 84.7539 109.803 84.8504 109.481 85.2364C109.256 85.4937 109.031 85.7188 108.967 85.7188C108.902 85.7188 108.838 85.4937 108.838 85.2364Z" stroke="white" stroke-width="0.321643"/>
<path d="M49.3332 85.0751C49.0759 84.9143 48.9473 84.7213 49.0438 84.6248C49.1402 84.5283 49.4941 84.657 49.8479 84.9143C50.5233 85.4289 50.1052 85.5576 49.3332 85.0751Z" stroke="white" stroke-width="0.321643"/>
<path d="M112.278 84.8501C112.375 84.4642 112.632 83.9495 112.89 83.7565C113.565 83.2098 113.436 83.9174 112.729 84.7858C112.085 85.5577 112.085 85.5577 112.278 84.8501Z" stroke="white" stroke-width="0.321643"/>
<path d="M41.7099 83.6277C41.0345 82.9844 41.0345 82.502 41.6777 82.502C41.9351 82.502 42.707 84.1423 42.514 84.2388C42.4497 84.271 42.0959 83.9815 41.7099 83.6277Z" stroke="white" stroke-width="0.321643"/>
<path d="M110.672 83.2741C110.479 82.9525 110.961 81.9232 111.186 82.1805C111.283 82.277 111.218 82.6308 111.09 82.9525C110.993 83.3063 110.8 83.4349 110.672 83.2741Z" stroke="white" stroke-width="0.321643"/>
<path d="M113.373 82.1805C113.373 81.2478 113.405 81.1513 113.695 81.6338C113.92 81.9876 113.92 82.3735 113.695 82.7595C113.405 83.2098 113.373 83.1133 113.373 82.1805Z" stroke="white" stroke-width="0.321643"/>
<path d="M39.9093 82.406C39.5555 81.4732 39.6199 81.0229 40.038 81.441C40.231 81.634 40.3275 82.0522 40.2632 82.3738C40.1667 82.9528 40.1345 82.9528 39.9093 82.406Z" stroke="white" stroke-width="0.321643"/>
<path d="M115.914 81.7303C115.914 81.0227 116.011 80.8618 116.268 81.1192C116.525 81.3765 116.525 81.6338 116.268 82.0841C115.978 82.5987 115.946 82.5344 115.914 81.7303Z" stroke="white" stroke-width="0.321643"/>
<path d="M46.6327 80.2838C46.504 80.1229 46.5362 79.8978 46.6648 79.8335C47.083 79.6083 48.2087 79.7691 48.3052 80.0908C48.4339 80.5089 46.8578 80.7019 46.6327 80.2838Z" stroke="white" stroke-width="0.321643"/>
<path d="M49.4949 80.2188C49.1733 79.7363 49.5914 79.4147 50.0096 79.8328C50.2347 80.0579 50.2347 80.2509 50.0417 80.3796C49.8488 80.4761 49.5914 80.4117 49.4949 80.2188Z" stroke="white" stroke-width="0.321643"/>
<path d="M51.0069 80.2832C50.6531 80.0581 50.6853 79.9616 51.1034 79.8008C51.8432 79.5113 51.9075 79.5434 51.9075 80.0902C51.9075 80.637 51.618 80.7014 51.0069 80.2832Z" stroke="white" stroke-width="0.321643"/>
<path d="M115.753 77.6782C115.625 77.2922 115.592 76.9062 115.689 76.8097C115.785 76.7454 115.946 76.9706 116.075 77.3565C116.204 77.7425 116.236 78.1285 116.139 78.225C116.043 78.2893 115.882 78.0641 115.753 77.6782Z" stroke="white" stroke-width="0.321643"/>
<path d="M113.019 77.0661C112.826 76.6801 112.794 76.3906 112.987 76.3906C113.309 76.3906 113.759 77.3556 113.534 77.5807C113.47 77.6772 113.244 77.4199 113.019 77.0661Z" stroke="white" stroke-width="0.321643"/>
<path d="M119.001 76.166C118.197 75.3297 117.361 74.1396 117.168 73.5285C116.975 72.8852 116.621 72.1455 116.428 71.8881C115.881 71.2127 114.305 68.0284 114.305 67.6424C114.305 67.4816 113.951 66.581 113.533 65.6804C113.083 64.7477 112.439 63.2359 112.086 62.3353C110.606 58.5721 109.062 55.9668 107.1 54.0369C106.039 52.9433 104.752 51.8498 104.27 51.5924C103.787 51.3351 101.954 50.3059 100.185 49.2766C96.4859 47.1538 90.1174 44.2268 89.0881 44.2268C88.7343 44.2268 88.1232 44.0017 87.8015 43.7444C87.4477 43.487 86.9331 43.2619 86.6758 43.2619C85.936 43.2619 83.3307 40.8496 83.4915 40.3349C83.588 40.0776 83.9096 40.3349 84.3599 40.9782C85.0354 41.9431 87.1582 43.1332 89.2168 43.7444C90.5033 44.1303 96.0999 46.5105 96.4216 46.8321C96.8075 47.1859 97.8046 47.2181 97.9976 46.8965C98.0619 46.7356 98.0941 46.8 98.0298 47.0251C97.9333 47.3789 98.8661 48.4082 99.2842 48.4082C99.4128 48.4082 100.925 49.2445 102.629 50.2737C107.325 53.0398 108.773 54.5516 111.185 59.344C112.311 61.5634 113.533 64.3938 113.951 65.6161C114.948 68.6074 117.907 74.2683 119.516 76.166C121.124 78.0959 120.866 78.0959 119.001 76.166Z" stroke="white" stroke-width="0.321643"/>
<path d="M110.446 76.5519C109.803 75.7799 110.253 75.6513 110.928 76.3911C111.25 76.7449 111.346 77.0344 111.186 77.0344C110.993 77.0344 110.671 76.8092 110.446 76.5519Z" stroke="white" stroke-width="0.321643"/>
<path d="M40.0059 76.2623C40.0059 75.5868 40.9386 73.3353 41.1316 73.5283C41.2603 73.6891 40.3918 76.4231 40.1345 76.6804C40.0702 76.7447 40.0059 76.5839 40.0059 76.2623Z" stroke="white" stroke-width="0.321643"/>
<path d="M116.43 76.1977C116.204 75.5866 116.462 75.1041 116.976 75.1363C117.266 75.1363 117.266 75.2006 117.009 75.2971C116.783 75.3936 116.687 75.7474 116.783 76.0691C116.976 76.841 116.719 76.9375 116.43 76.1977Z" stroke="white" stroke-width="0.321643"/>
<path d="M45.3447 74.1397C46.0201 72.8852 46.5991 71.9525 46.6634 72.0168C46.8564 72.2098 44.7014 76.3912 44.4119 76.3912C44.2833 76.3912 44.7014 75.3619 45.3447 74.1397Z" stroke="white" stroke-width="0.321643"/>
<path d="M113.985 75.6507C113.438 74.8466 112.987 73.8174 113.148 73.8174C113.341 73.8174 114.66 76.1332 114.563 76.2619C114.499 76.3262 114.242 76.0367 113.985 75.6507Z" stroke="white" stroke-width="0.321643"/>
<path d="M43.2227 75.3296C43.2227 75.0723 43.4156 74.6864 43.673 74.4934C44.0589 74.1717 44.0911 74.2361 43.9624 74.7828C43.7373 75.587 43.2227 75.9729 43.2227 75.3296Z" stroke="white" stroke-width="0.321643"/>
<path d="M108.742 75.1042C108.227 74.4931 108.227 74.4609 108.838 74.4609C109.257 74.4609 109.482 74.6861 109.482 75.1042C109.482 75.458 109.449 75.7475 109.385 75.7475C109.353 75.7475 109.064 75.458 108.742 75.1042Z" stroke="white" stroke-width="0.321643"/>
<path d="M111.508 75.2006C111.411 74.879 110.8 73.7854 110.189 72.7561C109.578 71.759 109.127 70.8263 109.224 70.7298C109.32 70.6333 109.771 71.1801 110.189 71.952C110.639 72.724 111.315 73.8819 111.701 74.5573C112.119 75.2328 112.28 75.7474 112.087 75.7474C111.861 75.7474 111.636 75.4901 111.508 75.2006Z" stroke="white" stroke-width="0.321643"/>
<path d="M47.0829 74.782C47.2759 74.4282 47.5975 74.1387 47.7905 74.1387C47.9835 74.1387 47.887 74.4282 47.5654 74.782C47.2437 75.1358 46.9221 75.4252 46.8577 75.4252C46.7934 75.4252 46.8899 75.1358 47.0829 74.782Z" stroke="white" stroke-width="0.321643"/>
<path d="M49.6559 74.9434C49.881 74.6861 50.2027 74.4609 50.3635 74.4609C50.5565 74.4609 50.5243 74.6861 50.2992 74.9434C50.074 75.2007 49.7524 75.4259 49.5916 75.4259C49.3986 75.4259 49.4307 75.2007 49.6559 74.9434Z" stroke="white" stroke-width="0.321643"/>
<path d="M113.952 73.0464C113.406 71.4704 113.599 71.0522 114.274 72.3388C114.499 72.7248 114.628 73.4002 114.563 73.7862C114.499 74.3652 114.338 74.1722 113.952 73.0464Z" stroke="white" stroke-width="0.321643"/>
<path d="M115.754 73.3033C115.111 72.3383 115.4 71.8237 116.076 72.7243C116.494 73.3033 116.719 74.1395 116.429 74.1395C116.365 74.1395 116.076 73.7536 115.754 73.3033Z" stroke="white" stroke-width="0.321643"/>
<path d="M48.4663 73.2388C48.7879 72.9171 49.0131 72.499 49.0131 72.306C49.0131 72.113 49.2382 71.8879 49.4956 71.7592C49.7529 71.6627 49.978 71.6949 49.978 71.8236C49.9459 72.1452 48.4341 73.8177 48.1768 73.8177C48.0482 73.8177 48.1768 73.5604 48.4663 73.2388Z" stroke="white" stroke-width="0.321643"/>
<path d="M104.431 72.6285C104.013 72.3711 103.691 71.9852 103.691 71.8243C103.691 71.4062 104.881 72.1138 105.107 72.6928C105.332 73.2717 105.332 73.2717 104.431 72.6285Z" stroke="white" stroke-width="0.321643"/>
<path d="M41.6133 71.6303C41.6133 71.4051 42.0314 70.6653 42.546 70.022C43.0928 69.3788 43.7361 68.1887 44.0256 67.3846C44.3151 66.5805 44.8297 65.1009 45.2157 64.1038C45.5695 63.0746 45.9233 62.2383 46.0198 62.2383C46.4058 62.2383 45.0227 66.3553 43.6718 69.1536C43.0607 70.408 41.6133 72.1771 41.6133 71.6303Z" stroke="white" stroke-width="0.321643"/>
<path d="M112.088 71.5985C112.088 71.3412 111.702 70.2476 111.283 69.1861C110.222 66.5487 109.965 65.4551 110.415 65.4551C110.608 65.4551 110.769 65.7446 110.769 66.1305C110.769 66.4843 111.155 67.7387 111.605 68.8645C112.055 69.9902 112.345 71.1803 112.281 71.502C112.184 71.8558 112.12 71.8879 112.088 71.5985Z" stroke="white" stroke-width="0.321643"/>
<path d="M46.7598 71.3734C46.7598 71.1805 46.9849 70.7623 47.2422 70.4085C47.4995 70.0869 47.6925 69.9582 47.6925 70.119C47.6925 70.312 47.4995 70.7302 47.2422 71.0518C46.9849 71.4056 46.7598 71.5343 46.7598 71.3734Z" stroke="white" stroke-width="0.321643"/>
<path d="M112.924 70.3759C112.795 70.2794 112.699 69.8613 112.731 69.5075C112.731 68.8964 112.763 68.8964 113.052 69.604C113.374 70.3759 113.31 70.7619 112.924 70.3759Z" stroke="white" stroke-width="0.321643"/>
<path d="M46.4395 69.3473C46.4395 68.9614 46.6003 68.6719 46.7611 68.6719C46.9541 68.6719 47.0827 68.8649 47.0827 69.1222C47.0827 69.3795 46.9541 69.7011 46.7611 69.7976C46.6003 69.8941 46.4395 69.7011 46.4395 69.3473Z" stroke="white" stroke-width="0.321643"/>
<path d="M48.4649 67.867C48.8509 66.8699 49.2047 66.291 49.269 66.5483C49.3655 66.9664 48.1754 69.6361 47.9181 69.6361C47.8538 69.6361 48.1111 68.832 48.4649 67.867Z" stroke="white" stroke-width="0.321643"/>
<path d="M57.4717 68.543C57.6004 68.2214 57.6969 67.7711 57.6969 67.5138C57.6969 67.2565 57.8255 67.0635 57.9864 67.0635C58.3402 67.0635 58.0185 68.6395 57.6004 68.8968C57.3752 69.0255 57.3431 68.8968 57.4717 68.543Z" stroke="white" stroke-width="0.321643"/>
<path d="M107.936 68.0598C107.389 66.5159 107.486 66.0334 108.065 67.3522C108.322 67.9633 108.483 68.6066 108.419 68.7996C108.354 68.9926 108.129 68.6387 107.936 68.0598Z" stroke="white" stroke-width="0.321643"/>
<path d="M45.9898 67.4176C45.7968 67.1281 45.9898 65.7772 46.2793 65.5199C46.3758 65.4234 46.4401 65.8737 46.4401 66.517C46.4401 67.707 46.3114 67.9644 45.9898 67.4176Z" stroke="white" stroke-width="0.321643"/>
<path d="M106.941 65.1014C106.748 64.5224 106.587 63.6862 106.619 63.2359C106.619 62.7212 106.812 63.1072 107.07 64.1686C107.552 66.1628 107.488 66.6453 106.941 65.1014Z" stroke="white" stroke-width="0.321643"/>
<path d="M48.4015 65.7764C48.3694 65.6799 48.5945 64.9401 48.8197 64.1038C49.077 63.2997 49.2056 62.5278 49.1091 62.4313C48.9805 62.3348 49.077 62.2383 49.3021 62.2383C49.5916 62.2383 49.6559 62.5278 49.4951 63.2997C49.27 64.2003 48.4015 66.1945 48.4015 65.7764Z" stroke="white" stroke-width="0.321643"/>
<path d="M109.867 63.0428C109.417 60.5661 109.352 59.2474 109.77 59.9872C110.06 60.4696 110.607 65.1335 110.382 65.1335C110.317 65.1335 110.092 64.2007 109.867 63.0428Z" stroke="white" stroke-width="0.321643"/>
<path d="M50.203 63.3649C50.4603 62.5608 50.7498 61.9497 50.8463 62.0462C51.0715 62.2392 50.3317 64.4263 49.9779 64.6515C49.817 64.748 49.9135 64.169 50.203 63.3649Z" stroke="white" stroke-width="0.321643"/>
<path d="M47.1152 63.6855C47.1152 63.3316 47.3082 62.624 47.5655 62.0772L48.048 61.1123L47.855 62.2381C47.5977 63.6533 47.1152 64.6504 47.1152 63.6855Z" stroke="white" stroke-width="0.321643"/>
<path d="M52.4215 62.5606C52.6467 61.274 53.1934 60.1161 53.1613 60.9523C53.1613 61.2097 52.9361 61.9494 52.6788 62.5606L52.2285 63.6863L52.4215 62.5606Z" stroke="white" stroke-width="0.321643"/>
<path d="M108.709 62.1423C108.549 61.3061 108.323 60.5341 108.163 60.4376C108.002 60.3411 107.873 59.8908 107.905 59.4084C107.938 58.7972 108.098 59.0867 108.549 60.4698C108.902 61.5312 109.128 62.6891 109.063 63.0429C108.999 63.3967 108.838 63.0108 108.709 62.1423Z" stroke="white" stroke-width="0.321643"/>
<path d="M102.664 61.434C102.567 60.9837 102.631 60.6299 102.76 60.6299C102.921 60.6299 103.05 60.9837 103.05 61.434C103.05 61.8843 102.985 62.2381 102.921 62.2381C102.857 62.2381 102.728 61.8843 102.664 61.434Z" stroke="white" stroke-width="0.321643"/>
<path d="M46.4708 61.0488C47.1141 59.3762 48.7867 56.6101 50.2341 54.9054C51.4241 53.458 54.9944 50.6597 55.6055 50.6597C55.702 50.6597 56.3453 50.3059 57.0529 49.8556C57.857 49.3409 58.3395 48.7942 58.3395 48.376C58.3395 47.8614 58.4038 47.7971 58.8219 48.1509C59.2079 48.5047 59.1114 48.6977 58.243 49.4374C57.664 49.9199 57.1172 50.338 56.9886 50.338C56.6991 50.338 54.8014 51.5603 52.8715 52.9755C50.4592 54.7446 49.1726 56.4171 47.3393 60.0838C46.3743 62.0137 45.8919 62.5283 46.4708 61.0488Z" stroke="white" stroke-width="0.321643"/>
<path d="M106.169 61.4673C106.04 61.1457 105.944 60.5989 105.944 60.2129C105.944 59.3123 104.689 57.5433 103.692 57.0608C103.21 56.8357 103.049 56.6427 103.274 56.5462C104.142 56.2245 105.525 57.7041 106.072 59.4731C106.619 61.1457 106.683 62.7861 106.169 61.4673Z" stroke="white" stroke-width="0.321643"/>
<path d="M49.1727 61.2743C49.0762 61.1135 49.2048 60.5667 49.4621 60.0842L49.9124 59.1836V60.4058C49.9124 61.5638 49.5908 61.9497 49.1727 61.2743Z" stroke="white" stroke-width="0.321643"/>
<path d="M51.1357 60.7914C51.2322 60.2768 51.4895 59.6978 51.6825 59.5049C51.8754 59.2797 51.9076 59.5049 51.779 60.1481C51.6503 60.6949 51.393 61.2739 51.2322 61.4347C51.007 61.6599 50.9748 61.4347 51.1357 60.7914Z" stroke="white" stroke-width="0.321643"/>
<path d="M63.8073 60.5986C64.0646 60.3413 64.4828 59.9231 64.7401 59.6658C65.126 59.2798 65.0939 59.3442 64.7401 59.9553C64.4506 60.4056 64.0325 60.8237 63.7751 60.8881C63.4213 60.9846 63.4213 60.9524 63.8073 60.5986Z" stroke="white" stroke-width="0.321643"/>
<path d="M53.1934 59.7624C53.1934 58.6366 55.3162 56.1922 58.8543 53.2974C61.0093 51.5605 61.7491 51.5283 59.7227 53.2652C57.4391 55.2272 54.1905 58.508 54.1583 58.8618C54.1583 59.0548 53.9331 59.4729 53.6758 59.7946C53.1934 60.4378 53.1934 60.4057 53.1934 59.7624Z" stroke="white" stroke-width="0.321643"/>
<path d="M93.7199 59.8262C93.2696 59.3116 93.3983 59.2473 94.1702 59.5368C94.4597 59.6333 94.6849 59.8584 94.6849 60.0192C94.6849 60.4695 94.1702 60.373 93.7199 59.8262Z" stroke="white" stroke-width="0.321643"/>
<path d="M106.908 59.1186C106.908 58.411 106.973 58.3145 107.23 58.7005C107.648 59.3438 107.648 59.9871 107.23 59.9871C107.069 59.9871 106.908 59.6011 106.908 59.1186Z" stroke="white" stroke-width="0.321643"/>
<path d="M49.0117 58.8612C49.0117 58.5717 49.9766 56.7705 50.1375 56.7705C50.3626 56.7705 49.6228 58.7004 49.3012 58.8934C49.1404 58.9898 49.0117 58.9577 49.0117 58.8612Z" stroke="white" stroke-width="0.321643"/>
<path d="M55.7676 58.5719C55.7676 58.3146 55.8962 58.0251 56.0571 57.9286C56.3787 57.7035 56.7968 58.5398 56.5074 58.8292C56.1536 59.183 55.7676 59.0222 55.7676 58.5719Z" stroke="white" stroke-width="0.321643"/>
<path d="M66.2201 58.7005C66.3166 58.5397 66.7025 58.3789 67.0563 58.3789C67.4101 58.3789 67.6031 58.5397 67.5066 58.7005C67.4101 58.8935 67.0242 59.0222 66.6704 59.0222C66.3166 59.0222 66.1236 58.8935 66.2201 58.7005Z" stroke="white" stroke-width="0.321643"/>
<path d="M108.516 57.4463C107.937 56.2562 107.584 55.8703 107.166 55.9989C106.554 56.1919 106.072 55.6451 106.587 55.3235C106.78 55.1948 106.812 54.9375 106.715 54.7445C106.587 54.5194 106.876 54.7123 107.326 55.1305C107.809 55.5808 108.195 56.0311 108.195 56.1919C108.195 56.3527 108.516 56.8995 108.87 57.382C109.256 57.8966 109.514 58.4756 109.417 58.7007C109.353 58.8937 108.935 58.3469 108.516 57.4463Z" stroke="white" stroke-width="0.321643"/>
<path d="M70.2402 57.1569C70.2402 56.9961 70.594 56.7709 71.0443 56.7066C71.4946 56.6101 71.8485 56.6745 71.8485 56.8031C71.8485 56.9639 71.7198 57.0926 71.559 57.0926C71.3982 57.0926 71.0443 57.1891 70.7549 57.2856C70.4654 57.3821 70.2402 57.3499 70.2402 57.1569Z" stroke="white" stroke-width="0.321643"/>
<path d="M57.5679 56.4811C57.7288 56.2881 58.5007 56.063 59.3048 55.9665L60.7522 55.8057L59.144 56.256C57.182 56.8349 57.182 56.8349 57.5679 56.4811Z" stroke="white" stroke-width="0.321643"/>
<path d="M101.119 54.3588C100.314 53.9407 99.7677 53.5869 99.9285 53.5547C100.218 53.5547 103.048 54.8734 103.048 55.0342C103.048 55.2916 102.534 55.0986 101.119 54.3588Z" stroke="white" stroke-width="0.321643"/>
<path d="M103.37 54.5187C103.016 54.2936 102.984 54.1328 103.274 53.8433C103.531 53.586 103.724 53.6503 103.981 54.1649C104.367 54.8726 104.142 55.0334 103.37 54.5187Z" stroke="white" stroke-width="0.321643"/>
<path d="M94.2679 53.8767C92.5632 53.2012 88.8965 50.9497 88.8965 50.5638C88.8965 50.4351 89.7649 50.9176 90.8263 51.6252C91.8878 52.365 93.689 53.2977 94.7826 53.7159C95.8761 54.134 96.5516 54.4878 96.2943 54.4878C96.037 54.4878 95.1042 54.2305 94.2679 53.8767Z" stroke="white" stroke-width="0.321643"/>
<path d="M79.4714 53.9722C79.3749 53.8114 79.3428 52.557 79.4071 51.2061C79.4714 49.8552 79.4071 48.7294 79.3106 48.7294C79.182 48.7294 79.1176 48.0861 79.182 47.3142C79.2785 46.1563 79.2141 45.8668 78.6995 45.7381C78.1849 45.6416 78.217 45.5773 78.8925 45.2878C79.7609 44.934 81.1761 45.0948 81.1761 45.5773C81.1761 45.7381 81.0475 45.8025 80.8867 45.706C80.2434 45.2878 79.9539 46.5422 79.9539 50.1446C79.9217 53.8114 79.8252 54.5512 79.4714 53.9722Z" stroke="white" stroke-width="0.321643"/>
<path d="M54.5438 53.2652C54.3186 53.1366 54.383 52.9114 54.8011 52.6863C55.2514 52.3646 55.4122 52.3968 55.5409 52.7506C55.766 53.2331 55.0906 53.5869 54.5438 53.2652Z" stroke="white" stroke-width="0.321643"/>
<path d="M101.247 53.1042C100.218 52.6539 99.5424 51.9463 100.121 51.9463C100.475 51.9463 102.727 53.2329 102.727 53.4258C102.727 53.651 102.276 53.5545 101.247 53.1042Z" stroke="white" stroke-width="0.321643"/>
<path d="M96.2943 51.946C95.844 51.5922 95.6511 51.3027 95.8119 51.3027C96.0049 51.3027 96.4873 51.5922 96.9376 51.946C97.3879 52.2998 97.6131 52.5893 97.4201 52.5893C97.2593 52.5893 96.7446 52.2998 96.2943 51.946Z" stroke="white" stroke-width="0.321643"/>
<path d="M62.5203 51.8174C63.1314 51.5601 63.9355 51.335 64.2893 51.335H64.9326L64.2893 51.5923C63.9355 51.7531 63.1314 51.9461 62.5203 52.0747L61.3945 52.2677L62.5203 51.8174Z" stroke="white" stroke-width="0.321643"/>
<path d="M58.501 51.3034C58.5974 51.1426 59.1764 50.9817 59.7232 51.0139C60.7203 51.0461 60.7203 51.0461 59.9484 51.3034C58.7904 51.6572 58.2758 51.6572 58.501 51.3034Z" stroke="white" stroke-width="0.321643"/>
<path d="M99.671 51.0129C96.744 50.0158 94.975 49.083 92.1767 47.0567C90.6328 45.9631 89.2498 44.9338 89.0568 44.773C88.4135 44.1619 91.3726 45.8987 93.0773 47.121C95.554 48.89 99.285 50.6591 100.475 50.6591C100.797 50.6591 101.215 50.8842 101.44 51.1415C101.922 51.7205 101.73 51.7205 99.671 51.0129Z" stroke="white" stroke-width="0.321643"/>
<path d="M76.995 50.4984C77.4132 50.0481 77.7991 49.6943 77.8635 49.6943C78.1529 49.6943 76.802 51.2704 76.5447 51.3026C76.3839 51.3026 76.5769 50.9487 76.995 50.4984Z" stroke="white" stroke-width="0.321643"/>
<path d="M93.1735 50.4663C91.2758 49.3405 91.4367 49.1475 93.3344 50.209C95.1356 51.2704 95.1999 51.3026 94.8139 51.3026C94.6531 51.3026 93.9133 50.9166 93.1735 50.4663Z" stroke="white" stroke-width="0.321643"/>
<path d="M95.6817 50.4665C95.0706 50.2092 94.6525 49.9197 94.7811 49.8232C94.8776 49.7267 95.4887 49.9518 96.1964 50.3057C97.6116 51.0454 97.2899 51.1741 95.6817 50.4665Z" stroke="white" stroke-width="0.321643"/>
<path d="M81.4996 50.1768C81.2745 49.9195 81.2423 49.6943 81.4353 49.6943C81.5961 49.6943 81.9178 49.9195 82.1429 50.1768C82.3681 50.4341 82.4002 50.6593 82.2073 50.6593C82.0464 50.6593 81.7248 50.4341 81.4996 50.1768Z" stroke="white" stroke-width="0.321643"/>
<path d="M86.8059 49.18C84.8117 47.7647 83.7824 46.7998 84.3292 46.7998C84.5544 46.7998 84.7152 46.9285 84.7152 47.1214C84.7152 47.2823 85.4872 47.9256 86.4521 48.5367C87.417 49.1478 88.2854 49.7911 88.3819 49.9841C88.7036 50.4665 88.6071 50.4344 86.8059 49.18Z" stroke="white" stroke-width="0.321643"/>
<path d="M62.3272 49.4049C62.4236 49.2762 62.9704 48.9546 63.5494 48.6973C64.1284 48.4721 65.5114 47.668 66.6372 46.8961C67.7629 46.1241 68.8565 45.513 69.0495 45.5452C69.2746 45.5452 69.1782 45.7381 68.8243 45.9311C68.5027 46.1563 67.6343 46.7674 66.8945 47.282C66.1869 47.8288 65.1898 48.4399 64.7073 48.6651C64.1927 48.8581 63.8067 49.1797 63.8067 49.3727C63.8067 49.5335 63.4207 49.6944 62.9704 49.6944C62.5201 49.6944 62.2307 49.5657 62.3272 49.4049Z" stroke="white" stroke-width="0.321643"/>
<path d="M65.0938 49.5985C65.0938 49.502 65.7049 49.1161 66.4768 48.7301C67.7312 48.0868 67.7956 48.0868 67.1844 48.6658C66.5733 49.2769 65.0938 49.9202 65.0938 49.5985Z" stroke="white" stroke-width="0.321643"/>
<path d="M90.1509 48.698L89.3789 48.0547L90.3438 48.6015C91.5982 49.3734 91.6304 49.3734 91.2444 49.3734C91.0515 49.3734 90.569 49.0839 90.1509 48.698Z" stroke="white" stroke-width="0.321643"/>
<path d="M61.0099 47.2817C61.4924 46.8314 62.1035 46.4776 62.3608 46.4776C62.586 46.4776 63.6796 45.9629 64.7732 45.3518C65.8667 44.7407 67.0247 44.2261 67.3463 44.2261C68.3112 44.2261 70.4341 42.9395 70.9809 42.0067C71.2382 41.5564 72.0101 40.6558 72.6856 40.0447L73.8757 38.9189L73.1037 40.0447C71.8171 41.9424 69.437 44.1296 68.4077 44.3547C67.8931 44.4834 66.4457 45.0623 65.2235 45.6735C64.0012 46.2846 62.8755 46.7992 62.6825 46.7992C62.5217 46.7992 62.007 47.0887 61.5567 47.4425C60.3988 48.3431 59.9485 48.2144 61.0099 47.2817Z" stroke="white" stroke-width="0.321643"/>
<path d="M72.4915 47.3461C72.781 47.0244 75.0968 45.5127 75.2577 45.5127C75.7401 45.5127 74.8717 46.2525 73.6816 46.8314C72.9418 47.2174 72.395 47.4426 72.4915 47.3461Z" stroke="white" stroke-width="0.321643"/>
<path d="M75.0664 47.2822C75.0664 47.1857 75.6775 46.8319 76.4495 46.4459C77.1893 46.0599 77.5752 45.9634 77.3179 46.2208C76.8033 46.7032 75.0664 47.5395 75.0664 47.2822Z" stroke="white" stroke-width="0.321643"/>
<path d="M70.7237 46.7997C70.8202 46.6389 71.0775 46.4781 71.2383 46.4781C71.4313 46.4781 72.0424 46.1243 72.6214 45.674C73.8115 44.7734 74.3904 44.6125 73.7793 45.3523C73.5542 45.6096 73.1682 45.8348 72.943 45.8348C72.6857 45.8348 72.4927 45.9634 72.4927 46.0921C72.4927 46.2529 72.1389 46.5424 71.6886 46.7354C70.6594 47.2179 70.4664 47.2179 70.7237 46.7997Z" stroke="white" stroke-width="0.321643"/>
<path d="M81.8208 46.4779C81.4348 46.2206 81.4348 46.1562 81.9816 46.1562C82.3354 46.1562 82.8501 46.3171 83.1074 46.4779C83.4934 46.7352 83.4934 46.7995 82.9466 46.7995C82.5928 46.7995 82.0781 46.6387 81.8208 46.4779Z" stroke="white" stroke-width="0.321643"/>
<path d="M83.1052 45.3206C82.3654 44.9024 82.4297 44.8703 84.0701 45.0311C85.0351 45.1597 85.9035 45.3206 86 45.4171C86.0965 45.4814 85.807 45.5457 85.3567 45.4814C84.9064 45.4171 84.3918 45.4492 84.2309 45.5779C84.038 45.6744 83.5555 45.5779 83.1052 45.3206Z" stroke="white" stroke-width="0.321643"/>
<path d="M76.9941 44.3882C76.9941 44.0987 77.1871 44.0022 77.4766 44.0987C77.7339 44.2273 77.8626 44.4203 77.7661 44.5811C77.5088 45.0315 76.9941 44.9028 76.9941 44.3882Z" stroke="white" stroke-width="0.321643"/>
<path d="M86.0019 44.3877C85.4551 44.0661 85.3586 43.9374 85.7124 43.9053C86.0019 43.9053 86.42 44.1304 86.6452 44.3877C87.1276 44.9667 87.0311 44.9667 86.0019 44.3877Z" stroke="white" stroke-width="0.321643"/>
<path d="M78.8604 44.1625C79.5037 43.5193 79.2785 42.9403 78.3779 42.9081C77.7025 42.876 77.6381 42.8438 78.1206 42.7152C79.0212 42.49 79.5037 41.9754 78.7961 41.9754C78.2814 41.9754 78.3136 41.8789 78.9569 41.2034C79.6002 40.528 79.761 40.4958 80.0505 40.914C80.4686 41.4607 82.5914 42.297 83.6529 42.297C84.0388 42.297 84.457 42.4578 84.5856 42.6508C84.7143 42.876 84.5856 42.9403 84.1997 42.8438C81.0154 41.9754 78.9569 41.8467 80.1791 42.5865C80.5008 42.7795 80.5008 42.9081 80.2434 43.1011C80.0183 43.1976 79.954 43.5836 80.0505 43.9374C80.2113 44.452 80.0826 44.5485 79.375 44.5485C78.6674 44.5485 78.5709 44.452 78.8604 44.1625Z" stroke="white" stroke-width="0.321643"/>
<path d="M71.3669 43.3263C71.6885 43.0047 74.6476 41.9432 76.5132 41.5251C78.3787 41.0748 76.867 41.9111 74.5833 42.5544C73.361 42.9082 72.0423 43.2941 71.6885 43.4228C71.2382 43.6158 71.1417 43.5836 71.3669 43.3263Z" stroke="white" stroke-width="0.321643"/>
<path d="M34.7309 76.777C34.6344 76.6162 34.6987 76.0694 34.8595 75.5547C35.1169 74.622 35.1169 74.622 35.149 75.8442C35.1812 77.0021 35.0525 77.2916 34.7309 76.777Z" stroke="white" stroke-width="0.321643"/>
<path d="M36.7889 65.9377C37.0141 65.6804 37.3036 65.5518 37.4644 65.6482C37.8825 65.9056 37.4966 66.4202 36.8854 66.4202C36.4673 66.4202 36.4673 66.3237 36.7889 65.9377Z" stroke="white" stroke-width="0.321643"/>
<path d="M38.4297 62.5604C38.4297 62.3031 38.6227 61.7241 38.9122 61.2738L39.3946 60.4697L39.1695 61.2738C39.073 61.7241 38.8478 62.3031 38.687 62.5604C38.4619 62.9785 38.4297 62.9785 38.4297 62.5604Z" stroke="white" stroke-width="0.321643"/>
<path d="M41.6132 56.4166C41.9992 55.6768 42.3851 55.1622 42.4495 55.2587C42.6103 55.4195 41.3237 57.7353 41.0986 57.7353C41.0021 57.7353 41.2594 57.1564 41.6132 56.4166Z" stroke="white" stroke-width="0.321643"/>
<path d="M44.6711 51.9136C45.1857 51.3025 45.7647 50.6914 45.8934 50.4984C46.0542 50.3376 45.9899 50.5306 45.7969 50.9809C45.6039 51.4312 45.0571 52.0744 44.5746 52.3961C43.7383 53.0072 43.7383 53.0072 44.6711 51.9136Z" stroke="white" stroke-width="0.321643"/>
<path d="M48.6914 47.3145C48.6914 47.0893 49.0452 46.7998 49.4955 46.7355C49.9458 46.639 50.2996 46.6069 50.2996 46.639C50.2996 46.7033 49.9458 46.9607 49.4955 47.2501C48.8522 47.6683 48.6914 47.7004 48.6914 47.3145Z" stroke="white" stroke-width="0.321643"/>
<path d="M51.5856 45.0303C51.8107 44.773 52.1324 44.5479 52.2932 44.5479C52.4862 44.5479 52.454 44.773 52.2289 45.0303C52.0037 45.2876 51.6821 45.5128 51.5212 45.5128C51.3283 45.5128 51.3604 45.2876 51.5856 45.0303Z" stroke="white" stroke-width="0.321643"/>
<path d="M53.4503 43.8086C53.6433 43.5835 54.4152 43.0688 55.1872 42.6507C56.6989 41.8144 56.5702 42.0074 54.7369 43.3583C53.4825 44.2911 52.9035 44.4841 53.4503 43.8086Z" stroke="white" stroke-width="0.321643"/>
<path d="M57.0527 41.6213C57.0527 41.364 60.1083 39.7236 60.5586 39.7236C60.8481 39.7236 59.2399 40.7851 58.1142 41.364C57.5352 41.6535 57.0527 41.7821 57.0527 41.6213Z" stroke="white" stroke-width="0.321643"/>
<path d="M65.8664 37.6651C66.381 37.3756 66.8635 37.2148 66.9599 37.3113C67.2173 37.5686 66.9599 37.7294 65.8985 37.9545L64.9336 38.1797L65.8664 37.6651Z" stroke="white" stroke-width="0.321643"/>
<path d="M67.8278 37.4726C67.5383 36.9901 67.667 36.8615 68.9536 36.6363C69.7255 36.4755 69.9506 36.5077 69.7898 36.7971C69.6612 36.9901 69.4039 37.0545 69.2109 36.958C69.0179 36.8293 68.6641 36.9901 68.4389 37.2796C68.1816 37.6656 67.9886 37.7299 67.8278 37.4726Z" stroke="white" stroke-width="0.321643"/>
<path d="M70.8848 36.7967C70.8848 36.7002 71.2064 36.5072 71.6245 36.3786C72.5895 36.1213 72.8146 36.1534 72.8146 36.4751C72.8146 36.6359 72.3965 36.8289 71.8497 36.8932C71.3351 36.9897 70.8848 36.9254 70.8848 36.7967Z" stroke="white" stroke-width="0.321643"/>
<path d="M73.4569 36.1857C74.1002 35.7675 74.84 35.7675 74.5827 36.1857C74.4862 36.3787 74.068 36.5073 73.6821 36.5073C73.1031 36.5073 73.0709 36.443 73.4569 36.1857Z" stroke="white" stroke-width="0.321643"/>
<path d="M123.344 74.4613C123.28 74.3648 123.184 73.7215 123.119 73.046C123.055 72.1776 123.119 71.8881 123.344 72.1133C123.537 72.3062 123.634 72.9495 123.537 73.5285C123.473 74.1396 123.377 74.5577 123.344 74.4613Z" stroke="white" stroke-width="0.321643"/>
<path d="M121.928 69.2829C121.638 69.09 121.381 68.8326 121.381 68.6718C121.381 68.125 122.249 68.318 122.474 68.8648C122.732 69.5724 122.635 69.6689 121.928 69.2829Z" stroke="white" stroke-width="0.321643"/>
<path d="M118.488 59.7943C118.488 59.344 118.585 59.344 118.971 59.6656C119.228 59.8908 119.453 60.1159 119.453 60.1803C119.453 60.2446 119.228 60.3089 118.971 60.3089C118.713 60.3089 118.488 60.0838 118.488 59.7943Z" stroke="white" stroke-width="0.321643"/>
<path d="M116.88 57.2531C116.687 56.9958 116.558 56.642 116.622 56.449C116.687 56.256 116.976 56.3847 117.265 56.7385C117.587 57.0923 117.684 57.4783 117.555 57.5748C117.394 57.6391 117.105 57.5104 116.88 57.2531Z" stroke="white" stroke-width="0.321643"/>
<path d="M115.624 54.9051C115.077 53.908 115.206 53.6185 115.785 54.4548C116.074 54.8729 116.235 55.291 116.139 55.3875C116.042 55.4519 115.817 55.2589 115.624 54.9051Z" stroke="white" stroke-width="0.321643"/>
<path d="M113.374 51.9141C112.441 50.2415 112.698 49.9199 113.696 51.5281C114.693 53.1363 114.725 53.2328 114.403 53.2328C114.242 53.2328 113.76 52.6538 113.374 51.9141Z" stroke="white" stroke-width="0.321643"/>
<path d="M111.315 49.5019C110.736 48.7299 110.897 48.5048 111.669 49.0194C111.926 49.1802 112.055 49.5019 111.99 49.7914C111.926 50.1773 111.765 50.113 111.315 49.5019Z" stroke="white" stroke-width="0.321643"/>
<path d="M108.645 47.4109C108.002 46.6711 108.13 46.6389 109.288 47.2501C109.931 47.5717 110.028 47.7325 109.674 47.8612C109.417 47.9577 108.967 47.7647 108.645 47.4109Z" stroke="white" stroke-width="0.321643"/>
<path d="M105.911 44.2262L105.139 43.5508L106.2 44.0654C107.197 44.5479 107.519 44.8695 106.94 44.8695C106.779 44.8695 106.329 44.58 105.911 44.2262Z" stroke="white" stroke-width="0.321643"/>
<path d="M103.498 43.2303C102.887 42.5227 102.887 42.5227 103.627 42.9087C104.013 43.1017 104.334 43.4233 104.334 43.5841C104.334 44.0666 104.174 43.9701 103.498 43.2303Z" stroke="white" stroke-width="0.321643"/>
<path d="M101.506 42.0392C101.088 41.7176 100.863 41.3638 100.991 41.2351C101.313 40.9135 101.763 40.9456 101.699 41.2994C101.634 41.4603 101.892 41.8462 102.246 42.1036C102.599 42.3609 102.76 42.586 102.567 42.586C102.406 42.6182 101.924 42.3609 101.506 42.0392Z" stroke="white" stroke-width="0.321643"/>
<path d="M98.8666 40.8174L98.0625 40.335L98.8666 40.5601C99.3169 40.6566 99.7994 40.8818 99.9924 41.0426C100.475 41.4929 99.7672 41.3642 98.8666 40.8174Z" stroke="white" stroke-width="0.321643"/>
<path d="M94.6855 38.6305C94.6855 38.0837 95.2002 37.6656 95.4253 38.0194C95.5218 38.1802 95.3932 38.4697 95.1358 38.6949C94.7499 39.0165 94.6855 39.0165 94.6855 38.6305Z" stroke="white" stroke-width="0.321643"/>
<path d="M90.8247 37.4399C89.6025 37.1183 88.7019 36.9253 87.0293 36.6358C86.4504 36.5071 85.9036 36.282 85.7749 36.089C85.6463 35.896 85.8393 35.8317 86.3539 35.9925C86.772 36.089 87.7691 36.282 88.5732 36.4107C89.3773 36.5071 90.0849 36.7001 90.1814 36.8288C90.2779 36.9574 90.9855 37.1826 91.7897 37.3756C92.5938 37.5686 92.9476 37.7294 92.5938 37.7294C92.24 37.7294 91.4358 37.6007 90.8247 37.4399Z" stroke="white" stroke-width="0.321643"/>
<path d="M73.0072 131.778C72.9107 131.585 72.9751 131.328 73.168 131.231C73.6505 130.91 73.9722 131.328 73.554 131.746C73.3289 131.971 73.1359 131.971 73.0072 131.778Z" stroke="white" stroke-width="0.321643"/>
<path d="M77.316 131.553C76.9943 131.167 77.0265 131.038 77.4446 130.877C78.2487 130.556 78.6026 130.845 78.1523 131.488C77.7663 131.971 77.6698 131.971 77.316 131.553Z" stroke="white" stroke-width="0.321643"/>
<path d="M87.0305 131.103C87.0948 130.878 87.2556 130.717 87.3843 130.717C87.7702 130.749 87.6737 131.199 87.2878 131.36C87.0626 131.424 86.934 131.296 87.0305 131.103Z" stroke="white" stroke-width="0.321643"/>
<path d="M89.6994 130.748C89.4421 130.33 89.6673 129.976 90.1497 130.137C90.3427 130.234 90.3749 130.459 90.2141 130.716C90.0211 131.038 89.8924 131.038 89.6994 130.748Z" stroke="white" stroke-width="0.321643"/>
<path d="M66.2196 130.395C65.8979 129.912 66.3161 129.59 66.7342 130.009C66.9593 130.234 66.9593 130.427 66.7664 130.555C66.5734 130.652 66.3161 130.588 66.2196 130.395Z" stroke="white" stroke-width="0.321643"/>
<path d="M92.2737 130.106C92.0164 129.688 92.2415 129.334 92.724 129.495C92.917 129.591 92.9491 129.816 92.7883 130.074C92.5953 130.395 92.4667 130.395 92.2737 130.106Z" stroke="white" stroke-width="0.321643"/>
<path d="M94.6855 129.14C94.6855 128.979 94.9107 128.818 95.168 128.818C95.4253 128.818 95.6505 128.979 95.6505 129.14C95.6505 129.333 95.4253 129.462 95.168 129.462C94.9107 129.462 94.6855 129.333 94.6855 129.14Z" stroke="white" stroke-width="0.321643"/>
<path d="M58.9831 127.854C58.7257 127.693 58.6293 127.468 58.7579 127.339C58.8866 127.211 59.176 127.275 59.369 127.468C59.8515 127.951 59.5942 128.24 58.9831 127.854Z" stroke="white" stroke-width="0.321643"/>
<path d="M82.4629 128.015C82.4629 127.468 83.7173 125.603 84.0711 125.603C84.2319 125.603 84.3928 125.699 84.3928 125.86C84.3606 126.214 82.4629 128.369 82.4629 128.015Z" stroke="white" stroke-width="0.321643"/>
<path d="M45.3118 119.138C45.1832 118.945 45.151 118.719 45.2475 118.623C45.4727 118.398 46.1159 118.816 46.1159 119.202C46.1159 119.588 45.5692 119.588 45.3118 119.138Z" stroke="white" stroke-width="0.321643"/>
<path d="M43.3841 117.529C43.2554 117.336 43.2233 117.111 43.3198 117.015C43.5449 116.789 44.1882 117.207 44.1882 117.593C44.1882 117.979 43.6414 117.979 43.3841 117.529Z" stroke="white" stroke-width="0.321643"/>
<path d="M115.335 116.886C115.399 116.661 115.656 116.404 115.882 116.34C116.139 116.243 116.268 116.372 116.171 116.629C116.107 116.854 115.849 117.112 115.624 117.176C115.367 117.272 115.238 117.144 115.335 116.886Z" stroke="white" stroke-width="0.321643"/>
<path d="M41.7747 115.921C41.6461 115.728 41.6139 115.503 41.7104 115.406C41.9356 115.181 42.5788 115.599 42.5788 115.985C42.5788 116.371 42.032 116.371 41.7747 115.921Z" stroke="white" stroke-width="0.321643"/>
<path d="M35.406 108.008C35.0844 107.719 35.1165 107.269 35.4703 107.269C35.6312 107.269 35.8242 107.494 35.9528 107.751C36.1136 108.233 35.792 108.394 35.406 108.008Z" stroke="white" stroke-width="0.321643"/>
<path d="M5.26801 105.693C5.26801 104.438 5.13935 103.409 4.97853 103.409C4.81771 103.409 4.23875 103.924 3.65979 104.567C3.113 105.21 2.56621 105.628 2.46971 105.532C2.34105 105.403 2.79136 104.76 3.46681 104.085C4.84987 102.669 4.65689 102.412 2.1159 102.637C1.05448 102.734 0.443359 102.669 0.443359 102.444C0.443359 102.283 1.05448 102.123 1.82643 102.09C2.56621 102.058 3.49897 101.962 3.91711 101.865C4.65689 101.64 4.65689 101.64 3.53113 100.546C2.01941 99.0991 2.01941 98.5523 3.49897 99.8388C4.14226 100.386 4.78554 100.836 4.94637 100.836C5.13935 100.836 5.26801 100.032 5.26801 99.0669C5.26801 98.102 5.42883 97.2979 5.58965 97.2979C5.78264 97.2979 5.9113 98.102 5.9113 99.0669C5.9113 100.032 6.03995 100.836 6.20077 100.836C6.3616 100.836 6.87622 100.386 7.32653 99.8388C7.77683 99.292 8.1628 99.0347 8.1628 99.292C8.1628 99.5172 7.77683 100.128 7.32653 100.611C6.87622 101.125 6.58675 101.608 6.68324 101.704C6.77973 101.801 7.93765 101.897 9.28855 101.93C10.6073 101.962 11.7009 102.058 11.7009 102.219C11.7009 102.348 10.543 102.444 9.12773 102.444C7.7125 102.444 6.55458 102.573 6.55458 102.701C6.55458 102.83 7.06921 103.441 7.68033 104.052C8.29146 104.663 8.80608 105.275 8.80608 105.468C8.80608 105.661 8.1628 105.146 7.35869 104.374L5.9113 102.959V105.242C5.9113 106.529 5.78264 107.655 5.58965 107.751C5.39667 107.88 5.26801 107.108 5.26801 105.693Z" stroke="white" stroke-width="0.321643"/>
<path d="M152.551 104.31C152.518 103.892 152.454 102.927 152.422 102.123C152.39 101.319 152.358 100.547 152.325 100.354C152.293 100.193 151.682 100.643 150.975 101.319C150.267 101.994 149.688 102.412 149.688 102.252C149.688 102.059 150.138 101.512 150.653 100.997C152.068 99.6462 151.907 99.3889 149.784 99.4854C148.755 99.5497 147.565 99.4532 147.115 99.2602C146.472 99.0029 146.858 98.9386 148.98 98.9386C151.94 98.9064 152.165 98.6813 150.653 97.2339C149.72 96.3654 149.431 95.69 149.945 95.69C150.074 95.69 150.589 96.2046 151.071 96.8157C152.422 98.5204 152.679 98.2953 152.422 95.69C152.293 94.3069 152.325 93.4385 152.518 93.4385C152.808 93.4385 153.226 95.6578 153.226 97.3304C153.226 97.845 153.323 98.2631 153.483 98.2631C153.612 98.2631 154.255 97.652 154.899 96.9122C155.574 96.1403 156.121 95.69 156.121 95.883C156.121 96.076 155.606 96.8157 154.963 97.5555L153.805 98.9064H156.282C157.826 98.9064 158.662 99.0351 158.533 99.2281C158.437 99.421 157.343 99.5497 156.089 99.5497C154.866 99.5497 153.869 99.6784 153.869 99.8392C153.869 100 154.384 100.579 155.027 101.158C155.671 101.705 156.121 102.252 156.024 102.348C155.928 102.444 155.285 101.994 154.609 101.351C153.934 100.708 153.29 100.193 153.13 100.193C153.001 100.193 152.969 101.19 153.065 102.412C153.194 103.828 153.13 104.696 152.937 104.857C152.711 104.953 152.551 104.76 152.551 104.31Z" stroke="white" stroke-width="0.321643"/>
<path d="M125.144 104.471C125.048 104.31 125.08 103.988 125.208 103.763C125.433 103.441 125.53 103.441 125.723 103.731C125.852 103.924 125.819 104.245 125.626 104.438C125.466 104.599 125.24 104.631 125.144 104.471Z" stroke="white" stroke-width="0.321643"/>
<path d="M29.9053 97.1052C29.7766 96.7835 29.8731 96.6549 30.0983 96.7192C30.5807 96.88 30.838 97.6198 30.4199 97.6198C30.2591 97.6198 30.0018 97.3947 29.9053 97.1052Z" stroke="white" stroke-width="0.321643"/>
<path d="M128.779 95.3675C128.779 95.2067 129.004 95.0459 129.262 95.0459C129.519 95.0459 129.744 95.2067 129.744 95.3675C129.744 95.5605 129.519 95.6892 129.262 95.6892C129.004 95.6892 128.779 95.5605 128.779 95.3675Z" stroke="white" stroke-width="0.321643"/>
<path d="M149.204 93.0848C149.076 92.8918 149.044 92.6667 149.14 92.5702C149.365 92.345 150.009 92.7632 150.009 93.1491C150.009 93.5351 149.462 93.5351 149.204 93.0848Z" stroke="white" stroke-width="0.321643"/>
<path d="M10.4797 92.8268C10.6083 92.4087 11.0586 92.3122 11.0908 92.6981C11.0908 92.8268 10.93 92.9876 10.737 93.0841C10.5118 93.1484 10.3832 93.0198 10.4797 92.8268Z" stroke="white" stroke-width="0.321643"/>
<path d="M11.7664 90.1892C11.8307 89.964 12.0881 89.7067 12.3132 89.6424C12.5705 89.5459 12.6992 89.6746 12.6027 89.9319C12.5384 90.157 12.281 90.4143 12.0559 90.4787C11.7986 90.5752 11.6699 90.4465 11.7664 90.1892Z" stroke="white" stroke-width="0.321643"/>
<path d="M146.824 89.1281C146.599 88.8708 146.567 88.5813 146.727 88.4848C146.92 88.3883 147.146 88.517 147.242 88.8064C147.532 89.5462 147.306 89.707 146.824 89.1281Z" stroke="white" stroke-width="0.321643"/>
<path d="M12.9883 87.5195C12.9883 87.23 13.2134 87.0049 13.5029 87.0049C13.7924 87.0049 13.9532 87.1657 13.8889 87.3909C13.6959 87.9698 12.9883 88.0663 12.9883 87.5195Z" stroke="white" stroke-width="0.321643"/>
<path d="M145.023 86.6512C144.894 86.4582 144.862 86.2331 144.958 86.1366C145.184 85.9114 145.827 86.3296 145.827 86.7155C145.827 87.1015 145.28 87.1015 145.023 86.6512Z" stroke="white" stroke-width="0.321643"/>
<path d="M26.9789 85.3973C26.8824 85.2365 26.9468 84.8183 27.1076 84.5288C27.3971 84.0142 27.4292 84.0785 27.4614 84.8505C27.4614 85.7511 27.3006 85.9441 26.9789 85.3973Z" stroke="white" stroke-width="0.321643"/>
<path d="M131.096 85.3656C131.161 85.1726 131.354 85.0439 131.515 85.0439C131.675 85.0439 131.868 85.1726 131.933 85.3656C131.997 85.5586 131.804 85.7194 131.515 85.7194C131.225 85.7194 131.032 85.5586 131.096 85.3656Z" stroke="white" stroke-width="0.321643"/>
<path d="M30.9684 84.4958C30.3251 84.0134 29.5532 83.2736 29.1994 82.8233C28.6204 82.0513 28.6526 82.0513 29.714 82.9198C30.3251 83.4022 31.2257 84.0777 31.7082 84.3672C32.2228 84.6567 32.6088 85.0105 32.6088 85.1713C32.6088 85.5573 32.1907 85.3964 30.9684 84.4958Z" stroke="white" stroke-width="0.321643"/>
<path d="M14.3405 84.7211C14.4048 84.5281 14.5978 84.3994 14.7587 84.3994C14.9195 84.3994 15.1125 84.5281 15.1768 84.7211C15.2411 84.914 15.0481 85.0749 14.7587 85.0749C14.4692 85.0749 14.2762 84.914 14.3405 84.7211Z" stroke="white" stroke-width="0.321643"/>
<path d="M143.576 84.2715C143.576 84.0142 143.737 83.7891 143.898 83.7891C144.091 83.7891 144.219 84.0142 144.219 84.2715C144.219 84.5288 144.091 84.754 143.898 84.754C143.737 84.754 143.576 84.5288 143.576 84.2715Z" stroke="white" stroke-width="0.321643"/>
<path d="M131.354 84.0784C131.354 83.6925 132.158 83.3708 132.672 83.5316C132.865 83.596 132.672 83.8211 132.19 84.0463C131.675 84.2714 131.354 84.3036 131.354 84.0784Z" stroke="white" stroke-width="0.321643"/>
<path d="M23.9238 83.0169C23.9238 82.5666 24.0846 82.1807 24.2455 82.1807C24.4385 82.1807 24.5671 82.4701 24.5671 82.7918C24.5671 83.1456 24.4385 83.5316 24.2455 83.6281C24.0525 83.7567 23.9238 83.4672 23.9238 83.0169Z" stroke="white" stroke-width="0.321643"/>
<path d="M134.086 83.4671C133.764 82.9525 134.6 82.0841 134.986 82.47C135.34 82.8238 135.051 83.7888 134.6 83.7888C134.44 83.7888 134.182 83.628 134.086 83.4671Z" stroke="white" stroke-width="0.321643"/>
<path d="M4.72131 82.341C4.52832 81.8907 4.43183 81.2474 4.52832 80.8936C4.65698 80.4433 4.52833 80.2503 4.17452 80.2503C3.88504 80.2503 3.65989 80.5076 3.65989 80.8936C3.65989 81.2474 3.53123 81.5369 3.37041 81.5369C3.20959 81.5369 3.14526 81.2474 3.24175 80.8936C3.37041 80.379 3.24175 80.2503 2.50197 80.2181C1.98734 80.186 1.27973 80.1538 0.958085 80.1216C0.604277 80.0895 0.282634 79.8965 0.186141 79.6392C0.0896477 79.3175 0.250469 79.2532 0.861592 79.414C1.47271 79.5427 1.79436 79.4462 2.01951 79.0602C2.21249 78.7386 2.37332 78.6742 2.37332 78.8994C2.37332 79.0924 2.59847 79.2854 2.88794 79.2854C3.24175 79.2854 3.33824 79.0924 3.17742 78.5778L2.98444 77.838L3.5634 78.5778C4.27101 79.4462 4.68915 79.1889 4.43183 78.1275C4.30317 77.645 4.3675 77.3555 4.59265 77.3555C4.8178 77.3555 4.94646 77.1304 4.88213 76.8409C4.8178 76.5192 4.97863 76.2298 5.17161 76.1654C5.46109 76.0689 5.55758 76.3584 5.55758 77.0982C5.49325 79.0281 5.55758 79.1889 6.58684 79.414C7.19796 79.5105 7.48744 79.7357 7.32662 79.9608C7.23013 80.1538 6.77983 80.2503 6.39386 80.186C5.78273 80.0573 5.62191 80.186 5.46109 80.8936C5.39676 81.3761 5.39676 82.0837 5.49325 82.4696C5.7184 83.4024 5.20378 83.3059 4.72131 82.341Z" stroke="white" stroke-width="0.321643"/>
<path d="M15.5605 82.7598C15.5605 82.1808 16.1395 81.6662 16.4611 81.9878C16.5576 82.1165 16.3968 82.4381 16.1073 82.7276C15.5927 83.2422 15.5605 83.2422 15.5605 82.7598Z" stroke="white" stroke-width="0.321643"/>
<path d="M137.657 82.6631C137.561 82.3737 137.657 82.1807 137.947 82.1807C138.204 82.1807 138.429 82.4058 138.429 82.6631C138.429 82.9204 138.301 83.1456 138.14 83.1456C137.979 83.1456 137.786 82.9204 137.657 82.6631Z" stroke="white" stroke-width="0.321643"/>
<path d="M155.475 82.631C155.475 82.2772 155.282 82.1485 154.832 82.2772C154.06 82.4702 154.028 82.3737 154.735 81.6982C155.379 81.055 154.961 80.1222 153.996 80.0579C153.642 80.0257 152.677 79.9935 151.841 79.9614C150.972 79.9614 150.361 79.8006 150.49 79.6397C150.586 79.4789 151.358 79.3824 152.162 79.4467C154.349 79.5754 155.218 79.1894 154.961 78.1602C154.832 77.6455 154.896 77.3561 155.154 77.3561C155.379 77.3561 155.475 77.1309 155.379 76.8736C155.25 76.6163 155.314 76.3268 155.475 76.2303C155.636 76.1338 155.797 76.3911 155.861 76.7771C155.926 77.1952 156.183 77.5169 156.44 77.5169C157.341 77.5169 158.177 80.2509 157.405 80.7333C157.244 80.8298 157.083 80.7655 157.083 80.6047C157.083 80.4117 156.858 80.2509 156.601 80.2509C156.344 80.2509 156.119 80.5403 156.119 80.8941C156.119 81.3123 156.279 81.4731 156.601 81.3444C156.858 81.2158 157.083 81.3123 157.083 81.5053C157.083 81.6982 156.858 81.8591 156.601 81.8591C156.344 81.8591 156.119 82.0521 156.119 82.3094C156.119 82.5667 155.99 82.8883 155.797 82.9848C155.636 83.0813 155.475 82.9527 155.475 82.631ZM157.083 78.4496C157.083 78.1923 156.858 77.9993 156.601 77.9993C156.119 77.9993 155.926 78.6748 156.312 79.0608C156.633 79.3502 157.083 78.9964 157.083 78.4496Z" stroke="white" stroke-width="0.321643"/>
<path d="M22.1553 82.5024C22.0267 82.3094 22.0588 81.9878 22.2518 81.7948C22.4448 81.6018 22.6378 81.6018 22.7986 81.8591C22.9273 82.0521 22.8951 82.3737 22.7021 82.5667C22.5091 82.7597 22.3161 82.7597 22.1553 82.5024Z" stroke="white" stroke-width="0.321643"/>
<path d="M131.354 82.0196C131.354 81.7623 131.514 81.5371 131.675 81.5371C131.868 81.5371 131.997 81.7623 131.997 82.0196C131.997 82.2769 131.868 82.502 131.675 82.502C131.514 82.502 131.354 82.2769 131.354 82.0196Z" stroke="white" stroke-width="0.321643"/>
<path d="M142.288 82.052C142.288 81.3444 141.741 81.1514 141.002 81.5373C140.455 81.8268 140.358 81.7947 140.358 81.087C140.358 80.1543 139.812 79.897 138.3 80.1543C136.756 80.4116 135.984 80.0899 136.499 79.4467C136.724 79.1893 137.045 79.0607 137.271 79.1893C138.01 79.6718 140.069 79.6075 140.23 79.125C140.455 78.5782 141.323 78.4817 141.323 78.9964C141.323 79.1893 141.548 79.2858 141.806 79.1893C142.063 79.0607 142.642 79.1893 143.124 79.4145C143.929 79.8648 143.961 79.8648 143.253 80.0899C142.642 80.2829 142.578 80.4759 142.771 81.4087C142.867 82.0841 142.835 82.5023 142.61 82.5023C142.449 82.5023 142.288 82.3093 142.288 82.052Z" stroke="white" stroke-width="0.321643"/>
<path d="M17.0738 80.2501C16.3662 79.3816 16.3662 79.2852 17.299 79.2852C18.2961 79.2852 18.5534 79.6711 18.0388 80.3787C17.685 80.8612 17.6206 80.8612 17.0738 80.2501Z" stroke="white" stroke-width="0.321643"/>
<path d="M9.93279 79.9291C9.8363 79.7682 10.0293 79.6074 10.4153 79.6074C10.8012 79.6074 10.9942 79.7682 10.8977 79.9291C10.8012 80.1221 10.5761 80.2507 10.4153 80.2507C10.2544 80.2507 10.0293 80.1221 9.93279 79.9291Z" stroke="white" stroke-width="0.321643"/>
<path d="M11.8943 80.0249C11.5405 79.6711 11.7013 79.2852 12.1837 79.2852C12.4411 79.2852 12.6662 79.4138 12.6662 79.5746C12.6662 79.9928 12.1516 80.2823 11.8943 80.0249Z" stroke="white" stroke-width="0.321643"/>
<path d="M15.1434 80.0259C14.7252 79.6078 14.9182 79.3505 15.5615 79.5113C15.9153 79.6078 16.1083 79.8008 16.0118 79.9616C15.8188 80.3154 15.4328 80.3476 15.1434 80.0259Z" stroke="white" stroke-width="0.321643"/>
<path d="M19.0027 80.0571C18.6489 79.7033 19.0992 79.2852 19.7746 79.2852C20.1606 79.2852 20.3858 79.446 20.3214 79.7033C20.1606 80.1536 19.3243 80.3787 19.0027 80.0571Z" stroke="white" stroke-width="0.321643"/>
<path d="M134.474 80.0571C134.056 79.639 134.249 79.2852 134.924 79.2852C135.278 79.2852 135.535 79.446 135.471 79.6711C135.31 80.1214 134.763 80.3466 134.474 80.0571Z" stroke="white" stroke-width="0.321643"/>
<path d="M158.211 79.9618C157.792 79.5437 158.178 79.3185 159.336 79.3507C160.108 79.3507 160.623 79.5115 160.623 79.7367C160.623 80.0905 158.532 80.3156 158.211 79.9618Z" stroke="white" stroke-width="0.321643"/>
<path d="M146.148 79.6068C146.148 79.446 146.438 79.2852 146.792 79.2852C147.146 79.2852 147.435 79.446 147.435 79.6068C147.435 79.7998 147.146 79.9284 146.792 79.9284C146.438 79.9284 146.148 79.7998 146.148 79.6068Z" stroke="white" stroke-width="0.321643"/>
<path d="M129.68 77.7415C129.648 77.6128 128.876 76.9374 128.008 76.2298C127.075 75.49 126.625 74.911 126.882 74.8145C127.107 74.7502 127.525 75.0075 127.847 75.3935C128.137 75.7473 128.555 76.0689 128.78 76.0689C129.262 76.0689 130.195 77.0017 130.259 77.5485C130.324 78.031 129.873 78.1596 129.68 77.7415Z" stroke="white" stroke-width="0.321643"/>
<path d="M23.6679 76.7126C23.3462 76.1658 23.3462 76.0693 23.7643 76.0693C24.0217 76.0693 24.2468 76.3588 24.2468 76.7126C24.2468 77.0664 24.2146 77.3559 24.1503 77.3559C24.1182 77.3559 23.893 77.0664 23.6679 76.7126Z" stroke="white" stroke-width="0.321643"/>
<path d="M133.604 77.0336C133.604 76.8727 133.829 76.7119 134.086 76.7119C134.343 76.7119 134.568 76.8727 134.568 77.0336C134.568 77.2265 134.343 77.3552 134.086 77.3552C133.829 77.3552 133.604 77.2265 133.604 77.0336Z" stroke="white" stroke-width="0.321643"/>
<path d="M29.6186 75.8127C29.7151 75.4589 30.0689 75.1051 30.3905 75.0086C31.1946 74.7835 31.0338 75.3624 30.1332 75.9736C29.4899 76.3917 29.4578 76.3917 29.6186 75.8127Z" stroke="white" stroke-width="0.321643"/>
<path d="M25.8535 75.2657C25.8535 75.0084 25.9822 74.7832 26.143 74.7832C26.3038 74.7832 26.4968 75.0084 26.6255 75.2657C26.722 75.5551 26.6255 75.7481 26.336 75.7481C26.0787 75.7481 25.8535 75.523 25.8535 75.2657Z" stroke="white" stroke-width="0.321643"/>
<path d="M129.969 67.4818C129.583 67.0958 129.744 66.7741 130.227 66.935C130.484 67.0636 130.709 67.2566 130.709 67.4174C130.709 67.7712 130.259 67.8034 129.969 67.4818Z" stroke="white" stroke-width="0.321643"/>
<path d="M29.7148 61.7885C29.7148 61.5312 29.8757 61.2096 30.0365 61.1131C30.2295 61.0166 30.3581 61.1453 30.3581 61.4026C30.3581 61.6599 30.2295 61.9815 30.0365 62.078C29.8757 62.1745 29.7148 62.0459 29.7148 61.7885Z" stroke="white" stroke-width="0.321643"/>
<path d="M33.8945 53.361C33.8945 52.8142 34.4413 52.2031 34.6665 52.5247C34.763 52.6855 34.6343 53.0072 34.377 53.2323C34.1197 53.4575 33.8945 53.5218 33.8945 53.361Z" stroke="white" stroke-width="0.321643"/>
<path d="M35.2469 50.9499C35.3112 50.7248 35.5685 50.4675 35.7937 50.4031C36.051 50.3066 36.1796 50.4353 36.0832 50.6926C36.0188 50.9178 35.7615 51.1751 35.5364 51.2394C35.279 51.3359 35.1504 51.2072 35.2469 50.9499Z" stroke="white" stroke-width="0.321643"/>
<path d="M40.6484 44.0329C40.6484 43.7434 40.8093 43.5826 41.0344 43.6469C41.6134 43.8399 41.7099 44.5475 41.1631 44.5475C40.8736 44.5475 40.6484 44.3223 40.6484 44.0329Z" stroke="white" stroke-width="0.321643"/>
<path d="M116.943 44.0009C116.524 43.2611 116.717 42.9395 117.586 42.9395C118.293 42.9395 118.326 43.2611 117.714 44.0652C117.296 44.6442 117.264 44.6442 116.943 44.0009Z" stroke="white" stroke-width="0.321643"/>
<path d="M115.785 42.7144C115.431 42.3606 115.592 41.9746 116.074 41.9746C116.332 41.9746 116.557 42.1033 116.557 42.2641C116.557 42.6822 116.042 42.9717 115.785 42.7144Z" stroke="white" stroke-width="0.321643"/>
<path d="M46.1821 39.2734C46.2142 38.9517 46.4394 38.7266 46.6002 38.7266C47.0827 38.7587 46.9862 39.4985 46.5037 39.6593C46.2142 39.7558 46.0856 39.595 46.1821 39.2734Z" stroke="white" stroke-width="0.321643"/>
<path d="M74.1016 33.1619C74.1016 32.9368 74.2945 32.5508 74.5519 32.3256C74.8092 32.1326 74.9378 31.7467 74.8413 31.4894C74.7127 31.1677 74.8413 31.1034 75.1951 31.232C75.8384 31.4894 75.8384 31.811 75.2273 32.3256C74.97 32.5508 74.7448 32.9368 74.7448 33.1619C74.7448 33.4192 74.6162 33.6122 74.4232 33.6122C74.2624 33.6122 74.1016 33.4192 74.1016 33.1619Z" stroke="white" stroke-width="0.321643"/>
<path d="M84.071 33.2903C84.071 33.1295 83.8137 32.7435 83.4921 32.4219C83.1704 32.1002 82.3985 31.1996 81.7874 30.3955C80.4686 28.6586 81.4336 29.2698 83.3634 31.3926C84.6822 32.84 85.036 33.612 84.3927 33.612C84.2319 33.612 84.071 33.4833 84.071 33.2903Z" stroke="white" stroke-width="0.321643"/>
<path d="M76.8997 29.6239C77.2214 29.2058 77.6073 28.9163 77.736 29.0128C78.0255 29.2058 77.0606 30.3958 76.6103 30.3958C76.4494 30.3958 76.5781 30.042 76.8997 29.6239Z" stroke="white" stroke-width="0.321643"/>
<path d="M65.8032 29.3667C65.964 28.8843 66.7038 28.6269 66.7038 29.0451C66.7038 29.2059 66.4786 29.4632 66.1892 29.5597C65.8675 29.6884 65.7389 29.5919 65.8032 29.3667Z" stroke="white" stroke-width="0.321643"/>
<path d="M79.0531 28.0479C78.7637 27.276 79.2461 26.6327 79.6321 27.3403C79.8573 27.6941 79.8251 28.0158 79.5999 28.2409C79.3748 28.4661 79.214 28.4339 79.0531 28.0479Z" stroke="white" stroke-width="0.321643"/>
<path d="M76.1267 27.9197C74.1004 27.7267 74.4542 27.3086 76.5127 27.4372C77.4776 27.5016 78.2174 27.6946 78.0888 27.8554C77.9923 28.0162 77.8314 28.1127 77.7028 28.0805C77.5741 28.0484 76.8665 27.984 76.1267 27.9197Z" stroke="white" stroke-width="0.321643"/>
<path d="M81.1758 27.6622C81.1758 27.4048 81.3366 27.1797 81.4974 27.1797C81.6904 27.1797 81.8191 27.4048 81.8191 27.6622C81.8191 27.9195 81.6904 28.1446 81.4974 28.1446C81.3366 28.1446 81.1758 27.9195 81.1758 27.6622Z" stroke="white" stroke-width="0.321643"/>
<path d="M83.1055 27.6622C83.1055 27.4048 83.3949 27.1797 83.7488 27.1797C84.5207 27.1797 84.6172 27.6622 83.8774 27.9516C83.1698 28.2411 83.1055 28.2089 83.1055 27.6622Z" stroke="white" stroke-width="0.321643"/>
<path d="M79.0215 24.2852C79.0215 23.0307 79.1501 22.4518 79.3431 22.6448C79.7934 23.0951 79.8256 25.5396 79.4075 25.8934C79.118 26.1185 79.0215 25.7004 79.0215 24.2852Z" stroke="white" stroke-width="0.321643"/>
<path d="M82.0124 23.4805C81.4978 23.0945 81.4656 22.998 81.8838 22.998C82.1411 22.998 82.5592 23.2232 82.7844 23.4805C83.299 24.0916 82.8165 24.0916 82.0124 23.4805Z" stroke="white" stroke-width="0.321643"/>
<path d="M76.3516 23.3197C76.3516 23.1589 76.5767 22.998 76.834 22.998C77.0913 22.998 77.3165 23.1589 77.3165 23.3197C77.3165 23.5127 77.0913 23.6413 76.834 23.6413C76.5767 23.6413 76.3516 23.5127 76.3516 23.3197Z" stroke="white" stroke-width="0.321643"/>
<path d="M77.1554 21.39C77.059 21.2292 77.2519 21.0684 77.6379 21.0684C78.0239 21.0684 78.2169 21.2292 78.1204 21.39C78.0239 21.583 77.7987 21.7116 77.6379 21.7116C77.4771 21.7116 77.2519 21.583 77.1554 21.39Z" stroke="white" stroke-width="0.321643"/>
<path d="M79.1502 21.5187C78.8285 21.1649 78.8607 20.1035 79.2145 20.1035C79.6969 20.1035 79.8256 20.5217 79.6005 21.1649C79.4718 21.4866 79.2788 21.6474 79.1502 21.5187Z" stroke="white" stroke-width="0.321643"/>
<path d="M81.0164 21.3584C80.6304 20.7472 81.1772 20.6186 81.724 21.1654C82.2386 21.68 82.2386 21.7122 81.7562 21.7122C81.4667 21.7122 81.1129 21.5513 81.0164 21.3584Z" stroke="white" stroke-width="0.321643"/>
<path d="M78.989 19.3961C78.7638 19.1709 78.7316 18.8493 78.9246 18.4955C79.1819 18.013 79.0533 17.8844 78.2813 17.7235C77.7345 17.6271 77.3164 17.4019 77.3164 17.2411C77.3164 17.0481 77.5416 16.9838 77.7989 17.0803C78.3778 17.3054 79.3106 16.63 79.0533 16.2118C78.9568 16.051 78.603 16.0832 78.2492 16.2761C77.8632 16.4691 77.5094 16.5335 77.3807 16.437C77.0913 16.1475 77.8954 15.4399 78.5387 15.4399C78.9246 15.4399 79.1498 15.0861 79.2784 14.3141C79.5036 13.1562 79.6322 13.2527 79.6966 14.6358C79.7287 15.0861 79.9217 15.472 80.2112 15.472C80.4685 15.5042 80.8866 15.5364 81.1118 15.5685C81.3048 15.5685 81.4978 15.858 81.4978 16.1475C81.4978 16.5656 81.4013 16.5978 81.1118 16.3083C80.565 15.7615 79.8896 15.8258 79.8896 16.4048C79.8896 16.6621 80.179 16.8873 80.5328 16.8873C81.4013 16.8873 81.3691 17.8522 80.5007 18.0774C80.1469 18.1738 79.9217 18.4312 80.0182 18.6885C80.2434 19.2996 79.4393 19.8464 78.989 19.3961Z" stroke="white" stroke-width="0.321643"/>
<path d="M79.1831 10.6151C79.1509 9.45718 79.1831 8.52441 79.3439 8.52441C79.4726 8.52441 79.5691 9.45718 79.5691 10.6151C79.5691 11.773 79.5047 12.7058 79.4404 12.7058C79.3761 12.7058 79.2474 11.773 79.1831 10.6151Z" stroke="white" stroke-width="0.321643"/>
<path d="M79.2147 7.71975C79.1825 7.52676 79.2147 7.07646 79.2469 6.69049C79.279 6.1437 79.1182 5.95071 78.6357 5.95071C78.1854 5.95071 77.9603 6.1437 77.9603 6.594C77.9603 6.94781 77.8316 7.23728 77.703 7.23728C77.5421 7.23728 77.4457 6.91564 77.4457 6.52967C77.4778 5.95071 77.317 5.82205 76.738 5.88638C76.2556 5.91855 76.0304 5.82205 76.0948 5.56474C76.1912 5.33959 76.8345 5.11444 77.5743 5.05011C78.5714 4.98578 78.9574 4.7928 79.1182 4.27817C79.2469 3.89219 79.1504 3.50622 78.893 3.31324C78.5392 3.08809 78.5392 2.95943 78.8609 2.83077C79.086 2.76644 79.2469 2.12316 79.2469 1.41554C79.2469 0.740091 79.4077 0.161133 79.5685 0.161133C79.8901 0.161133 80.051 1.96234 79.9223 3.73137C79.858 4.50332 79.9866 4.59981 81.3697 4.85712C82.206 5.01795 82.9458 5.33959 83.0422 5.5969C83.1709 5.95071 82.9779 6.01504 82.1738 5.85422C81.241 5.66123 81.1767 5.6934 81.3697 6.43318C81.4984 6.91564 81.434 7.23728 81.2089 7.23728C81.0159 7.23728 80.8551 6.94781 80.8551 6.56183C80.8551 5.72556 80.0831 5.91855 79.9545 6.78698C79.8258 7.4946 79.279 8.17005 79.2147 7.71975Z" stroke="white" stroke-width="0.321643"/>
</svg>
