<svg width="1439" height="935" viewBox="0 0 1439 935" fill="none" xmlns="http://www.w3.org/2000/svg">
<path d="M972.912 933.49L1438.09 933.329L1438.01 611.825C1437.93 434.966 1438.09 226.698 1438.33 148.98C1438.5 71.2615 1438.42 6.10714 1438.01 4.25479L1437.37 0.872257L1235.14 0.630649C773.583 0.0668909 0.75097 0.630639 0.670434 1.43601C0.187212 4.2548 0.428821 931.235 0.831505 931.96C1.79795 933.49 54.2275 933.812 296.321 933.731C412.617 933.651 717.046 933.57 972.912 933.49Z" stroke="white" stroke-width="0.805369"/>
<path d="M1069.15 929.624C1068.75 929.14 963.247 928.255 933.77 928.416C902.763 928.657 389.904 928.899 310.817 928.738C283.596 928.657 254.602 928.577 246.388 928.657C238.173 928.657 180.106 928.657 117.367 928.577H3.16614V880.496C3.0856 745.114 3.24667 666.187 3.64936 656.765C4.69634 626.805 5.42117 358.375 4.45473 342.268C4.13258 335.825 3.64936 277.677 3.48828 213.006C3.32721 148.335 3.0856 74.8855 2.84399 49.758C2.60238 24.1472 2.76345 3.85193 3.16614 3.61032C4.05204 3.04656 149.663 3.04656 150.549 3.61032C151.596 4.25461 399.005 4.33515 405.851 3.69086C411.408 3.20763 627.649 3.1271 653.099 3.61032C661.314 3.77139 681.448 4.17408 697.797 4.57676C730.656 5.30159 772.616 5.30159 888.267 4.41569C980.401 3.77139 977.179 3.77139 1084.37 4.013C1131.33 4.09354 1227.89 3.93247 1299 3.77139C1370.12 3.52978 1429.88 3.61032 1431.89 3.93247L1435.52 4.41569L1435.43 37.0331C1435.43 54.9929 1435.19 81.8117 1434.87 96.6304C1434.55 111.449 1434.31 141.892 1434.39 164.281C1434.39 186.671 1434.63 341.785 1434.87 508.979C1435.03 676.174 1435.35 838.778 1435.35 870.349C1435.52 916.255 1435.27 927.932 1434.47 928.738C1433.66 929.543 1398.87 929.785 1251.41 929.865C1151.38 929.865 1069.31 929.785 1069.15 929.624ZM876.992 927.288C894.065 926.483 984.83 926.644 1039.68 927.449C1107.97 928.496 1401.21 928.255 1425.77 927.127L1433.74 926.724L1433.02 843.288C1432.37 761.463 1432.21 701.382 1432.62 687.771C1432.78 683.986 1432.78 670.939 1432.78 658.778C1432.7 646.617 1432.7 591.369 1432.86 535.959C1432.94 480.63 1432.94 357.892 1432.86 263.342C1432.78 168.792 1432.86 89.2211 1433.02 86.5633C1433.5 80.2815 1433.74 6.34857 1433.26 5.94589C1433.1 5.70428 1374.39 5.62374 1302.95 5.62374C1231.43 5.70428 1134.39 5.62374 1087.19 5.46267C1040 5.30159 989.824 5.30159 975.649 5.38213C961.475 5.5432 917.985 5.86535 879.005 6.10696C788.079 6.8318 721.636 6.67072 684.106 5.78482C659.461 5.22106 448.777 5.22106 318.065 5.86535C300.106 5.94589 222.468 5.78482 145.555 5.46267C60.8306 5.14052 5.42117 5.22106 5.17956 5.70428C4.69634 6.34857 4.69634 72.8721 5.17956 106.295C5.34063 121.275 5.42117 181.838 5.34063 215.02C5.17956 255.047 5.90439 331.315 6.54869 341.06C7.35406 353.946 7.51513 475.396 6.70976 514.214C6.146 542.885 5.98493 571.476 5.17956 781.436L4.6158 926.966H113.26C172.938 926.966 233.582 926.966 247.998 927.047C277.072 927.288 284.401 927.288 536.884 927.288C634.817 927.369 715.193 927.53 715.354 927.771C715.998 928.416 861.528 928.013 876.992 927.288Z" stroke="white" stroke-width="0.805369"/>
<path d="M31.6757 922.375C28.2932 919.557 27.1656 916.094 27.8099 910.053C28.2932 904.818 28.2126 904.335 26.5213 902.966C24.9106 901.678 24.0247 901.597 20.32 902.241C14.8435 903.208 12.3469 902.563 9.44752 899.422C6.22604 895.959 6.30658 891.771 9.76967 888.308C12.0247 886.053 12.7495 885.812 15.4878 886.134C17.1791 886.375 19.112 887.261 19.6757 888.067C21.0448 889.919 22.0113 889.033 21.4475 886.456C20.4811 882.912 16.6153 878.724 13.6354 878.161C10.4945 877.516 9.6086 876.631 9.6086 874.053C9.6086 871.315 10.9777 871.154 13.9576 873.409C17.2596 875.906 21.1254 881.704 22.8972 886.617C23.9442 889.597 23.9442 890.402 22.9777 892.738C21.9307 895.154 18.8703 897.812 17.9844 896.926C17.4207 896.362 18.5482 893.946 19.3536 893.946C20.8032 893.946 20.0784 890.966 18.226 889.275C15.8905 887.1 14.4408 887.02 11.7026 889.194C8.88376 891.449 8.80323 895.637 11.622 898.375C12.669 899.503 13.9576 900.389 14.5213 900.389C15.0046 900.389 14.5213 899.664 13.3133 898.698C10.8972 896.845 10.4945 893.141 12.5079 891.449C13.6354 890.563 13.716 890.724 13.2328 893.302C12.7495 895.798 12.9911 896.362 14.8435 897.892C16.0515 898.778 17.5818 899.584 18.226 899.584C20.32 899.584 24.5079 897.087 26.6824 894.51C29.5818 891.127 29.6623 893.302 26.8435 897.49C25.0717 900.147 24.9911 900.389 26.3603 899.664C29.5012 897.973 33.0448 889.919 30.1455 891.047C29.2596 891.369 28.9375 890.886 28.9375 889.436C28.9375 887.745 29.2596 887.503 30.5482 887.906C31.4341 888.147 32.1589 888.067 32.1589 887.664C32.1589 887.261 31.4341 886.698 30.5482 886.456C29.6623 886.214 28.9375 885.329 28.9375 884.443C28.9375 883.557 28.3737 882.429 27.7294 881.865C27.0851 881.302 26.5213 880.496 26.5213 880.013C26.5213 879.53 24.4274 875.986 21.7697 872.201C12.1858 858.188 10.575 853.194 11.7026 840.389C12.1052 835.959 12.3469 810.268 12.1858 783.208C12.1052 756.228 12.0247 681.006 12.1052 616.094C12.1052 551.181 12.1052 497.382 12.1052 496.496C12.1052 495.61 12.1052 482.563 12.1052 467.503C12.1052 445.194 11.7026 123.208 11.622 87.7715C11.622 76.2547 12.3469 73.9997 19.9979 62.4829C22.2529 59.0198 24.1052 56.04 24.1052 55.8789C24.1052 55.6373 24.7495 54.5098 25.4744 53.3822C27.6489 50.0802 28.9375 45.8923 28.9375 41.946C28.9375 38.9661 28.5348 38.0802 26.0381 35.8252C22.7361 32.7648 17.2596 31.5567 15.1656 33.4896C14.5213 34.1339 13.1522 34.6171 12.1858 34.6171C10.3334 34.6171 9.76967 36.6306 11.4609 37.2749C12.1052 37.5165 11.9442 37.9997 10.8972 38.8051C9.68913 39.7715 9.52806 40.2547 10.3334 41.7044C10.8972 42.8319 12.0247 43.4762 13.2328 43.4762C15.4073 43.4762 15.8099 44.201 14.2797 45.7312C11.3804 48.6306 7.19249 44.2816 7.19249 38.4024C7.19249 35.342 7.59517 34.4561 9.93074 32.4426C13.2328 29.4628 19.5952 28.2547 21.6891 30.1876C22.414 30.8319 23.622 31.3957 24.3469 31.3957C27.3267 31.3957 32.9643 39.691 32.9643 44.04C32.9643 47.503 28.7764 55.3957 23.622 61.6775C19.9173 66.1876 19.0314 69.9728 18.9509 82.1339C18.8703 90.3487 19.112 91.9594 20.8838 96.2279C22.0113 98.8856 24.4274 103.235 26.1187 105.812C34.0918 117.731 35.9442 123.449 33.7697 129.006C32.6422 131.745 28.0515 138.107 25.7965 139.959C22.2529 142.859 18.4677 139.315 18.4677 133.114C18.4677 129.248 19.4341 127.637 21.367 128.362C22.414 128.765 22.575 129.087 21.8502 129.812C20.32 131.342 20.7227 135.127 22.4945 136.094C25.2328 137.543 28.6958 134.644 31.3536 128.523C33.9307 122.725 32.7227 118.456 25.9576 108.872C19.6757 100.013 16.0515 90.3487 16.0515 82.3755C16.0515 77.5433 15.1656 75.852 14.1187 78.5903C13.1522 81.0869 13.6354 93.9728 14.8435 98.644C16.5348 105.087 20.32 113.141 23.7026 117.167C27.3267 121.678 29.9039 126.751 29.2596 128.282C28.8569 129.329 28.2932 129.006 26.2797 126.51C19.9173 118.778 16.0515 112.738 16.0515 110.725C16.0515 109.355 15.6489 108.711 15.0851 108.953C14.2797 109.194 14.0381 140.04 13.9576 259.396C13.8771 341.946 13.7965 481.436 13.716 569.382C13.6354 736.98 14.1187 822.993 15.1656 824.12C15.5683 824.523 16.0515 823.879 16.3737 822.671C16.6958 821.543 19.1925 817.114 22.0918 812.926C24.9106 808.738 27.4878 804.631 27.7294 803.745C28.2932 801.973 29.7428 801.57 29.7428 803.181C29.7428 803.745 29.1791 805.033 28.4542 806.08C27.1656 807.933 27.1656 807.933 28.8569 806.966C30.4677 806.161 30.6287 806.161 29.8234 807.53C29.4207 808.335 28.0515 810.027 26.763 811.396C18.4677 820.094 13.0717 834.751 14.1187 845.785C14.3603 849.006 14.6824 852.469 14.763 853.436C15.0046 857.785 15.8905 855.53 16.4542 849.087C17.2596 839.342 19.9173 832.577 27.4073 821.785C33.4475 812.926 34.0918 806 29.4207 799.073C26.6019 794.886 24.9911 794.161 22.8972 796.174C21.6086 797.463 21.6086 797.704 22.8166 798.51C23.5415 799.073 23.7831 799.798 23.2999 800.201C22.9777 800.604 22.4945 801.812 22.3334 802.939C22.1724 804.067 21.5281 804.953 20.8838 804.953C19.9979 804.953 19.6757 803.745 19.5146 799.879C19.3536 795.449 19.5146 794.563 21.2059 792.872C22.414 791.664 23.7026 791.1 24.7495 791.422C28.5348 792.389 33.6891 800.443 34.3334 806.483C34.8166 810.51 33.6086 814.617 30.6287 819.61C20.7227 835.798 19.9979 837.49 18.7898 844.818L18.226 848.443L20.9643 845.704C24.4274 842.241 30.8703 839.181 34.6556 839.181C43.0314 839.181 51.7294 845.06 55.5146 853.355C57.9307 858.671 58.575 868.255 56.8032 872.443L55.5146 875.584L58.1724 874.859C59.5415 874.537 63.6489 874.214 67.1925 874.295C74.2797 874.375 78.065 875.745 83.2999 880.416C87.8905 884.362 90.9509 891.288 90.9509 897.57C90.9509 901.758 87.4073 908.201 83.7831 910.617C79.8368 913.275 78.7898 912.872 82.2529 910.053C87.1656 906.027 88.8569 902.483 88.8569 896.443C88.9375 881.785 74.2797 872.12 58.9777 876.631C56.7227 877.275 54.7093 878.402 54.3871 879.047C53.9039 880.335 51.4878 880.738 51.4878 879.449C51.4878 879.047 52.3737 877.436 53.4207 875.825C58.3334 868.657 56.6422 855.53 50.0381 847.879C47.0583 844.577 40.0515 840.872 36.1858 840.711C31.273 840.469 26.8435 842.241 22.414 846.268C18.6287 849.731 18.3066 850.375 18.3066 853.839C18.1455 861.248 22.1724 870.107 30.226 879.933C34.0113 884.443 35.3804 890.563 33.5281 894.429C31.8368 897.812 31.8368 897.973 33.2864 897.973C33.9307 897.973 34.7361 897.248 34.9777 896.282C35.5415 894.51 37.2328 894.59 37.6354 896.523C37.7965 897.248 37.1522 897.973 36.1858 898.214C35.1388 898.456 34.575 899.261 34.575 900.469C34.575 901.919 34.8166 902.08 35.5415 901.355C36.1052 900.792 37.5549 900.389 38.8435 900.389C40.6958 900.389 41.0985 900.067 40.6958 899.1C40.2932 897.973 40.6153 897.892 43.1925 898.375C49.3938 899.503 63.2462 907.959 61.0717 909.329C60.5079 909.651 60.4274 910.053 60.9911 910.375C61.4744 910.617 61.9576 910.456 62.1187 910.053C62.2797 909.49 63.5683 909.651 65.5818 910.537C70.8972 912.792 79.7563 914.08 85.0717 913.275C91.5146 912.389 93.4475 911.503 101.582 905.946C110.602 899.825 115.112 897.892 120.75 897.812C125.823 897.651 132.025 900.389 135.649 904.174C139.756 908.684 137.501 911.986 129.609 912.953C125.662 913.355 125.018 913.275 123.568 911.664L121.958 909.892L125.34 910.456C128.481 910.939 128.884 910.859 129.528 909.087L130.333 907.235L130.897 909.087C131.38 910.859 132.105 911.261 133.072 910.375C133.313 910.053 132.991 909.329 132.347 908.684C131.461 907.718 131.38 907.235 132.105 906.349C134.28 903.771 127.112 899.584 120.588 899.584C115.595 899.584 111.729 901.194 104.239 906.349C94.414 913.114 89.3401 915.127 81.0448 915.61L73.6354 916.094L78.6287 917.221C89.6623 919.637 100.052 916.738 114.146 907.315C121.716 902.322 123.971 901.194 123.971 902.644C123.971 903.933 121.555 905.946 118.333 907.396C117.689 907.637 116.803 908.362 116.481 909.006C116.159 909.57 115.434 910.053 114.951 910.053C114.468 910.053 113.421 910.617 112.696 911.261C111.971 911.906 108.911 913.678 105.85 915.208L100.374 917.946L137.34 918.51C172.132 918.993 243.407 919.073 401.823 918.751C439.273 918.671 484.374 918.671 502.092 918.671C519.81 918.751 535.756 918.671 537.528 918.51C542.844 918.107 595.595 918.107 806.924 918.59C1049.42 919.154 1281.04 919.154 1307.06 918.59C1317.45 918.349 1328.72 918.107 1332.02 918.107L1338.06 918.027L1334.04 916.255C1329.77 914.402 1320.91 908.845 1319.54 907.154C1319.06 906.671 1317.37 905.624 1315.68 904.98C1312.37 903.53 1311.73 902 1314.39 902C1316.64 902 1321.64 904.98 1325.9 908.845C1327.76 910.537 1332.02 912.792 1338.79 915.691C1341.93 916.98 1344.75 917.382 1351.27 917.543C1361.1 917.704 1362.71 916.577 1354.66 915.208C1347.17 913.919 1343.22 912.147 1334.36 906.349C1324.86 900.147 1323.49 899.584 1317.69 899.664C1311.89 899.745 1305.85 902.966 1305.85 906.107C1305.85 907.476 1306.25 908.04 1307.3 907.959C1308.11 907.879 1308.67 908.362 1308.67 909.248C1308.67 911.181 1310.12 911.584 1312.94 910.617C1315.76 909.651 1316.88 910.617 1314.79 912.147C1310.68 915.127 1300.62 912.228 1300.62 908.12C1300.62 905.463 1306.09 900.872 1311.81 898.698C1319.14 895.959 1323.65 897.248 1336.05 905.463C1342.41 909.651 1349.66 912.711 1354.98 913.516C1357.72 913.919 1357.96 913.839 1356.59 913.033C1355.7 912.469 1353.69 910.778 1352.08 909.248C1349.02 906.268 1347.33 901.114 1347.33 894.912C1347.41 888.469 1353.29 880.174 1360.53 876.389C1364.24 874.537 1365.53 874.295 1373.34 874.214H1381.96L1381.39 871.798C1380.11 866.805 1380.75 857.543 1382.68 853.114C1386.55 844.416 1396.13 838.456 1404.67 839.422C1409.42 839.986 1414.9 842.966 1417.72 846.59L1419.81 849.248V846.751C1419.81 842.724 1416.91 834.349 1413.69 829.114C1405.39 815.664 1404.43 813.731 1404.35 810.107C1404.27 804.872 1405.15 801.57 1407.81 797.221C1412.08 790.295 1416.43 789.248 1418.68 794.563C1420.21 798.107 1420.13 803.261 1418.6 804.55C1416.91 806 1416.02 804.792 1417.31 802.859C1417.88 801.892 1418.2 801.087 1418.04 801.087C1415.86 799.959 1414.82 799.073 1415.06 798.51C1415.22 798.027 1415.86 797.785 1416.43 797.785C1416.99 797.865 1417.39 797.382 1417.23 796.577C1417.07 795.771 1416.19 795.288 1414.66 795.288C1412.72 795.288 1411.76 796.013 1409.5 799.073C1404.43 806.241 1405.15 813.49 1412.08 823.073C1418.28 831.691 1422.23 842 1422.23 849.409C1422.23 853.275 1423.51 854.08 1424.32 850.778C1425.29 846.993 1424 834.027 1422.23 829.516C1420.45 825.006 1415.94 817.194 1411.27 810.671C1409.82 808.577 1408.53 806 1408.53 805.033C1408.62 803.342 1408.62 803.422 1410.23 805.275C1411.11 806.402 1412.64 807.691 1413.53 808.094C1415.54 809.141 1419.49 815.745 1422.23 822.671C1422.63 823.798 1423.35 824.684 1423.84 824.684C1424.4 824.684 1424.64 795.61 1424.56 734C1424.4 666.832 1424.64 643.154 1425.37 642.429C1426.01 641.785 1426.25 642.349 1426.25 644.765C1426.25 646.456 1426.25 686.886 1426.25 734.483C1426.25 782.08 1426.25 822.59 1426.25 824.523C1426.25 827.181 1425.93 827.906 1424.88 827.906C1423.68 827.906 1423.76 828.067 1425.13 829.033C1426.49 830.08 1426.66 831.208 1426.66 842.563V854.966L1423.68 861.006C1422.06 864.228 1419.33 868.657 1417.64 870.751C1412.08 877.678 1410.15 880.496 1410.15 881.785C1410.15 882.51 1409.58 883.798 1408.94 884.604C1405.72 888.872 1409.82 897.087 1416.35 899.261C1419.65 900.389 1419.41 900.469 1422.95 897.409C1424.4 896.12 1425.45 894.429 1425.45 893.302C1425.45 892.255 1425.77 891.691 1426.25 891.933C1427.46 892.657 1426.33 896.523 1424.56 898.134C1423.68 898.859 1423.35 899.664 1423.76 899.906C1424.72 900.55 1428.67 895.798 1428.67 893.946C1428.67 893.141 1427.94 891.691 1427.14 890.644C1425.77 888.953 1425.37 888.872 1423.92 889.758C1421.66 891.047 1421.5 890.966 1421.98 889.114C1422.95 885.409 1429.72 886.859 1430.76 891.047C1431.33 893.543 1429.8 899.02 1428.11 900.55C1424.56 903.61 1418.12 904.013 1413.21 901.516C1409.82 899.825 1408.94 900.067 1410.47 902.402C1412.08 904.818 1412.08 906.027 1410.55 906.027C1409.18 906.027 1408.86 908.845 1410.15 909.651C1410.63 909.892 1410.95 911.906 1410.95 914.08C1410.95 918.912 1408.21 922.617 1404.11 923.422C1400.4 924.067 1398.23 923.261 1396.78 920.443C1395.33 917.543 1395.57 914.966 1397.42 913.758C1399.11 912.711 1400.32 913.758 1399.03 915.047C1397.34 916.738 1397.9 919.718 1400.08 920.523C1402.9 921.57 1405.72 920.282 1407.25 917.221C1408.78 914.08 1408.94 912.308 1407.41 914.241C1406.44 915.53 1406.28 915.53 1405.55 913.839C1404.99 912.55 1403.46 911.745 1400.8 911.02C1395.81 909.731 1392.75 910.375 1389.21 913.436C1387.68 914.724 1386.87 915.61 1387.43 915.288C1387.92 915.047 1388.4 914.966 1388.4 915.208C1388.4 915.449 1387.19 916.255 1385.82 916.98C1383.25 918.268 1381.96 919.476 1381.96 920.765C1381.96 921.812 1383.81 921.409 1385.34 919.959C1386.63 918.832 1386.79 918.832 1386.79 919.879C1386.79 921.812 1384.62 923.181 1382.36 922.617C1379.38 921.892 1379.86 919.798 1384.13 915.288C1389.04 910.134 1392.83 907.959 1397.74 907.315C1402.01 906.751 1402.98 907.073 1404.43 909.892C1404.91 910.859 1405.88 911.664 1406.52 911.664C1408.78 911.664 1407.73 908.443 1404.27 904.818C1400.96 901.436 1400.48 901.194 1396.62 901.194C1392.02 901.194 1392.02 901.194 1378.41 911.503C1366.33 920.604 1369.23 920.04 1334.84 920.201C1210.25 920.845 1000.29 921.006 988.132 920.523C969.609 919.718 947.058 919.637 840.347 920.201C726.146 920.765 734.28 920.845 674.441 920.04C607.998 919.154 570.709 919.154 536.723 919.959C522.146 920.362 499.676 920.523 486.79 920.443C473.984 920.362 437.904 920.362 406.656 920.362C314.199 920.523 129.609 920.362 101.421 920.201C70.8166 919.959 70.4945 919.879 59.2193 911.342C51.2462 905.221 48.1858 903.61 43.273 902.724C38.2797 901.919 35.1388 903.449 32.0784 908.282C28.0515 914.563 29.5012 920.523 35.0583 920.523C40.6958 920.523 42.3066 918.107 39.8099 913.275C38.4408 910.698 36.4274 910.134 35.7026 912.067C35.3804 912.711 34.7361 913.275 34.1724 913.275C33.6086 913.275 32.8838 913.919 32.6422 914.644C32.2395 915.53 31.8368 915.691 31.273 915.127C29.1791 913.033 35.2193 907.637 39.6489 907.637C43.112 907.637 48.1858 910.295 53.5012 914.966C61.716 922.134 62.0381 923.181 56.0784 922.698C51.0046 922.375 49.8771 921.812 49.8771 919.637C49.8771 917.624 51.1656 917.704 52.2932 919.718C53.2596 921.49 56.32 921.892 56.32 920.282C56.32 918.349 45.0448 910.053 42.5482 910.053C40.3737 910.053 40.3737 910.134 41.1791 912.469C41.5818 913.839 42.3066 915.127 42.7093 915.369C43.112 915.61 43.4341 916.577 43.4341 917.624C43.4341 922.053 35.2193 925.355 31.6757 922.375ZM1374.71 911.1C1375.84 910.375 1378.74 908.04 1381.15 905.946C1387.35 900.631 1392.91 897.892 1397.18 898.295C1399.11 898.456 1401.04 899.02 1401.53 899.503C1402.82 900.792 1404.51 900.631 1404.02 899.181C1402.98 896.604 1396.45 894.51 1389.04 894.429C1384.29 894.349 1381.96 894.027 1381.96 893.463C1381.96 892.416 1390.33 891.127 1391.62 891.933C1392.02 892.174 1392.43 892.094 1392.43 891.61C1392.43 891.208 1391.62 890.644 1390.66 890.483C1389.29 890.241 1389.53 890.08 1391.46 890C1393.07 889.919 1394.6 890.483 1395.65 891.53C1397.74 893.624 1400.08 893.704 1399.27 891.771C1397.18 886.859 1397.66 875.986 1400 874.456C1401.69 873.248 1402.09 873.812 1401.69 876.872C1400.64 883.396 1400.72 886.456 1401.85 890.161C1403.38 894.993 1404.91 894.671 1404.99 889.436C1405.07 887.261 1405.64 884.201 1406.28 882.671C1407.49 880.013 1414.82 869.543 1417.72 866.322C1418.6 865.355 1419.17 862.698 1419.49 857.865L1420.05 850.778L1415.46 846.671C1410.15 841.758 1406.6 840.469 1400.88 841.033C1393.31 841.839 1388.32 845.704 1384.53 853.678C1382.76 857.302 1382.44 859.154 1382.6 864.228C1382.68 870.912 1383.65 874.053 1386.15 876.872C1387.76 878.483 1387.76 878.644 1386.39 878.644C1385.58 878.644 1384.21 878 1383.41 877.275C1382.28 876.308 1379.94 875.825 1374.79 875.584C1368.35 875.261 1367.14 875.422 1362.87 877.355C1353.85 881.543 1349.5 887.664 1349.42 896.362C1349.34 903.047 1351.27 907.637 1355.7 910.939C1358.92 913.355 1359.09 913.436 1365.85 912.872C1369.96 912.55 1373.5 911.825 1374.71 911.1ZM32.6422 903.53C33.2864 902.402 30.9509 900.067 29.8234 900.711C29.2596 901.114 29.2596 901.758 29.9844 902.805C31.0314 904.657 31.8368 904.818 32.6422 903.53ZM1408.21 896.604C1407.97 896.04 1407.33 895.557 1406.68 895.557C1405.39 895.557 1405.31 900.872 1406.52 902.805C1407.09 903.691 1407.41 903.288 1407.89 900.792C1408.29 899.1 1408.37 897.167 1408.21 896.604ZM12.9106 874.375C11.622 873.087 10.8166 874.375 12.1052 875.906C12.8301 876.792 13.3133 876.872 13.4744 876.228C13.6354 875.745 13.3938 874.859 12.9106 874.375Z" stroke="white" stroke-width="0.805369"/>
<path d="M1358.85 907.234C1353.21 904.818 1351.76 897.086 1355.7 890.321C1356.91 888.308 1358.36 886.697 1358.93 886.697C1359.57 886.697 1360.54 885.892 1361.18 884.925C1361.82 883.959 1362.71 883.475 1363.27 883.798C1364.56 884.603 1363.52 886.697 1361.74 886.697C1360.94 886.697 1360.21 887.019 1360.21 887.502C1360.21 887.905 1359.25 889.113 1358.04 890.241C1356.27 891.851 1355.87 893.14 1355.54 897.086C1355.22 901.435 1355.38 902.08 1357.23 903.932C1360.29 906.992 1364.24 906.751 1369.23 903.126C1373.66 899.986 1375.27 900.066 1372.29 903.207C1370.28 905.382 1364.48 908.442 1362.55 908.442C1361.91 908.361 1360.29 907.878 1358.85 907.234Z" stroke="white" stroke-width="0.805369"/>
<path d="M1383.97 889.919C1383.73 889.516 1384.21 889.113 1385.1 889.113C1386.07 889.113 1386.79 889.516 1386.79 889.919C1386.79 890.402 1386.31 890.724 1385.66 890.724C1385.02 890.724 1384.21 890.402 1383.97 889.919Z" stroke="white" stroke-width="0.805369"/>
<path d="M1383.81 886.697C1382.76 886.295 1381.96 885.57 1381.96 885.086C1381.96 884.684 1381.23 884.281 1380.43 884.281C1379.54 884.281 1378.58 883.878 1378.33 883.476C1377.61 882.348 1369.15 882.831 1368.11 884.039C1366.98 885.409 1365.04 885.328 1365.04 883.959C1365.04 882.429 1365.85 881.946 1369.23 881.462C1370.68 881.221 1372.7 880.899 1373.74 880.737C1374.71 880.576 1375.76 880.818 1376 881.221C1376.32 881.623 1377.37 881.784 1378.41 881.543C1380.02 881.14 1380.67 881.462 1381.8 883.476C1382.84 885.328 1383.65 885.892 1385.1 885.731C1386.15 885.57 1387.19 885.972 1387.35 886.536C1387.76 887.664 1386.39 887.744 1383.81 886.697Z" stroke="white" stroke-width="0.805369"/>
<path d="M1382.44 882.188C1382.12 881.463 1382.12 880.657 1382.28 880.416C1383.09 879.691 1385.18 881.06 1385.18 882.268C1385.18 883.879 1383.09 883.798 1382.44 882.188Z" stroke="white" stroke-width="0.805369"/>
<path d="M1389.37 877.677C1388 876.308 1388.16 873.006 1389.61 873.006C1390.33 873.006 1390.82 873.731 1390.82 874.858C1390.82 876.066 1391.54 877.113 1392.67 877.677L1394.44 878.563H1392.43C1391.22 878.643 1389.93 878.241 1389.37 877.677Z" stroke="white" stroke-width="0.805369"/>
<path d="M1392.43 874.214C1391.86 873.57 1391.78 873.006 1392.27 873.006C1392.67 873.006 1393.47 873.57 1394.04 874.214C1394.6 874.858 1394.68 875.422 1394.2 875.422C1393.8 875.422 1392.99 874.858 1392.43 874.214Z" stroke="white" stroke-width="0.805369"/>
<path d="M1388.4 869.704C1388.4 867.771 1390.25 868.013 1390.66 870.026C1390.82 870.832 1390.41 871.396 1389.69 871.396C1388.88 871.396 1388.4 870.671 1388.4 869.704Z" stroke="white" stroke-width="0.805369"/>
<path d="M1388.08 863.583C1388.4 861.892 1388.8 860.201 1389.13 859.718C1389.37 859.315 1389.61 858.429 1389.69 857.865C1390.09 855.53 1393.47 849.892 1395.57 848.281C1399.35 845.301 1404.67 844.255 1408.78 845.624C1415.86 848.12 1416.35 857.06 1409.82 864.389C1406.36 868.093 1405.64 866.644 1408.94 862.697C1410.07 861.328 1410.95 859.557 1410.95 858.59C1410.95 857.624 1411.35 856.899 1411.76 856.899C1412.24 856.899 1412.56 855.449 1412.56 853.758C1412.56 849.328 1409.82 847.234 1404.11 847.234C1400.32 847.234 1399.51 847.557 1396.62 850.295C1394.84 851.906 1393.15 854.161 1392.83 855.288C1392.51 856.416 1391.86 857.785 1391.38 858.429C1390.9 858.993 1390.41 860.12 1390.41 860.845C1390.33 861.57 1390.25 863.1 1390.17 864.389C1390.09 865.758 1389.53 866.563 1388.8 866.563C1387.76 866.563 1387.6 865.999 1388.08 863.583Z" stroke="white" stroke-width="0.805369"/>
<path d="M14.0392 920.764C10.4956 920.04 10.415 919.879 11.3009 917.301C11.9452 915.449 11.9452 914.563 11.2204 913.677C10.415 912.63 10.4956 912.147 11.6231 910.858C13.6365 908.603 15.6499 908.201 18.9519 909.248C21.5291 910.134 21.7707 910.456 21.2875 912.469C21.0459 913.677 21.1264 914.966 21.6097 915.207C23.0593 916.093 20.8043 919.556 18.2271 920.523C16.9385 920.926 15.811 921.248 15.7305 921.248C15.6499 921.167 14.9251 921.006 14.0392 920.764ZM19.5962 917.06C20.3211 915.932 20.16 915.368 18.6298 914.241C17.1801 913.113 17.0191 912.63 17.8244 911.825C18.5493 911.1 18.2271 910.858 16.2137 910.858C13.3144 910.858 12.0258 912.55 13.6365 914.402C14.2808 915.288 14.3613 916.013 13.6365 917.301C12.7506 918.912 12.9117 918.993 15.7305 918.751C17.5023 918.59 19.0325 917.946 19.5962 917.06Z" stroke="white" stroke-width="0.805369"/>
<path d="M1422.31 920.523C1416.35 919.557 1414.82 915.288 1418.92 910.698C1421.02 908.362 1421.42 908.201 1423.92 908.926C1427.78 910.053 1427.54 911.986 1423.51 912.228C1419.81 912.469 1419.97 912.308 1419.33 915.53C1418.84 917.704 1419.08 918.107 1420.94 918.59C1423.92 919.315 1425.45 918.51 1425.45 916.094C1425.45 914.886 1425.77 914.161 1426.17 914.402C1426.98 914.966 1427.22 921.409 1426.41 921.248C1426.09 921.167 1424.24 920.845 1422.31 920.523Z" stroke="white" stroke-width="0.805369"/>
<path d="M32.1602 917.301C32.1602 916.254 33.7709 916.254 35.3816 917.301C36.3481 917.946 36.1065 918.107 34.4152 918.107C33.1266 918.107 32.1602 917.785 32.1602 917.301Z" stroke="white" stroke-width="0.805369"/>
<path d="M199.677 911.905C195.73 910.053 193.878 909.812 182.764 909.489C172.133 909.167 169.153 909.328 162.63 910.778C153.368 912.872 149.099 913.033 150.549 911.342C152.16 909.328 151.274 906.429 149.019 906.429C146.12 906.429 144.992 908.765 146.844 910.778C148.375 912.469 148.375 912.469 146.683 912.469C145.153 912.469 143.301 910.375 143.301 908.684C143.301 907.154 146.683 904.416 148.455 904.416C150.952 904.416 154.576 907.315 154.576 909.328C154.576 911.02 154.173 911.1 164.24 908.765C172.536 906.832 185.422 906.832 193.636 908.765C197.18 909.65 200.401 910.617 200.885 911.02C201.287 911.342 202.334 911.664 203.301 911.583C204.75 911.583 204.75 911.503 202.979 910.778C200.401 909.731 201.368 908.926 204.428 909.65C207.167 910.214 207.73 911.986 205.556 913.194C204.509 913.677 202.818 913.275 199.677 911.905Z" stroke="white" stroke-width="0.805369"/>
<path d="M1231.27 912.792C1230.47 911.745 1230.47 911.423 1231.44 910.778C1232.89 909.892 1233.53 909.892 1235.46 910.859C1236.59 911.503 1238.28 911.262 1241.99 909.973C1245.69 908.765 1249.88 908.121 1257.21 907.879C1266.71 907.476 1272.27 908.04 1282.82 910.617C1284.43 911.02 1284.67 910.859 1284.27 909.731C1283.95 908.845 1284.51 907.557 1285.88 906.027C1289.26 902.161 1293.45 903.208 1294.42 908.201C1294.82 910.295 1294.58 910.939 1292.8 912.067C1291.44 913.033 1289.99 913.275 1288.21 912.953C1286.85 912.631 1283.22 912.067 1280.08 911.584C1277.02 911.181 1273.56 910.537 1272.43 910.215C1269.05 909.168 1253.83 909.087 1248.27 910.053C1245.45 910.537 1241.66 911.664 1239.89 912.55C1236.03 914.402 1232.72 914.483 1231.27 912.792ZM1292.56 910.134C1293.13 908.926 1292.97 908.201 1291.92 906.832C1290.63 905.302 1290.15 905.141 1288.7 905.946C1287.01 906.832 1286.28 909.973 1287.49 911.1C1288.54 912.228 1291.76 911.584 1292.56 910.134Z" stroke="white" stroke-width="0.805369"/>
<path d="M71.2193 906.832C67.5146 905.06 62.1186 900.792 62.8434 900.067C63.0851 899.825 65.179 900.872 67.5146 902.322C72.4273 905.463 77.0985 906.59 79.6757 905.221C83.5414 903.127 84.3468 896.04 81.2864 891.047C79.273 887.906 79.1119 886.053 80.9642 887.503C85.6354 891.449 86.1186 901.919 81.6891 906.027C79.1924 908.362 75.0851 908.684 71.2193 906.832Z" stroke="white" stroke-width="0.805369"/>
<path d="M1415.7 897.006C1415.14 895.959 1414.66 892.979 1414.66 890.241C1414.58 885.731 1414.82 885.087 1417.96 880.979C1424.24 872.926 1425.21 871.959 1426.58 872.442C1428.19 873.087 1428.27 876.228 1426.74 878.322C1425.77 879.61 1425.37 879.691 1424.48 878.805C1423.6 877.919 1423.68 877.516 1424.97 876.55C1425.85 875.986 1426.33 875.181 1426.01 874.939C1425.29 874.214 1423.03 876.147 1423.03 877.516C1423.03 878.161 1422.71 878.644 1422.39 878.644C1421.99 878.644 1420.86 879.852 1419.81 881.221C1418.04 883.557 1417.88 884.604 1417.96 890.885C1418.12 898.134 1417.39 900.147 1415.7 897.006Z" stroke="white" stroke-width="0.805369"/>
<path d="M39.7309 894.268C40.0531 893.462 39.7309 892.818 38.684 892.576C37.3148 892.254 37.0732 891.449 37.1537 886.133C37.1537 882.751 36.7511 879.69 36.2678 879.207C35.1403 878.08 35.0598 873.006 36.1873 873.006C38.2813 873.006 39.5699 877.194 39.6504 884.281C39.7309 888.227 40.0531 891.529 40.2947 891.529C40.5363 891.529 43.5967 890.805 47.0598 889.919C50.5229 889.033 53.7444 888.308 54.2276 888.308C55.9188 888.308 53.4222 889.677 49.8786 890.643C43.2746 892.576 43.7578 892.335 45.0464 893.221C46.0933 893.865 46.0933 894.026 45.0464 894.751C44.4021 895.154 42.7913 895.556 41.5027 895.556C39.7309 895.556 39.3282 895.234 39.7309 894.268Z" stroke="white" stroke-width="0.805369"/>
<path d="M50.6833 894.026C45.6094 893.462 46.3343 892.174 51.9719 891.852C54.4685 891.69 55.7571 892.013 56.8041 893.221C58.4148 894.993 58.898 894.912 50.6833 894.026Z" stroke="white" stroke-width="0.805369"/>
<path d="M54.7099 885.892C54.7099 885.489 54.1462 885.087 53.5019 885.087C52.0522 885.087 52.777 882.993 54.4683 882.348C55.1932 882.026 56.1596 882.429 56.8039 883.234C57.8509 884.603 57.8509 884.603 57.9314 883.315C57.9314 882.429 58.5757 881.865 59.5421 881.865C61.9583 881.865 61.475 883.154 58.2536 885.006C55.0321 886.939 54.7099 887.02 54.7099 885.892Z" stroke="white" stroke-width="0.805369"/>
<path d="M74.8453 885.489C74.2816 884.764 73.1541 884.442 72.0265 884.764C70.9796 885.006 69.9326 884.845 69.691 884.361C69.3688 883.878 68.0802 883.476 66.7916 883.476C65.5031 883.476 64.295 883.153 63.9729 882.751C63.4091 881.704 66.4695 880.818 67.7581 881.543C68.3219 881.945 69.2883 882.267 70.0131 882.429C75.087 883.314 76.5366 883.798 77.7447 885.167C79.0333 886.616 79.0333 886.697 77.5031 886.697C76.6172 886.697 75.4091 886.133 74.8453 885.489Z" stroke="white" stroke-width="0.805369"/>
<path d="M43.3536 879.691C43.112 877.677 43.6758 874.134 44.4006 873.409C44.9644 872.845 45.1254 873.328 44.7228 874.858C44.2395 876.872 44.4006 877.114 46.0114 876.872C47.2999 876.711 47.8637 876.067 47.8637 874.858C47.8637 873.812 48.2664 873.087 48.6691 873.248C50.1187 873.57 49.1523 876.55 46.9778 878.483C44.9644 880.254 43.5147 880.738 43.3536 879.691Z" stroke="white" stroke-width="0.805369"/>
<path d="M48.2672 869.141C48.2672 868.255 48.6699 867.369 49.1531 867.208C49.878 866.966 49.878 866.483 49.1531 865.194C48.6699 864.228 48.2672 862.536 48.2672 861.49C48.2672 860.362 47.7035 859.073 46.9786 858.429C46.3343 857.865 45.9317 856.818 46.0927 856.094C46.3343 855.288 45.2068 853.355 43.435 851.422C38.3612 845.946 30.9518 845.221 26.8444 849.731C24.9921 851.825 24.831 857.463 26.6028 858.751C28.2941 860.12 31.3545 864.63 31.3545 865.919C31.3545 866.483 29.5021 864.953 27.3276 862.536C23.8645 858.751 23.3008 857.624 23.3008 854.805C23.3008 849.57 28.133 844.818 33.3679 844.818C38.6833 844.818 45.69 850.053 48.3478 856.013C50.6833 861.167 51.3276 868.255 49.5558 869.704C48.4283 870.671 48.2672 870.59 48.2672 869.141Z" stroke="white" stroke-width="0.805369"/>
<path d="M22.2539 782.966C21.2069 781.838 21.0459 781.194 21.6902 780.791C22.9788 779.986 24.3479 781.516 23.9452 783.207C23.7036 784.496 23.5425 784.416 22.2539 782.966Z" stroke="white" stroke-width="0.805369"/>
<path d="M25.7177 782.805C25.7177 781.919 26.1203 780.47 26.6841 779.664C27.7311 777.892 27.0868 775.718 25.2344 774.993C24.268 774.671 23.221 775.235 21.9324 776.684C20.2412 778.698 20.0801 778.698 20.0801 777.248C20.0801 776.282 21.0465 770.725 22.2546 764.926C23.8653 756.711 24.3485 752.04 24.3485 744.792C24.268 735.772 22.7378 727.557 20.7244 725.06C19.4358 723.53 20.3217 718.859 21.9324 718.537C22.8989 718.376 23.3016 718.778 23.3016 719.986C23.3016 720.953 22.9794 721.436 22.4962 721.194C22.0935 720.953 21.6908 721.114 21.6908 721.597C21.6908 722.08 22.2546 722.403 22.9794 722.241C23.7848 722.08 24.5096 722.483 24.6707 723.047C24.9123 723.53 24.5096 724.013 23.7848 724.013C22.2546 724.013 22.2546 724.335 23.3016 726.268C24.8318 729.007 26.523 739.396 26.523 745.919C26.523 749.866 25.7177 756.55 24.5096 762.268C22.0935 773.866 22.174 773.141 23.9459 773.141C27.8922 773.141 30.4693 779.584 27.8116 783.047C26.4425 784.899 25.7177 784.819 25.7177 782.805Z" stroke="white" stroke-width="0.805369"/>
<path d="M1412.16 783.369C1409.99 781.677 1409.74 776.765 1411.76 774.751C1414.09 772.416 1417.64 772.657 1419.01 775.154C1420.46 777.812 1419.57 778.536 1417.48 776.442C1415.46 774.429 1415.06 774.348 1412.72 776.04C1410.47 777.57 1410.47 778.858 1412.88 781.114C1414.58 782.724 1414.9 782.805 1416.03 781.597C1417.56 780.067 1418.76 781.516 1417.39 783.207C1416.19 784.738 1414.09 784.738 1412.16 783.369Z" stroke="white" stroke-width="0.805369"/>
<path d="M1416.19 766.939C1413.21 755.342 1412.64 751.556 1412.56 744.55C1412.56 740.442 1413.13 735.127 1413.85 732.469C1414.5 729.811 1414.9 726.832 1414.74 725.785C1414.5 724.657 1414.82 723.691 1415.46 723.449C1416.75 722.966 1416.99 720.791 1415.78 720.791C1415.38 720.791 1414.98 720.228 1414.98 719.583C1414.98 717.65 1417.07 718.214 1418.04 720.469C1418.84 722.16 1418.76 723.127 1417.39 726.268C1413.69 735.207 1413.53 747.771 1416.91 762.429C1419.25 772.577 1419.25 772.335 1418.28 772.335C1417.96 772.335 1416.99 769.919 1416.19 766.939Z" stroke="white" stroke-width="0.805369"/>
<path d="M1425.13 640.255C1424.48 638.483 1424.16 562.939 1424.72 562.939C1425.77 562.939 1426.01 568.174 1426.17 595.799C1426.25 611.181 1426.49 627.208 1426.66 631.396C1426.9 635.584 1426.66 639.611 1426.25 640.255C1425.61 641.302 1425.45 641.302 1425.13 640.255Z" stroke="white" stroke-width="0.805369"/>
<path d="M1423.68 557.946C1423.27 554.08 1423.35 549.651 1424.32 500.12C1425.13 461.463 1425.13 327.771 1424.32 204.147C1423.68 101.785 1423.76 107.906 1423.11 107.906C1422.23 107.906 1420.78 111.933 1421.5 112.416C1422.87 113.221 1422.23 114.429 1420.62 113.946C1419.49 113.543 1419.01 113.785 1419.01 114.671C1419.01 115.396 1419.33 115.959 1419.81 115.959C1420.21 115.959 1419.97 116.684 1419.17 117.57C1418.44 118.456 1417.72 118.859 1417.56 118.375C1417.39 117.892 1416.51 118.939 1415.62 120.711C1414.74 122.563 1413.69 124.013 1413.29 124.013C1412.88 124.013 1412.56 124.657 1412.56 125.543C1412.56 127.315 1410.55 129.167 1409.34 128.443C1408.05 127.637 1408.29 126.993 1412.72 120.308C1421.74 106.375 1423.84 100.818 1423.84 90.4292C1423.84 82.8587 1423.19 77.3017 1422.31 77.3017C1421.99 77.3017 1421.66 79.7983 1421.66 82.7782C1421.66 86.3218 1420.94 90.3487 1419.81 93.8923C1417.96 99.3688 1416.83 101.463 1410.07 112.335C1406.76 117.651 1406.52 118.295 1406.52 123.691C1406.52 128.926 1406.76 129.812 1409.34 133.597C1410.87 135.852 1412.64 137.704 1413.21 137.704C1413.77 137.704 1414.09 137.382 1413.77 136.98C1413.53 136.496 1414.09 135.449 1415.06 134.563C1416.35 133.436 1416.67 132.389 1416.27 130.939C1415.7 128.604 1417.07 127.396 1418.6 128.926C1419.41 129.812 1419.49 131.1 1418.92 134.886C1418.44 137.463 1417.72 140.12 1417.23 140.684C1414.82 143.664 1409.74 139.959 1406.04 132.389C1403.86 127.959 1403.54 126.671 1403.94 123.288C1404.43 119.181 1407.17 113.06 1410.95 107.503C1416.35 99.5299 1420.62 87.852 1419.65 83.2614C1419.41 82.0533 1418.92 82.5366 1417.39 85.1943C1415.86 87.9325 1414.41 89.1406 1410.47 91.0735C1407.73 92.3621 1404.19 93.4091 1402.58 93.4091C1395.17 93.4091 1386.31 87.4493 1382.68 79.9594C1380.35 75.1272 1378.98 65.3822 1380.03 61.3554L1380.83 58.295L1373.82 58.6171C1367.46 58.9393 1366.33 58.7782 1362.15 56.7648C1355.7 53.7044 1350.23 47.9862 1348.62 42.5903C1347.01 37.2748 1347.01 35.1809 1348.54 29.946C1349.42 27.0466 1350.87 24.7111 1353.21 22.456L1356.59 19.154L1352.56 19.7178C1347.17 20.4426 1341.61 23.0198 1333.8 28.4963C1326.63 33.5701 1322.12 35.4225 1317.21 35.4225C1310.6 35.4225 1299.41 27.9325 1299.97 23.9862C1300.29 21.409 1304.08 19.8788 1310.28 19.7983C1314.63 19.7178 1315.52 19.9594 1315.76 21.1674C1316.08 22.6976 1313.34 24.1473 1312.86 22.6976C1312.37 21.1674 1309.64 21.5701 1307.78 23.4225C1303.52 27.6909 1309.56 33.409 1318.33 33.3285C1323.41 33.248 1327.68 31.3151 1334.44 26.1607C1342.66 19.7983 1348.45 17.6238 1357.64 17.3822C1362.55 17.3017 1363.76 16.0131 1359.81 15.2077C1354.5 14.0802 1346.44 14.4829 1341.45 16.1741C1334.84 18.3486 1327.11 22.2144 1325.42 24.2278C1324.7 25.0332 1323.73 25.758 1323.33 25.758C1322.92 25.758 1322.12 26.2413 1321.64 26.8856C1320.03 28.8184 1314.63 31.3151 1313.5 30.5903C1312.45 29.946 1312.54 29.946 1316 27.7715C1316.72 27.3688 1319.3 25.5164 1321.64 23.6641C1324.05 21.8923 1328.24 19.3151 1331.06 17.946C1333.8 16.4963 1335.73 15.2077 1335.41 14.9661C1333.47 13.8386 1285.72 13.3554 1173.37 13.3554C1105.8 13.4359 1013.58 13.4359 968.401 13.3554C860.804 13.2748 799.274 13.4359 773.502 13.758C761.985 13.9191 740.965 13.758 726.79 13.4359C712.616 13.0332 693.529 12.7916 684.347 12.7916C673.636 12.8721 667.596 12.55 667.596 12.0668C667.596 11.3419 688.616 10.6171 691.757 11.2614C692.401 11.3419 829.394 11.5835 996.186 11.6641C1162.98 11.7446 1313.1 11.9057 1329.85 11.9862C1367.38 12.2278 1366.01 11.9057 1378.66 21.8923C1386.63 28.2547 1391.78 30.7513 1396.94 30.9124C1401.77 30.9929 1404.27 29.2211 1407.01 23.9862C1411.11 16.0131 1403.46 6.75133 1398.15 13.1943C1396.78 14.805 1397.9 14.8856 1399.6 13.3554C1401.53 11.5835 1405.23 12.6305 1406.2 15.2077C1407.41 18.2681 1406.36 22.295 1404.03 23.8252C1401.61 25.4359 1395.81 25.0332 1391.22 22.9393C1384.13 19.7178 1377.69 12.6305 1379.78 10.5366C1381.23 9.0869 1382.2 9.57012 1381.64 11.503C1381.31 12.7916 1381.8 13.9997 1383.25 15.6104C1384.37 16.8184 1385.5 17.6238 1385.74 17.3822C1386.39 16.8184 1385.18 13.6775 1384.29 13.6775C1383.89 13.6775 1383.57 13.1137 1383.57 12.4695C1383.57 11.8252 1383.81 11.2614 1384.21 11.2614C1385.58 11.3419 1387.6 13.597 1387.6 14.9661C1387.6 15.852 1388.16 17.3822 1388.88 18.3486C1393.15 24.55 1406.76 23.6641 1405.47 17.3017C1404.91 14.1607 1403.38 13.3554 1400.08 14.5634C1398.07 15.2882 1397.26 16.0131 1397.58 16.899C1399.03 21.3285 1399.11 21.9728 1398.23 21.409C1396.45 20.3621 1394.68 15.9325 1395.17 13.9997C1395.49 12.9527 1396.94 11.1809 1398.55 9.89227L1401.45 7.71777L1404.91 9.57012C1411.27 12.9527 1412.72 21.7312 1407.89 27.4493C1406.36 29.3822 1406.12 30.107 1406.84 30.8319C1407.65 31.5567 1408.45 31.0735 1410.63 28.5768C1412.24 26.6439 1413.37 25.8386 1413.37 26.6439C1413.37 28.7379 1404.67 37.758 1402.98 37.2748C1402.09 37.0332 1401.29 37.4359 1400.96 38.2413C1400.64 39.1272 1400 39.3688 1398.87 39.0466C1397.66 38.6439 1397.26 38.8856 1397.26 39.9325C1397.26 41.1406 1396.54 41.2211 1390.41 40.8184C1385.74 40.4963 1382.92 39.852 1381.56 38.8856C1379.3 37.2748 1378.9 35.8252 1380.83 36.55C1383.25 37.5164 1393.31 38.6439 1394.2 38.1607C1394.68 37.8386 1395.65 37.5164 1396.37 37.4359C1398.31 37.2748 1403.7 34.6976 1403.7 33.9728C1403.7 33.6507 1400.64 33.409 1397.02 33.409C1389.53 33.3285 1389.69 33.409 1379.78 26.0802C1376.64 23.6641 1373.34 21.7312 1372.54 21.7312C1371.65 21.7312 1370.6 21.3285 1370.12 20.8453C1369.64 20.3621 1367.06 19.7983 1364.4 19.5567C1359.57 19.0735 1359.41 19.154 1355.46 22.456C1352.24 25.1943 1351.19 26.6439 1350.15 30.2681C1349.34 33.0064 1349.02 36.1473 1349.34 38.4023C1350.15 45.8117 1356.67 53.2211 1364.48 55.8788C1371.57 58.295 1381.39 57.0869 1383.33 53.6238C1383.89 52.5768 1384.78 52.4158 1387.27 52.7379C1390.58 53.3017 1390.66 53.5433 1390.09 60.6305C1390.01 61.0332 1389.69 61.0332 1389.21 60.7916C1388.8 60.55 1388.4 59.1003 1388.4 57.5701C1388.4 54.0265 1387.52 53.6238 1385.02 55.9594C1382.36 58.3755 1381.15 64.0131 1381.88 70.456C1382.6 76.6574 1384.54 80.9258 1388.24 84.7916C1395.09 91.9594 1403.86 93.3285 1411.52 88.6574C1416.35 85.6775 1417.8 83.0198 1418.52 75.852C1419.01 71.503 1418.84 70.295 1417.23 67.0735C1416.19 65.0601 1414.09 61.9191 1412.48 60.0668C1408.62 55.6372 1407.25 52.8184 1406.2 47.1003C1404.91 40.2547 1405.64 37.3554 1409.42 34.8587C1411.11 33.7312 1412.72 32.201 1412.96 31.3151C1413.29 30.3486 1414.58 29.7044 1416.99 29.3822C1424.4 28.2547 1430.28 32.5231 1430.28 39.1272C1430.28 44.9258 1425.29 48.0668 1421.9 44.3621C1420.78 43.154 1420.78 42.7513 1421.74 41.946C1422.63 41.2211 1422.95 41.3017 1423.35 42.2681C1424.24 44.6037 1426.41 43.3151 1426.74 40.3352C1427.22 36.0668 1425.45 34.0533 1420.86 33.6507C1416.11 33.248 1413.45 34.295 1410.79 37.4359C1406.12 42.9929 1407.09 46.456 1417.64 62.644C1421.34 68.2815 1424.88 74.4023 1425.45 76.0936C1426.09 78.0265 1426.58 82.8587 1426.5 88.1742C1426.5 100.899 1426.5 255.127 1426.5 383.745C1426.58 444.469 1426.25 503.906 1425.85 515.825C1425.45 527.825 1425.21 542.886 1425.29 549.49C1425.45 556.255 1425.21 561.329 1424.72 561.329C1424.32 561.329 1423.84 559.798 1423.68 557.946ZM1304.64 25.758C1304.64 24.8721 1304.32 24.1473 1303.84 24.1473C1303.43 24.1473 1303.03 24.8721 1303.03 25.758C1303.03 26.6439 1303.43 27.3688 1303.84 27.3688C1304.32 27.3688 1304.64 26.6439 1304.64 25.758Z" stroke="white" stroke-width="0.805369"/>
<path d="M1414.98 211.154C1414.98 209.946 1415.38 209.624 1416.59 209.946C1418.85 210.51 1418.6 209.463 1416.27 208.577C1415.06 208.174 1414.34 207.208 1414.34 206C1414.34 204.953 1413.77 201.892 1413.13 199.154C1411.11 190.859 1411.6 178.697 1414.25 168.147C1415.54 163.234 1416.59 159.046 1416.59 158.885C1416.59 158.724 1415.79 158.644 1414.74 158.644C1413.77 158.644 1412.08 158.08 1411.11 157.355C1408.46 155.503 1408.86 149.865 1411.68 148.496C1414.17 147.208 1416.91 148.255 1417.23 150.51C1417.56 152.684 1416.83 152.684 1414.98 150.429C1413.77 148.899 1413.37 148.738 1412.24 149.704C1411.36 150.429 1410.95 151.798 1411.11 153.328C1411.36 155.503 1411.68 155.825 1413.85 156.067C1415.38 156.228 1416.75 155.825 1417.4 155.1C1419.09 153.006 1419.89 153.651 1418.68 156.147C1417.96 157.436 1417.64 158.644 1417.88 158.885C1418.12 159.127 1417.4 163.073 1416.27 167.664C1412.56 182.563 1413.13 201.087 1417.48 206.966C1418.93 208.899 1419.17 209.785 1418.52 210.832C1417.23 212.845 1414.98 213.087 1414.98 211.154Z" stroke="white" stroke-width="0.805369"/>
<path d="M20.0788 210.591C19.1124 209.463 19.8372 205.356 20.9647 205.356C21.3674 205.356 21.6896 204.711 21.6896 203.906C21.6896 203.101 22.1728 201.973 22.656 201.49C23.3808 200.765 23.703 197.141 23.7835 190.215C23.9446 181.758 23.5419 178.134 21.609 169.114C20.401 163.154 19.354 157.275 19.354 156.067C19.2734 153.812 20.3204 153.087 21.2869 154.617C22.3338 156.228 25.7164 155.503 26.6828 153.409C27.9714 150.51 26.5218 149.06 23.703 150.591C22.5755 151.154 21.4479 151.396 21.1258 151.074C20.1593 150.188 22.8976 148.094 25.3137 147.933C27.3271 147.772 27.7298 148.174 28.3741 150.429C29.0184 152.604 28.9379 153.49 27.5687 155.262C26.6828 156.47 24.9916 157.517 23.864 157.678C21.2063 158 21.2063 158.483 23.3003 167.181C26.3607 179.825 26.5218 186.913 24.0251 203.503C22.9781 210.832 21.8506 212.765 20.0788 210.591Z" stroke="white" stroke-width="0.805369"/>
<path d="M27.5687 91.3152C24.4278 90.1877 19.2734 85.5166 19.2734 83.7447C19.2734 82.3756 20.0788 82.8588 22.3338 85.436C27.0855 91.1541 36.7499 92.6038 43.8372 88.738C51.3271 84.6307 55.4345 76.9796 55.8372 66.4293C56.0788 61.1944 53.6627 55.9595 51.0855 55.9595C50.1996 55.9595 48.9916 55.6374 48.5083 55.3152C47.1392 54.5098 47.1392 56.6038 48.3473 58.9394C50.4412 62.8857 49.7164 74.8051 47.3808 76.4964C46.3338 77.2213 42.6291 82.9394 42.6291 83.7447C42.6291 84.228 41.9043 84.5501 41.0989 84.5501C40.213 84.5501 39.3271 84.8723 39.0855 85.2749C38.1996 86.6441 32.562 87.0468 29.3406 85.9998C26.7634 85.1944 25.7164 84.228 24.3473 81.4092C23.3003 79.3152 22.8171 77.4629 23.2197 76.9796C23.5419 76.4964 24.1057 75.2078 24.4278 74.0803C24.9916 71.8253 29.5016 66.2682 30.1459 66.9931C30.3875 67.2347 29.5016 69.1676 28.213 71.3421C24.5083 77.1407 24.8305 82.0535 29.1795 84.228C33.0452 86.2414 38.2801 85.1139 41.6627 81.4897C44.6426 78.1877 47.6224 72.9528 46.8976 72.228C46.656 71.9058 46.7365 71.1005 47.0587 70.2951C48.2667 67.3152 48.2667 62.5635 47.0587 60.6307C46.3338 59.5837 46.0117 58.3756 46.2533 57.9729C46.4949 57.5702 46.3338 56.4427 45.8506 55.5568C45.1258 54.1877 45.2063 53.9461 46.5754 53.9461C47.4614 53.9461 48.4278 53.5434 48.6694 53.0602C49.4748 51.8521 53.9848 53.0602 55.515 54.9125C57.3674 57.2481 65.4211 57.8119 72.0251 55.9595C81.3674 53.4629 88.4546 45.2481 88.5352 37.0333C88.5352 31.1541 87.0855 27.53 82.9781 23.2615C79.5956 19.7984 78.7902 19.3152 75.8103 19.3152C74.0385 19.3152 72.3473 19.5568 72.1057 19.9595C71.9446 20.2817 70.4144 20.5233 68.7231 20.4427C65.5822 20.2817 63.1661 21.5703 57.9312 26.2414C51.4882 31.9595 44.3204 34.5367 38.9244 33.087C35.3808 32.1206 35.0587 32.2817 35.703 34.8588C36.1057 36.4696 36.911 36.9528 41.8238 37.8387C45.9312 38.6441 48.911 38.7246 52.6157 38.1609L57.7701 37.3555L56.0788 39.53C55.1124 40.738 53.7432 41.6239 53.0989 41.4629C52.4546 41.2213 48.9916 40.8991 45.4479 40.738L39.005 40.3354L38.9244 47.8253C38.8439 56.3622 38.1996 59.5837 36.6694 59.5837C35.7835 59.5837 35.703 58.2145 35.9446 52.9796C36.4278 44.8454 36.5083 45.4897 35.2197 40.8991C34.1728 37.2749 30.2265 31.9595 27.9714 31.2347C27.1661 30.9125 27.1661 30.5904 27.8909 29.7045C28.6157 28.8186 28.5352 27.53 27.6493 24.1474C25.4748 16.2548 27.4077 11.4226 33.5285 9.32864C36.6694 8.20112 37.3942 8.20112 39.4077 9.2481C42.7097 10.9394 43.7567 14.9662 41.5016 16.8186C40.5352 17.6239 40.052 17.3823 39.005 15.7716C38.1996 14.6441 37.0721 13.6776 36.5083 13.6776C35.864 13.6776 35.3808 13.3555 35.3808 12.8723C35.3808 11.6642 36.6694 11.9058 37.7969 13.2749C39.1661 14.8857 40.3741 14.8052 40.052 13.1139C39.6493 10.9394 35.1392 10.3756 32.1593 12.1474C30.8708 12.9528 29.7432 14.1609 29.7432 14.8052C29.7432 15.4494 29.5016 16.4964 29.26 17.1407C29.0184 17.9461 29.5016 18.5098 30.8708 18.832C33.1258 19.3958 34.3338 22.0535 33.0452 23.6642C30.7097 26.4025 36.5889 30.5904 42.7097 30.5904C47.5419 30.5904 49.958 29.3018 58.2533 22.3756C65.3405 16.4159 70.5754 13.9192 77.6627 12.9528C80.8036 12.5501 113.904 12.1474 151.354 12.0669C188.804 11.9864 238.092 11.8253 260.884 11.6642C283.676 11.5031 309.448 11.4226 318.065 11.5031C335.3 11.6642 418.898 11.5031 488.401 11.2615C536.884 11.0199 650.683 11.7447 651.166 12.3085C652.294 13.436 638.522 13.5971 587.461 13.1944C556.052 12.9528 510.549 12.7917 486.388 12.8723C413.824 13.1944 341.824 13.2749 312.83 13.1139C297.77 13.0333 281.663 13.1139 276.992 13.2749C272.32 13.436 235.193 13.5971 194.441 13.6776C122.361 13.6776 101.421 14.0803 101.421 15.3689C101.421 15.6911 103.112 16.738 105.126 17.7045C107.139 18.6709 110.441 20.6038 112.535 22.0535C114.629 23.4226 117.69 25.2749 119.3 26.0803C120.992 26.8857 122.924 28.2548 123.649 29.0602C124.938 30.5098 124.938 30.5904 123.166 30.5904C122.119 30.5904 120.025 29.6239 118.414 28.4159C109.636 21.6508 99.8909 16.6575 93.4479 15.4494C88.5352 14.5635 78.6291 14.8857 76.6157 16.0132C75.4077 16.738 75.4882 16.8991 77.26 17.5434C78.3875 17.9461 79.6761 18.0266 80.0788 17.7045C81.2869 16.738 90.0654 18.7515 94.656 20.926C96.8305 21.9729 101.663 24.8723 105.448 27.3689C114.951 33.6508 116.723 34.134 124.535 32.5233C126.871 32.04 130.978 28.4964 132.508 25.6776C134.119 22.4562 133.072 20.926 131.139 23.8253L129.69 26.0803L129.126 23.8253C128.562 21.6508 128.401 21.5703 124.696 21.9729C120.669 22.4562 119.542 21.6508 122.28 20.1206C125.824 18.2682 135.408 19.7984 136.857 22.4562C138.146 24.8723 134.763 28.9796 128.804 32.2011C119.622 37.1139 113.663 35.8253 100.374 26.0803C98.2801 24.5501 94.8171 22.6172 92.7231 21.8119C86.1996 19.3152 77.5016 18.832 83.0587 21.3286C86.1996 22.6978 89.5822 29.3018 89.9848 34.6172C91.0318 48.7917 78.1459 59.7447 61.8775 58.6172L56.3204 58.2145L56.8842 61.1139C57.8506 65.6239 57.609 70.8588 56.0788 75.7716C52.2936 88.4964 39.4077 95.5031 27.5687 91.3152ZM33.609 31.6374C33.3674 31.2347 32.8036 29.785 32.2399 28.4159C31.6761 26.9662 30.8708 25.9998 30.4681 26.2414C29.9848 26.483 29.9848 27.1273 30.5486 27.7716C31.1124 28.4159 31.2734 29.6239 30.9513 30.5904C30.5486 31.879 30.7902 32.2011 32.1593 32.2011C33.1258 32.2011 33.7701 31.9595 33.609 31.6374ZM30.5486 22.134C30.5486 21.4897 30.2265 20.926 29.7432 20.926C29.3406 20.926 28.9379 21.4897 28.9379 22.134C28.9379 22.7783 29.3406 23.3421 29.7432 23.3421C30.2265 23.3421 30.5486 22.7783 30.5486 22.134Z" stroke="white" stroke-width="0.805369"/>
<path d="M1396.78 84.8722C1392.11 81.6507 1390.01 78.3487 1388 70.9393C1386.71 66.4292 1387.6 60.8722 1389.37 62.644C1390.01 63.2883 1390.01 63.852 1389.21 64.8185C1388.4 65.7849 1388.4 66.2682 1389.21 67.2346C1389.77 67.8789 1390.01 69.0064 1389.69 69.6507C1389.45 70.3755 1389.53 71.5031 1389.93 72.3084C1390.33 73.0333 1391.3 75.1272 1392.11 76.899C1393.88 81.0064 1397.18 83.7447 1401.45 84.7111C1405.88 85.6776 1408.94 84.8722 1410.55 82.3755C1413.21 78.3487 1412.48 73.9997 1408.54 70.4561C1407.57 69.5702 1406.2 67.7984 1405.56 66.5098C1404.51 64.4963 1404.99 64.738 1409.18 68.3621C1414.33 72.8722 1414.98 73.8386 1414.98 76.9796C1414.98 85.3554 1404.27 89.946 1396.78 84.8722Z" stroke="white" stroke-width="0.805369"/>
<path d="M1424.97 61.1137C1424.72 60.6305 1424.97 59.9056 1425.53 59.5029C1427.3 58.3754 1427.87 58.617 1427.87 60.3888C1427.87 62.0801 1425.93 62.5633 1424.97 61.1137Z" stroke="white" stroke-width="0.805369"/>
<path d="M9.93107 58.6977C10.1727 57.3286 10.4143 55.7178 10.4143 55.0735C10.4143 54.5098 11.5418 53.946 12.9109 53.7849C16.8572 53.3823 20.4009 48.6306 20.4814 43.4762C20.5619 39.0467 20.4009 38.4829 18.3069 37.3554C17.421 36.8722 17.1794 36.2279 17.5821 35.5031C18.1458 34.6172 18.7096 34.6977 20.8036 35.9058C25.4747 38.644 24.9915 43.0735 19.1123 51.9326C13.072 60.9527 8.80355 64.0937 9.93107 58.6977Z" stroke="white" stroke-width="0.805369"/>
<path d="M1400.08 58.7782C1398.79 56.6843 1397.42 49.4359 1398.14 48.55C1398.71 47.9863 1398.63 47.5031 1398.06 47.1004C1396.61 46.2145 1397.18 43.3151 1398.87 42.9125C1399.76 42.6708 1400.48 41.7849 1400.48 40.9796C1400.48 40.1742 1401.21 39.1272 1402.09 38.644C1404.02 37.597 1404.02 37.6776 1402.41 42.7514C1401.45 45.5702 1401.21 48.4695 1401.45 52.8185C1401.85 58.3755 1401.29 60.7111 1400.08 58.7782Z" stroke="white" stroke-width="0.805369"/>
<path d="M1422.55 57.8924C1421.82 57.087 1421.42 56.3622 1421.74 56.3622C1422.07 56.3622 1421.02 55.0736 1419.49 53.5434C1416.75 50.8051 1414.98 46.5367 1414.58 41.4628C1414.33 39.0467 1416.75 34.6172 1418.28 34.6172C1419.25 34.6172 1418.44 39.3689 1417.31 40.5769C1416.43 41.5434 1417.23 45.6507 1418.84 48.9528C1419.89 50.9662 1420.86 51.691 1423.19 52.0937C1427.06 52.6575 1428.11 53.946 1427.14 56.5232C1426.09 59.2615 1424.32 59.8252 1422.55 57.8924Z" stroke="white" stroke-width="0.805369"/>
<path d="M1392.19 57.4897C1392.43 56.7649 1392.67 55.3152 1392.75 54.2683C1392.83 53.2213 1393.15 52.2548 1393.64 52.0938C1394.84 51.8522 1395.09 54.7515 1393.96 56.8454C1392.83 59.0199 1391.38 59.5032 1392.19 57.4897Z" stroke="white" stroke-width="0.805369"/>
<path d="M42.3084 55.0737C41.503 53.0603 41.7446 52.3354 43.0332 52.3354C43.6775 52.3354 44.2413 53.0603 44.2413 53.8657C44.2413 55.9596 42.9527 56.6844 42.3084 55.0737Z" stroke="white" stroke-width="0.805369"/>
<path d="M59.8648 50.8051C59.6232 50.5635 58.0125 50.4024 56.1601 50.3219C54.0661 50.3219 52.697 49.9192 52.4554 49.1943C52.2138 48.389 52.4554 48.2279 53.3413 48.55C54.0661 48.7917 54.9521 48.55 55.4353 47.9863C56.6433 46.5366 55.5963 45.8118 53.744 46.7782C52.0527 47.6641 50.6836 47.1004 50.6836 45.4091C50.6836 43.5568 54.2272 44.1205 56.3212 46.295C57.3682 47.4225 58.8178 48.3084 59.5427 48.3084C60.2675 48.3084 61.2339 48.7111 61.7172 49.1943C62.2004 49.6776 63.0863 49.8386 63.65 49.4359C64.2138 49.1138 65.5829 48.7917 66.7104 48.6306C72.2675 48.1474 73.4755 47.5031 79.1937 42.2682C81.6903 39.9326 82.093 39.1272 82.093 35.9057C82.093 31.7178 80.4823 27.8521 78.4688 27.0467C76.0527 26.1608 73.3145 26.5635 72.5896 27.8521C72.187 28.5769 71.3816 29.0601 70.8178 28.8185C70.1735 28.6574 69.046 29.0601 68.2406 29.7044C67.4353 30.4292 66.1467 31.5567 65.3413 32.2816C63.65 33.7312 61.1534 34.7782 61.1534 34.1339C61.1534 33.1675 67.5158 27.4494 69.9319 26.2413C73.8782 24.1474 78.4688 24.55 81.3682 27.2078C83.6232 29.2212 83.8648 29.946 83.9453 34.2145C83.9453 39.4494 82.1735 43.9594 79.838 44.8453C79.1131 45.1675 77.6635 46.2145 76.6165 47.2614C75.65 48.3084 74.442 48.9527 73.9588 48.7111C73.5561 48.389 72.5091 48.7111 71.7843 49.3554C70.4957 50.4829 60.7507 51.691 59.8648 50.8051Z" stroke="white" stroke-width="0.805369"/>
<path d="M1366.58 49.436C1366.17 48.8722 1365.05 48.6306 1364.24 48.8722C1363.03 49.1943 1362.63 48.8722 1362.63 47.5836C1362.63 45.6507 1362.87 45.5702 1365.29 46.8588C1366.25 47.342 1368.27 47.9863 1369.8 48.2279C1371.33 48.55 1372.7 49.1943 1372.94 49.7581C1373.34 51.0467 1367.7 50.7245 1366.58 49.436Z" stroke="white" stroke-width="0.805369"/>
<path d="M1374.71 49.4356C1374.71 48.3887 1375.27 48.2276 1377.13 48.5497C1378.42 48.8719 1379.7 48.7108 1380.03 48.2276C1380.27 47.7444 1381.15 47.5027 1381.96 47.7444C1383.49 48.147 1385.66 45.4893 1384.38 44.684C1382.93 43.798 1384.29 42.9121 1386.39 43.3148C1388.97 43.798 1388.89 44.9256 1385.99 47.8249C1384.13 49.5967 1382.76 50.1605 1379.22 50.4021C1375.44 50.6437 1374.71 50.4826 1374.71 49.4356Z" stroke="white" stroke-width="0.805369"/>
<path d="M1357.8 44.6842C1357.4 43.5567 1356.67 42.6708 1356.35 42.6708C1355.95 42.6708 1354.98 40.6574 1354.17 38.1607C1352.89 33.9728 1352.89 33.4896 1354.09 30.7513C1355.7 27.3688 1358.28 25.1138 1361.1 24.8721C1365.53 24.4695 1368.35 24.9527 1368.83 26.3218C1369.15 27.0466 1370.44 28.6574 1371.81 29.8654C1373.5 31.3956 1373.91 32.201 1373.1 32.201C1371.65 32.201 1365.85 28.4158 1365.85 27.4493C1365.85 27.0466 1364.4 26.805 1362.63 26.8856C1358.12 27.1272 1355.38 30.107 1355.38 34.6976C1355.38 38.4023 1357.96 43.4762 1359.89 43.4762C1360.54 43.4762 1361.02 44.201 1361.02 45.0869C1361.02 47.3419 1358.68 47.1003 1357.8 44.6842Z" stroke="white" stroke-width="0.805369"/>
<path d="M1287.73 28.2547C1286.52 27.9326 1285.23 26.644 1284.51 25.1138C1283.14 22.2145 1283.87 22.295 1267.68 24.6306C1263.49 25.1943 1259.78 25.5165 1259.38 25.2749C1259.06 25.0332 1256.32 24.7111 1253.34 24.55C1250.28 24.389 1245.61 23.6641 1242.87 22.9393C1239.17 21.9728 1237.07 21.8118 1235.06 22.3755C1233.21 22.9393 1232 22.8588 1231.44 22.295C1228.62 19.4762 1232.97 17.6239 1237.64 19.5567C1239.25 20.2816 1241.91 21.248 1243.6 21.7312C1247.46 22.8588 1265.58 23.0198 1273.23 21.8923C1276.54 21.3286 1282.33 20.8453 1286.04 20.7648L1292.89 20.5232L1293.45 23.342C1294.01 25.6775 1293.77 26.4024 1292.32 27.5299C1291.35 28.3353 1290.39 28.899 1290.15 28.899C1289.91 28.8185 1288.86 28.5769 1287.73 28.2547ZM1291.76 25.8386C1292.8 23.8252 1292.08 21.9728 1290.07 21.3286C1287.01 20.3621 1284.83 24.1473 1287.09 26.4024C1288.54 27.852 1290.79 27.5299 1291.76 25.8386Z" stroke="white" stroke-width="0.805369"/>
<path d="M145.153 27.53C144.59 27.2078 143.945 25.7582 143.623 24.389C143.221 22.3756 143.462 21.7313 144.751 21.0065C147.57 19.4763 148.536 19.9595 146.684 21.9729C145.073 23.6642 145.073 23.8253 146.442 25.6776C147.65 27.2884 148.133 27.4494 149.583 26.6441C151.516 25.5971 151.919 22.6172 150.388 21.087C149.18 19.879 151.113 19.879 159.409 21.0065C168.751 22.3756 170.362 22.5367 180.751 22.5367C189.771 22.6172 195.328 21.8119 201.288 19.4763C203.704 18.5904 206.925 19.5568 206.925 21.2481C206.925 21.8119 206.362 22.6172 205.637 22.8588C203.784 23.5837 203.14 23.4226 204.429 22.6172C205.073 22.2145 205.234 21.4897 204.912 20.9259C204.429 20.1206 204.026 20.2011 203.221 21.2481C202.657 22.0535 201.851 22.4561 201.368 22.2145C200.966 21.8924 196.858 22.4561 192.268 23.4226C183.409 25.2749 171.086 25.6776 166.415 24.3085C164.966 23.8253 161.583 23.2615 158.845 22.9394C154.254 22.5367 153.771 22.6172 153.771 23.9863C153.771 27.2078 148.214 29.4629 145.153 27.53Z" stroke="white" stroke-width="0.805369"/>
<path d="M35.9447 23.8251C34.6561 22.7781 34.6561 22.6975 36.3473 22.2949C37.3138 22.0533 38.6024 22.1338 39.2467 22.4559C41.5017 23.7445 49.0722 19.7982 49.0722 17.3016C49.0722 16.7378 49.6359 15.8519 50.2802 15.2882C50.9245 14.7244 51.4883 13.5969 51.4883 12.7915C51.4883 10.9392 52.4547 10.3754 53.9044 11.2613C54.9514 11.9056 54.8708 12.2277 53.5017 13.1942C52.6158 13.8385 52.1326 14.5633 52.4547 14.8855C53.2601 15.6908 54.7098 14.5633 55.5151 12.3888C56.401 10.1338 57.5286 9.89218 58.3339 11.8251C58.6561 12.872 58.0118 13.919 55.7567 15.6908C54.0655 16.9794 51.7299 19.0734 50.4413 20.2814C45.9312 24.6304 39.2467 26.3217 35.9447 23.8251Z" stroke="white" stroke-width="0.805369"/>
<path d="M11.5418 21.3283C10.7364 20.1203 10.4948 18.7512 10.8169 17.9458C11.3002 16.6572 11.4612 16.7377 12.1055 18.5096C13.1525 21.0867 14.1995 21.6505 16.7767 21.0062C18.4679 20.523 18.8706 19.9592 18.8706 17.7042C18.8706 15.4492 18.4679 14.8854 16.6156 14.2411C14.8438 13.6773 14.0384 13.8384 12.8304 14.8854C11.2196 16.3351 10.0921 15.4492 10.8975 13.3552C11.5418 11.5834 16.374 11.6639 19.3539 13.4357C24.025 16.2545 21.3673 23.3418 15.6492 23.3418C13.5552 23.3418 12.5082 22.8586 11.5418 21.3283Z" stroke="white" stroke-width="0.805369"/>
<path d="M1417.96 22.7783C1417.15 21.3286 1416.51 16.8186 1416.91 15.4494C1417.55 13.5166 1420.7 12.0669 1424.24 12.0669C1427.22 12.0669 1428.59 13.2749 1427.14 14.7246C1426.49 15.3689 1426.01 15.3689 1425.29 14.6441C1422.79 12.1474 1417.64 14.7246 1418.68 18.0266C1419.41 20.3622 1420.62 21.0065 1423.51 20.4427C1426.49 19.879 1427.78 21.2481 1425.53 22.4562C1423.68 23.5031 1418.44 23.6642 1417.96 22.7783Z" stroke="white" stroke-width="0.805369"/>
<path d="M1423.84 18.5098C1423.84 17.5433 1426.66 16.0131 1427.3 16.5769C1427.54 16.8185 1427.54 17.5433 1427.3 18.1876C1426.82 19.4762 1423.84 19.7178 1423.84 18.5098Z" stroke="white" stroke-width="0.805369"/>
<path d="M30.5488 16.2547C30.5488 15.2077 33.6898 12.55 34.2535 13.1137C34.4951 13.3553 34.4951 13.9191 34.173 14.4023C33.4482 15.6104 30.5488 17.06 30.5488 16.2547Z" stroke="white" stroke-width="0.805369"/>
</svg>
