<svg width="1032" height="289" viewBox="0 0 1032 289" fill="none" xmlns="http://www.w3.org/2000/svg">
<path d="M19.2002 48.6641L209.6 48.6641" stroke="white" stroke-width="1.328" stroke-linecap="round"/>
<path d="M19.2002 263.264H209.2" stroke="white" stroke-width="1.328" stroke-linecap="round"/>
<path d="M227.2 263.264H1001.2" stroke="white" stroke-width="1.328" stroke-linecap="round"/>
<path d="M235.2 48.664H1009.2" stroke="white" stroke-width="1.328" stroke-linecap="round"/>
<path d="M1009.2 48.664L1009.2 251.664" stroke="white" stroke-width="1.328" stroke-linecap="round"/>
<path d="M91.2002 0.664001V64.664" stroke="white" stroke-width="1.328" stroke-linecap="round"/>
<path d="M905.475 86.288C904.98 87.3571 905.445 88.6251 906.515 89.1203C907.584 89.6155 908.852 89.1502 909.347 88.0811C909.842 87.012 909.377 85.7439 908.308 85.2487C907.239 84.7536 905.97 85.2188 905.475 86.288ZM917.09 91.6673C916.595 92.7364 917.06 94.0045 918.129 94.4997C919.198 94.9948 920.467 94.5295 920.962 93.4604C921.457 92.3913 920.992 91.1232 919.922 90.6281C918.853 90.1329 917.585 90.5982 917.09 91.6673ZM907.411 87.1845L907.243 87.5475L918.858 92.9268L919.026 92.5639L919.194 92.2009L907.579 86.8215L907.411 87.1845Z" fill="white"/>
<path d="M898.702 74.9319C897.741 75.6144 897.516 76.9463 898.199 77.9066C898.881 78.867 900.213 79.0921 901.173 78.4096C902.134 77.727 902.359 76.3951 901.676 75.4348C900.994 74.4745 899.662 74.2493 898.702 74.9319ZM906.175 85.4462C905.214 86.1288 904.989 87.4606 905.672 88.4209C906.354 89.3813 907.686 89.6065 908.647 88.9239C909.607 88.2413 909.832 86.9094 909.15 85.9491C908.467 84.9888 907.135 84.7636 906.175 85.4462ZM899.938 76.6707L899.611 76.9025L907.085 87.4168L907.411 87.185L907.737 86.9533L900.264 76.439L899.938 76.6707Z" fill="white"/>
<path d="M902.063 76.4887C901.963 75.3148 900.929 74.4446 899.756 74.5452C898.582 74.6457 897.711 75.6788 897.812 76.8527C897.912 78.0266 898.946 78.8968 900.119 78.7963C901.293 78.6958 902.164 77.6626 902.063 76.4887ZM889.21 77.5892C889.11 76.4153 888.077 75.5451 886.903 75.6456C885.729 75.7461 884.859 76.7792 884.959 77.9531C885.06 79.1271 886.093 79.9972 887.267 79.8967C888.441 79.7962 889.311 78.7631 889.21 77.5892ZM899.938 76.6707L899.903 76.2722L887.051 77.3726L887.085 77.7712L887.119 78.1697L899.972 77.0693L899.938 76.6707Z" fill="white"/>
<path d="M26.5256 185.84C25.4078 186.213 24.8038 187.421 25.1763 188.539C25.5489 189.656 26.7571 190.26 27.8748 189.888C28.9926 189.515 29.5966 188.307 29.2241 187.189C28.8515 186.072 27.6433 185.468 26.5256 185.84ZM31.3256 200.24C30.2078 200.613 29.6038 201.821 29.9763 202.939C30.3489 204.056 31.5571 204.66 32.6748 204.288C33.7926 203.915 34.3966 202.707 34.0241 201.589C33.6515 200.472 32.4433 199.868 31.3256 200.24ZM27.2002 187.864L26.8207 187.991L31.6207 202.391L32.0002 202.264L32.3797 202.138L27.5797 187.738L27.2002 187.864Z" fill="white"/>
<path d="M25.4935 213.784C24.7866 214.727 24.9776 216.064 25.9202 216.771C26.8628 217.478 28.1999 217.287 28.9069 216.344C29.6138 215.401 29.4228 214.064 28.4802 213.357C27.5376 212.65 26.2005 212.841 25.4935 213.784ZM38.2935 223.384C37.5866 224.327 37.7776 225.664 38.7202 226.371C39.6628 227.078 40.9999 226.887 41.7069 225.944C42.4138 225.001 42.2228 223.664 41.2802 222.957C40.3376 222.25 39.0005 222.441 38.2935 223.384ZM27.2002 215.064L26.9602 215.384L39.7602 224.984L40.0002 224.664L40.2402 224.344L27.4402 214.744L27.2002 215.064Z" fill="white"/>
<path d="M26.4511 217.062C27.5543 217.475 28.784 216.916 29.1977 215.813C29.6114 214.71 29.0524 213.48 27.9493 213.067C26.8461 212.653 25.6164 213.212 25.2027 214.315C24.789 215.418 25.3479 216.648 26.4511 217.062ZM31.2511 204.262C32.3543 204.675 33.584 204.116 33.9977 203.013C34.4114 201.91 33.8524 200.68 32.7493 200.267C31.6461 199.853 30.4164 200.412 30.0027 201.515C29.589 202.618 30.1479 203.848 31.2511 204.262ZM27.2002 215.064L27.5747 215.204L32.3747 202.404L32.0002 202.264L31.6257 202.124L26.8257 214.924L27.2002 215.064Z" fill="white"/>
<path d="M933.2 255.664V287.664" stroke="white" stroke-width="1.328" stroke-linecap="round"/>
<path d="M19.8642 48.6641C19.8642 48.2973 19.5669 48.0001 19.2002 48.0001C18.8335 48.0001 18.5362 48.2973 18.5362 48.6641H19.2002H19.8642ZM19.2002 48.6641H18.5362V112.664H19.2002H19.8642V48.6641H19.2002Z" fill="white"/>
<path d="M19.2002 89.464V125.464" stroke="white" stroke-width="1.328"/>
<path d="M19.2002 131.664L19.2002 263.664" stroke="white" stroke-width="1.328"/>
<path d="M316.8 39.064L316.8 77.464" stroke="white" stroke-width="1.328" stroke-linecap="round"/>
<path d="M1015.2 202.264L976.8 202.264" stroke="white" stroke-width="1.328" stroke-linecap="round"/>
<path d="M1031.2 202.264L1021.6 202.264" stroke="white" stroke-width="1.328" stroke-linecap="round"/>
<path d="M24 107.864L14.4 107.864" stroke="white" stroke-width="1.328"/>
<circle cx="1008.4" cy="261.664" r="2.96" stroke="white" stroke-width="0.48"/>
<circle cx="19.2" cy="48.664" r="18.56" stroke="white" stroke-width="1.28"/>
<circle cx="332.8" cy="63.064" r="4.4" stroke="white" stroke-width="0.8"/>
<path d="M563.163 35.864L568.471 33.1969L571.125 27.864L573.78 33.1969L579.088 35.864L573.78 38.5311L571.125 43.864L568.471 38.5311L563.163 35.864Z" stroke="white" stroke-width="0.8" stroke-linecap="round" stroke-linejoin="round"/>
<path d="M4.21289 273.264L7.39755 271.664L8.99025 268.464L10.583 271.664L13.7676 273.264L10.583 274.864L8.99025 278.064L7.39755 274.864L4.21289 273.264Z" stroke="white" stroke-width="0.8" stroke-linecap="round" stroke-linejoin="round"/>
<circle cx="19.1998" cy="48.664" r="13.6" fill="white" stroke="white" stroke-width="1.6"/>
</svg>
