<svg width="1032" height="865" viewBox="0 0 1032 865" fill="none" xmlns="http://www.w3.org/2000/svg">
<path d="M19.2002 48.6639L209.6 48.6639" stroke="white" stroke-width="1.328" stroke-linecap="round"/>
<path d="M235.2 48.6639H1009.2" stroke="white" stroke-width="1.328" stroke-linecap="round"/>
<path d="M1009.2 48.6639L1009.2 831.664" stroke="white" stroke-width="1.328" stroke-linecap="round"/>
<path d="M91.2002 0.66394V64.6639" stroke="white" stroke-width="1.328" stroke-linecap="round"/>
<path d="M905.475 86.2879C904.98 87.357 905.445 88.6251 906.515 89.1202C907.584 89.6154 908.852 89.1501 909.347 88.081C909.842 87.0119 909.377 85.7438 908.308 85.2487C907.239 84.7535 905.97 85.2188 905.475 86.2879ZM917.09 91.6672C916.595 92.7364 917.06 94.0044 918.129 94.4996C919.198 94.9948 920.467 94.5295 920.962 93.4604C921.457 92.3913 920.992 91.1232 919.922 90.628C918.853 90.1329 917.585 90.5981 917.09 91.6672ZM907.411 87.1844L907.243 87.5474L918.858 92.9268L919.026 92.5638L919.194 92.2008L907.579 86.8215L907.411 87.1844Z" fill="white"/>
<path d="M898.702 74.9317C897.741 75.6143 897.516 76.9461 898.199 77.9065C898.881 78.8668 900.213 79.092 901.173 78.4094C902.134 77.7268 902.359 76.395 901.676 75.4346C900.994 74.4743 899.662 74.2491 898.702 74.9317ZM906.175 85.446C905.214 86.1286 904.989 87.4604 905.672 88.4208C906.354 89.3811 907.686 89.6063 908.647 88.9237C909.607 88.2411 909.832 86.9093 909.15 85.9489C908.467 84.9886 907.135 84.7634 906.175 85.446ZM899.938 76.6705L899.611 76.9023L907.085 87.4166L907.411 87.1848L907.737 86.9531L900.264 76.4388L899.938 76.6705Z" fill="white"/>
<path d="M902.063 76.4885C901.963 75.3146 900.929 74.4445 899.756 74.545C898.582 74.6455 897.711 75.6786 897.812 76.8525C897.912 78.0264 898.946 78.8966 900.119 78.7961C901.293 78.6956 902.164 77.6625 902.063 76.4885ZM889.21 77.589C889.11 76.4151 888.077 75.5449 886.903 75.6454C885.729 75.7459 884.859 76.7791 884.959 77.953C885.06 79.1269 886.093 79.997 887.267 79.8965C888.441 79.796 889.311 78.7629 889.21 77.589ZM899.938 76.6705L899.903 76.272L887.051 77.3724L887.085 77.771L887.119 78.1695L899.972 77.0691L899.938 76.6705Z" fill="white"/>
<path d="M26.5256 247.64C25.4078 248.013 24.8038 249.221 25.1763 250.339C25.5489 251.456 26.7571 252.06 27.8748 251.688C28.9926 251.315 29.5966 250.107 29.2241 248.989C28.8515 247.872 27.6433 247.268 26.5256 247.64ZM31.3256 262.04C30.2078 262.413 29.6038 263.621 29.9763 264.739C30.3489 265.856 31.5571 266.46 32.6748 266.088C33.7926 265.715 34.3966 264.507 34.0241 263.389C33.6515 262.272 32.4433 261.668 31.3256 262.04ZM27.2002 249.664L26.8207 249.79L31.6207 264.19L32.0002 264.064L32.3797 263.937L27.5797 249.537L27.2002 249.664Z" fill="white"/>
<path d="M25.4935 275.584C24.7866 276.526 24.9776 277.864 25.9202 278.571C26.8628 279.277 28.1999 279.086 28.9069 278.144C29.6138 277.201 29.4228 275.864 28.4802 275.157C27.5376 274.45 26.2005 274.641 25.4935 275.584ZM38.2935 285.184C37.5866 286.126 37.7776 287.464 38.7202 288.171C39.6628 288.877 40.9999 288.686 41.7069 287.744C42.4138 286.801 42.2228 285.464 41.2802 284.757C40.3376 284.05 39.0005 284.241 38.2935 285.184ZM27.2002 276.864L26.9602 277.184L39.7602 286.784L40.0002 286.464L40.2402 286.144L27.4402 276.544L27.2002 276.864Z" fill="white"/>
<path d="M26.4511 278.861C27.5543 279.275 28.784 278.716 29.1977 277.613C29.6114 276.51 29.0524 275.28 27.9493 274.866C26.8461 274.453 25.6164 275.012 25.2027 276.115C24.789 277.218 25.3479 278.448 26.4511 278.861ZM31.2511 266.061C32.3543 266.475 33.584 265.916 33.9977 264.813C34.4114 263.71 33.8524 262.48 32.7493 262.066C31.6461 261.653 30.4164 262.212 30.0027 263.315C29.589 264.418 30.1479 265.648 31.2511 266.061ZM27.2002 276.864L27.5747 277.004L32.3747 264.204L32.0002 264.064L31.6257 263.923L26.8257 276.723L27.2002 276.864Z" fill="white"/>
<path d="M19.8642 48.6639C19.8642 48.2972 19.5669 47.9999 19.2002 47.9999C18.8335 47.9999 18.5362 48.2972 18.5362 48.6639H19.2002H19.8642ZM19.2002 48.6639H18.5362V112.664H19.2002H19.8642V48.6639H19.2002Z" fill="white"/>
<path d="M19.2002 89.4639V125.464" stroke="white" stroke-width="1.328"/>
<path d="M19.2002 131.664L19.2002 838.664" stroke="white" stroke-width="1.328"/>
<path d="M316.8 39.0638L316.8 77.4638" stroke="white" stroke-width="1.328" stroke-linecap="round"/>
<path d="M1015.2 202.264L976.8 202.264" stroke="white" stroke-width="1.328" stroke-linecap="round"/>
<path d="M1031.2 202.264L1021.6 202.264" stroke="white" stroke-width="1.328" stroke-linecap="round"/>
<path d="M24 107.864L14.4 107.864" stroke="white" stroke-width="1.328"/>
<circle cx="1008.4" cy="838.864" r="2.96" stroke="white" stroke-width="0.48"/>
<circle cx="19.2" cy="48.6639" r="18.56" stroke="white" stroke-width="1.28"/>
<circle cx="332.8" cy="63.0639" r="4.4" stroke="white" stroke-width="0.8"/>
<path d="M563.163 35.8639L568.471 33.1968L571.125 27.8639L573.78 33.1968L579.088 35.8639L573.78 38.531L571.125 43.8639L568.471 38.531L563.163 35.8639Z" stroke="white" stroke-width="0.8" stroke-linecap="round" stroke-linejoin="round"/>
<path d="M4.21289 404.464L7.39755 402.864L8.99025 399.664L10.583 402.864L13.7676 404.464L10.583 406.064L8.99025 409.264L7.39755 406.064L4.21289 404.464Z" stroke="white" stroke-width="0.8" stroke-linecap="round" stroke-linejoin="round"/>
<circle cx="19.1998" cy="48.6639" r="13.6" fill="white" stroke="white" stroke-width="1.6"/>
<path d="M19.2002 839.264H209.2" stroke="white" stroke-width="1.328" stroke-linecap="round"/>
<path d="M227.2 839.264H1001.2" stroke="white" stroke-width="1.328" stroke-linecap="round"/>
<path d="M933.2 831.664V863.664" stroke="white" stroke-width="1.328" stroke-linecap="round"/>
</svg>
