<svg width="40" height="40" viewBox="0 0 40 40" fill="none" xmlns="http://www.w3.org/2000/svg">
<path d="M16.9723 8.11083C17.1411 8.78833 16.2692 10.5083 17.9754 10.9258C19.3267 11.2552 19.9979 10.0077 19.9979 10.0077C19.9979 10.0077 20.6692 11.2552 22.0217 10.9258C23.7273 10.5083 22.8554 8.78833 23.0242 8.11083C23.4511 6.38708 25.0029 6.38708 25.0029 6.38708C25.0029 6.38708 24.2573 5.2577 23.0336 5.2577C22.1467 5.2577 21.9036 5.74208 21.9036 5.74208C22.0936 3.8627 19.9986 1.2502 19.9986 1.2502C19.9986 1.2502 17.9042 3.8627 18.0936 5.7427C18.0936 5.7427 17.8504 5.25833 16.9629 5.25833C15.7411 5.25833 14.9942 6.3877 14.9942 6.3877C14.9942 6.3877 16.5467 6.38708 16.9723 8.11083Z" fill="white"/>
<path d="M5.3419 23.9556C9.67315 27.485 15.6581 24.0419 17.4875 18.1113C17.5917 17.7963 17.6802 17.4742 17.7531 17.145L18.4463 17.145C17.9413 18.9131 16.9438 21.3069 14.9575 23.5738C9.87315 29.3794 18.6244 32.6963 20 38.75C21.3756 32.6963 30.1282 29.3794 25.0425 23.5744C23.0569 21.3075 22.0588 18.9138 21.5532 17.1456L22.2475 17.1456C22.3199 17.4719 22.4085 17.7944 22.5132 18.1119C24.3425 24.0419 30.3275 27.4856 34.6588 23.9563C38.965 20.4469 36.3257 14.9063 32.4344 13.9081C32.4344 13.9081 33.9638 18.6138 29.2719 18.6138C27.8194 18.6138 26.7444 17.9775 26.0738 17.1456L26.615 17.1456L26.615 16.5631L25.7569 16.5631L25.7569 15.98L26.615 15.98L26.615 14.9519L25.7569 14.9519L25.7569 14.3694L26.615 14.3694L26.615 13.7856L25.7244 13.7856C26.0382 13.4269 26.515 13.1938 27.1838 13.1938C29.435 13.1938 29.1282 15.4106 29.1282 15.4106C31.1288 15.1156 33.185 10.8938 30.0025 8.58563C26.5969 6.115 22.5844 9.21688 22.0425 13.7856L21.6544 13.7856L21.6544 11.3075C21.6544 11.3075 20.485 11.2975 19.9969 10.4275C19.5075 11.2981 18.3369 11.3075 18.3369 11.3075L18.3369 13.7856L17.955 13.7856C17.4132 9.21625 13.4 6.115 9.99503 8.58563C6.81253 10.8938 8.8694 15.1156 10.87 15.4106C10.87 15.4106 10.5638 13.1938 12.8144 13.1938C13.4832 13.1938 13.96 13.4269 14.2738 13.7856L13.3831 13.7856L13.3831 14.3694L14.24 14.3694L14.24 14.9519L13.3831 14.9519L13.3831 15.98L14.24 15.98L14.24 16.5631L13.3831 16.5631L13.3831 17.1456L13.9238 17.1456C13.2538 17.9775 12.1782 18.6138 10.7257 18.6138C6.0344 18.6138 7.56378 13.9081 7.56378 13.9081C3.6744 14.9056 1.03503 20.4463 5.3419 23.9556Z" fill="white"/>
</svg>
