<svg width="1162" height="844" viewBox="0 0 1162 844" fill="none" xmlns="http://www.w3.org/2000/svg">
<rect width="488" height="62" transform="translate(195 58)" fill="white"/>
<path d="M501.552 100H497.156V79.28H501.552L507.712 94.736L513.9 79.28H518.352V100H513.956V95.66C513.956 91.18 513.956 90.2 514.18 88.66L509.784 100H505.64L501.272 88.66C501.524 90.2 501.552 91.936 501.552 94.204V100ZM525.496 100H520.764L528.156 79.28H532.58L539.944 100H535.128L533.672 95.632H526.98L525.496 100ZM529.78 87.4L528.296 91.824H532.384L530.9 87.4C530.676 86.7 530.424 85.888 530.34 85.384C530.256 85.86 530.032 86.644 529.78 87.4ZM546.891 100H542.355V79.28H550.363C555.403 79.28 558.259 81.716 558.259 86C558.259 88.688 557.111 90.592 554.815 91.768L558.455 100H553.499L550.391 92.748H546.891V100ZM546.891 83.312V88.772H550.335C552.323 88.772 553.471 87.764 553.471 86C553.471 84.264 552.379 83.312 550.363 83.312H546.891ZM566.169 79.28V89.192L573.645 79.28H578.993L572.217 88.128L579.049 100H573.813L569.249 91.992L566.169 96.024V100H561.633V79.28H566.169ZM594.644 100H581.484V79.28H594.644V83.48H586.02V87.54H593.664V91.516H586.02V95.8H594.644V100ZM596.759 83.48V79.28H613.055V83.48H607.175V100H602.639V83.48H596.759ZM620.309 79.28V100H615.773V79.28H620.309ZM629.113 100H624.633V79.28H629.113L637.849 92.468V79.28H642.329V100H637.849L629.113 86.84V100ZM655.968 83.2C652.216 83.2 650.284 85.832 650.284 89.836C650.284 94.008 652.636 96.08 655.94 96.08C659.356 96.08 660.868 94.232 661.064 92.076H655.576V88.1H665.32V100H661.428L661.176 98.124C660.056 99.44 657.816 100.308 655.352 100.308C649.556 100.308 645.496 96.052 645.496 89.696C645.496 83.452 649.668 78.944 656.08 78.944C661.036 78.944 664.844 81.856 665.32 86.336H660.56C660.028 84.152 658.124 83.2 655.968 83.2Z" fill="#191919"/>
<rect width="317" height="72" transform="translate(381 567)" fill="white"/>
<path d="M413.864 599.4C413.864 596.184 416.576 593.904 420.392 593.904C424.208 593.904 426.608 596.016 426.608 599.376H422.744C422.744 598.128 421.808 597.36 420.344 597.36C418.76 597.36 417.752 598.08 417.752 599.256C417.752 600.336 418.304 600.864 419.552 601.128L422.216 601.68C425.384 602.328 426.896 603.84 426.896 606.648C426.896 610.08 424.208 612.312 420.128 612.312C416.168 612.312 413.6 610.176 413.6 606.84H417.464C417.464 608.136 418.424 608.856 420.152 608.856C421.904 608.856 423.008 608.16 423.008 607.032C423.008 606.048 422.552 605.544 421.376 605.304L418.664 604.752C415.496 604.104 413.864 602.304 413.864 599.4ZM433.361 612H429.473V594.24H433.361V601.248H440.225V594.24H444.113V612H440.225V604.848H433.361V612ZM451.689 594.24V612H447.801V594.24H451.689ZM462.595 606.096H459.283V612H455.395V594.24H462.595C466.219 594.24 468.643 596.616 468.643 600.168C468.643 603.72 466.219 606.096 462.595 606.096ZM461.731 597.696H459.283V602.64H461.731C463.603 602.64 464.539 601.824 464.539 600.168C464.539 598.512 463.603 597.696 461.731 597.696ZM478.298 606.096H474.986V612H471.098V594.24H478.298C481.922 594.24 484.346 596.616 484.346 600.168C484.346 603.72 481.922 606.096 478.298 606.096ZM477.434 597.696H474.986V602.64H477.434C479.306 602.64 480.242 601.824 480.242 600.168C480.242 598.512 479.306 597.696 477.434 597.696ZM490.689 594.24V612H486.801V594.24H490.689ZM498.235 612H494.395V594.24H498.235L505.723 605.544V594.24H509.563V612H505.723L498.235 600.72V612ZM521.254 597.6C518.038 597.6 516.382 599.856 516.382 603.288C516.382 606.864 518.398 608.64 521.23 608.64C524.158 608.64 525.454 607.056 525.622 605.208H520.918V601.8H529.27V612H525.934L525.718 610.392C524.758 611.52 522.838 612.264 520.726 612.264C515.758 612.264 512.278 608.616 512.278 603.168C512.278 597.816 515.854 593.952 521.35 593.952C525.598 593.952 528.862 596.448 529.27 600.288H525.19C524.734 598.416 523.102 597.6 521.254 597.6ZM542.72 594.24V608.4H549.728V612H538.832V594.24H542.72ZM567.741 603.096C567.741 608.52 564.165 612.288 559.005 612.288C553.869 612.288 550.341 608.544 550.341 603.12C550.341 597.696 553.893 593.928 559.029 593.928C564.189 593.928 567.741 597.672 567.741 603.096ZM563.637 603.096C563.637 599.712 561.909 597.672 559.053 597.672C556.173 597.672 554.445 599.712 554.445 603.096C554.445 606.504 556.173 608.544 559.053 608.544C561.909 608.544 563.637 606.456 563.637 603.096ZM578.442 597.6C575.226 597.6 573.57 599.856 573.57 603.288C573.57 606.864 575.586 608.64 578.418 608.64C581.346 608.64 582.642 607.056 582.81 605.208H578.106V601.8H586.458V612H583.122L582.906 610.392C581.946 611.52 580.026 612.264 577.914 612.264C572.946 612.264 569.466 608.616 569.466 603.168C569.466 597.816 573.042 593.952 578.538 593.952C582.786 593.952 586.05 596.448 586.458 600.288H582.378C581.922 598.416 580.29 597.6 578.442 597.6ZM593.556 594.24V612H589.668V594.24H593.556ZM596.278 599.4C596.278 596.184 598.99 593.904 602.806 593.904C606.622 593.904 609.022 596.016 609.022 599.376H605.158C605.158 598.128 604.222 597.36 602.758 597.36C601.174 597.36 600.166 598.08 600.166 599.256C600.166 600.336 600.718 600.864 601.966 601.128L604.63 601.68C607.798 602.328 609.31 603.84 609.31 606.648C609.31 610.08 606.622 612.312 602.542 612.312C598.582 612.312 596.014 610.176 596.014 606.84H599.878C599.878 608.136 600.838 608.856 602.566 608.856C604.318 608.856 605.422 608.16 605.422 607.032C605.422 606.048 604.966 605.544 603.79 605.304L601.078 604.752C597.91 604.104 596.278 602.304 596.278 599.4ZM610.285 597.84V594.24H624.253V597.84H619.213V612H615.325V597.84H610.285ZM630.47 594.24V612H626.582V594.24H630.47ZM641.856 612.288C636.528 612.288 633.192 608.76 633.192 603.144C633.192 597.6 636.72 593.952 642.024 593.952C646.464 593.952 649.656 596.496 650.208 600.48H646.104C645.576 598.704 644.064 597.696 641.928 597.696C639.048 597.696 637.296 599.736 637.296 603.12C637.296 606.456 639.072 608.544 641.928 608.544C644.112 608.544 645.72 607.464 646.2 605.712H650.232C649.608 609.672 646.296 612.288 641.856 612.288ZM651.848 599.4C651.848 596.184 654.56 593.904 658.376 593.904C662.192 593.904 664.592 596.016 664.592 599.376H660.728C660.728 598.128 659.792 597.36 658.328 597.36C656.744 597.36 655.736 598.08 655.736 599.256C655.736 600.336 656.288 600.864 657.536 601.128L660.2 601.68C663.368 602.328 664.88 603.84 664.88 606.648C664.88 610.08 662.192 612.312 658.112 612.312C654.152 612.312 651.584 610.176 651.584 606.84H655.448C655.448 608.136 656.408 608.856 658.136 608.856C659.888 608.856 660.992 608.16 660.992 607.032C660.992 606.048 660.536 605.544 659.36 605.304L656.648 604.752C653.48 604.104 651.848 602.304 651.848 599.4Z" fill="#191919"/>
<rect width="303" height="46" transform="translate(498)" fill="white"/>
<path d="M536.352 29.192C532.8 29.192 530.576 26.84 530.576 23.096C530.576 19.4 532.928 16.968 536.464 16.968C539.424 16.968 541.552 18.664 541.92 21.32H539.184C538.832 20.136 537.824 19.464 536.4 19.464C534.48 19.464 533.312 20.824 533.312 23.08C533.312 25.304 534.496 26.696 536.4 26.696C537.856 26.696 538.928 25.976 539.248 24.808H541.936C541.52 27.448 539.312 29.192 536.352 29.192ZM554.614 23.064C554.614 26.68 552.23 29.192 548.79 29.192C545.366 29.192 543.014 26.696 543.014 23.08C543.014 19.464 545.382 16.952 548.806 16.952C552.246 16.952 554.614 19.448 554.614 23.064ZM551.878 23.064C551.878 20.808 550.726 19.448 548.822 19.448C546.902 19.448 545.75 20.808 545.75 23.064C545.75 25.336 546.902 26.696 548.822 26.696C550.726 26.696 551.878 25.304 551.878 23.064ZM558.932 29H556.42V17.16H558.932L562.452 25.992L565.988 17.16H568.532V29H566.02V26.52C566.02 23.96 566.02 23.4 566.148 22.52L563.635 29H561.268L558.772 22.52C558.916 23.4 558.932 24.392 558.932 25.688V29ZM573.51 29H570.998V17.16H573.51L577.03 25.992L580.566 17.16H583.11V29H580.598V26.52C580.598 23.96 580.598 23.4 580.726 22.52L578.214 29H575.846L573.35 22.52C573.494 23.4 573.51 24.392 573.51 25.688V29ZM593.096 29H585.576V17.16H593.096V19.56H588.168V21.88H592.536V24.152H588.168V26.6H593.096V29ZM597.808 29H595.216V17.16H599.792C602.672 17.16 604.304 18.552 604.304 21C604.304 22.536 603.648 23.624 602.336 24.296L604.416 29H601.584L599.808 24.856H597.808V29ZM597.808 19.464V22.584H599.776C600.912 22.584 601.568 22.008 601.568 21C601.568 20.008 600.944 19.464 599.792 19.464H597.808ZM611.352 29.192C607.8 29.192 605.576 26.84 605.576 23.096C605.576 19.4 607.928 16.968 611.464 16.968C614.424 16.968 616.552 18.664 616.92 21.32H614.184C613.832 20.136 612.824 19.464 611.4 19.464C609.48 19.464 608.312 20.824 608.312 23.08C608.312 25.304 609.496 26.696 611.4 26.696C612.856 26.696 613.928 25.976 614.248 24.808H616.936C616.52 27.448 614.312 29.192 611.352 29.192ZM621.262 17.16V29H618.67V17.16H621.262ZM625.348 29H622.644L626.868 17.16H629.396L633.604 29H630.852L630.02 26.504H626.196L625.348 29ZM627.796 21.8L626.948 24.328H629.284L628.436 21.8C628.308 21.4 628.164 20.936 628.116 20.648C628.068 20.92 627.94 21.368 627.796 21.8ZM637.574 17.16V26.6H642.246V29H634.982V17.16H637.574ZM651.467 29L647.035 17.16H649.803L652.043 23.144C652.315 23.88 652.539 24.616 652.795 25.64C653.099 24.504 653.323 23.848 653.579 23.144L655.787 17.16H658.491L654.139 29H651.467ZM659.076 20.6C659.076 18.456 660.884 16.936 663.428 16.936C665.972 16.936 667.572 18.344 667.572 20.584H664.996C664.996 19.752 664.372 19.24 663.396 19.24C662.34 19.24 661.668 19.72 661.668 20.504C661.668 21.224 662.036 21.576 662.868 21.752L664.644 22.12C666.756 22.552 667.764 23.56 667.764 25.432C667.764 27.72 665.972 29.208 663.252 29.208C660.612 29.208 658.9 27.784 658.9 25.56H661.476C661.476 26.424 662.116 26.904 663.268 26.904C664.436 26.904 665.172 26.44 665.172 25.688C665.172 25.032 664.868 24.696 664.084 24.536L662.276 24.168C660.164 23.736 659.076 22.536 659.076 20.6ZM676.308 29H673.716V17.16H676.308V21.832H680.884V17.16H683.476V29H680.884V24.232H676.308V29ZM687.551 29H684.847L689.071 17.16H691.599L695.807 29H693.055L692.223 26.504H688.399L687.551 29ZM689.999 21.8L689.151 24.328H691.487L690.639 21.8C690.511 21.4 690.367 20.936 690.319 20.648C690.271 20.92 690.143 21.368 689.999 21.8ZM699.745 29H697.185V17.16H699.745L704.737 24.696V17.16H707.297V29H704.737L699.745 21.48V29ZM714.403 29H709.763V17.16H714.243C717.715 17.16 720.131 19.592 720.131 23.112C720.131 26.568 717.779 29 714.403 29ZM713.987 19.56H712.355V26.6H714.147C716.195 26.6 717.395 25.304 717.395 23.112C717.395 20.872 716.131 19.56 713.987 19.56ZM724.447 29H721.935V17.16H724.447L727.967 25.992L731.503 17.16H734.047V29H731.535V26.52C731.535 23.96 731.535 23.4 731.663 22.52L729.151 29H726.783L724.287 22.52C724.431 23.4 724.447 24.392 724.447 25.688V29ZM738.129 29H735.425L739.649 17.16H742.177L746.385 29H743.633L742.801 26.504H738.977L738.129 29ZM740.577 21.8L739.729 24.328H742.065L741.217 21.8C741.089 21.4 740.945 20.936 740.897 20.648C740.849 20.92 740.721 21.368 740.577 21.8ZM752.403 29H747.763V17.16H752.243C755.715 17.16 758.131 19.592 758.131 23.112C758.131 26.568 755.779 29 752.403 29ZM751.987 19.56H750.355V26.6H752.147C754.195 26.6 755.395 25.304 755.395 23.112C755.395 20.872 754.131 19.56 751.987 19.56ZM767.455 29H759.935V17.16H767.455V19.56H762.527V21.88H766.895V24.152H762.527V26.6H767.455V29Z" fill="#191919"/>
<rect width="598" height="75" transform="translate(478 480)" fill="white"/>
<path d="M522.064 522.128H517.648V530H512.464V506.32H522.064C526.896 506.32 530.128 509.488 530.128 514.224C530.128 518.96 526.896 522.128 522.064 522.128ZM520.912 510.928H517.648V517.52H520.912C523.408 517.52 524.656 516.432 524.656 514.224C524.656 512.016 523.408 510.928 520.912 510.928ZM538.586 530H533.402V506.32H542.554C548.314 506.32 551.578 509.104 551.578 514C551.578 517.072 550.266 519.248 547.642 520.592L551.802 530H546.138L542.586 521.712H538.586V530ZM538.586 510.928V517.168H542.522C544.794 517.168 546.106 516.016 546.106 514C546.106 512.016 544.858 510.928 542.554 510.928H538.586ZM577.321 518.128C577.321 525.36 572.553 530.384 565.673 530.384C558.825 530.384 554.121 525.392 554.121 518.16C554.121 510.928 558.857 505.904 565.705 505.904C572.585 505.904 577.321 510.896 577.321 518.128ZM571.849 518.128C571.849 513.616 569.545 510.896 565.737 510.896C561.897 510.896 559.593 513.616 559.593 518.128C559.593 522.672 561.897 525.392 565.737 525.392C569.545 525.392 571.849 522.608 571.849 518.128ZM591.173 530.384C584.069 530.384 579.621 525.68 579.621 518.192C579.621 510.8 584.325 505.936 591.397 505.936C597.317 505.936 601.573 509.328 602.309 514.64H596.837C596.133 512.272 594.117 510.928 591.269 510.928C587.429 510.928 585.093 513.648 585.093 518.16C585.093 522.608 587.461 525.392 591.269 525.392C594.181 525.392 596.325 523.952 596.965 521.616H602.341C601.509 526.896 597.093 530.384 591.173 530.384ZM620.848 530H605.808V506.32H620.848V511.12H610.992V515.76H619.728V520.304H610.992V525.2H620.848V530ZM623.777 513.2C623.777 508.912 627.393 505.872 632.481 505.872C637.569 505.872 640.769 508.688 640.769 513.168H635.617C635.617 511.504 634.369 510.48 632.417 510.48C630.305 510.48 628.961 511.44 628.961 513.008C628.961 514.448 629.697 515.152 631.361 515.504L634.913 516.24C639.137 517.104 641.153 519.12 641.153 522.864C641.153 527.44 637.569 530.416 632.129 530.416C626.849 530.416 623.425 527.568 623.425 523.12H628.577C628.577 524.848 629.857 525.808 632.161 525.808C634.497 525.808 635.969 524.88 635.969 523.376C635.969 522.064 635.361 521.392 633.793 521.072L630.177 520.336C625.953 519.472 623.777 517.072 623.777 513.2ZM643.59 513.2C643.59 508.912 647.206 505.872 652.294 505.872C657.382 505.872 660.582 508.688 660.582 513.168H655.43C655.43 511.504 654.182 510.48 652.23 510.48C650.118 510.48 648.774 511.44 648.774 513.008C648.774 514.448 649.51 515.152 651.174 515.504L654.726 516.24C658.95 517.104 660.966 519.12 660.966 522.864C660.966 527.44 657.382 530.416 651.942 530.416C646.661 530.416 643.238 527.568 643.238 523.12H648.39C648.39 524.848 649.67 525.808 651.974 525.808C654.31 525.808 655.782 524.88 655.782 523.376C655.782 522.064 655.174 521.392 653.606 521.072L649.99 520.336C645.766 519.472 643.59 517.072 643.59 513.2ZM694.758 518.128C694.758 525.36 689.99 530.384 683.11 530.384C676.262 530.384 671.558 525.392 671.558 518.16C671.558 510.928 676.294 505.904 683.142 505.904C690.022 505.904 694.758 510.896 694.758 518.128ZM689.286 518.128C689.286 513.616 686.982 510.896 683.174 510.896C679.334 510.896 677.03 513.616 677.03 518.128C677.03 522.672 679.334 525.392 683.174 525.392C686.982 525.392 689.286 522.608 689.286 518.128ZM711.874 520.752H703.554V530H698.37V506.32H713.442V511.12H703.554V516.08H711.874V520.752ZM728.696 530H723.288L731.736 506.32H736.792L745.208 530H739.704L738.04 525.008H730.392L728.696 530ZM733.592 515.6L731.896 520.656H736.568L734.872 515.6C734.616 514.8 734.328 513.872 734.232 513.296C734.136 513.84 733.88 514.736 733.592 515.6ZM757.244 530H747.964V506.32H756.924C763.868 506.32 768.7 511.184 768.7 518.224C768.7 525.136 763.996 530 757.244 530ZM756.412 511.12H753.148V525.2H756.732C760.828 525.2 763.228 522.608 763.228 518.224C763.228 513.744 760.7 511.12 756.412 511.12ZM781.588 530H772.308V506.32H781.268C788.212 506.32 793.044 511.184 793.044 518.224C793.044 525.136 788.34 530 781.588 530ZM780.756 511.12H777.492V525.2H781.076C785.172 525.2 787.572 522.608 787.572 518.224C787.572 513.744 785.044 511.12 780.756 511.12ZM801.836 506.32V530H796.652V506.32H801.836ZM811.897 530H806.777V506.32H811.897L821.881 521.392V506.32H827.001V530H821.881L811.897 514.96V530ZM842.589 510.8C838.301 510.8 836.093 513.808 836.093 518.384C836.093 523.152 838.781 525.52 842.557 525.52C846.461 525.52 848.189 523.408 848.413 520.944H842.141V516.4H853.277V530H848.829L848.541 527.856C847.261 529.36 844.701 530.352 841.885 530.352C835.261 530.352 830.621 525.488 830.621 518.224C830.621 511.088 835.389 505.936 842.717 505.936C848.381 505.936 852.733 509.264 853.277 514.384H847.837C847.229 511.888 845.053 510.8 842.589 510.8ZM875.627 522.128H871.211V530H866.027V506.32H875.627C880.458 506.32 883.691 509.488 883.691 514.224C883.691 518.96 880.458 522.128 875.627 522.128ZM874.475 510.928H871.211V517.52H874.475C876.971 517.52 878.219 516.432 878.219 514.224C878.219 512.016 876.971 510.928 874.475 510.928ZM892.148 530H886.964V506.32H896.116C901.876 506.32 905.14 509.104 905.14 514C905.14 517.072 903.828 519.248 901.204 520.592L905.364 530H899.7L896.148 521.712H892.148V530ZM892.148 510.928V517.168H896.084C898.356 517.168 899.668 516.016 899.668 514C899.668 512.016 898.42 510.928 896.116 510.928H892.148ZM930.883 518.128C930.883 525.36 926.115 530.384 919.235 530.384C912.387 530.384 907.683 525.392 907.683 518.16C907.683 510.928 912.419 505.904 919.267 505.904C926.147 505.904 930.883 510.896 930.883 518.128ZM925.411 518.128C925.411 513.616 923.107 510.896 919.299 510.896C915.459 510.896 913.155 513.616 913.155 518.128C913.155 522.672 915.459 525.392 919.299 525.392C923.107 525.392 925.411 522.608 925.411 518.128ZM943.775 530H934.495V506.32H943.455C950.399 506.32 955.231 511.184 955.231 518.224C955.231 525.136 950.527 530 943.775 530ZM942.943 511.12H939.679V525.2H943.263C947.359 525.2 949.759 522.608 949.759 518.224C949.759 513.744 947.231 511.12 942.943 511.12ZM958.679 521.104V506.32H963.863V520.752C963.863 523.728 965.495 525.36 968.407 525.36C971.351 525.36 973.015 523.664 973.015 520.752V506.32H978.199V521.104C978.199 526.736 974.359 530.384 968.407 530.384C962.487 530.384 958.679 526.768 958.679 521.104ZM993.204 530.384C986.1 530.384 981.652 525.68 981.652 518.192C981.652 510.8 986.356 505.936 993.428 505.936C999.348 505.936 1003.6 509.328 1004.34 514.64H998.868C998.164 512.272 996.148 510.928 993.3 510.928C989.46 510.928 987.124 513.648 987.124 518.16C987.124 522.608 989.492 525.392 993.3 525.392C996.212 525.392 998.356 523.952 998.996 521.616H1004.37C1003.54 526.896 999.124 530.384 993.204 530.384ZM1004.73 511.12V506.32H1023.36V511.12H1016.64V530H1011.45V511.12H1004.73ZM1025.15 513.2C1025.15 508.912 1028.77 505.872 1033.86 505.872C1038.94 505.872 1042.14 508.688 1042.14 513.168H1036.99C1036.99 511.504 1035.74 510.48 1033.79 510.48C1031.68 510.48 1030.34 511.44 1030.34 513.008C1030.34 514.448 1031.07 515.152 1032.74 515.504L1036.29 516.24C1040.51 517.104 1042.53 519.12 1042.53 522.864C1042.53 527.44 1038.94 530.416 1033.5 530.416C1028.22 530.416 1024.8 527.568 1024.8 523.12H1029.95C1029.95 524.848 1031.23 525.808 1033.54 525.808C1035.87 525.808 1037.34 524.88 1037.34 523.376C1037.34 522.064 1036.74 521.392 1035.17 521.072L1031.55 520.336C1027.33 519.472 1025.15 517.072 1025.15 513.2Z" fill="#191919"/>
<rect width="231" height="62" transform="translate(465.5 701)" fill="white"/>
<path d="M488.192 722.28V743H483.656V722.28H488.192ZM496.995 743H492.515V722.28H496.995L505.731 735.468V722.28H510.211V743H505.731L496.995 729.84V743ZM541.089 732.612C541.089 738.94 536.917 743.336 530.897 743.336C524.905 743.336 520.789 738.968 520.789 732.64C520.789 726.312 524.933 721.916 530.925 721.916C536.945 721.916 541.089 726.284 541.089 732.612ZM536.301 732.612C536.301 728.664 534.285 726.284 530.953 726.284C527.593 726.284 525.577 728.664 525.577 732.612C525.577 736.588 527.593 738.968 530.953 738.968C534.285 738.968 536.301 736.532 536.301 732.612ZM548.73 743H544.25V722.28H548.73L557.466 735.468V722.28H561.946V743H557.466L548.73 729.84V743ZM579.421 743H566.261V722.28H579.421V726.48H570.797V730.54H578.441V734.516H570.797V738.8H579.421V743ZM595.023 743L588.807 722.28H593.539L596.255 731.268C596.619 732.5 596.955 733.732 597.291 735.776C597.627 733.732 597.963 732.556 598.327 731.268L600.875 722.28H605.943L608.379 731.268C608.715 732.528 609.051 733.788 609.415 735.776C609.835 733.676 610.143 732.528 610.507 731.324L613.279 722.28H617.899L611.571 743H607.147L603.367 729.392L599.475 743H595.023ZM638.788 732.612C638.788 738.94 634.616 743.336 628.596 743.336C622.604 743.336 618.488 738.968 618.488 732.64C618.488 726.312 622.632 721.916 628.624 721.916C634.644 721.916 638.788 726.284 638.788 732.612ZM634 732.612C634 728.664 631.984 726.284 628.652 726.284C625.292 726.284 623.276 728.664 623.276 732.612C623.276 736.588 625.292 738.968 628.652 738.968C631.984 738.968 634 736.532 634 732.612ZM646.485 743H641.949V722.28H649.957C654.997 722.28 657.853 724.716 657.853 729C657.853 731.688 656.705 733.592 654.409 734.768L658.049 743H653.093L649.985 735.748H646.485V743ZM646.485 726.312V731.772H649.929C651.917 731.772 653.065 730.764 653.065 729C653.065 727.264 651.973 726.312 649.957 726.312H646.485ZM669.346 743H661.226V722.28H669.066C675.142 722.28 679.37 726.536 679.37 732.696C679.37 738.744 675.254 743 669.346 743ZM668.618 726.48H665.762V738.8H668.898C672.482 738.8 674.582 736.532 674.582 732.696C674.582 728.776 672.37 726.48 668.618 726.48Z" fill="#191919"/>
<rect x="136.5" y="765.5" width="889" height="76" stroke="white" stroke-width="5"/>
<path d="M204.604 797.236C204.604 799.036 203.38 800.296 201.58 800.296C199.6 800.296 198.304 798.712 198.304 796.336C198.304 792.808 200.536 790.216 203.848 789.856V791.836C202.084 792.16 200.896 793.132 200.896 794.608C201.184 794.464 201.544 794.392 201.94 794.392C203.452 794.392 204.604 795.472 204.604 797.236ZM212.524 797.236C212.524 799.036 211.3 800.296 209.5 800.296C207.52 800.296 206.224 798.712 206.224 796.336C206.224 792.808 208.456 790.216 211.768 789.856V791.836C210.004 792.16 208.816 793.132 208.816 794.608C209.104 794.464 209.464 794.392 209.86 794.392C211.372 794.392 212.524 795.472 212.524 797.236ZM228.416 808.144H223.448V817H217.616V790.36H228.416C233.852 790.36 237.488 793.924 237.488 799.252C237.488 804.58 233.852 808.144 228.416 808.144ZM227.12 795.544H223.448V802.96H227.12C229.928 802.96 231.332 801.736 231.332 799.252C231.332 796.768 229.928 795.544 227.12 795.544ZM265.794 803.644C265.794 811.78 260.43 817.432 252.69 817.432C244.986 817.432 239.694 811.816 239.694 803.68C239.694 795.544 245.022 789.892 252.726 789.892C260.466 789.892 265.794 795.508 265.794 803.644ZM259.638 803.644C259.638 798.568 257.046 795.508 252.762 795.508C248.442 795.508 245.85 798.568 245.85 803.644C245.85 808.756 248.442 811.816 252.762 811.816C257.046 811.816 259.638 808.684 259.638 803.644ZM266.892 795.76V790.36H287.844V795.76H280.284V817H274.452V795.76H266.892ZM290.376 795.76V790.36H311.328V795.76H303.768V817H297.936V795.76H290.376ZM331.743 817H314.823V790.36H331.743V795.76H320.655V800.98H330.483V806.092H320.655V811.6H331.743V817ZM342.346 817H336.514V790.36H346.81C353.29 790.36 356.962 793.492 356.962 799C356.962 802.456 355.486 804.904 352.534 806.416L357.214 817H350.842L346.846 807.676H342.346V817ZM342.346 795.544V802.564H346.774C349.33 802.564 350.806 801.268 350.806 799C350.806 796.768 349.402 795.544 346.81 795.544H342.346ZM367.184 806.884L358.184 790.36H364.7L369.164 799C369.596 799.828 369.884 800.476 370.172 801.16C370.496 800.512 370.784 799.828 371.216 798.964L375.68 790.36H382.016L373.016 806.884V817H367.184V806.884ZM393.187 798.1C393.187 793.276 397.255 789.856 402.979 789.856C408.703 789.856 412.303 793.024 412.303 798.064H406.507C406.507 796.192 405.103 795.04 402.907 795.04C400.531 795.04 399.019 796.12 399.019 797.884C399.019 799.504 399.847 800.296 401.719 800.692L405.715 801.52C410.467 802.492 412.735 804.76 412.735 808.972C412.735 814.12 408.703 817.468 402.583 817.468C396.643 817.468 392.791 814.264 392.791 809.26H398.587C398.587 811.204 400.027 812.284 402.619 812.284C405.247 812.284 406.903 811.24 406.903 809.548C406.903 808.072 406.219 807.316 404.455 806.956L400.387 806.128C395.635 805.156 393.187 802.456 393.187 798.1ZM433.52 817H416.6V790.36H433.52V795.76H422.432V800.98H432.26V806.092H422.432V811.6H433.52V817ZM444.124 790.36V811.6H454.636V817H438.292V790.36H444.124ZM464.127 790.36V811.6H474.639V817H458.295V790.36H464.127ZM484.131 790.36V817H478.299V790.36H484.131ZM495.45 817H489.69V790.36H495.45L506.682 807.316V790.36H512.442V817H506.682L495.45 800.08V817ZM529.979 795.4C525.155 795.4 522.671 798.784 522.671 803.932C522.671 809.296 525.695 811.96 529.943 811.96C534.335 811.96 536.279 809.584 536.531 806.812H529.475V801.7H542.003V817H536.999L536.675 814.588C535.235 816.28 532.355 817.396 529.187 817.396C521.735 817.396 516.515 811.924 516.515 803.752C516.515 795.724 521.879 789.928 530.123 789.928C536.495 789.928 541.391 793.672 542.003 799.432H535.883C535.199 796.624 532.751 795.4 529.979 795.4ZM566.786 817H556.346V790.36H566.426C574.238 790.36 579.674 795.832 579.674 803.752C579.674 811.528 574.382 817 566.786 817ZM565.85 795.76H562.178V811.6H566.21C570.818 811.6 573.518 808.684 573.518 803.752C573.518 798.712 570.674 795.76 565.85 795.76ZM608.357 803.644C608.357 811.78 602.993 817.432 595.253 817.432C587.549 817.432 582.257 811.816 582.257 803.68C582.257 795.544 587.585 789.892 595.289 789.892C603.029 789.892 608.357 795.508 608.357 803.644ZM602.201 803.644C602.201 798.568 599.609 795.508 595.325 795.508C591.005 795.508 588.413 798.568 588.413 803.644C588.413 808.756 591.005 811.816 595.325 811.816C599.609 811.816 602.201 808.684 602.201 803.644ZM629.34 817H612.42V790.36H629.34V795.76H618.252V800.98H628.08V806.092H618.252V811.6H629.34V817ZM632.636 798.1C632.636 793.276 636.704 789.856 642.428 789.856C648.152 789.856 651.752 793.024 651.752 798.064H645.956C645.956 796.192 644.552 795.04 642.356 795.04C639.98 795.04 638.468 796.12 638.468 797.884C638.468 799.504 639.296 800.296 641.168 800.692L645.164 801.52C649.916 802.492 652.184 804.76 652.184 808.972C652.184 814.12 648.152 817.468 642.032 817.468C636.092 817.468 632.24 814.264 632.24 809.26H638.036C638.036 811.204 639.476 812.284 642.068 812.284C644.696 812.284 646.352 811.24 646.352 809.548C646.352 808.072 645.668 807.316 643.904 806.956L639.836 806.128C635.084 805.156 632.636 802.456 632.636 798.1ZM671.337 817H665.577V790.36H671.337L682.569 807.316V790.36H688.329V817H682.569L671.337 800.08V817ZM718.501 803.644C718.501 811.78 713.137 817.432 705.397 817.432C697.693 817.432 692.401 811.816 692.401 803.68C692.401 795.544 697.729 789.892 705.433 789.892C713.173 789.892 718.501 795.508 718.501 803.644ZM712.345 803.644C712.345 798.568 709.753 795.508 705.469 795.508C701.149 795.508 698.557 798.568 698.557 803.644C698.557 808.756 701.149 811.816 705.469 811.816C709.753 811.816 712.345 808.684 712.345 803.644ZM719.599 795.76V790.36H740.551V795.76H732.991V817H727.159V795.76H719.599ZM759.333 817L751.341 790.36H757.425L760.917 801.916C761.385 803.5 761.817 805.084 762.249 807.712C762.681 805.084 763.113 803.572 763.581 801.916L766.857 790.36H773.373L776.505 801.916C776.937 803.536 777.369 805.156 777.837 807.712C778.377 805.012 778.773 803.536 779.241 801.988L782.805 790.36H788.745L780.609 817H774.921L770.061 799.504L765.057 817H759.333ZM815.603 803.644C815.603 811.78 810.239 817.432 802.499 817.432C794.795 817.432 789.503 811.816 789.503 803.68C789.503 795.544 794.831 789.892 802.535 789.892C810.275 789.892 815.603 795.508 815.603 803.644ZM809.447 803.644C809.447 798.568 806.855 795.508 802.571 795.508C798.251 795.508 795.659 798.568 795.659 803.644C795.659 808.756 798.251 811.816 802.571 811.816C806.855 811.816 809.447 808.684 809.447 803.644ZM825.498 817H819.666V790.36H829.962C836.442 790.36 840.114 793.492 840.114 799C840.114 802.456 838.638 804.904 835.686 806.416L840.366 817H833.994L829.998 807.676H825.498V817ZM825.498 795.544V802.564H829.926C832.482 802.564 833.958 801.268 833.958 799C833.958 796.768 832.554 795.544 829.962 795.544H825.498ZM842.048 795.76V790.36H863V795.76H855.44V817H849.608V795.76H842.048ZM872.327 817H866.495V790.36H872.327V800.872H882.623V790.36H888.455V817H882.623V806.272H872.327V817ZM909.346 790.36V817H903.514V790.36H909.346ZM912.853 795.76V790.36H933.805V795.76H926.245V817H920.413V795.76H912.853ZM943.059 809.044H938.487C937.875 805.948 937.479 801.088 937.479 796.372V790.36H944.175V796.372C944.175 801.232 943.707 806.092 943.059 809.044ZM940.791 817.468C938.955 817.468 937.479 815.992 937.479 814.228C937.479 812.428 938.955 810.952 940.791 810.952C942.555 810.952 944.103 812.428 944.103 814.228C944.103 815.992 942.555 817.468 940.791 817.468ZM955.717 793.816C955.717 797.344 953.485 799.936 950.173 800.296V798.316C951.937 797.992 953.125 797.02 953.125 795.544C952.837 795.688 952.477 795.76 952.081 795.76C950.569 795.76 949.417 794.68 949.417 792.916C949.417 791.116 950.641 789.856 952.441 789.856C954.421 789.856 955.717 791.44 955.717 793.816ZM963.637 793.816C963.637 797.344 961.405 799.936 958.093 800.296V798.316C959.857 797.992 961.045 797.02 961.045 795.544C960.757 795.688 960.397 795.76 960.001 795.76C958.489 795.76 957.337 794.68 957.337 792.916C957.337 791.116 958.561 789.856 960.361 789.856C962.341 789.856 963.637 791.44 963.637 793.816Z" fill="white"/>
<rect width="781" height="140" transform="translate(381 132)" fill="white"/>
<path d="M436.92 209.88H416.12V233H403.16V173.8H440.84V185.8H416.12V198.2H436.92V209.88ZM487.323 233H449.723V173.8H487.323V185.8H462.683V197.4H484.523V208.76H462.683V221H487.323V233ZM506.006 233H492.486L513.606 173.8H526.246L547.286 233H533.526L529.366 220.52H510.246L506.006 233ZM518.246 197L514.006 209.64H525.686L521.446 197C520.806 195 520.086 192.68 519.846 191.24C519.606 192.6 518.966 194.84 518.246 197ZM567.136 233H554.176V173.8H577.056C591.456 173.8 599.616 180.76 599.616 193C599.616 200.68 596.336 206.12 589.776 209.48L600.176 233H586.016L577.136 212.28H567.136V233ZM567.136 185.32V200.92H576.976C582.656 200.92 585.936 198.04 585.936 193C585.936 188.04 582.816 185.32 577.056 185.32H567.136ZM685.146 203.32C685.146 221.4 673.226 233.96 656.026 233.96C638.906 233.96 627.146 221.48 627.146 203.4C627.146 185.32 638.986 172.76 656.106 172.76C673.306 172.76 685.146 185.24 685.146 203.32ZM671.466 203.32C671.466 192.04 665.706 185.24 656.186 185.24C646.586 185.24 640.826 192.04 640.826 203.32C640.826 214.68 646.586 221.48 656.186 221.48C665.706 221.48 671.466 214.52 671.466 203.32ZM727.936 209.88H707.136V233H694.176V173.8H731.856V185.8H707.136V198.2H727.936V209.88ZM799.51 233H761.91V173.8H799.51V185.8H774.87V197.4H796.71V208.76H774.87V221H799.51V233ZM823.073 233H810.113V173.8H832.993C847.393 173.8 855.553 180.76 855.553 193C855.553 200.68 852.273 206.12 845.713 209.48L856.113 233H841.953L833.073 212.28H823.073V233ZM823.073 185.32V200.92H832.913C838.593 200.92 841.873 198.04 841.873 193C841.873 188.04 838.753 185.32 832.993 185.32H823.073ZM878.151 233H865.191V173.8H888.071C902.471 173.8 910.631 180.76 910.631 193C910.631 200.68 907.351 206.12 900.791 209.48L911.191 233H897.031L888.151 212.28H878.151V233ZM878.151 185.32V200.92H887.991C893.671 200.92 896.951 198.04 896.951 193C896.951 188.04 893.831 185.32 888.071 185.32H878.151ZM974.989 203.32C974.989 221.4 963.069 233.96 945.869 233.96C928.749 233.96 916.989 221.48 916.989 203.4C916.989 185.32 928.829 172.76 945.949 172.76C963.149 172.76 974.989 185.24 974.989 203.32ZM961.309 203.32C961.309 192.04 955.549 185.24 946.029 185.24C936.429 185.24 930.669 192.04 930.669 203.32C930.669 214.68 936.429 221.48 946.029 221.48C955.549 221.48 961.309 214.52 961.309 203.32ZM996.979 233H984.019V173.8H1006.9C1021.3 173.8 1029.46 180.76 1029.46 193C1029.46 200.68 1026.18 206.12 1019.62 209.48L1030.02 233H1015.86L1006.98 212.28H996.979V233ZM996.979 185.32V200.92H1006.82C1012.5 200.92 1015.78 198.04 1015.78 193C1015.78 188.04 1012.66 185.32 1006.9 185.32H996.979ZM1035.82 191C1035.82 180.28 1044.86 172.68 1057.58 172.68C1070.3 172.68 1078.3 179.72 1078.3 190.92H1065.42C1065.42 186.76 1062.3 184.2 1057.42 184.2C1052.14 184.2 1048.78 186.6 1048.78 190.52C1048.78 194.12 1050.62 195.88 1054.78 196.76L1063.66 198.6C1074.22 200.76 1079.26 205.8 1079.26 215.16C1079.26 226.6 1070.3 234.04 1056.7 234.04C1043.5 234.04 1034.94 226.92 1034.94 215.8H1047.82C1047.82 220.12 1051.02 222.52 1056.78 222.52C1062.62 222.52 1066.3 220.2 1066.3 216.44C1066.3 213.16 1064.78 211.48 1060.86 210.68L1051.82 208.84C1041.26 206.68 1035.82 200.68 1035.82 191Z" fill="#191919"/>
<rect width="955" height="134" transform="translate(0 334)" fill="white"/>
<path d="M94.976 426H84.928V378.64H94.976L109.056 413.968L123.2 378.64H133.376V426H123.328V416.08C123.328 405.84 123.328 403.6 123.84 400.08L113.792 426H104.32L94.336 400.08C94.912 403.6 94.976 407.568 94.976 412.752V426ZM149.705 426H138.889L155.785 378.64H165.897L182.729 426H171.721L168.393 416.016H153.097L149.705 426ZM159.497 397.2L156.105 407.312H165.449L162.057 397.2C161.545 395.6 160.969 393.744 160.777 392.592C160.585 393.68 160.073 395.472 159.497 397.2ZM198.481 426H188.241V378.64H198.481L218.449 408.784V378.64H228.689V426H218.449L198.481 395.92V426ZM245.017 426H234.201L251.097 378.64H261.209L278.041 426H267.033L263.705 416.016H248.409L245.017 426ZM254.809 397.2L251.417 407.312H260.761L257.369 397.2C256.857 395.6 256.281 393.744 256.089 392.592C255.897 393.68 255.385 395.472 254.809 397.2ZM302.303 387.6C293.727 387.6 289.311 393.616 289.311 402.768C289.311 412.304 294.687 417.04 302.239 417.04C310.047 417.04 313.503 412.816 313.951 407.888H301.407V398.8H323.679V426H314.783L314.207 421.712C311.647 424.72 306.527 426.704 300.895 426.704C287.647 426.704 278.367 416.976 278.367 402.448C278.367 388.176 287.903 377.872 302.559 377.872C313.887 377.872 322.591 384.528 323.679 394.768H312.799C311.583 389.776 307.231 387.6 302.303 387.6ZM342.609 378.64V426H332.241V378.64H342.609ZM362.731 426H352.491V378.64H362.731L382.699 408.784V378.64H392.939V426H382.699L362.731 395.92V426ZM424.115 387.6C415.539 387.6 411.123 393.616 411.123 402.768C411.123 412.304 416.499 417.04 424.051 417.04C431.859 417.04 435.315 412.816 435.763 407.888H423.219V398.8H445.491V426H436.595L436.019 421.712C433.459 424.72 428.339 426.704 422.707 426.704C409.459 426.704 400.179 416.976 400.179 402.448C400.179 388.176 409.715 377.872 424.371 377.872C435.699 377.872 444.403 384.528 445.491 394.768H434.611C433.395 389.776 429.043 387.6 424.115 387.6ZM514.767 402.256C514.767 416.72 505.231 426.768 491.471 426.768C477.775 426.768 468.367 416.784 468.367 402.32C468.367 387.856 477.839 377.808 491.535 377.808C505.295 377.808 514.767 387.792 514.767 402.256ZM503.823 402.256C503.823 393.232 499.215 387.792 491.599 387.792C483.919 387.792 479.311 393.232 479.311 402.256C479.311 411.344 483.919 416.784 491.599 416.784C499.215 416.784 503.823 411.216 503.823 402.256ZM532.231 426H521.991V378.64H532.231L552.199 408.784V378.64H562.439V426H552.199L532.231 395.92V426ZM582.671 378.64V416.4H601.359V426H572.303V378.64H582.671ZM618.234 378.64V426H607.866V378.64H618.234ZM638.356 426H628.116V378.64H638.356L658.324 408.784V378.64H668.564V426H658.324L638.356 395.92V426ZM708.508 426H678.428V378.64H708.508V388.24H688.796V397.52H706.268V406.608H688.796V416.4H708.508V426ZM731.304 392.4C731.304 383.824 738.536 377.744 748.712 377.744C758.888 377.744 765.288 383.376 765.288 392.336H754.984C754.984 389.008 752.488 386.96 748.584 386.96C744.36 386.96 741.672 388.88 741.672 392.016C741.672 394.896 743.144 396.304 746.472 397.008L753.576 398.48C762.024 400.208 766.056 404.24 766.056 411.728C766.056 420.88 758.888 426.832 748.008 426.832C737.448 426.832 730.6 421.136 730.6 412.24H740.904C740.904 415.696 743.464 417.616 748.072 417.616C752.744 417.616 755.688 415.76 755.688 412.752C755.688 410.128 754.472 408.784 751.336 408.144L744.104 406.672C735.656 404.944 731.304 400.144 731.304 392.4ZM768.655 388.24V378.64H805.903V388.24H792.463V426H782.095V388.24H768.655ZM853.954 402.256C853.954 416.72 844.418 426.768 830.658 426.768C816.962 426.768 807.554 416.784 807.554 402.32C807.554 387.856 817.026 377.808 830.722 377.808C844.482 377.808 853.954 387.792 853.954 402.256ZM843.01 402.256C843.01 393.232 838.402 387.792 830.786 387.792C823.106 387.792 818.498 393.232 818.498 402.256C818.498 411.344 823.106 416.784 830.786 416.784C838.402 416.784 843.01 411.216 843.01 402.256ZM871.546 426H861.178V378.64H879.482C891.002 378.64 897.53 384.208 897.53 394C897.53 400.144 894.906 404.496 889.658 407.184L897.978 426H886.65L879.546 409.424H871.546V426ZM871.546 387.856V400.336H879.418C883.962 400.336 886.586 398.032 886.586 394C886.586 390.032 884.09 387.856 879.482 387.856H871.546ZM935.321 426H905.241V378.64H935.321V388.24H915.609V397.52H933.081V406.608H915.609V416.4H935.321V426Z" fill="#191919"/>
<rect width="462" height="38" transform="translate(619 284)" fill="white"/>
<path d="M635.576 300.6C635.576 298.456 637.384 296.936 639.928 296.936C642.472 296.936 644.072 298.344 644.072 300.584H641.496C641.496 299.752 640.872 299.24 639.896 299.24C638.84 299.24 638.168 299.72 638.168 300.504C638.168 301.224 638.536 301.576 639.368 301.752L641.144 302.12C643.256 302.552 644.264 303.56 644.264 305.432C644.264 307.72 642.472 309.208 639.752 309.208C637.112 309.208 635.4 307.784 635.4 305.56H637.976C637.976 306.424 638.616 306.904 639.768 306.904C640.936 306.904 641.672 306.44 641.672 305.688C641.672 305.032 641.368 304.696 640.584 304.536L638.776 304.168C636.664 303.736 635.576 302.536 635.576 300.6ZM648.574 297.16V309H645.982V297.16H648.574ZM650.133 299.56V297.16H659.445V299.56H656.085V309H653.493V299.56H650.133ZM668.518 309H660.998V297.16H668.518V299.56H663.59V301.88H667.958V304.152H663.59V306.6H668.518V309ZM674.873 309V297.16H679.801C682.185 297.16 683.625 298.408 683.625 300.44C683.625 301.704 683.049 302.632 681.977 303.096C683.145 303.48 683.769 304.392 683.769 305.736C683.769 307.832 682.361 309 679.801 309H674.873ZM679.529 299.432H677.465V302.008H679.529C680.457 302.008 680.969 301.544 680.969 300.696C680.969 299.864 680.473 299.432 679.529 299.432ZM679.657 304.184H677.465V306.728H679.657C680.617 306.728 681.113 306.296 681.113 305.416C681.113 304.616 680.601 304.184 679.657 304.184ZM685.433 304.552V297.16H688.025V304.376C688.025 305.864 688.841 306.68 690.297 306.68C691.769 306.68 692.601 305.832 692.601 304.376V297.16H695.193V304.552C695.193 307.368 693.273 309.192 690.297 309.192C687.337 309.192 685.433 307.384 685.433 304.552ZM700.168 297.16V309H697.576V297.16H700.168ZM705.23 297.16V306.6H709.902V309H702.638V297.16H705.23ZM716.169 309H711.529V297.16H716.009C719.481 297.16 721.897 299.592 721.897 303.112C721.897 306.568 719.545 309 716.169 309ZM715.753 299.56H714.121V306.6H715.913C717.961 306.6 719.161 305.304 719.161 303.112C719.161 300.872 717.897 299.56 715.753 299.56ZM726.293 297.16V309H723.701V297.16H726.293ZM731.323 309H728.763V297.16H731.323L736.315 304.696V297.16H738.875V309H736.315L731.323 301.48V309ZM746.669 299.4C744.525 299.4 743.421 300.904 743.421 303.192C743.421 305.576 744.765 306.76 746.653 306.76C748.605 306.76 749.469 305.704 749.581 304.472H746.445V302.2H752.013V309H749.789L749.645 307.928C749.005 308.68 747.725 309.176 746.317 309.176C743.005 309.176 740.685 306.744 740.685 303.112C740.685 299.544 743.069 296.968 746.733 296.968C749.565 296.968 751.741 298.632 752.013 301.192H749.293C748.989 299.944 747.901 299.4 746.669 299.4Z" fill="#191919"/>
</svg>
