<svg width="16" height="16" viewBox="0 0 16 16" fill="none" xmlns="http://www.w3.org/2000/svg">
<path d="M14.2422 0C15.2137 0 16 0.786344 16 1.75781V6.05762C16 6.76749 15.6523 7.42881 15.29 7.98438C15.4703 8.26204 15.7494 8.56751 15.8486 8.89062C15.9477 9.21387 16 9.55703 16 9.91113V14.2422C16 15.2137 15.2137 16 14.2422 16H7.90137L5.36621 13.4639H8.96094C10.9152 13.4639 12.5146 11.8654 12.5146 9.91113C12.5146 9.20129 12.3027 8.53992 11.9404 7.98438C12.3011 7.42879 12.5146 6.76591 12.5146 6.05762C12.5145 4.10345 10.9151 2.50488 8.96094 2.50488H3.81445V11.9111L0 8.09668V0H14.2422Z" fill="url(#paint0_linear_4_3961)"/>
<path d="M0 6.854L3.81764 7.59479L7.99918 13.4642L9.34591 16.0001H7.90171L0 8.09677V6.854Z" fill="#002C72" fill-opacity="0.5"/>
<path d="M7.90171 15.9999L0 8.09655V7.59619H7.99918V15.9999" fill="#01E3FB"/>
<path d="M7.90171 15.9999L0 8.09655V7.59619H7.99918V15.9999H7.90171Z" fill="#01E3FB"/>
<path d="M7.90171 15.9999L0 8.09655V7.59619H7.99918V15.9999H7.90171Z" fill="url(#paint1_linear_4_3961)"/>
<path d="M9.05355 7.6093C9.66993 7.6093 10.1696 7.10963 10.1696 6.49325C10.1696 5.87687 9.66993 5.3772 9.05355 5.3772C8.43717 5.3772 7.9375 5.87687 7.9375 6.49325C7.9375 7.10963 8.43717 7.6093 9.05355 7.6093Z" fill="#72D3EE"/>
<path d="M9.05355 7.6093C9.66993 7.6093 10.1696 7.10963 10.1696 6.49325C10.1696 5.87687 9.66993 5.3772 9.05355 5.3772C8.43717 5.3772 7.9375 5.87687 7.9375 6.49325C7.9375 7.10963 8.43717 7.6093 9.05355 7.6093Z" fill="url(#paint2_linear_4_3961)"/>
<defs>
<linearGradient id="paint0_linear_4_3961" x1="12.3599" y1="2.20091" x2="5.81667" y2="14.8115" gradientUnits="userSpaceOnUse">
<stop stop-color="#A3DFFF"/>
<stop offset="0.716667" stop-color="#8AD5EC"/>
</linearGradient>
<linearGradient id="paint1_linear_4_3961" x1="9.94273" y1="8.12976" x2="0.308073" y2="10.8589" gradientUnits="userSpaceOnUse">
<stop stop-color="#02589F"/>
<stop offset="0.0416638" stop-color="#0285C7"/>
<stop offset="0.130206" stop-color="#02AADF"/>
<stop offset="0.442708" stop-color="#6CD0F3"/>
<stop offset="0.713543" stop-color="#83D9DC"/>
<stop offset="1" stop-color="#ABE1CC"/>
</linearGradient>
<linearGradient id="paint2_linear_4_3961" x1="9.66179" y1="5.68424" x2="8.74896" y2="7.4435" gradientUnits="userSpaceOnUse">
<stop stop-color="#A3DFFF"/>
<stop offset="0.716667" stop-color="#8AD5EC"/>
</linearGradient>
</defs>
</svg>
