<svg width="329" height="335" viewBox="0 0 329 335" fill="none" xmlns="http://www.w3.org/2000/svg">
<g filter="url(#filter0_dd_368_3488)">
<path d="M7.392 17.6641V6.20806H11.584C13.792 6.20806 15.152 7.32806 15.152 9.16806C15.152 10.5121 14.56 11.4241 13.376 11.8881C14.704 12.3201 15.376 13.2481 15.376 14.6561C15.376 16.4961 14 17.6641 11.824 17.6641H7.392ZM11.568 7.23206H8.544V11.4241H11.712C13.152 11.4241 13.968 10.6241 13.968 9.26406C13.968 7.98406 13.104 7.23206 11.568 7.23206ZM11.824 12.4321H8.544V16.6241H11.824C13.328 16.6241 14.208 15.8401 14.208 14.5121C14.208 13.2161 13.312 12.4321 11.824 12.4321ZM19.4385 17.8561C17.7905 17.8561 16.8145 16.9281 16.8145 15.5681C16.8145 14.1441 17.9025 13.2481 19.7105 13.1041L22.2705 12.8961V12.6401C22.2705 11.1201 21.3585 10.6401 20.2225 10.6401C18.8785 10.6401 18.0785 11.2481 18.0785 12.2881H17.0705C17.0705 10.7201 18.3505 9.71206 20.2545 9.71206C22.0465 9.71206 23.3585 10.6081 23.3585 12.6561V17.6641H22.4305L22.2865 16.3041C21.8065 17.2801 20.7505 17.8561 19.4385 17.8561ZM19.6945 16.9601C21.3265 16.9601 22.2705 15.8241 22.2705 14.1441V13.7281L19.9825 13.9041C18.5265 14.0321 17.9345 14.6721 17.9345 15.5361C17.9345 16.4801 18.6385 16.9601 19.6945 16.9601ZM24.9179 15.4881H25.9739C25.9739 16.3841 26.6459 16.9441 27.7339 16.9441C28.9339 16.9441 29.6379 16.4321 29.6379 15.6001C29.6379 14.9601 29.3179 14.5921 28.4059 14.3681L27.0779 14.0321C25.7339 13.6961 25.0779 12.9921 25.0779 11.9361C25.0779 10.5761 26.2139 9.71206 27.8779 9.71206C29.5099 9.71206 30.5659 10.6081 30.6139 12.0481H29.5419C29.5099 11.1521 28.8859 10.6241 27.8459 10.6241C26.7579 10.6241 26.1499 11.0881 26.1499 11.9201C26.1499 12.5121 26.5659 12.9281 27.4139 13.1361L28.7419 13.4721C30.0859 13.8081 30.6939 14.4321 30.6939 15.5521C30.6939 16.9441 29.5099 17.8561 27.7499 17.8561C26.0059 17.8561 24.9179 16.9281 24.9179 15.4881ZM35.7594 17.8561C33.4874 17.8561 31.9674 16.2241 31.9674 13.7921C31.9674 11.3761 33.4714 9.71206 35.6794 9.71206C37.7754 9.71206 39.1994 11.2001 39.1994 13.3921V13.9361H33.0394C33.1194 15.8241 34.1114 16.9121 35.7754 16.9121C37.0394 16.9121 37.8554 16.3681 38.1434 15.3441H39.1994C38.7834 16.9761 37.5834 17.8561 35.7594 17.8561ZM35.6794 10.6561C34.2234 10.6561 33.2634 11.6161 33.0714 13.1361H38.0954C38.0954 11.6481 37.1354 10.6561 35.6794 10.6561ZM50.314 17.8401C47.114 17.8401 44.938 15.4561 44.938 11.9361C44.938 8.41606 47.146 6.01606 50.378 6.01606C52.842 6.01606 54.778 7.50406 55.242 9.77606H54.01C53.53 8.12806 52.122 7.12006 50.33 7.12006C47.818 7.12006 46.138 9.04006 46.138 11.9361C46.138 14.8161 47.818 16.7361 50.33 16.7361C52.138 16.7361 53.578 15.7601 54.074 14.2241H55.306C54.778 16.3841 52.778 17.8401 50.314 17.8401ZM59.126 17.8561C57.478 17.8561 56.502 16.9281 56.502 15.5681C56.502 14.1441 57.59 13.2481 59.398 13.1041L61.958 12.8961V12.6401C61.958 11.1201 61.046 10.6401 59.91 10.6401C58.566 10.6401 57.766 11.2481 57.766 12.2881H56.758C56.758 10.7201 58.038 9.71206 59.942 9.71206C61.734 9.71206 63.046 10.6081 63.046 12.6561V17.6641H62.118L61.974 16.3041C61.494 17.2801 60.438 17.8561 59.126 17.8561ZM59.382 16.9601C61.014 16.9601 61.958 15.8241 61.958 14.1441V13.7281L59.67 13.9041C58.214 14.0321 57.622 14.6721 57.622 15.5361C57.622 16.4801 58.326 16.9601 59.382 16.9601ZM66.8968 17.6641H65.8088V10.8481H64.2568V9.92006H65.8088V7.47206H66.8968V9.92006H68.4488V10.8481H66.8968V17.6641ZM73.0563 17.8561C70.7843 17.8561 69.2643 16.2241 69.2643 13.7921C69.2643 11.3761 70.7682 9.71206 72.9763 9.71206C75.0723 9.71206 76.4963 11.2001 76.4963 13.3921V13.9361H70.3363C70.4163 15.8241 71.4083 16.9121 73.0723 16.9121C74.3363 16.9121 75.1523 16.3681 75.4403 15.3441H76.4963C76.0803 16.9761 74.8803 17.8561 73.0563 17.8561ZM72.9763 10.6561C71.5203 10.6561 70.5603 11.6161 70.3683 13.1361H75.3923C75.3923 11.6481 74.4323 10.6561 72.9763 10.6561ZM77.7334 13.5681C77.7334 11.4561 79.0934 9.71206 81.3654 9.71206C82.7094 9.71206 83.7334 10.3361 84.2294 11.4721L84.3414 9.92006H85.3014V17.4241C85.3014 19.7281 83.8294 21.2321 81.5574 21.2321C79.5734 21.2321 78.1814 20.1121 77.8774 18.2401H78.9814C79.2214 19.4881 80.1814 20.2241 81.5734 20.2241C83.1574 20.2241 84.2134 19.1521 84.2134 17.5361V15.6961C83.6854 16.7841 82.6134 17.4241 81.2854 17.4241C79.0774 17.4241 77.7334 15.6801 77.7334 13.5681ZM78.8374 13.5521C78.8374 15.1361 79.8134 16.4321 81.4454 16.4321C83.1254 16.4321 84.1174 15.2161 84.1174 13.5521C84.1174 11.9041 83.1574 10.6881 81.4614 10.6881C79.7974 10.6881 78.8374 11.9841 78.8374 13.5521ZM87.0611 13.7921C87.0611 11.4241 88.7251 9.71206 90.9971 9.71206C93.2691 9.71206 94.9331 11.4241 94.9331 13.7921C94.9331 16.1441 93.2691 17.8561 90.9971 17.8561C88.7251 17.8561 87.0611 16.1441 87.0611 13.7921ZM88.1811 13.7761C88.1811 15.6001 89.3331 16.8641 90.9971 16.8641C92.6451 16.8641 93.8131 15.6001 93.8131 13.7761C93.8131 11.9841 92.6451 10.7041 90.9971 10.7041C89.3331 10.7041 88.1811 11.9841 88.1811 13.7761ZM100.747 9.82406V10.8161H100.139C98.7149 10.8161 97.8029 11.7761 97.8029 13.2481V17.6641H96.6989V9.92006H97.7389L97.8189 11.1201C98.1229 10.2881 98.9389 9.74406 100.027 9.74406C100.267 9.74406 100.475 9.76006 100.747 9.82406ZM101.665 21.0401V20.1281H102.513C103.185 20.1281 103.857 20.0801 104.241 19.0401L104.577 18.1281L101.441 9.92006H102.609L105.105 16.6721L107.553 9.92006H108.689L105.137 19.4401C104.689 20.6561 103.937 21.1521 102.833 21.1521C102.369 21.1521 102.017 21.1201 101.665 21.0401Z" fill="white"/>
</g>
<g filter="url(#filter1_dd_368_3488)">
<path d="M34.704 200.184C34.704 198.264 36.24 197 38.544 197C40.608 197 41.968 198.152 42.144 200.072H40.976C40.848 198.776 39.968 198.04 38.528 198.04C36.912 198.04 35.856 198.872 35.856 200.168C35.856 201.176 36.448 201.816 37.648 202.12L39.616 202.6C41.408 203.032 42.336 204.056 42.336 205.608C42.336 207.592 40.8 208.856 38.432 208.856C36.208 208.856 34.704 207.688 34.56 205.816H35.744C35.808 207.016 36.864 207.8 38.432 207.8C40.112 207.8 41.184 206.984 41.184 205.672C41.184 204.648 40.608 203.976 39.376 203.688L37.44 203.208C35.648 202.776 34.704 201.752 34.704 200.184ZM47.4156 208.856C45.1436 208.856 43.6236 207.224 43.6236 204.792C43.6236 202.376 45.1276 200.712 47.3356 200.712C49.4316 200.712 50.8556 202.2 50.8556 204.392V204.936H44.6956C44.7756 206.824 45.7676 207.912 47.4316 207.912C48.6956 207.912 49.5116 207.368 49.7996 206.344H50.8556C50.4396 207.976 49.2396 208.856 47.4156 208.856ZM47.3356 201.656C45.8796 201.656 44.9196 202.616 44.7276 204.136H49.7516C49.7516 202.648 48.7916 201.656 47.3356 201.656ZM53.7248 208.664H52.6208V200.92H53.5807L53.7088 202.024C54.0928 201.208 54.9568 200.712 56.0448 200.712C57.2608 200.712 58.1728 201.352 58.5408 202.36C58.8928 201.352 59.8368 200.712 61.0848 200.712C62.7648 200.712 63.8688 201.8 63.8688 203.592V208.664H62.7968V203.816C62.7968 202.488 62.0608 201.704 60.8767 201.704C59.5808 201.704 58.8128 202.68 58.8128 203.88V208.664H57.7248V203.8C57.7248 202.488 56.9728 201.72 55.8048 201.72C54.5088 201.72 53.7248 202.68 53.7248 203.864V208.664ZM68.3135 208.856C66.6655 208.856 65.6895 207.928 65.6895 206.568C65.6895 205.144 66.7775 204.248 68.5855 204.104L71.1455 203.896V203.64C71.1455 202.12 70.2335 201.64 69.0975 201.64C67.7535 201.64 66.9535 202.248 66.9535 203.288H65.9455C65.9455 201.72 67.2255 200.712 69.1295 200.712C70.9215 200.712 72.2335 201.608 72.2335 203.656V208.664H71.3055L71.1615 207.304C70.6815 208.28 69.6255 208.856 68.3135 208.856ZM68.5695 207.96C70.2015 207.96 71.1455 206.824 71.1455 205.144V204.728L68.8575 204.904C67.4015 205.032 66.8095 205.672 66.8095 206.536C66.8095 207.48 67.5135 207.96 68.5695 207.96ZM75.5529 208.664H74.4489V200.92H75.4089L75.5689 202.264C76.0809 201.272 77.1049 200.712 78.2249 200.712C80.3529 200.712 81.2329 201.976 81.2329 203.928V208.664H80.1289V204.168C80.1289 202.36 79.3129 201.72 78.0329 201.72C76.4489 201.72 75.5529 202.872 75.5529 204.616V208.664ZM85.2093 208.664H84.1213V201.848H82.5693V200.92H84.1213V198.472H85.2093V200.92H86.7613V201.848H85.2093V208.664ZM88.7429 198.792C88.2949 198.792 87.9269 198.424 87.9269 197.976C87.9269 197.528 88.2949 197.144 88.7429 197.144C89.1909 197.144 89.5749 197.528 89.5749 197.976C89.5749 198.424 89.1909 198.792 88.7429 198.792ZM88.1989 208.664V200.92H89.3029V208.664H88.1989ZM91.0611 204.808C91.0611 202.376 92.5491 200.712 94.8051 200.712C96.5971 200.712 97.9091 201.752 98.2131 203.352H97.1091C96.8211 202.28 95.8931 201.688 94.8211 201.688C93.2531 201.688 92.1491 202.888 92.1491 204.792C92.1491 206.632 93.1731 207.864 94.7411 207.864C95.8931 207.864 96.8211 207.224 97.1251 206.232H98.2451C97.8771 207.816 96.5011 208.856 94.7411 208.856C92.5491 208.856 91.0611 207.24 91.0611 204.808ZM109.267 208.84C106.067 208.84 103.891 206.456 103.891 202.936C103.891 199.416 106.099 197.016 109.331 197.016C111.795 197.016 113.731 198.504 114.195 200.776H112.963C112.483 199.128 111.075 198.12 109.283 198.12C106.771 198.12 105.091 200.04 105.091 202.936C105.091 205.816 106.771 207.736 109.283 207.736C111.091 207.736 112.531 206.76 113.027 205.224H114.259C113.731 207.384 111.731 208.84 109.267 208.84ZM115.467 204.792C115.467 202.424 117.131 200.712 119.403 200.712C121.675 200.712 123.339 202.424 123.339 204.792C123.339 207.144 121.675 208.856 119.403 208.856C117.131 208.856 115.467 207.144 115.467 204.792ZM116.587 204.776C116.587 206.6 117.739 207.864 119.403 207.864C121.051 207.864 122.219 206.6 122.219 204.776C122.219 202.984 121.051 201.704 119.403 201.704C117.739 201.704 116.587 202.984 116.587 204.776ZM126.209 208.664H125.105V200.92H126.065L126.193 202.024C126.577 201.208 127.441 200.712 128.529 200.712C129.745 200.712 130.657 201.352 131.025 202.36C131.377 201.352 132.321 200.712 133.569 200.712C135.249 200.712 136.353 201.8 136.353 203.592V208.664H135.281V203.816C135.281 202.488 134.545 201.704 133.361 201.704C132.065 201.704 131.297 202.68 131.297 203.88V208.664H130.209V203.8C130.209 202.488 129.457 201.72 128.289 201.72C126.993 201.72 126.209 202.68 126.209 203.864V208.664ZM138.574 212.04V200.92H139.534L139.646 202.488C140.19 201.288 141.278 200.712 142.574 200.712C144.814 200.712 146.158 202.424 146.158 204.76C146.158 207.096 144.862 208.856 142.574 208.856C141.262 208.856 140.222 208.296 139.678 207.176V212.04H138.574ZM139.694 204.792C139.694 206.568 140.686 207.864 142.382 207.864C144.062 207.864 145.038 206.568 145.038 204.792C145.038 203 144.062 201.72 142.382 201.72C140.686 201.72 139.694 203 139.694 204.792ZM147.374 204.792C147.374 202.424 149.038 200.712 151.31 200.712C153.582 200.712 155.246 202.424 155.246 204.792C155.246 207.144 153.582 208.856 151.31 208.856C149.038 208.856 147.374 207.144 147.374 204.792ZM148.494 204.776C148.494 206.6 149.646 207.864 151.31 207.864C152.958 207.864 154.126 206.6 154.126 204.776C154.126 202.984 152.958 201.704 151.31 201.704C149.646 201.704 148.494 202.984 148.494 204.776ZM158.115 208.664H157.011V200.92H157.971L158.131 202.264C158.643 201.272 159.667 200.712 160.787 200.712C162.915 200.712 163.795 201.976 163.795 203.928V208.664H162.691V204.168C162.691 202.36 161.875 201.72 160.595 201.72C159.011 201.72 158.115 202.872 158.115 204.616V208.664ZM169.244 208.856C166.972 208.856 165.452 207.224 165.452 204.792C165.452 202.376 166.956 200.712 169.164 200.712C171.26 200.712 172.684 202.2 172.684 204.392V204.936H166.524C166.604 206.824 167.596 207.912 169.26 207.912C170.524 207.912 171.34 207.368 171.628 206.344H172.684C172.268 207.976 171.068 208.856 169.244 208.856ZM169.164 201.656C167.708 201.656 166.748 202.616 166.556 204.136H171.58C171.58 202.648 170.62 201.656 169.164 201.656ZM175.553 208.664H174.449V200.92H175.409L175.569 202.264C176.081 201.272 177.105 200.712 178.225 200.712C180.353 200.712 181.233 201.976 181.233 203.928V208.664H180.129V204.168C180.129 202.36 179.313 201.72 178.033 201.72C176.449 201.72 175.553 202.872 175.553 204.616V208.664ZM185.209 208.664H184.121V201.848H182.569V200.92H184.121V198.472H185.209V200.92H186.761V201.848H185.209V208.664ZM187.543 206.488H188.599C188.599 207.384 189.271 207.944 190.359 207.944C191.559 207.944 192.263 207.432 192.263 206.6C192.263 205.96 191.943 205.592 191.031 205.368L189.703 205.032C188.359 204.696 187.703 203.992 187.703 202.936C187.703 201.576 188.839 200.712 190.503 200.712C192.135 200.712 193.191 201.608 193.239 203.048H192.167C192.135 202.152 191.511 201.624 190.471 201.624C189.383 201.624 188.775 202.088 188.775 202.92C188.775 203.512 189.191 203.928 190.039 204.136L191.367 204.472C192.711 204.808 193.319 205.432 193.319 206.552C193.319 207.944 192.135 208.856 190.375 208.856C188.631 208.856 187.543 207.928 187.543 206.488Z" fill="white"/>
</g>
<g filter="url(#filter2_dd_368_3488)">
<path d="M232.704 9.18406C232.704 7.26406 234.24 6.00006 236.544 6.00006C238.608 6.00006 239.968 7.15206 240.144 9.07206H238.976C238.848 7.77606 237.968 7.04006 236.528 7.04006C234.912 7.04006 233.856 7.87206 233.856 9.16806C233.856 10.1761 234.448 10.8161 235.648 11.1201L237.616 11.6001C239.408 12.0321 240.336 13.0561 240.336 14.6081C240.336 16.5921 238.8 17.8561 236.432 17.8561C234.208 17.8561 232.704 16.6881 232.56 14.8161H233.744C233.808 16.0161 234.864 16.8001 236.432 16.8001C238.112 16.8001 239.184 15.9841 239.184 14.6721C239.184 13.6481 238.608 12.9761 237.376 12.6881L235.44 12.2081C233.648 11.7761 232.704 10.7521 232.704 9.18406ZM241.624 13.8081C241.624 11.3761 243.112 9.71206 245.368 9.71206C247.16 9.71206 248.472 10.7521 248.776 12.3521H247.672C247.384 11.2801 246.456 10.6881 245.384 10.6881C243.816 10.6881 242.712 11.8881 242.712 13.7921C242.712 15.6321 243.736 16.8641 245.304 16.8641C246.456 16.8641 247.384 16.2241 247.688 15.2321H248.808C248.44 16.8161 247.064 17.8561 245.304 17.8561C243.112 17.8561 241.624 16.2401 241.624 13.8081ZM252.704 17.8561C251.056 17.8561 250.08 16.9281 250.08 15.5681C250.08 14.1441 251.168 13.2481 252.976 13.1041L255.536 12.8961V12.6401C255.536 11.1201 254.624 10.6401 253.488 10.6401C252.144 10.6401 251.344 11.2481 251.344 12.2881H250.336C250.336 10.7201 251.616 9.71206 253.52 9.71206C255.312 9.71206 256.624 10.6081 256.624 12.6561V17.6641H255.696L255.552 16.3041C255.072 17.2801 254.016 17.8561 252.704 17.8561ZM252.96 16.9601C254.592 16.9601 255.536 15.8241 255.536 14.1441V13.7281L253.248 13.9041C251.792 14.0321 251.2 14.6721 251.2 15.5361C251.2 16.4801 251.904 16.9601 252.96 16.9601ZM259.992 17.6641H258.888V6.00006H259.992V17.6641ZM265.588 17.8561C263.316 17.8561 261.796 16.2241 261.796 13.7921C261.796 11.3761 263.299 9.71206 265.508 9.71206C267.604 9.71206 269.028 11.2001 269.028 13.3921V13.9361H262.868C262.948 15.8241 263.94 16.9121 265.604 16.9121C266.868 16.9121 267.684 16.3681 267.972 15.3441H269.028C268.612 16.9761 267.412 17.8561 265.588 17.8561ZM265.508 10.6561C264.052 10.6561 263.092 11.6161 262.9 13.1361H267.924C267.924 11.6481 266.964 10.6561 265.508 10.6561Z" fill="white"/>
</g>
<g filter="url(#filter3_dd_368_3488)">
<path d="M118.544 138.664L114.16 127.208H115.392L118.448 135.176C118.688 135.8 118.912 136.424 119.168 137.224C119.408 136.392 119.696 135.592 119.872 135.16L122.912 127.208H124.096L119.744 138.664H118.544ZM126.439 138.856C124.791 138.856 123.815 137.928 123.815 136.568C123.815 135.144 124.903 134.248 126.711 134.104L129.271 133.896V133.64C129.271 132.12 128.359 131.64 127.223 131.64C125.879 131.64 125.079 132.248 125.079 133.288H124.071C124.071 131.72 125.351 130.712 127.255 130.712C129.047 130.712 130.359 131.608 130.359 133.656V138.664H129.431L129.287 137.304C128.807 138.28 127.751 138.856 126.439 138.856ZM126.695 137.96C128.327 137.96 129.271 136.824 129.271 135.144V134.728L126.983 134.904C125.527 135.032 124.935 135.672 124.935 136.536C124.935 137.48 125.639 137.96 126.695 137.96ZM136.622 130.824V131.816H136.014C134.59 131.816 133.678 132.776 133.678 134.248V138.664H132.574V130.92H133.614L133.694 132.12C133.998 131.288 134.814 130.744 135.902 130.744C136.142 130.744 136.35 130.76 136.622 130.824ZM138.634 128.792C138.186 128.792 137.818 128.424 137.818 127.976C137.818 127.528 138.186 127.144 138.634 127.144C139.082 127.144 139.466 127.528 139.466 127.976C139.466 128.424 139.082 128.792 138.634 128.792ZM138.09 138.664V130.92H139.194V138.664H138.09ZM143.72 138.856C142.072 138.856 141.096 137.928 141.096 136.568C141.096 135.144 142.184 134.248 143.992 134.104L146.552 133.896V133.64C146.552 132.12 145.64 131.64 144.504 131.64C143.16 131.64 142.36 132.248 142.36 133.288H141.352C141.352 131.72 142.632 130.712 144.536 130.712C146.328 130.712 147.64 131.608 147.64 133.656V138.664H146.712L146.568 137.304C146.088 138.28 145.032 138.856 143.72 138.856ZM143.976 137.96C145.608 137.96 146.552 136.824 146.552 135.144V134.728L144.264 134.904C142.808 135.032 142.216 135.672 142.216 136.536C142.216 137.48 142.92 137.96 143.976 137.96ZM150.959 138.664H149.855V130.92H150.815L150.975 132.264C151.487 131.272 152.511 130.712 153.631 130.712C155.759 130.712 156.639 131.976 156.639 133.928V138.664H155.535V134.168C155.535 132.36 154.719 131.72 153.439 131.72C151.855 131.72 150.959 132.872 150.959 134.616V138.664ZM160.616 138.664H159.528V131.848H157.976V130.92H159.528V128.472H160.616V130.92H162.168V131.848H160.616V138.664Z" fill="white"/>
</g>
<g filter="url(#filter4_dd_368_3488)">
<path d="M190.704 130.184C190.704 128.264 192.24 127 194.544 127C196.608 127 197.968 128.152 198.144 130.072H196.976C196.848 128.776 195.968 128.04 194.528 128.04C192.912 128.04 191.856 128.872 191.856 130.168C191.856 131.176 192.448 131.816 193.648 132.12L195.616 132.6C197.408 133.032 198.336 134.056 198.336 135.608C198.336 137.592 196.8 138.856 194.432 138.856C192.208 138.856 190.704 137.688 190.56 135.816H191.744C191.808 137.016 192.864 137.8 194.432 137.8C196.112 137.8 197.184 136.984 197.184 135.672C197.184 134.648 196.608 133.976 195.376 133.688L193.44 133.208C191.648 132.776 190.704 131.752 190.704 130.184ZM201.272 138.648H200.168V127H201.272V132.264C201.768 131.336 202.712 130.712 204.008 130.712C206.04 130.712 206.952 131.976 206.952 133.928V138.664H205.848V134.168C205.848 132.36 205 131.72 203.8 131.72C202.136 131.72 201.272 132.952 201.272 134.44V138.648ZM211.376 138.856C209.728 138.856 208.752 137.928 208.752 136.568C208.752 135.144 209.84 134.248 211.648 134.104L214.208 133.896V133.64C214.208 132.12 213.296 131.64 212.16 131.64C210.816 131.64 210.016 132.248 210.016 133.288H209.008C209.008 131.72 210.288 130.712 212.192 130.712C213.984 130.712 215.296 131.608 215.296 133.656V138.664H214.368L214.224 137.304C213.744 138.28 212.688 138.856 211.376 138.856ZM211.632 137.96C213.264 137.96 214.208 136.824 214.208 135.144V134.728L211.92 134.904C210.464 135.032 209.872 135.672 209.872 136.536C209.872 137.48 210.576 137.96 211.632 137.96ZM220.551 138.856C218.295 138.856 216.967 137.128 216.967 134.808C216.967 132.472 218.295 130.712 220.599 130.712C221.879 130.712 222.903 131.272 223.447 132.392V127H224.551V138.664H223.591L223.479 137.08C222.935 138.28 221.847 138.856 220.551 138.856ZM220.743 137.848C222.439 137.848 223.431 136.568 223.431 134.776C223.431 133 222.439 131.704 220.743 131.704C219.063 131.704 218.087 133 218.087 134.776C218.087 136.568 219.063 137.848 220.743 137.848ZM230.103 138.856C227.831 138.856 226.311 137.224 226.311 134.792C226.311 132.376 227.815 130.712 230.023 130.712C232.119 130.712 233.543 132.2 233.543 134.392V134.936H227.383C227.463 136.824 228.455 137.912 230.119 137.912C231.383 137.912 232.199 137.368 232.487 136.344H233.543C233.127 137.976 231.927 138.856 230.103 138.856ZM230.023 131.656C228.567 131.656 227.607 132.616 227.415 134.136H232.439C232.439 132.648 231.479 131.656 230.023 131.656Z" fill="white"/>
</g>
<g filter="url(#filter5_dd_368_3488)">
<path d="M240.704 320.184C240.704 318.264 242.24 317 244.544 317C246.608 317 247.968 318.152 248.144 320.072H246.976C246.848 318.776 245.968 318.04 244.528 318.04C242.912 318.04 241.856 318.872 241.856 320.168C241.856 321.176 242.448 321.816 243.648 322.12L245.616 322.6C247.408 323.032 248.336 324.056 248.336 325.608C248.336 327.592 246.8 328.856 244.432 328.856C242.208 328.856 240.704 327.688 240.56 325.816H241.744C241.808 327.016 242.864 327.8 244.432 327.8C246.112 327.8 247.184 326.984 247.184 325.672C247.184 324.648 246.608 323.976 245.376 323.688L243.44 323.208C241.648 322.776 240.704 321.752 240.704 320.184ZM251.944 328.664H250.856V321.848H249.304V320.92H250.856V318.472H251.944V320.92H253.496V321.848H251.944V328.664ZM257.032 328.856C255.384 328.856 254.408 327.928 254.408 326.568C254.408 325.144 255.496 324.248 257.304 324.104L259.864 323.896V323.64C259.864 322.12 258.952 321.64 257.816 321.64C256.472 321.64 255.672 322.248 255.672 323.288H254.664C254.664 321.72 255.944 320.712 257.848 320.712C259.64 320.712 260.952 321.608 260.952 323.656V328.664H260.024L259.88 327.304C259.4 328.28 258.344 328.856 257.032 328.856ZM257.288 327.96C258.92 327.96 259.864 326.824 259.864 325.144V324.728L257.576 324.904C256.12 325.032 255.528 325.672 255.528 326.536C255.528 327.48 256.232 327.96 257.288 327.96ZM264.803 328.664H263.715V321.848H262.163V320.92H263.715V318.472H264.803V320.92H266.355V321.848H264.803V328.664ZM270.963 328.856C268.691 328.856 267.171 327.224 267.171 324.792C267.171 322.376 268.674 320.712 270.883 320.712C272.979 320.712 274.403 322.2 274.403 324.392V324.936H268.243C268.323 326.824 269.315 327.912 270.979 327.912C272.243 327.912 273.059 327.368 273.347 326.344H274.403C273.987 327.976 272.787 328.856 270.963 328.856ZM270.883 321.656C269.427 321.656 268.467 322.616 268.275 324.136H273.299C273.299 322.648 272.339 321.656 270.883 321.656Z" fill="white"/>
</g>
<rect width="277" height="59" transform="translate(0 43.6641)" fill="#545454"/>
<path d="M21.216 77.9521C21.216 73.0881 24.192 69.7601 28.704 69.7601C32.288 69.7601 34.912 71.8401 35.52 75.0401H33.312C32.736 72.8961 30.88 71.7121 28.736 71.7121C25.6 71.7121 23.392 74.1121 23.392 77.9201C23.392 81.6001 25.44 84.0641 28.576 84.0641C30.88 84.0641 32.736 82.7841 33.344 80.8001H35.584C34.848 83.9681 32.096 86.0481 28.576 86.0481C24.192 86.0481 21.216 82.8161 21.216 77.9521ZM37.841 77.9201C37.841 73.1841 41.169 69.7601 45.713 69.7601C50.257 69.7601 53.585 73.1841 53.585 77.9201C53.585 82.6241 50.257 86.0481 45.713 86.0481C41.169 86.0481 37.841 82.6241 37.841 77.9201ZM40.081 77.8881C40.081 81.5361 42.385 84.0641 45.713 84.0641C49.009 84.0641 51.345 81.5361 51.345 77.8881C51.345 74.3041 49.009 71.7441 45.713 71.7441C42.385 71.7441 40.081 74.3041 40.081 77.8881ZM59.4205 85.6641H57.2125V62.3361H59.4205V85.6641ZM63.0285 77.9201C63.0285 73.1841 66.3565 69.7601 70.9005 69.7601C75.4445 69.7601 78.7725 73.1841 78.7725 77.9201C78.7725 82.6241 75.4445 86.0481 70.9005 86.0481C66.3565 86.0481 63.0285 82.6241 63.0285 77.9201ZM65.2685 77.8881C65.2685 81.5361 67.5725 84.0641 70.9005 84.0641C74.1965 84.0641 76.5325 81.5361 76.5325 77.8881C76.5325 74.3041 74.1965 71.7441 70.9005 71.7441C67.5725 71.7441 65.2685 74.3041 65.2685 77.8881ZM90.4 69.9841V71.9681H89.184C86.336 71.9681 84.512 73.8881 84.512 76.8321V85.6641H82.304V70.1761H84.384L84.544 72.5761C85.152 70.9121 86.784 69.8241 88.96 69.8241C89.44 69.8241 89.856 69.8561 90.4 69.9841ZM92.8483 86.0161C91.7603 86.0161 90.8323 85.1201 90.8323 84.0641C90.8323 82.9761 91.7603 82.0481 92.8483 82.0481C93.9363 82.0481 94.8643 82.9761 94.8643 84.0641C94.8643 85.1201 93.9363 86.0161 92.8483 86.0161ZM100.423 65.9201C99.5273 65.9201 98.7913 65.1841 98.7913 64.2881C98.7913 63.3921 99.5273 62.6241 100.423 62.6241C101.319 62.6241 102.087 63.3921 102.087 64.2881C102.087 65.1841 101.319 65.9201 100.423 65.9201ZM99.3353 85.6641V70.1761H101.543V85.6641H99.3353ZM108.356 85.6641H106.148V70.1761H108.068L108.388 72.8641C109.412 70.8801 111.46 69.7601 113.7 69.7601C117.956 69.7601 119.716 72.2881 119.716 76.1921V85.6641H117.508V76.6721C117.508 73.0561 115.876 71.7761 113.316 71.7761C110.148 71.7761 108.356 74.0801 108.356 77.5681V85.6641ZM130.197 86.0481C125.685 86.0481 123.029 82.5921 123.029 77.9521C123.029 73.2801 125.685 69.7601 130.293 69.7601C132.853 69.7601 134.901 70.8801 135.989 73.1201V62.3361H138.197V85.6641H136.277L136.053 82.4961C134.965 84.8961 132.789 86.0481 130.197 86.0481ZM130.581 84.0321C133.973 84.0321 135.957 81.4721 135.957 77.8881C135.957 74.3361 133.973 71.7441 130.581 71.7441C127.221 71.7441 125.269 74.3361 125.269 77.8881C125.269 81.4721 127.221 84.0321 130.581 84.0321ZM143.892 65.9201C142.996 65.9201 142.26 65.1841 142.26 64.2881C142.26 63.3921 142.996 62.6241 143.892 62.6241C144.788 62.6241 145.556 63.3921 145.556 64.2881C145.556 65.1841 144.788 65.9201 143.892 65.9201ZM142.804 85.6641V70.1761H145.012V85.6641H142.804ZM148.561 77.4721C148.561 73.2481 151.281 69.7601 155.825 69.7601C158.513 69.7601 160.561 71.0081 161.553 73.2801L161.777 70.1761H163.697V85.1841C163.697 89.7921 160.753 92.8001 156.209 92.8001C152.241 92.8001 149.457 90.5601 148.849 86.8161H151.057C151.536 89.3121 153.457 90.7841 156.241 90.7841C159.409 90.7841 161.521 88.6401 161.521 85.4081V81.7281C160.465 83.9041 158.321 85.1841 155.665 85.1841C151.249 85.1841 148.561 81.6961 148.561 77.4721ZM150.769 77.4401C150.769 80.6081 152.721 83.2001 155.985 83.2001C159.345 83.2001 161.329 80.7681 161.329 77.4401C161.329 74.1441 159.409 71.7121 156.017 71.7121C152.689 71.7121 150.769 74.3041 150.769 77.4401ZM167.216 77.9201C167.216 73.1841 170.544 69.7601 175.088 69.7601C179.632 69.7601 182.96 73.1841 182.96 77.9201C182.96 82.6241 179.632 86.0481 175.088 86.0481C170.544 86.0481 167.216 82.6241 167.216 77.9201ZM169.456 77.8881C169.456 81.5361 171.76 84.0641 175.088 84.0641C178.384 84.0641 180.72 81.5361 180.72 77.8881C180.72 74.3041 178.384 71.7441 175.088 71.7441C171.76 71.7441 169.456 74.3041 169.456 77.8881ZM187.411 86.0161C186.323 86.0161 185.395 85.1201 185.395 84.0641C185.395 82.9761 186.323 82.0481 187.411 82.0481C188.499 82.0481 189.427 82.9761 189.427 84.0641C189.427 85.1201 188.499 86.0161 187.411 86.0161ZM196.481 85.6641H194.305V72.0321H191.201V70.1761H194.305V65.2801H196.481V70.1761H199.585V72.0321H196.481V85.6641ZM203.548 65.9201C202.652 65.9201 201.916 65.1841 201.916 64.2881C201.916 63.3921 202.652 62.6241 203.548 62.6241C204.444 62.6241 205.212 63.3921 205.212 64.2881C205.212 65.1841 204.444 65.9201 203.548 65.9201ZM202.46 85.6641V70.1761H204.668V85.6641H202.46ZM211.481 85.6641H209.273V70.1761H211.193L211.513 72.8641C212.537 70.8801 214.585 69.7601 216.825 69.7601C221.081 69.7601 222.841 72.2881 222.841 76.1921V85.6641H220.633V76.6721C220.633 73.0561 219.001 71.7761 216.441 71.7761C213.273 71.7761 211.481 74.0801 211.481 77.5681V85.6641ZM230.794 85.6641H228.618V72.0321H225.514V70.1761H228.618V65.2801H230.794V70.1761H233.898V72.0321H230.794V85.6641ZM235.892 78.2401V76.2561H245.172V78.2401H235.892ZM251.23 64.8321H246.558V62.7521H253.438V85.6641H251.23V64.8321Z" fill="white"/>
<rect width="329" height="59" transform="translate(0 234.664)" fill="#545454"/>
<path d="M24.224 276.664H22.304V253.336H24.512V264.184C25.6 261.912 27.712 260.76 30.336 260.76C34.848 260.76 37.472 264.28 37.472 268.952C37.472 273.592 34.784 277.048 30.272 277.048C27.68 277.048 25.536 275.896 24.448 273.496L24.224 276.664ZM24.544 268.888C24.544 272.472 26.528 275.032 29.92 275.032C33.28 275.032 35.232 272.472 35.232 268.888C35.232 265.336 33.28 262.744 29.92 262.744C26.528 262.744 24.544 265.336 24.544 268.888ZM51.4965 261.176H53.7045V276.664H51.7845L51.4965 274.04C50.6325 275.832 48.4885 277.048 46.0565 277.048C42.4085 277.048 40.4245 274.552 40.4245 270.776V261.144H42.6645V270.072C42.6645 273.752 44.2965 275.064 46.7605 275.064C49.7365 275.064 51.4965 273.08 51.4965 269.4V261.176ZM61.856 276.664H59.68V263.032H56.576V261.176H59.68V256.28H61.856V261.176H64.96V263.032H61.856V276.664ZM71.5123 276.664H69.3363V263.032H66.2323V261.176H69.3363V256.28H71.5123V261.176H74.6163V263.032H71.5123V276.664ZM76.2473 268.92C76.2473 264.184 79.5753 260.76 84.1193 260.76C88.6633 260.76 91.9913 264.184 91.9913 268.92C91.9913 273.624 88.6633 277.048 84.1193 277.048C79.5753 277.048 76.2473 273.624 76.2473 268.92ZM78.4873 268.888C78.4873 272.536 80.7913 275.064 84.1193 275.064C87.4153 275.064 89.7513 272.536 89.7513 268.888C89.7513 265.304 87.4153 262.744 84.1193 262.744C80.7913 262.744 78.4873 265.304 78.4873 268.888ZM97.7308 276.664H95.5228V261.176H97.4427L97.7628 263.864C98.7868 261.88 100.835 260.76 103.075 260.76C107.331 260.76 109.091 263.288 109.091 267.192V276.664H106.883V267.672C106.883 264.056 105.251 262.776 102.691 262.776C99.5228 262.776 97.7308 265.08 97.7308 268.568V276.664ZM113.236 269.24V267.256H122.516V269.24H113.236ZM125.779 268.952C125.779 264.088 128.755 260.76 133.267 260.76C136.851 260.76 139.475 262.84 140.083 266.04H137.875C137.299 263.896 135.443 262.712 133.299 262.712C130.163 262.712 127.955 265.112 127.955 268.92C127.955 272.6 130.003 275.064 133.139 275.064C135.443 275.064 137.299 273.784 137.907 271.8H140.147C139.411 274.968 136.659 277.048 133.139 277.048C128.755 277.048 125.779 273.816 125.779 268.952ZM142.404 268.92C142.404 264.184 145.732 260.76 150.276 260.76C154.82 260.76 158.148 264.184 158.148 268.92C158.148 273.624 154.82 277.048 150.276 277.048C145.732 277.048 142.404 273.624 142.404 268.92ZM144.644 268.888C144.644 272.536 146.948 275.064 150.276 275.064C153.572 275.064 155.908 272.536 155.908 268.888C155.908 265.304 153.572 262.744 150.276 262.744C146.948 262.744 144.644 265.304 144.644 268.888ZM163.983 276.664H161.775V253.336H163.983V276.664ZM167.591 268.92C167.591 264.184 170.919 260.76 175.463 260.76C180.007 260.76 183.335 264.184 183.335 268.92C183.335 273.624 180.007 277.048 175.463 277.048C170.919 277.048 167.591 273.624 167.591 268.92ZM169.831 268.888C169.831 272.536 172.135 275.064 175.463 275.064C178.759 275.064 181.095 272.536 181.095 268.888C181.095 265.304 178.759 262.744 175.463 262.744C172.135 262.744 169.831 265.304 169.831 268.888ZM194.963 260.984V262.968H193.747C190.899 262.968 189.075 264.888 189.075 267.832V276.664H186.867V261.176H188.947L189.107 263.576C189.715 261.912 191.347 260.824 193.523 260.824C194.003 260.824 194.419 260.856 194.963 260.984ZM197.411 277.016C196.323 277.016 195.395 276.12 195.395 275.064C195.395 273.976 196.323 273.048 197.411 273.048C198.499 273.048 199.427 273.976 199.427 275.064C199.427 276.12 198.499 277.016 197.411 277.016ZM203.898 283.416V261.176H205.818L206.042 264.312C207.13 261.912 209.306 260.76 211.898 260.76C216.378 260.76 219.066 264.184 219.066 268.856C219.066 273.528 216.474 277.048 211.898 277.048C209.274 277.048 207.194 275.928 206.106 273.688V283.416H203.898ZM206.138 268.92C206.138 272.472 208.122 275.064 211.514 275.064C214.874 275.064 216.826 272.472 216.826 268.92C216.826 265.336 214.874 262.776 211.514 262.776C208.122 262.776 206.138 265.336 206.138 268.92ZM230.681 260.984V262.968H229.465C226.617 262.968 224.793 264.888 224.793 267.832V276.664H222.585V261.176H224.665L224.825 263.576C225.433 261.912 227.065 260.824 229.241 260.824C229.721 260.824 230.137 260.856 230.681 260.984ZM234.705 256.92C233.809 256.92 233.073 256.184 233.073 255.288C233.073 254.392 233.809 253.624 234.705 253.624C235.601 253.624 236.369 254.392 236.369 255.288C236.369 256.184 235.601 256.92 234.705 256.92ZM233.617 276.664V261.176H235.825V276.664H233.617ZM242.637 276.664H240.429V261.176H242.349L242.605 263.384C243.373 261.752 245.101 260.76 247.277 260.76C249.709 260.76 251.533 262.04 252.269 264.056C252.973 262.04 254.861 260.76 257.357 260.76C260.717 260.76 262.925 262.936 262.925 266.52V276.664H260.781V266.968C260.781 264.312 259.309 262.744 256.941 262.744C254.349 262.744 252.813 264.696 252.813 267.096V276.664H250.637V266.936C250.637 264.312 249.133 262.776 246.797 262.776C244.205 262.776 242.637 264.696 242.637 267.064V276.664ZM271.815 277.048C268.519 277.048 266.567 275.192 266.567 272.472C266.567 269.624 268.743 267.832 272.359 267.544L277.479 267.128V266.616C277.479 263.576 275.655 262.616 273.383 262.616C270.695 262.616 269.095 263.832 269.095 265.912H267.079C267.079 262.776 269.639 260.76 273.447 260.76C277.031 260.76 279.655 262.552 279.655 266.648V276.664H277.799L277.511 273.944C276.551 275.896 274.439 277.048 271.815 277.048ZM272.327 275.256C275.591 275.256 277.479 272.984 277.479 269.624V268.792L272.903 269.144C269.991 269.4 268.807 270.68 268.807 272.408C268.807 274.296 270.215 275.256 272.327 275.256ZM292.181 260.984V262.968H290.965C288.117 262.968 286.293 264.888 286.293 267.832V276.664H284.085V261.176H286.165L286.325 263.576C286.933 261.912 288.565 260.824 290.741 260.824C291.221 260.824 291.637 260.856 292.181 260.984ZM294.017 283.416V281.592H295.713C297.057 281.592 298.401 281.496 299.169 279.416L299.841 277.592L293.569 261.176H295.905L300.897 274.68L305.793 261.176H308.065L300.961 280.216C300.065 282.648 298.561 283.64 296.353 283.64C295.425 283.64 294.721 283.576 294.017 283.416Z" fill="white"/>
<path d="M58 47.6641L58 27.6641" stroke="#BDBDBD" stroke-width="2" stroke-linecap="round"/>
<path d="M114 238.664L114 218.664" stroke="#BDBDBD" stroke-width="2" stroke-linecap="round"/>
<path d="M251 47.6641L251 27.6641" stroke="#BDBDBD" stroke-width="2" stroke-linecap="round"/>
<path d="M139 116.664L139 96.6641" stroke="#BDBDBD" stroke-width="2" stroke-linecap="round"/>
<path d="M213 116.664L213 96.6641" stroke="#BDBDBD" stroke-width="2" stroke-linecap="round"/>
<path d="M258 307.664L258 287.664" stroke="#BDBDBD" stroke-width="2" stroke-linecap="round"/>
<defs>
<filter id="filter0_dd_368_3488" x="1.39258" y="0.0161133" width="113.297" height="27.2158" filterUnits="userSpaceOnUse" color-interpolation-filters="sRGB">
<feFlood flood-opacity="0" result="BackgroundImageFix"/>
<feColorMatrix in="SourceAlpha" type="matrix" values="0 0 0 0 0 0 0 0 0 0 0 0 0 0 0 0 0 0 127 0" result="hardAlpha"/>
<feOffset dx="2" dy="2"/>
<feGaussianBlur stdDeviation="2"/>
<feComposite in2="hardAlpha" operator="out"/>
<feColorMatrix type="matrix" values="0 0 0 0 1 0 0 0 0 1 0 0 0 0 1 0 0 0 0.35 0"/>
<feBlend mode="normal" in2="BackgroundImageFix" result="effect1_dropShadow_368_3488"/>
<feColorMatrix in="SourceAlpha" type="matrix" values="0 0 0 0 0 0 0 0 0 0 0 0 0 0 0 0 0 0 127 0" result="hardAlpha"/>
<feOffset dx="-2" dy="-2"/>
<feGaussianBlur stdDeviation="2"/>
<feComposite in2="hardAlpha" operator="out"/>
<feColorMatrix type="matrix" values="0 0 0 0 1 0 0 0 0 1 0 0 0 0 1 0 0 0 0.35 0"/>
<feBlend mode="normal" in2="effect1_dropShadow_368_3488" result="effect2_dropShadow_368_3488"/>
<feBlend mode="normal" in="SourceGraphic" in2="effect2_dropShadow_368_3488" result="shape"/>
</filter>
<filter id="filter1_dd_368_3488" x="28.5605" y="191" width="170.758" height="27.04" filterUnits="userSpaceOnUse" color-interpolation-filters="sRGB">
<feFlood flood-opacity="0" result="BackgroundImageFix"/>
<feColorMatrix in="SourceAlpha" type="matrix" values="0 0 0 0 0 0 0 0 0 0 0 0 0 0 0 0 0 0 127 0" result="hardAlpha"/>
<feOffset dx="2" dy="2"/>
<feGaussianBlur stdDeviation="2"/>
<feComposite in2="hardAlpha" operator="out"/>
<feColorMatrix type="matrix" values="0 0 0 0 1 0 0 0 0 1 0 0 0 0 1 0 0 0 0.35 0"/>
<feBlend mode="normal" in2="BackgroundImageFix" result="effect1_dropShadow_368_3488"/>
<feColorMatrix in="SourceAlpha" type="matrix" values="0 0 0 0 0 0 0 0 0 0 0 0 0 0 0 0 0 0 127 0" result="hardAlpha"/>
<feOffset dx="-2" dy="-2"/>
<feGaussianBlur stdDeviation="2"/>
<feComposite in2="hardAlpha" operator="out"/>
<feColorMatrix type="matrix" values="0 0 0 0 1 0 0 0 0 1 0 0 0 0 1 0 0 0 0.35 0"/>
<feBlend mode="normal" in2="effect1_dropShadow_368_3488" result="effect2_dropShadow_368_3488"/>
<feBlend mode="normal" in="SourceGraphic" in2="effect2_dropShadow_368_3488" result="shape"/>
</filter>
<filter id="filter2_dd_368_3488" x="226.561" y="0" width="48.4668" height="23.856" filterUnits="userSpaceOnUse" color-interpolation-filters="sRGB">
<feFlood flood-opacity="0" result="BackgroundImageFix"/>
<feColorMatrix in="SourceAlpha" type="matrix" values="0 0 0 0 0 0 0 0 0 0 0 0 0 0 0 0 0 0 127 0" result="hardAlpha"/>
<feOffset dx="2" dy="2"/>
<feGaussianBlur stdDeviation="2"/>
<feComposite in2="hardAlpha" operator="out"/>
<feColorMatrix type="matrix" values="0 0 0 0 1 0 0 0 0 1 0 0 0 0 1 0 0 0 0.35 0"/>
<feBlend mode="normal" in2="BackgroundImageFix" result="effect1_dropShadow_368_3488"/>
<feColorMatrix in="SourceAlpha" type="matrix" values="0 0 0 0 0 0 0 0 0 0 0 0 0 0 0 0 0 0 127 0" result="hardAlpha"/>
<feOffset dx="-2" dy="-2"/>
<feGaussianBlur stdDeviation="2"/>
<feComposite in2="hardAlpha" operator="out"/>
<feColorMatrix type="matrix" values="0 0 0 0 1 0 0 0 0 1 0 0 0 0 1 0 0 0 0.35 0"/>
<feBlend mode="normal" in2="effect1_dropShadow_368_3488" result="effect2_dropShadow_368_3488"/>
<feBlend mode="normal" in="SourceGraphic" in2="effect2_dropShadow_368_3488" result="shape"/>
</filter>
<filter id="filter3_dd_368_3488" x="108.16" y="121.144" width="60.0078" height="23.7119" filterUnits="userSpaceOnUse" color-interpolation-filters="sRGB">
<feFlood flood-opacity="0" result="BackgroundImageFix"/>
<feColorMatrix in="SourceAlpha" type="matrix" values="0 0 0 0 0 0 0 0 0 0 0 0 0 0 0 0 0 0 127 0" result="hardAlpha"/>
<feOffset dx="2" dy="2"/>
<feGaussianBlur stdDeviation="2"/>
<feComposite in2="hardAlpha" operator="out"/>
<feColorMatrix type="matrix" values="0 0 0 0 1 0 0 0 0 1 0 0 0 0 1 0 0 0 0.35 0"/>
<feBlend mode="normal" in2="BackgroundImageFix" result="effect1_dropShadow_368_3488"/>
<feColorMatrix in="SourceAlpha" type="matrix" values="0 0 0 0 0 0 0 0 0 0 0 0 0 0 0 0 0 0 127 0" result="hardAlpha"/>
<feOffset dx="-2" dy="-2"/>
<feGaussianBlur stdDeviation="2"/>
<feComposite in2="hardAlpha" operator="out"/>
<feColorMatrix type="matrix" values="0 0 0 0 1 0 0 0 0 1 0 0 0 0 1 0 0 0 0.35 0"/>
<feBlend mode="normal" in2="effect1_dropShadow_368_3488" result="effect2_dropShadow_368_3488"/>
<feBlend mode="normal" in="SourceGraphic" in2="effect2_dropShadow_368_3488" result="shape"/>
</filter>
<filter id="filter4_dd_368_3488" x="184.561" y="121" width="54.9824" height="23.856" filterUnits="userSpaceOnUse" color-interpolation-filters="sRGB">
<feFlood flood-opacity="0" result="BackgroundImageFix"/>
<feColorMatrix in="SourceAlpha" type="matrix" values="0 0 0 0 0 0 0 0 0 0 0 0 0 0 0 0 0 0 127 0" result="hardAlpha"/>
<feOffset dx="2" dy="2"/>
<feGaussianBlur stdDeviation="2"/>
<feComposite in2="hardAlpha" operator="out"/>
<feColorMatrix type="matrix" values="0 0 0 0 1 0 0 0 0 1 0 0 0 0 1 0 0 0 0.35 0"/>
<feBlend mode="normal" in2="BackgroundImageFix" result="effect1_dropShadow_368_3488"/>
<feColorMatrix in="SourceAlpha" type="matrix" values="0 0 0 0 0 0 0 0 0 0 0 0 0 0 0 0 0 0 127 0" result="hardAlpha"/>
<feOffset dx="-2" dy="-2"/>
<feGaussianBlur stdDeviation="2"/>
<feComposite in2="hardAlpha" operator="out"/>
<feColorMatrix type="matrix" values="0 0 0 0 1 0 0 0 0 1 0 0 0 0 1 0 0 0 0.35 0"/>
<feBlend mode="normal" in2="effect1_dropShadow_368_3488" result="effect2_dropShadow_368_3488"/>
<feBlend mode="normal" in="SourceGraphic" in2="effect2_dropShadow_368_3488" result="shape"/>
</filter>
<filter id="filter5_dd_368_3488" x="234.561" y="311" width="45.8418" height="23.856" filterUnits="userSpaceOnUse" color-interpolation-filters="sRGB">
<feFlood flood-opacity="0" result="BackgroundImageFix"/>
<feColorMatrix in="SourceAlpha" type="matrix" values="0 0 0 0 0 0 0 0 0 0 0 0 0 0 0 0 0 0 127 0" result="hardAlpha"/>
<feOffset dx="2" dy="2"/>
<feGaussianBlur stdDeviation="2"/>
<feComposite in2="hardAlpha" operator="out"/>
<feColorMatrix type="matrix" values="0 0 0 0 1 0 0 0 0 1 0 0 0 0 1 0 0 0 0.35 0"/>
<feBlend mode="normal" in2="BackgroundImageFix" result="effect1_dropShadow_368_3488"/>
<feColorMatrix in="SourceAlpha" type="matrix" values="0 0 0 0 0 0 0 0 0 0 0 0 0 0 0 0 0 0 127 0" result="hardAlpha"/>
<feOffset dx="-2" dy="-2"/>
<feGaussianBlur stdDeviation="2"/>
<feComposite in2="hardAlpha" operator="out"/>
<feColorMatrix type="matrix" values="0 0 0 0 1 0 0 0 0 1 0 0 0 0 1 0 0 0 0.35 0"/>
<feBlend mode="normal" in2="effect1_dropShadow_368_3488" result="effect2_dropShadow_368_3488"/>
<feBlend mode="normal" in="SourceGraphic" in2="effect2_dropShadow_368_3488" result="shape"/>
</filter>
</defs>
</svg>
